<?xml version="1.0" encoding="UTF-8"?>
<svg width="34px" height="53px" viewBox="0 0 34 53" version="1.1" xmlns="http://www.w3.org/2000/svg" xmlns:xlink="http://www.w3.org/1999/xlink">
    <!-- Generator: Sketch 50.2 (55047) - http://www.bohemiancoding.com/sketch -->
    <title>Amethyst</title>
    <desc>Created with Sketch.</desc>
    <defs></defs>
    <g id="iPhone" stroke="none" stroke-width="1" fill="none" fill-rule="evenodd">
        <g id="Amethyst" transform="translate(2.000000, 2.000000)" fill-rule="nonzero">
            <g id="Group">
                <g id="cdG5HbbdB-link" fill="#EE48E4">
                    <polygon id="cdG5HbbdB" points="0.21686747 8.06746988 0.21686747 41.1686747 5.35301205 48.9686747 24.7554217 48.9686747 29.8915663 41.1686747 29.8915663 8.06746988 23.9963855 0.26746988 5.35301205 0.26746988"></polygon>
                </g>
                <g id="cdG5HbbdB-link" fill="#000000" fill-opacity="0" stroke="#B025A8" stroke-width="4">
                    <polygon id="cdG5HbbdB" points="0.21686747 8.06746988 0.21686747 41.1686747 5.35301205 48.9686747 24.7554217 48.9686747 29.8915663 41.1686747 29.8915663 8.06746988 23.9963855 0.26746988 5.35301205 0.26746988"></polygon>
                </g>
            </g>
            <g id="a2pKoLyrs-link" transform="translate(9.397590, 9.759036)" fill="#000000" fill-opacity="0" stroke="#B025A8" stroke-width="4">
                <polyline id="a2pKoLyrs" points="0.195180723 0.0795180723 4.00120482 0.0795180723 7.80722892 0.0795180723 11.9927711 0.579518072"></polyline>
            </g>
            <g id="b8aCyiDb6-link" transform="translate(22.409639, 13.373494)" fill="#000000" fill-opacity="0" stroke="#B025A8" stroke-width="4">
                <polyline id="b8aCyiDb6" points="0.0722891566 0.126506024 0.0722891566 4.31204819 0.0722891566 8.11807229 1.5939759 11.5409639 1.5939759 16.4891566 1.21084337 21.0542169"></polyline>
            </g>
            <g id="a1PeQ5B0Hg-link" transform="translate(6.144578, 14.096386)" fill="#000000" fill-opacity="0" stroke="#B025A8" stroke-width="4">
                <polyline id="a1PeQ5B0Hg" points="0.892771084 0.24939759 0.130120482 4.05542169 0.130120482 7.85783133 0.513253012 12.426506 0.513253012 16.2289157 0.892771084 20.0349398"></polyline>
            </g>
            <g id="c5vK7uvnst-link" transform="translate(10.843373, 39.036145)" fill="#000000" fill-opacity="0" stroke="#B025A8" stroke-width="4">
                <polyline id="c5vK7uvnst" points="0.0795180723 0.76746988 4.64819277 0.26746988 9.21686747 0.26746988"></polyline>
            </g>
        </g>
    </g>
</svg>