<?xml version="1.0" encoding="UTF-8"?>
<svg width="40px" height="42px" viewBox="0 0 40 42" version="1.1" xmlns="http://www.w3.org/2000/svg" xmlns:xlink="http://www.w3.org/1999/xlink">
    <!-- Generator: Sketch 50.2 (55047) - http://www.bohemiancoding.com/sketch -->
    <title>Apple</title>
    <desc>Created with Sketch.</desc>
    <defs></defs>
    <g id="iPhone" stroke="none" stroke-width="1" fill="none" fill-rule="evenodd">
        <g id="Apple" fill-rule="nonzero">
            <path d="M23.577431,40.8766737 C23.3853541,40.6849894 20.0240096,40.5891473 16.0384154,40.6849894 C7.25090036,40.8287526 6.242497,40.5412262 3.69747899,37.2346723 C0.0480192077,32.3946441 0,32.2508809 0,23.7209302 C0,14.6638478 0.528211285,13.0345314 4.12965186,11.0218464 C6.00240096,9.9675828 6.91476591,9.82381959 12.3889556,9.68005638 C19.4957983,9.44045102 19.6878752,9.29668781 16.2785114,5.94221283 C15.030012,4.79210712 14.1656663,3.68992248 14.3097239,3.4982382 C14.8379352,2.97110641 16.9507803,3.83368569 18.3913565,5.17547569 L19.879952,6.56518675 L20.9363745,4.55250176 C22.1848739,2.1564482 24.5858343,0.431289641 26.8907563,0.143763214 L28.5714286,0 L28.5714286,2.01268499 C28.5714286,3.1627907 28.3793517,4.79210712 28.1392557,5.6546864 L27.6590636,7.18816068 L31.3565426,7.18816068 C34.5258103,7.18816068 35.3421369,7.37984496 36.8787515,8.38618746 C40,10.5426357 40.240096,11.5489782 39.8559424,20.222692 C39.5198079,27.7942213 39.5198079,27.7942213 37.8391357,30.5257223 C36.8787515,32.0591966 35.3901561,34.5031712 34.5258103,36.0366455 C32.0288115,40.2057787 30.5402161,41.2121212 26.9387755,41.2121212 C25.2581032,41.2121212 23.7695078,41.068358 23.577431,40.8766737 Z" id="Shape" fill="#000000"></path>
            <path d="M21.8462938,10.5940938 C21.8462938,9.73248408 23.8124767,5.1850994 24.5797677,4.27562247 C24.9154574,3.89268481 25.2031915,3.31827832 25.2031915,3.07894229 C25.2031915,2.36093418 23.5726983,4.94576337 22.4697176,7.43485814 C21.4626483,9.73248408 21.4146926,9.78035128 20.9830915,8.63153831 C20.1678449,6.57324841 23.2370086,2.31306698 26.0663938,1.49932445 C27.5050643,1.06851959 27.6009757,1.1163868 27.6009757,2.21733256 C27.6009757,4.17988805 26.5939063,7.67419417 26.0184381,7.67419417 C25.730704,7.67419417 24.675679,8.48793669 23.6686097,9.44528083 C22.6615404,10.402625 21.8462938,10.9291643 21.8462938,10.5940938 Z" id="Shape" fill="#00C726"></path>
            <path d="M24.531812,38.4540487 C24.3399893,38.2155986 20.5035347,38.0725286 15.9957005,38.0725286 L7.84323453,38.0725286 L6.16478565,36.164928 C2.7599322,32.2543467 2.42424242,31.2051664 2.42424242,23.7655241 C2.42424242,16.1828117 2.80788788,14.8951813 5.54136178,13.3214108 C6.88412088,12.5106806 8.27483567,12.2722305 12.5908471,12.1291605 L18.0098392,11.9860904 L19.400554,13.4644809 C20.1678449,14.2752111 20.9830915,14.9428713 21.2228699,14.9428713 C21.4626483,14.9428713 22.5176733,14.1798311 23.5726983,13.2260308 C27.2652859,9.84003974 27.5050643,9.6969697 30.8140064,9.6969697 C34.3147712,9.6969697 36.2809542,10.55539 37.1921121,12.5106806 C37.5757576,13.3214108 37.6237133,15.6582216 37.4318905,20.188773 L37.0962008,26.626925 L33.739303,32.2543467 C31.9169871,35.3065077 29.9987598,38.0725286 29.5192029,38.3109786 C28.4641779,38.8832588 25.0593245,38.9309488 24.531812,38.4540487 Z" id="Shape" fill="#FF0019"></path>
        </g>
    </g>
</svg>