<?xml version="1.0" encoding="UTF-8"?>
<svg width="40px" height="46px" viewBox="0 0 40 46" version="1.1" xmlns="http://www.w3.org/2000/svg" xmlns:xlink="http://www.w3.org/1999/xlink">
    <!-- Generator: Sketch 50.2 (55047) - http://www.bohemiancoding.com/sketch -->
    <title>Banana</title>
    <desc>Created with Sketch.</desc>
    <defs></defs>
    <g id="iPhone" stroke="none" stroke-width="1" fill="none" fill-rule="evenodd">
        <g id="Banana" fill-rule="nonzero">
            <path d="M27.1939049,0.0965949518 C25.1565368,0.750837169 26.6863341,3.41618031 27.4374052,4.4646807 C31.4203204,10.02469 30.9818266,19.1674539 27.0438758,24.8227891 C23.3182683,30.1731691 17.7382501,34.6243196 11.4334067,36.7166734 C8.99723596,37.5251525 6.30238883,37.4460989 3.78502443,37.8540584 C2.72040181,38.0265679 1.22503439,38.0938848 0.468673782,38.9720678 C-1.5292447,41.2919544 3.40942848,43.671519 4.99266374,44.311666 C8.9911575,45.9285446 13.2358487,45.5111958 17.4716033,45.5111958 C19.69056,45.5111958 22.1593371,45.8028227 24.3148927,45.197289 C26.4782578,44.589766 28.2038536,43.2175676 29.9505429,41.8827675 C31.7791906,40.4855044 33.8032746,38.9718689 35.1879941,37.1206544 C40.0617043,30.6048009 40.76133,21.0972844 39.3640913,13.2850238 C38.9241483,10.8250131 38.2160289,8.42153741 36.3167343,6.65228078 C34.9805216,5.40755483 33.324043,4.749385 32.0959141,3.36445929 C31.0042082,2.13338371 29.1767278,-0.540134927 27.1939049,0.0965949518 Z" id="Shape" fill="#000000"></path>
            <path d="M32.054404,6.51162791 C33.9035274,16.3528076 31.6402496,25.5612617 23.9428947,32.3868669 C21.5672949,34.4934458 18.2843357,36.1460669 15.4590836,37.6010837 C13.3353279,38.6948058 11.3405704,39.2145918 8.98286107,39.5355737 C6.91265558,39.8176027 5.21778765,39.7049031 3.72093023,41.3053335 C8.31180299,43.8868665 12.7729084,43.7048994 17.8876671,43.7048994 C20.5248659,43.7048994 23.129724,43.9200605 25.5781814,42.7738679 C31.1458304,40.1679393 34.9911281,35.2364714 37.2316987,29.7074317 C38.2629562,27.162612 38.1258627,24.3928331 38.1258627,21.7088786 C38.1258627,16.057541 38.7212299,8.59821043 32.054404,6.51162791 Z" id="Shape" fill="#E4FF1C"></path>
            <path d="M34.5219638,14.8837209 L33.9474109,19.7674419 L31.627907,27.9069767 C33.1241344,26.978907 33.182801,25.4327616 33.6590388,23.8372093 C34.5639276,20.8053953 35.0945323,18.0554942 35.3488372,14.8837209 L34.5219638,14.8837209 Z" id="Shape" fill="#000000"></path>
            <path d="M13.9534884,42.7906977 C18.7995887,42.025907 26.648754,39.433614 28.8372093,34.4186047 C27.0107809,35.2625116 25.8943452,37.004493 24.1355594,37.9528419 C22.0775716,39.0625209 19.661552,39.8973442 17.4785802,40.6963767 C16.1029327,41.2 14.7942228,41.4779535 13.9534884,42.7906977 Z" id="Shape" fill="#000000"></path>
        </g>
    </g>
</svg>