<?xml version="1.0" encoding="UTF-8"?>
<svg width="101px" height="83px" viewBox="0 0 101 83" version="1.1" xmlns="http://www.w3.org/2000/svg" xmlns:xlink="http://www.w3.org/1999/xlink">
    <!-- Generator: Sketch 50.2 (55047) - http://www.bohemiancoding.com/sketch -->
    <title>BlueBasket</title>
    <desc>Created with Sketch.</desc>
    <defs>
        <rect id="path-1" x="0.441860465" y="0.315" width="99.3604651" height="19.8555"></rect>
        <path d="M98.877907,10.248 C98.877907,14.7945 77.0290698,18.4905 50.122093,18.4905 C23.2151163,18.4905 1.37209302,14.7945 1.37209302,10.248 C1.37209302,5.691 23.2151163,1.995 50.122093,1.995 C77.0290698,1.995 98.877907,5.691 98.877907,10.248 Z" id="path-3"></path>
    </defs>
    <g id="iPhone" stroke="none" stroke-width="1" fill="none" fill-rule="evenodd">
        <g id="BlueBasket">
            <g id="e2QqKnhmBU-link" transform="translate(1.000000, 9.000000)" fill="#000000" fill-opacity="0" fill-rule="nonzero" stroke="#000000">
                <polyline id="e2QqKnhmBU" points="12.7990909 66.0413846 0 24.656 0 0.525692308"></polyline>
            </g>
            <g id="egW5LeAN1-link" transform="translate(86.000000, 9.000000)" fill="#000000" fill-opacity="0" fill-rule="nonzero" stroke="#000000">
                <polyline id="egW5LeAN1" points="0.23173913 66.0413846 12.4743478 24.656 12.4743478 0.525692308"></polyline>
            </g>
            <g id="a3vVdFU4T-link" transform="translate(13.000000, 71.000000)" fill="#111C1B" fill-rule="nonzero">
                <path d="M72.6581746,5.07 C72.6581746,7.4 56.4649206,9.29 36.517381,9.29 C16.5756349,9.29 0.382380952,7.4 0.382380952,5.07 C0.382380952,2.74 16.5756349,0.85 36.517381,0.85 C56.4649206,0.85 72.6581746,2.74 72.6581746,5.07 Z" id="a3vVdFU4T"></path>
            </g>
            <g id="eACsqnzQl-link" transform="translate(1.000000, 9.000000)" fill="#111C1B" fill-rule="nonzero">
                <polygon id="eACsqnzQl" points="0 0.546428571 0.73 0.546428571 0.73 14.9678571 0 14.9678571"></polygon>
            </g>
            <g id="Group" transform="translate(1.000000, 0.000000)" fill-rule="nonzero">
                <g id="k1rcFegOel-link" fill="#5089C5">
                    <path d="M99,10.521 C99,15.8445 76.8764118,20.16 49.6222941,20.16 C22.374,20.16 0.250411765,15.8445 0.250411765,10.521 C0.250411765,5.1975 22.374,0.882 49.6222941,0.882 C76.8764118,0.882 99,5.1975 99,10.521 Z" id="k1rcFegOel"></path>
                </g>
                <g id="k1rcFegOel-link" fill="#000000" fill-opacity="0" stroke="#266DB9">
                    <path d="M99,10.521 C99,15.8445 76.8764118,20.16 49.6222941,20.16 C22.374,20.16 0.250411765,15.8445 0.250411765,10.521 C0.250411765,5.1975 22.374,0.882 49.6222941,0.882 C76.8764118,0.882 99,5.1975 99,10.521 Z" id="k1rcFegOel"></path>
                </g>
            </g>
            <g id="Group" transform="translate(1.000000, 10.000000)" fill-rule="nonzero">
                <g id="c5nMNRnJ00-link" fill="#266DB9">
                    <path d="M0.559058824,1.41913043 L1.60729412,2.42086957 L2.82441176,3.16173913 L4.33270588,3.88173913 L6.04482353,4.60173913 L8.09470588,5.26956522 L11.6121176,6.19826087 L15.1761176,6.91826087 L18.5479412,7.46086957 L21.3374118,7.84695652 L23.6027647,8.12869565 L25.3148824,8.35826087 L27.8248235,8.69217391 L30.9578824,8.90086957 L33.5551765,9.10956522 L35.2207059,9.1826087 L39.4252941,9.37043478 L44.4684706,9.51652174 L48.2304706,9.61043478 L52.0507059,9.61043478 L57.2918824,9.51652174 L61.3392353,9.37043478 L66.1669412,9.10956522 L69.6261176,8.69217391 L74.4072353,8.25391304 L76.7774118,7.84695652 L79.7182941,7.33565217 L81.9021176,7.07478261 L84.6741176,6.45913043 L86.3687647,6.09391304 L88.209,5.61391304 L89.8454118,5.14434783 L91.278,4.70608696 L93.7937647,3.7773913 L96.8103529,2.13913043 L98.7670588,0.28173913 L98.7670588,24.8556522 L86.1532941,66.6052174 L85.5068824,68.1078261 L83.5152353,68.8173913 L81.4071176,69.5373913 L78.9961765,69.9130435 L75.8281765,70.56 L69.0495882,71.2382609 L60.4540588,71.613913 L57.3559412,71.7495652 L53.3144118,71.8434783 L46.0815882,71.8434783 L38.0684118,71.613913 L32.2448824,71.2382609 L28.1625882,70.9252174 L24.8024118,70.56 C21.8149412,70.1947826 20.1435882,69.9756522 19.7883529,69.9130435 C19.4331176,69.84 18.9555882,69.746087 18.3499412,69.6417391 L17.1502941,69.2973913 L16.0321765,68.7130435 L14.1686471,68.2747826 L13.5280588,67.9408696 L12.2701765,66.9078261 L0.267882353,23.426087 L0.267882353,0.0208695652 L0.559058824,1.41913043 Z" id="c5nMNRnJ00"></path>
                </g>
                <g id="c5nMNRnJ00-link" fill="#000000" fill-opacity="0" stroke="#266DB9">
                    <path d="M0.559058824,1.41913043 L1.60729412,2.42086957 L2.82441176,3.16173913 L4.33270588,3.88173913 L6.04482353,4.60173913 L8.09470588,5.26956522 L11.6121176,6.19826087 L15.1761176,6.91826087 L18.5479412,7.46086957 L21.3374118,7.84695652 L23.6027647,8.12869565 L25.3148824,8.35826087 L27.8248235,8.69217391 L30.9578824,8.90086957 L33.5551765,9.10956522 L35.2207059,9.1826087 L39.4252941,9.37043478 L44.4684706,9.51652174 L48.2304706,9.61043478 L52.0507059,9.61043478 L57.2918824,9.51652174 L61.3392353,9.37043478 L66.1669412,9.10956522 L69.6261176,8.69217391 L74.4072353,8.25391304 L76.7774118,7.84695652 L79.7182941,7.33565217 L81.9021176,7.07478261 L84.6741176,6.45913043 L86.3687647,6.09391304 L88.209,5.61391304 L89.8454118,5.14434783 L91.278,4.70608696 L93.7937647,3.7773913 L96.8103529,2.13913043 L98.7670588,0.28173913 L98.7670588,24.8556522 L86.1532941,66.6052174 L85.5068824,68.1078261 L83.5152353,68.8173913 L81.4071176,69.5373913 L78.9961765,69.9130435 L75.8281765,70.56 L69.0495882,71.2382609 L60.4540588,71.613913 L57.3559412,71.7495652 L53.3144118,71.8434783 L46.0815882,71.8434783 L38.0684118,71.613913 L32.2448824,71.2382609 L28.1625882,70.9252174 L24.8024118,70.56 C21.8149412,70.1947826 20.1435882,69.9756522 19.7883529,69.9130435 C19.4331176,69.84 18.9555882,69.746087 18.3499412,69.6417391 L17.1502941,69.2973913 L16.0321765,68.7130435 L14.1686471,68.2747826 L13.5280588,67.9408696 L12.2701765,66.9078261 L0.267882353,23.426087 L0.267882353,0.0208695652 L0.559058824,1.41913043 Z" id="c5nMNRnJ00"></path>
                </g>
            </g>
            <g id="Group" transform="translate(0.000000, 23.000000)">
                <g id="a6ziu4yCTh-link" transform="translate(1.162791, 1.050000)" fill="#111C1B" fill-opacity="0" fill-rule="nonzero">
                    <path d="M97.7151163,9.198 C97.7151163,13.7445 75.8662791,17.4405 48.9593023,17.4405 C22.0523256,17.4405 0.209302326,13.7445 0.209302326,9.198 C0.209302326,4.641 22.0523256,0.945 48.9593023,0.945 C75.8662791,0.945 97.7151163,4.641 97.7151163,9.198 Z" id="a6ziu4yCTh"></path>
                </g>
                <g id="Clipped">
                    <mask id="mask-2" fill="white">
                        <use xlink:href="#path-1"></use>
                    </mask>
                    <g id="Rectangle-path"></g>
                    <g id="a6ziu4yCTh-link" mask="url(#mask-2)" fill="#000000" fill-opacity="0" fill-rule="nonzero" stroke="#266DB9" stroke-width="1.6">
                        <g transform="translate(1.162791, 1.050000)" id="a6ziu4yCTh">
                            <path d="M97.7151163,9.198 C97.7151163,13.7445 75.8662791,17.4405 48.9593023,17.4405 C22.0523256,17.4405 0.209302326,13.7445 0.209302326,9.198 C0.209302326,4.641 22.0523256,0.945 48.9593023,0.945 C75.8662791,0.945 97.7151163,4.641 97.7151163,9.198 Z"></path>
                        </g>
                    </g>
                    <mask id="mask-4" fill="white">
                        <use xlink:href="#path-3"></use>
                    </mask>
                    <g id="a6ziu4yCTh"></g>
                </g>
            </g>
        </g>
    </g>
</svg>