<?xml version="1.0" encoding="UTF-8"?>
<svg width="40px" height="39px" viewBox="0 0 40 39" version="1.1" xmlns="http://www.w3.org/2000/svg" xmlns:xlink="http://www.w3.org/1999/xlink">
    <!-- Generator: Sketch 50.2 (55047) - http://www.bohemiancoding.com/sketch -->
    <title>BlueBall</title>
    <desc>Created with Sketch.</desc>
    <defs></defs>
    <g id="iPhone" stroke="none" stroke-width="1" fill="none" fill-rule="evenodd">
        <g id="BlueBall" fill-rule="nonzero">
            <path d="M17.2413793,0.496221034 C14.1564138,0.978048276 11.2051034,2.04077931 8.62068966,3.80293103 C6.52034483,5.23506897 4.88644828,6.86117241 3.45838621,8.96551724 C-5.80262069,22.6122414 6.94324138,40.5944828 22.7586207,38.1244828 C25.7962414,37.65 28.8352414,36.6651724 31.3793103,34.9055172 C33.5823103,33.3817931 35.2996552,31.5366552 36.7737931,29.3103448 C45.782069,15.7062759 32.7336207,-1.92344828 17.2413793,0.496221034 Z" id="Shape" fill="#000000"></path>
            <path d="M17.5862069,2.56518621 C14.6496207,3.02383793 11.7428621,4.04693103 9.31034483,5.78917241 C7.62962069,6.99293103 6.13865517,8.61144828 5.01648276,10.3448276 C-2.95024483,22.6510345 8.47817241,38.06 22.4137931,36.0593103 C25.1228966,35.6703448 27.6870345,34.7765517 30,33.2955517 C31.7438621,32.1789655 33.3492069,30.650069 34.5556552,28.9655172 C43.2393103,16.8405172 31.8975172,0.329966069 17.5862069,2.56518621 Z" id="Shape" fill="#3561FF"></path>
        </g>
    </g>
</svg>