<?xml version="1.0" encoding="UTF-8"?>
<svg width="175px" height="126px" viewBox="0 0 175 126" version="1.1" xmlns="http://www.w3.org/2000/svg" xmlns:xlink="http://www.w3.org/1999/xlink">
    <!-- Generator: Sketch 50.2 (55047) - http://www.bohemiancoding.com/sketch -->
    <title>BlueBasketPreview</title>
    <desc>Created with Sketch.</desc>
    <defs>
        <rect id="path-1" x="0.773255814" y="0.474683544" width="173.880814" height="29.9208861"></rect>
        <path d="M173.036337,15.443038 C173.036337,22.2943038 134.800872,27.8639241 87.7136628,27.8639241 C40.6264535,27.8639241 2.40116279,22.2943038 2.40116279,15.443038 C2.40116279,8.57594937 40.6264535,3.00632911 87.7136628,3.00632911 C134.800872,3.00632911 173.036337,8.57594937 173.036337,15.443038 Z" id="path-3"></path>
    </defs>
    <g id="iPhone" stroke="none" stroke-width="1" fill="none" fill-rule="evenodd">
        <g id="BlueBasketPreview">
            <g id="e2QqKnhmBU-link" transform="translate(2.034884, 14.240506)" fill="#000000" fill-opacity="0" fill-rule="nonzero" stroke="#000000">
                <polyline id="e2QqKnhmBU" points="22.0377907 101.376582 0 37.8481013 0 0.806962025"></polyline>
            </g>
            <g id="egW5LeAN1-link" transform="translate(150.581395, 14.240506)" fill="#000000" fill-opacity="0" fill-rule="nonzero" stroke="#000000">
                <polyline id="egW5LeAN1" points="0.417151163 101.376582 22.4549419 37.8481013 22.4549419 0.806962025"></polyline>
            </g>
            <g id="a3vVdFU4T-link" transform="translate(23.401163, 107.594937)" fill="#111C1B" fill-rule="nonzero">
                <path d="M127.597384,8.0221519 C127.597384,11.7088608 99.1598837,14.6993671 64.1293605,14.6993671 C29.1090116,14.6993671 0.671511628,11.7088608 0.671511628,8.0221519 C0.671511628,4.33544304 29.1090116,1.34493671 64.1293605,1.34493671 C99.1598837,1.34493671 127.597384,4.33544304 127.597384,8.0221519 Z" id="a3vVdFU4T"></path>
            </g>
            <g id="eACsqnzQl-link" transform="translate(2.034884, 14.240506)" fill="#111C1B" fill-rule="nonzero">
                <polygon id="eACsqnzQl" points="0 0.806962025 0.742732558 0.806962025 0.742732558 22.1044304 0 22.1044304"></polygon>
            </g>
            <g id="Group" transform="translate(1.017442, 0.000000)" fill-rule="nonzero">
                <g id="k1rcFegOel-link" fill="#5089C5">
                    <path d="M172.965116,15.8544304 C172.965116,23.8765823 134.3125,30.3797468 86.6962209,30.3797468 C39.0901163,30.3797468 0.4375,23.8765823 0.4375,15.8544304 C0.4375,7.83227848 39.0901163,1.32911392 86.6962209,1.32911392 C134.3125,1.32911392 172.965116,7.83227848 172.965116,15.8544304 Z" id="k1rcFegOel"></path>
                </g>
                <g id="k1rcFegOel-link" fill="#000000" fill-opacity="0" stroke="#266DB9">
                    <path d="M172.965116,15.8544304 C172.965116,23.8765823 134.3125,30.3797468 86.6962209,30.3797468 C39.0901163,30.3797468 0.4375,23.8765823 0.4375,15.8544304 C0.4375,7.83227848 39.0901163,1.32911392 86.6962209,1.32911392 C134.3125,1.32911392 172.965116,7.83227848 172.965116,15.8544304 Z" id="k1rcFegOel"></path>
                </g>
            </g>
            <g id="Group" transform="translate(1.017442, 15.822785)" fill-rule="nonzero">
                <g id="c5nMNRnJ00-link" fill="#266DB9">
                    <path d="M0.976744186,2.15189873 L2.80813953,3.67088608 L4.93459302,4.7943038 L7.56976744,5.88607595 L10.5610465,6.9778481 L14.1424419,7.99050633 L20.2877907,9.39873418 L26.5145349,10.4905063 L32.4055233,11.3132911 L37.2790698,11.8987342 L41.2369186,12.3259494 L44.2281977,12.6740506 L48.6133721,13.1803797 L54.0872093,13.4968354 L58.625,13.8132911 L61.5348837,13.9240506 L68.880814,14.2088608 L77.6918605,14.4303797 L84.2645349,14.5727848 L90.9389535,14.5727848 L100.09593,14.4303797 L107.167151,14.2088608 L115.601744,13.8132911 L121.645349,13.1803797 L129.998547,12.5158228 L134.139535,11.8987342 L139.277616,11.1234177 L143.093023,10.7278481 L147.936047,9.7943038 L150.896802,9.24050633 L154.111919,8.51265823 L156.97093,7.80063291 L159.473837,7.13607595 L163.869186,5.7278481 L169.139535,3.24367089 L172.55814,0.42721519 L172.55814,37.6898734 L150.520349,100.996835 L149.390988,103.275316 L145.911337,104.351266 L142.228198,105.443038 L138.015988,106.012658 L132.481105,106.993671 L120.638081,108.022152 L105.62064,108.591772 L100.207849,108.797468 L93.1468023,108.939873 L80.5101744,108.939873 L66.5101744,108.591772 L56.3357558,108.022152 L49.2034884,107.547468 L43.3328488,106.993671 C38.1133721,106.439873 35.193314,106.107595 34.5726744,106.012658 C33.9520349,105.901899 33.1177326,105.759494 32.059593,105.601266 L29.9636628,105.079114 L28.0101744,104.193038 L24.7543605,103.528481 L23.6351744,103.022152 L21.4375,101.455696 L0.468023256,35.5221519 L0.468023256,0.0316455696 L0.976744186,2.15189873 Z" id="c5nMNRnJ00"></path>
                </g>
                <g id="c5nMNRnJ00-link" fill="#000000" fill-opacity="0" stroke="#266DB9">
                    <path d="M0.976744186,2.15189873 L2.80813953,3.67088608 L4.93459302,4.7943038 L7.56976744,5.88607595 L10.5610465,6.9778481 L14.1424419,7.99050633 L20.2877907,9.39873418 L26.5145349,10.4905063 L32.4055233,11.3132911 L37.2790698,11.8987342 L41.2369186,12.3259494 L44.2281977,12.6740506 L48.6133721,13.1803797 L54.0872093,13.4968354 L58.625,13.8132911 L61.5348837,13.9240506 L68.880814,14.2088608 L77.6918605,14.4303797 L84.2645349,14.5727848 L90.9389535,14.5727848 L100.09593,14.4303797 L107.167151,14.2088608 L115.601744,13.8132911 L121.645349,13.1803797 L129.998547,12.5158228 L134.139535,11.8987342 L139.277616,11.1234177 L143.093023,10.7278481 L147.936047,9.7943038 L150.896802,9.24050633 L154.111919,8.51265823 L156.97093,7.80063291 L159.473837,7.13607595 L163.869186,5.7278481 L169.139535,3.24367089 L172.55814,0.42721519 L172.55814,37.6898734 L150.520349,100.996835 L149.390988,103.275316 L145.911337,104.351266 L142.228198,105.443038 L138.015988,106.012658 L132.481105,106.993671 L120.638081,108.022152 L105.62064,108.591772 L100.207849,108.797468 L93.1468023,108.939873 L80.5101744,108.939873 L66.5101744,108.591772 L56.3357558,108.022152 L49.2034884,107.547468 L43.3328488,106.993671 C38.1133721,106.439873 35.193314,106.107595 34.5726744,106.012658 C33.9520349,105.901899 33.1177326,105.759494 32.059593,105.601266 L29.9636628,105.079114 L28.0101744,104.193038 L24.7543605,103.528481 L23.6351744,103.022152 L21.4375,101.455696 L0.468023256,35.5221519 L0.468023256,0.0316455696 L0.976744186,2.15189873 Z" id="c5nMNRnJ00"></path>
                </g>
            </g>
            <g id="Group" transform="translate(0.000000, 34.810127)">
                <g id="a6ziu4yCTh-link" transform="translate(2.034884, 1.582278)" fill="#111C1B" fill-opacity="0" fill-rule="nonzero">
                    <path d="M171.001453,13.8607595 C171.001453,20.7120253 132.765988,26.2816456 85.6787791,26.2816456 C38.5915698,26.2816456 0.36627907,20.7120253 0.36627907,13.8607595 C0.36627907,6.99367089 38.5915698,1.42405063 85.6787791,1.42405063 C132.765988,1.42405063 171.001453,6.99367089 171.001453,13.8607595 Z" id="a6ziu4yCTh"></path>
                </g>
                <g id="Clipped">
                    <mask id="mask-2" fill="white">
                        <use xlink:href="#path-1"></use>
                    </mask>
                    <g id="Rectangle-path"></g>
                    <g id="a6ziu4yCTh-link" mask="url(#mask-2)" fill="#000000" fill-opacity="0" fill-rule="nonzero" stroke="#266DB9" stroke-width="1.6">
                        <g transform="translate(2.034884, 1.582278)" id="a6ziu4yCTh">
                            <path d="M171.001453,13.8607595 C171.001453,20.7120253 132.765988,26.2816456 85.6787791,26.2816456 C38.5915698,26.2816456 0.36627907,20.7120253 0.36627907,13.8607595 C0.36627907,6.99367089 38.5915698,1.42405063 85.6787791,1.42405063 C132.765988,1.42405063 171.001453,6.99367089 171.001453,13.8607595 Z"></path>
                        </g>
                    </g>
                    <mask id="mask-4" fill="white">
                        <use xlink:href="#path-3"></use>
                    </mask>
                    <g id="a6ziu4yCTh"></g>
                </g>
            </g>
        </g>
    </g>
</svg>