<?xml version="1.0" encoding="UTF-8"?>
<svg width="120px" height="150px" viewBox="0 0 120 150" version="1.1" xmlns="http://www.w3.org/2000/svg" xmlns:xlink="http://www.w3.org/1999/xlink">
    <!-- Generator: Sketch 50.2 (55047) - http://www.bohemiancoding.com/sketch -->
    <title>BombPreview</title>
    <desc>Created with Sketch.</desc>
    <defs></defs>
    <g id="iPhone" stroke="none" stroke-width="1" fill="none" fill-rule="evenodd">
        <g id="BombPreview" fill-rule="nonzero">
            <path d="M68.7751473,0 C68.5844517,2.97813462 68.7059956,3.95284615 71.7948718,5.76923077 L71.7948718,0 L68.7751473,0 Z" id="Shape" fill="#FF4319"></path>
            <path d="M71.740983,0.961538462 L71.740983,5.90659341 C67.8323279,6.30021978 65.8525277,6.67312637 63.5897436,9.61538462 C66.6574626,9.20998901 68.8532706,8.77638187 71.740983,9.61538462 C73.1803561,6.48227198 73.1803561,4.09462637 71.740983,0.961538462 Z M66.3068234,2.1978022 L66.3068234,4.67032967 L69.0239032,4.67032967 L69.0239032,2.1978022 L66.3068234,2.1978022 Z" id="Shape" fill="#FFFA00"></path>
            <polygon id="Shape" fill="#FF4319" points="71.7948718 2.88461538 71.7948718 5.76923077 74.8717949 5.76923077 74.8717949 2.88461538"></polygon>
            <path d="M71.9040235,6.57727115 C79.8360768,6.6995076 81.3522148,12.6680122 87.4001641,16.3428154 C96.2218223,21.7028121 106.143775,16.291979 110.548168,28.2620438 C111.342275,30.4203056 111.885922,33.0956058 110.459748,35.1543629 C106.78601,40.4574998 99.4638865,32.8726239 95.0708187,32.480147 C86.6857259,31.7309714 82.5159601,40.0910434 80.9133327,46.3309209 C58.8191602,38.5725745 32.006555,43.6265885 15.4975106,59.6909179 C-7.21307883,81.7896104 -4.81279292,119.678212 21.7093007,138.172694 C28.2797899,142.755205 35.6434844,146.237866 43.5890516,148.15086 C77.2120511,156.242534 113.420851,137.089708 118.959646,104.154411 C120.950317,92.3169791 117.264995,82.6358812 113.472719,71.628698 C109.946475,61.3934583 127.931759,54.0905924 115.645636,44.6475345 C114.050602,43.421556 112.42352,43.2200171 110.515349,42.7169527 C115.080108,34.9501737 116.531894,22.8312134 106.519205,17.6348091 C101.800515,15.1858638 96.0456259,17.002967 91.2286057,14.6269034 C85.5215944,11.8118631 78.3916271,-1.90155591 71.9040235,6.57727115 Z" id="Shape" fill="#000000"></path>
            <path d="M64.6153846,6.73076923 L67.6923077,5.50582177 C65.8685128,4.33544572 65.6190769,4.56721803 64.6153846,6.73076923 Z" id="Shape" fill="#FF0C00"></path>
            <polygon id="Shape" fill="#FF4319" points="68.7179487 7.69230769 68.7179487 10.5769231 71.7948718 10.5769231 71.7948718 7.69230769"></polygon>
            <path d="M72.8954064,7.81071248 C72.7830885,7.87107661 72.6705683,9.01858221 73.5701228,8.53542997 C73.6824406,8.47501148 73.7949608,7.32760372 72.8954064,7.81071248 Z" id="Shape" fill="#FF0C00"></path>
            <path d="M63.5897436,9.85749275 C67.1260256,11.7510161 69.9273077,11.8103379 73.8461538,11.1766351 C70.3694872,9.37733812 67.4403846,9.44325566 63.5897436,9.85749275 Z" id="Shape" fill="#FF6816"></path>
            <path d="M50.4295518,124.507407 C51.575638,120.834622 51.6932278,117.464642 51.7035471,113.636892 L54.2515378,113.636892 C54.2394348,117.810204 53.9992867,121.647254 52.9775424,125.715242 L60.6215144,126.923077 L60.6215144,113.636892 L63.169505,113.636892 L63.169505,126.923077 L70.8134769,125.715242 C70.0178668,121.653293 69.5755357,117.769862 69.5394816,113.636892 L72.0874722,113.636892 C72.1258195,117.755247 72.1544844,121.065077 74.6354629,124.507407 C76.4563844,118.667042 74.4619447,112.062842 76.6732184,106.437471 C78.8346788,100.938802 84.4140139,98.0526805 85.6678801,91.8958624 C87.3559239,83.6073364 84.6928915,72.5566126 76.9485288,67.5676502 C67.7208533,61.6232904 43.7431148,62.0718803 35.4138608,69.3132133 C29.7663669,74.2231833 28.1011277,82.527532 28.9102421,89.4801925 C29.9503319,98.4186545 39.6371553,100.388996 43.6545721,107.615472 C47.1290121,113.865173 43.2203945,120.31477 50.4295518,124.507407 Z" id="Shape" fill="#FFFFFF"></path>
            <path d="M48.0999134,78.9845063 C42.2504943,82.5218019 45.5347343,97.7019452 53.6045308,93.1663217 C60.5015733,89.2898847 56.933838,73.6424853 48.0999134,78.9845063 Z M67.9911612,79.036719 C61.8836758,81.9276397 61.0689415,96.850224 70.0833867,93.8443628 C77.1337583,91.4933369 76.3671125,75.0720521 67.9911612,79.036719 Z M56.5127493,99.4789929 L55.2538893,106.730769 C58.4580658,104.755265 58.7527649,103.112737 59.0304694,99.4789929 L56.5127493,99.4789929 Z M61.5481896,99.4789929 C61.6666483,102.1439 61.9965955,104.185517 62.8070496,106.730769 C64.9221863,103.986093 64.8932325,102.812514 64.0659097,99.4789929 L61.5481896,99.4789929 Z" id="Shape" fill="#000000"></path>
        </g>
    </g>
</svg>