<?xml version="1.0" encoding="UTF-8"?>
<svg width="40px" height="54px" viewBox="0 0 40 54" version="1.1" xmlns="http://www.w3.org/2000/svg" xmlns:xlink="http://www.w3.org/1999/xlink">
    <!-- Generator: Sketch 50.2 (55047) - http://www.bohemiancoding.com/sketch -->
    <title>Bomb</title>
    <desc>Created with Sketch.</desc>
    <defs></defs>
    <g id="iPhone" stroke="none" stroke-width="1" fill="none" fill-rule="evenodd">
        <g id="Bomb" fill-rule="nonzero">
            <path d="M22.5531915,0 C22.4994468,1.09831915 22.5337021,1.45778723 23.4042553,2.12765957 L23.4042553,0 L22.5531915,0 Z" id="Shape" fill="#FF4319"></path>
            <path d="M23.4042553,0.425531915 L23.4042553,2.12765957 C22.1799574,2.26314894 21.5598298,2.39150638 20.8510638,3.40425532 C21.8119574,3.26471489 22.4997447,3.11546383 23.4042553,3.40425532 C23.8551064,2.32581277 23.8551064,1.50396596 23.4042553,0.425531915 Z M21.7021277,0.85106383 L21.7021277,1.70212766 L22.5531915,1.70212766 L22.5531915,0.85106383 L21.7021277,0.85106383 Z" id="Shape" fill="#FFFA00"></path>
            <polygon id="Shape" fill="#FF4319" points="23.8297872 0.85106383 23.8297872 1.70212766 24.6808511 1.70212766 24.6808511 0.85106383"></polygon>
            <path d="M23.8297872,2.55319149 C26.4523404,2.59637021 26.953617,4.70468085 28.953234,6.00276596 C31.8699149,7.89612766 35.150383,5.98480851 36.6065957,10.2131064 C36.8691489,10.9754894 37.0488936,11.9205106 36.5773617,12.6477447 C35.3627234,14.5210213 32.9418298,11.8417447 31.4893617,11.7031064 C28.7170213,11.4384681 27.338383,14.3915745 26.8085106,16.5957447 C19.5035745,13.8551915 10.6385957,15.6404681 5.18025532,21.3150213 C-2.32848511,29.1211489 -1.53488511,42.5048936 7.23404255,49.0378723 C9.40642553,50.6565957 11.8410638,51.8868085 14.4680851,52.5625532 C25.584766,55.4208511 37.556383,48.6553191 39.3876596,37.0212766 C40.0458298,32.8398298 38.8273617,29.4200851 37.5735319,25.5319149 C36.4076596,21.9164255 42.3540851,19.336766 38.2919574,16.0011064 C37.7645957,15.5680426 37.2266383,15.4968511 36.5957447,15.3191489 C38.1049787,12.575617 38.5849787,8.2947234 35.2745106,6.45914894 C33.714383,5.59408511 31.8116596,6.23595745 30.2190213,5.3966383 C28.3321277,4.40225532 25.974766,-0.44186383 23.8297872,2.55319149 Z" id="Shape" fill="#000000"></path>
            <path d="M21.2765957,2.55319149 L22.5531915,2.12765957 C21.7965106,1.72108511 21.6930213,1.8016 21.2765957,2.55319149 Z" id="Shape" fill="#FF0C00"></path>
            <polygon id="Shape" fill="#FF4319" points="22.5531915 2.55319149 22.5531915 3.40425532 23.4042553 3.40425532 23.4042553 2.55319149"></polygon>
            <path d="M23.9743729,2.84498785 C23.9466229,2.87275285 23.9188229,3.40055785 24.1410729,3.17832785 C24.1688229,3.15053785 24.1966229,2.62277785 23.9743729,2.84498785 Z" id="Shape" fill="#FF0C00"></path>
            <path d="M20.8510638,3.40425532 C22.0248085,4.01507234 22.9545957,4.03420851 24.2553191,3.82978723 C23.1013617,3.24936596 22.1291489,3.27062979 20.8510638,3.40425532 Z" id="Shape" fill="#FF6816"></path>
            <path d="M16.5957447,43.8297872 C16.9785532,42.5358298 17.0178298,41.3485532 17.0212766,40 L17.8723404,40 C17.8682979,41.4702979 17.7880851,42.8221277 17.4468085,44.2553191 L20,44.6808511 L20,40 L20.8510638,40 L20.8510638,44.6808511 L23.4042553,44.2553191 C23.1385106,42.8242553 22.990766,41.4560851 22.9787234,40 L23.8297872,40 C23.8425957,41.4509362 23.8521702,42.6170213 24.6808511,43.8297872 C25.2890638,41.7721702 24.6228936,39.4454468 25.3614894,37.4635745 C26.0834468,35.5263404 27.9470213,34.5095319 28.3658298,32.3404255 C28.9296596,29.4202979 28.0401702,25.5270213 25.4534468,23.7693617 C22.3712766,21.6751064 14.362383,21.8331489 11.5802979,24.3843404 C9.69395745,26.1141702 9.13774468,29.0398723 9.408,31.4893617 C9.75540426,34.6384681 12.9909362,35.3326383 14.3328085,37.8785957 C15.4933191,40.0804255 14.1877872,42.3526809 16.5957447,43.8297872 Z" id="Shape" fill="#FFFFFF"></path>
            <path d="M15.879617,27.6779574 C13.9023404,28.9233617 15.0125106,34.2679574 17.7403404,32.6710638 C20.0717447,31.3062553 18.8657447,25.7971489 15.879617,27.6779574 Z M22.6034468,27.6963404 C20.5389362,28.7141702 20.2635319,33.9680851 23.3106809,32.9097872 C25.6939149,32.0820426 25.434766,26.3004681 22.6034468,27.6963404 Z M18.7234043,34.893617 L18.2978723,37.4468085 C19.3809787,36.7512766 19.4805957,36.1729787 19.5744681,34.893617 L18.7234043,34.893617 Z M20.4255319,34.893617 C20.4655745,35.8318723 20.5771064,36.5506809 20.8510638,37.4468085 C21.5660426,36.4804681 21.5562553,36.0672766 21.2765957,34.893617 L20.4255319,34.893617 Z" id="Shape" fill="#000000"></path>
        </g>
    </g>
</svg>