<?xml version="1.0" encoding="UTF-8"?>
<svg width="101px" height="83px" viewBox="0 0 101 83" version="1.1" xmlns="http://www.w3.org/2000/svg" xmlns:xlink="http://www.w3.org/1999/xlink">
    <!-- Generator: Sketch 50.2 (55047) - http://www.bohemiancoding.com/sketch -->
    <title>BrownBasket</title>
    <desc>Created with Sketch.</desc>
    <defs>
        <rect id="path-1" x="0.141843972" y="0.495" width="99.3617021" height="21.01"></rect>
        <path d="M98.3687943,11 C98.3687943,15.57875 76.6170213,19.29125 49.822695,19.29125 C23.0283688,19.29125 1.27659574,15.57875 1.27659574,11 C1.27659574,6.4075 23.0283688,2.695 49.822695,2.695 C76.6170213,2.695 98.3687943,6.4075 98.3687943,11 Z" id="path-3"></path>
    </defs>
    <g id="iPhone" stroke="none" stroke-width="1" fill="none" fill-rule="evenodd">
        <g id="BrownBasket" transform="translate(0.000000, 1.000000)">
            <g id="dJnG98J2C-link" transform="translate(1.000000, 9.000000)" fill="#000000" fill-opacity="0" fill-rule="nonzero" stroke="#000000">
                <polyline id="dJnG98J2C" points="12.4389474 65.665 0.342105263 24.3126 0.342105263 0.206"></polyline>
            </g>
            <g id="h13iWIuB5f-link" transform="translate(86.000000, 9.000000)" fill="#000000" fill-opacity="0" fill-rule="nonzero" stroke="#000000">
                <polyline id="h13iWIuB5f" points="0.0144444444 65.665 12.7833333 24.3126 12.7833333 0.206"></polyline>
            </g>
            <g id="e1Aphjr8k-link" transform="translate(13.000000, 70.000000)" fill="#111C1B" fill-rule="nonzero">
                <path d="M72.3054369,4.82142857 C72.3054369,7.12285714 56.1320388,8.98714286 36.2165049,8.98714286 C16.3009709,8.98714286 0.127572816,7.12285714 0.127572816,4.82142857 C0.127572816,2.52 16.3009709,0.655714286 36.2165049,0.655714286 C56.1320388,0.655714286 72.3054369,2.52 72.3054369,4.82142857 Z" id="e1Aphjr8k"></path>
            </g>
            <g id="d1KZIKF6BF-link" transform="translate(1.000000, 9.000000)" fill="#111C1B" fill-rule="nonzero">
                <polygon id="d1KZIKF6BF" points="0.25 0.2 0.55 0.2 0.55 13.9866667 0.25 13.9866667"></polygon>
            </g>
            <g id="Group" transform="translate(1.000000, 0.000000)" fill-rule="nonzero">
                <g id="e50hJzQWWt-link" fill="#7E7325">
                    <path d="M98.622518,9.53333333 C98.622518,14.72 76.5291367,18.9333333 49.3219424,18.9333333 C22.1147482,18.9333333 0.0213669065,14.72 0.0213669065,9.53333333 C0.0213669065,4.34666667 22.1147482,0.133333333 49.3219424,0.133333333 C76.5291367,0.133333333 98.622518,4.34666667 98.622518,9.53333333 Z" id="e50hJzQWWt"></path>
                </g>
                <g id="e50hJzQWWt-link" fill="#000000" fill-opacity="0" stroke="#5D5803">
                    <path d="M98.622518,9.53333333 C98.622518,14.72 76.5291367,18.9333333 49.3219424,18.9333333 C22.1147482,18.9333333 0.0213669065,14.72 0.0213669065,9.53333333 C0.0213669065,4.34666667 22.1147482,0.133333333 49.3219424,0.133333333 C76.5291367,0.133333333 98.622518,4.34666667 98.622518,9.53333333 Z" id="e50hJzQWWt"></path>
                </g>
            </g>
            <g id="Group" transform="translate(1.000000, 9.000000)" fill-rule="nonzero">
                <g id="d5iVicNDYl-link" fill="#5D5803">
                    <path d="M0.36323741,1.60907407 L1.41733813,2.60944444 L2.6352518,3.35296296 L4.14517986,4.06944444 L5.85453237,4.79944444 L7.9128777,5.46185185 L11.431295,6.38111111 L14.9995683,7.11111111 L18.3755396,7.63833333 L21.1603597,8.03037037 L23.4323741,8.31425926 L25.1417266,8.54407407 L27.6558993,8.88203704 L30.7897122,9.08481481 L33.3964748,9.28759259 L35.0630935,9.3687037 L39.2723741,9.54444444 L44.314964,9.69314815 L48.0826619,9.8012963 L51.9073381,9.8012963 L57.1493525,9.69314815 L61.2019424,9.54444444 L66.0379856,9.28759259 L69.4994245,8.88203704 L74.2856115,8.43592593 L76.6573381,8.03037037 L79.6059712,7.51666667 L81.7853957,7.25981481 L84.5630935,6.63796296 L86.2582014,6.28648148 L88.0957554,5.79981481 L89.7338849,5.32666667 L91.1725899,4.89407407 L93.6867626,3.97481481 L96.7066187,2.32555556 L98.6723741,0.473518519 L98.6723741,25.0096296 L86.0445324,66.6872222 L85.3964029,68.1877778 L83.4021583,68.9042593 L81.2939568,69.6072222 L78.8794964,69.9857407 L75.7100719,70.6346296 L68.922518,71.3105556 L60.318777,71.6890741 L57.2205755,71.8242593 L53.1751079,71.9188889 L45.9317266,71.9188889 L37.9120144,71.6890741 L32.0788489,71.3105556 L27.9977698,70.9996296 L24.6289209,70.6346296 C21.6446763,70.2696296 19.9709353,70.0533333 19.6148201,69.9857407 C19.258705,69.9181481 18.7815108,69.8235185 18.1689928,69.7153704 L16.972446,69.3774074 L15.8542446,68.7961111 L13.9882014,68.35 L13.3471942,68.012037 L12.0936691,66.9981481 L0.0712230216,23.5901852 L0.0712230216,0.216666667 L0.36323741,1.60907407 Z" id="d5iVicNDYl"></path>
                </g>
                <g id="d5iVicNDYl-link" fill="#000000" fill-opacity="0" stroke="#5D5803">
                    <path d="M0.36323741,1.60907407 L1.41733813,2.60944444 L2.6352518,3.35296296 L4.14517986,4.06944444 L5.85453237,4.79944444 L7.9128777,5.46185185 L11.431295,6.38111111 L14.9995683,7.11111111 L18.3755396,7.63833333 L21.1603597,8.03037037 L23.4323741,8.31425926 L25.1417266,8.54407407 L27.6558993,8.88203704 L30.7897122,9.08481481 L33.3964748,9.28759259 L35.0630935,9.3687037 L39.2723741,9.54444444 L44.314964,9.69314815 L48.0826619,9.8012963 L51.9073381,9.8012963 L57.1493525,9.69314815 L61.2019424,9.54444444 L66.0379856,9.28759259 L69.4994245,8.88203704 L74.2856115,8.43592593 L76.6573381,8.03037037 L79.6059712,7.51666667 L81.7853957,7.25981481 L84.5630935,6.63796296 L86.2582014,6.28648148 L88.0957554,5.79981481 L89.7338849,5.32666667 L91.1725899,4.89407407 L93.6867626,3.97481481 L96.7066187,2.32555556 L98.6723741,0.473518519 L98.6723741,25.0096296 L86.0445324,66.6872222 L85.3964029,68.1877778 L83.4021583,68.9042593 L81.2939568,69.6072222 L78.8794964,69.9857407 L75.7100719,70.6346296 L68.922518,71.3105556 L60.318777,71.6890741 L57.2205755,71.8242593 L53.1751079,71.9188889 L45.9317266,71.9188889 L37.9120144,71.6890741 L32.0788489,71.3105556 L27.9977698,70.9996296 L24.6289209,70.6346296 C21.6446763,70.2696296 19.9709353,70.0533333 19.6148201,69.9857407 C19.258705,69.9181481 18.7815108,69.8235185 18.1689928,69.7153704 L16.972446,69.3774074 L15.8542446,68.7961111 L13.9882014,68.35 L13.3471942,68.012037 L12.0936691,66.9981481 L0.0712230216,23.5901852 L0.0712230216,0.216666667 L0.36323741,1.60907407 Z" id="d5iVicNDYl"></path>
                </g>
            </g>
            <g id="Group" transform="translate(0.000000, 23.000000)">
                <g id="czXxzPVt5-link" transform="translate(0.709220, 2.375000)" fill="#111C1B" fill-opacity="0" fill-rule="nonzero">
                    <path d="M97.6595745,8.625 C97.6595745,13.20375 75.9078014,16.91625 49.1134752,16.91625 C22.3191489,16.91625 0.567375887,13.20375 0.567375887,8.625 C0.567375887,4.0325 22.3191489,0.32 49.1134752,0.32 C75.9078014,0.32 97.6595745,4.0325 97.6595745,8.625 Z" id="czXxzPVt5"></path>
                </g>
                <g id="Clipped">
                    <mask id="mask-2" fill="white">
                        <use xlink:href="#path-1"></use>
                    </mask>
                    <g id="Rectangle-path"></g>
                    <g id="czXxzPVt5-link" mask="url(#mask-2)" fill="#000000" fill-opacity="0" fill-rule="nonzero" stroke="#5D5803" stroke-width="1.6">
                        <g transform="translate(0.709220, 2.375000)" id="czXxzPVt5">
                            <path d="M97.6595745,8.625 C97.6595745,13.20375 75.9078014,16.91625 49.1134752,16.91625 C22.3191489,16.91625 0.567375887,13.20375 0.567375887,8.625 C0.567375887,4.0325 22.3191489,0.32 49.1134752,0.32 C75.9078014,0.32 97.6595745,4.0325 97.6595745,8.625 Z"></path>
                        </g>
                    </g>
                    <mask id="mask-4" fill="white">
                        <use xlink:href="#path-3"></use>
                    </mask>
                    <g id="czXxzPVt5"></g>
                </g>
            </g>
        </g>
    </g>
</svg>