<?xml version="1.0" encoding="UTF-8"?>
<svg width="174px" height="126px" viewBox="0 0 174 126" version="1.1" xmlns="http://www.w3.org/2000/svg" xmlns:xlink="http://www.w3.org/1999/xlink">
    <!-- Generator: Sketch 50.2 (55047) - http://www.bohemiancoding.com/sketch -->
    <title>BrownBasketPreview</title>
    <desc>Created with Sketch.</desc>
    <defs>
        <rect id="path-1" x="0.24822695" y="0.765" width="173.882979" height="32.47"></rect>
        <path d="M172.14539,17 C172.14539,24.07625 134.079787,29.81375 87.1897163,29.81375 C40.2996454,29.81375 2.23404255,24.07625 2.23404255,17 C2.23404255,9.9025 40.2996454,4.165 87.1897163,4.165 C134.079787,4.165 172.14539,9.9025 172.14539,17 Z" id="path-3"></path>
    </defs>
    <g id="iPhone" stroke="none" stroke-width="1" fill="none" fill-rule="evenodd">
        <g id="BrownBasketPreview" transform="translate(-1.000000, 0.000000)">
            <g id="dJnG98J2C-link" transform="translate(2.023121, 14.000000)" fill="#000000" fill-opacity="0" fill-rule="nonzero" stroke="#000000">
                <polyline id="dJnG98J2C" points="22.2617889 102.48 0.61226042 38.2912 0.61226042 0.872"></polyline>
            </g>
            <g id="h13iWIuB5f-link" transform="translate(149.710983, 14.000000)" fill="#000000" fill-opacity="0" fill-rule="nonzero" stroke="#000000">
                <polyline id="h13iWIuB5f" points="0.0247270392 102.48 21.8834297 38.2912 21.8834297 0.872"></polyline>
            </g>
            <g id="e1Aphjr8k-link" transform="translate(23.265896, 109.000000)" fill="#111C1B" fill-rule="nonzero">
                <path d="M126.243953,6.5 C126.243953,10.08 98.0054997,12.98 63.2333464,12.98 C28.4611931,12.98 0.222739772,10.08 0.222739772,6.5 C0.222739772,2.92 28.4611931,0.02 63.2333464,0.02 C98.0054997,0.02 126.243953,2.92 126.243953,6.5 Z" id="e1Aphjr8k"></path>
            </g>
            <g id="d1KZIKF6BF-link" transform="translate(2.023121, 14.000000)" fill="#111C1B" fill-rule="nonzero">
                <polygon id="d1KZIKF6BF" points="0.37933526 0.875 0.834537572 0.875 0.834537572 22.4166667 0.37933526 22.4166667"></polygon>
            </g>
            <g id="Group" transform="translate(2.023121, 0.000000)" fill-rule="nonzero">
                <g id="e50hJzQWWt-link" fill="#7E7325">
                    <path d="M172.317326,15.3266667 C172.317326,23.366 133.71486,29.8966667 86.1773298,29.8966667 C38.6397991,29.8966667 0.0373331393,23.366 0.0373331393,15.3266667 C0.0373331393,7.28733333 38.6397991,0.756666667 86.1773298,0.756666667 C133.71486,0.756666667 172.317326,7.28733333 172.317326,15.3266667 Z" id="e50hJzQWWt"></path>
                </g>
                <g id="e50hJzQWWt-link" fill="#000000" fill-opacity="0" stroke="#5D5803">
                    <path d="M172.317326,15.3266667 C172.317326,23.366 133.71486,29.8966667 86.1773298,29.8966667 C38.6397991,29.8966667 0.0373331393,23.366 0.0373331393,15.3266667 C0.0373331393,7.28733333 38.6397991,0.756666667 86.1773298,0.756666667 C133.71486,0.756666667 172.317326,7.28733333 172.317326,15.3266667 Z" id="e50hJzQWWt"></path>
                </g>
            </g>
            <g id="Group" transform="translate(2.023121, 14.000000)" fill-rule="nonzero">
                <g id="d5iVicNDYl-link" fill="#5D5803">
                    <path d="M0.634663368,3.00296296 L2.47643157,4.53777778 L4.60442051,5.67851852 L7.24262902,6.77777778 L10.2292802,7.89777778 L13.8257059,8.91407407 L19.9732295,10.3244444 L26.2078638,11.4444444 L32.1064998,12.2533333 L36.9722523,12.8548148 L40.9420094,13.2903704 L43.9286605,13.642963 L48.3215266,14.1614815 L53.7970537,14.4725926 L58.3516967,14.7837037 L61.2636815,14.9081481 L68.61831,15.1777778 L77.4289308,15.4059259 L84.0120077,15.5718519 L90.6946397,15.5718519 L99.8537032,15.4059259 L106.934555,15.1777778 L115.384289,14.7837037 L121.432258,14.1614815 L129.794881,13.477037 L133.938859,12.8548148 L139.090833,12.0666667 L142.898813,11.6725926 L147.752121,10.7185185 L150.713883,10.1792593 L153.924533,9.43259259 L156.786741,8.70666667 L159.300505,8.04296296 L163.693371,6.63259259 L168.969788,4.10222222 L172.404437,1.26074074 L172.404437,38.9051852 L150.340552,102.848889 L149.208113,105.151111 L145.723687,106.25037 L142.040151,107.328889 L137.821506,107.90963 L132.283757,108.905185 L120.424263,109.942222 L105.391452,110.522963 L99.978147,110.73037 L92.9097393,110.875556 L80.253805,110.875556 L66.2414334,110.522963 L56.0494864,109.942222 L48.9188568,109.465185 L43.0326652,108.905185 C37.8184701,108.345185 34.8940408,108.013333 34.2718218,107.90963 C33.6496029,107.805926 32.8158294,107.660741 31.7456128,107.494815 L29.654957,106.976296 L27.7011893,106.084444 L24.4407618,105.4 L23.3207677,104.881481 L21.1305568,103.325926 L0.124443798,36.7274074 L0.124443798,0.866666667 L0.634663368,3.00296296 Z" id="d5iVicNDYl"></path>
                </g>
                <g id="d5iVicNDYl-link" fill="#000000" fill-opacity="0" stroke="#5D5803">
                    <path d="M0.634663368,3.00296296 L2.47643157,4.53777778 L4.60442051,5.67851852 L7.24262902,6.77777778 L10.2292802,7.89777778 L13.8257059,8.91407407 L19.9732295,10.3244444 L26.2078638,11.4444444 L32.1064998,12.2533333 L36.9722523,12.8548148 L40.9420094,13.2903704 L43.9286605,13.642963 L48.3215266,14.1614815 L53.7970537,14.4725926 L58.3516967,14.7837037 L61.2636815,14.9081481 L68.61831,15.1777778 L77.4289308,15.4059259 L84.0120077,15.5718519 L90.6946397,15.5718519 L99.8537032,15.4059259 L106.934555,15.1777778 L115.384289,14.7837037 L121.432258,14.1614815 L129.794881,13.477037 L133.938859,12.8548148 L139.090833,12.0666667 L142.898813,11.6725926 L147.752121,10.7185185 L150.713883,10.1792593 L153.924533,9.43259259 L156.786741,8.70666667 L159.300505,8.04296296 L163.693371,6.63259259 L168.969788,4.10222222 L172.404437,1.26074074 L172.404437,38.9051852 L150.340552,102.848889 L149.208113,105.151111 L145.723687,106.25037 L142.040151,107.328889 L137.821506,107.90963 L132.283757,108.905185 L120.424263,109.942222 L105.391452,110.522963 L99.978147,110.73037 L92.9097393,110.875556 L80.253805,110.875556 L66.2414334,110.522963 L56.0494864,109.942222 L48.9188568,109.465185 L43.0326652,108.905185 C37.8184701,108.345185 34.8940408,108.013333 34.2718218,107.90963 C33.6496029,107.805926 32.8158294,107.660741 31.7456128,107.494815 L29.654957,106.976296 L27.7011893,106.084444 L24.4407618,105.4 L23.3207677,104.881481 L21.1305568,103.325926 L0.124443798,36.7274074 L0.124443798,0.866666667 L0.634663368,3.00296296 Z" id="d5iVicNDYl"></path>
                </g>
            </g>
            <g id="Group" transform="translate(0.000000, 35.000000)">
                <g id="czXxzPVt5-link" transform="translate(1.241135, 4.125000)" fill="#111C1B" fill-opacity="0" fill-rule="nonzero">
                    <path d="M170.904255,12.875 C170.904255,19.95125 132.838652,25.68875 85.9485816,25.68875 C39.0585106,25.68875 0.992907801,19.95125 0.992907801,12.875 C0.992907801,5.7775 39.0585106,0.04 85.9485816,0.04 C132.838652,0.04 170.904255,5.7775 170.904255,12.875 Z" id="czXxzPVt5"></path>
                </g>
                <g id="Clipped">
                    <mask id="mask-2" fill="white">
                        <use xlink:href="#path-1"></use>
                    </mask>
                    <g id="Rectangle-path"></g>
                    <g id="czXxzPVt5-link" mask="url(#mask-2)" fill="#000000" fill-opacity="0" fill-rule="nonzero" stroke="#5D5803" stroke-width="1.6">
                        <g transform="translate(1.241135, 4.125000)" id="czXxzPVt5">
                            <path d="M170.904255,12.875 C170.904255,19.95125 132.838652,25.68875 85.9485816,25.68875 C39.0585106,25.68875 0.992907801,19.95125 0.992907801,12.875 C0.992907801,5.7775 39.0585106,0.04 85.9485816,0.04 C132.838652,0.04 170.904255,5.7775 170.904255,12.875 Z"></path>
                        </g>
                    </g>
                    <mask id="mask-4" fill="white">
                        <use xlink:href="#path-3"></use>
                    </mask>
                    <g id="czXxzPVt5"></g>
                </g>
            </g>
        </g>
    </g>
</svg>