<?xml version="1.0" encoding="UTF-8"?>
<svg width="375px" height="667px" viewBox="0 0 375 667" version="1.1" xmlns="http://www.w3.org/2000/svg" xmlns:xlink="http://www.w3.org/1999/xlink">
    <!-- Generator: Sketch 50.2 (55047) - http://www.bohemiancoding.com/sketch -->
    <title>CityBackground</title>
    <desc>Created with Sketch.</desc>
    <defs></defs>
    <g id="iPhone" stroke="none" stroke-width="1" fill="none" fill-rule="evenodd">
        <g id="CityBackground" fill-rule="nonzero">
            <polygon id="Shape" fill="#2BB1E3" points="0 0 0 667 1.04166667 667 1.04166667 313.698438 124.652778 313.698438 124.652778 401.242188 171.527778 401.242188 171.527778 214.343229 277.777778 214.343229 277.777778 331.068229 375 331.068229 375 0"></polygon>
            <polygon id="Shape" fill="#010101" points="171.527778 214.343229 171.527778 401.242188 124.652778 401.242188 124.652778 313.698438 1.04166667 313.698438 1.04166667 667 4.16666667 667 4.16666667 316.825 121.527778 316.825 121.527778 401.242188 71.875 401.242188 71.875 402.631771 67.3611111 402.631771 67.3611111 430.770833 71.875 430.770833 71.875 440.497917 67.3611111 440.497917 67.3611111 468.636979 71.875 468.636979 71.875 477.321875 67.3611111 477.321875 67.3611111 505.113542 71.875 505.113542 71.875 513.798438 67.3611111 513.798438 67.3611111 541.9375 71.875 541.9375 71.875 550.969792 67.3611111 550.969792 67.3611111 579.108854 71.875 579.108854 71.875 587.79375 67.3611111 587.79375 67.3611111 615.585417 71.875 615.585417 71.875 622.880729 67.3611111 622.880729 67.3611111 651.019792 71.875 651.019792 71.875 659.704687 67.3611111 659.704687 67.3611111 667 70.8333333 667 70.8333333 663.178646 71.875 663.178646 71.875 667 75 667 75 404.716146 190.625 404.716146 190.625 667 204.513889 667 204.513889 639.555729 194.097222 639.555729 194.097222 630.870833 204.513889 630.870833 204.513889 603.079167 194.097222 603.079167 194.097222 594.394271 204.513889 594.394271 204.513889 566.255208 194.097222 566.255208 194.097222 557.917708 204.513889 557.917708 204.513889 529.778646 194.097222 529.778646 194.097222 521.09375 204.513889 521.09375 204.513889 493.302083 194.097222 493.302083 194.097222 484.617188 204.513889 484.617188 204.513889 456.478125 194.097222 456.478125 194.097222 447.445833 204.513889 447.445833 204.513889 419.306771 194.097222 419.306771 194.097222 410.621875 204.513889 410.621875 204.513889 382.830208 185.763889 382.830208 185.763889 401.242188 174.652778 401.242188 174.652778 217.469792 274.652778 217.469792 274.652778 331.068229 267.013889 331.068229 267.013889 308.140104 248.263889 308.140104 248.263889 336.279167 255.208333 336.279167 255.208333 346.00625 248.263889 346.00625 248.263889 374.145313 255.208333 374.145313 255.208333 382.830208 248.263889 382.830208 248.263889 410.969271 255.208333 410.969271 255.208333 419.306771 248.263889 419.306771 248.263889 447.445833 255.208333 447.445833 255.208333 456.478125 248.263889 456.478125 248.263889 484.617188 255.208333 484.617188 255.208333 493.302083 248.263889 493.302083 248.263889 521.441146 255.208333 521.441146 255.208333 529.778646 248.263889 529.778646 248.263889 557.917708 255.208333 557.917708 255.208333 566.255208 248.263889 566.255208 248.263889 594.394271 255.208333 594.394271 255.208333 603.079167 248.263889 603.079167 248.263889 631.218229 255.208333 631.218229 255.208333 639.555729 248.263889 639.555729 248.263889 667 258.680556 667 258.680556 334.542188 375 334.542188 375 331.068229 277.777778 331.068229 277.777778 214.343229"></polygon>
            <polygon id="Shape" fill="#CBCDAB" points="174.652778 217.469792 174.652778 401.242188 185.763889 401.242188 185.763889 382.830208 204.513889 382.830208 204.513889 410.621875 194.097222 410.621875 194.097222 419.306771 204.513889 419.306771 204.513889 447.445833 194.097222 447.445833 194.097222 456.478125 204.513889 456.478125 204.513889 484.617188 194.097222 484.617188 194.097222 493.302083 204.513889 493.302083 204.513889 521.09375 194.097222 521.09375 194.097222 529.778646 204.513889 529.778646 204.513889 557.917708 194.097222 557.917708 194.097222 566.255208 204.513889 566.255208 204.513889 594.394271 194.097222 594.394271 194.097222 603.079167 204.513889 603.079167 204.513889 630.870833 194.097222 630.870833 194.097222 639.555729 204.513889 639.555729 204.513889 667 216.319444 667 216.319444 639.555729 235.069444 639.555729 235.069444 667 248.263889 667 248.263889 639.555729 255.208333 639.555729 255.208333 631.218229 248.263889 631.218229 248.263889 603.079167 255.208333 603.079167 255.208333 594.394271 248.263889 594.394271 248.263889 566.255208 255.208333 566.255208 255.208333 557.917708 248.263889 557.917708 248.263889 529.778646 255.208333 529.778646 255.208333 521.441146 248.263889 521.441146 248.263889 493.302083 255.208333 493.302083 255.208333 484.617188 248.263889 484.617188 248.263889 456.478125 255.208333 456.478125 255.208333 447.445833 248.263889 447.445833 248.263889 419.306771 255.208333 419.306771 255.208333 410.969271 248.263889 410.969271 248.263889 382.830208 255.208333 382.830208 255.208333 374.145313 248.263889 374.145313 248.263889 346.00625 255.208333 346.00625 255.208333 336.279167 248.263889 336.279167 248.263889 308.140104 267.013889 308.140104 267.013889 331.068229 274.652778 331.068229 274.652778 217.469792"></polygon>
            <path d="M185.763889,234.839583 L185.763889,262.978646 L204.513889,262.978646 L204.513889,234.839583 L185.763889,234.839583 Z M216.319444,234.839583 L216.319444,262.978646 L235.069444,262.978646 L235.069444,234.839583 L216.319444,234.839583 Z M248.263889,234.839583 L248.263889,262.978646 L267.013889,262.978646 L267.013889,234.839583 L248.263889,234.839583 Z" id="Shape" fill="#010101"></path>
            <path d="M189.236111,238.313542 L189.236111,259.504688 L201.041667,259.504688 L201.041667,238.313542 L189.236111,238.313542 Z M219.791667,238.313542 L219.791667,259.504688 L231.597222,259.504688 L231.597222,238.313542 L219.791667,238.313542 Z M251.736111,238.313542 L251.736111,259.504688 L263.541667,259.504688 L263.541667,238.313542 L251.736111,238.313542 Z" id="Shape" fill="#C5FFF3"></path>
            <path d="M185.763889,271.663542 L185.763889,299.802604 L204.513889,299.802604 L204.513889,271.663542 L185.763889,271.663542 Z M216.319444,271.663542 L216.319444,299.802604 L235.069444,299.802604 L235.069444,271.663542 L216.319444,271.663542 Z M248.263889,271.663542 L248.263889,299.802604 L267.013889,299.802604 L267.013889,271.663542 L248.263889,271.663542 Z" id="Shape" fill="#010101"></path>
            <path d="M189.236111,275.1375 L189.236111,296.328646 L201.041667,296.328646 L201.041667,275.1375 L189.236111,275.1375 Z M219.791667,275.1375 L219.791667,296.328646 L231.597222,296.328646 L231.597222,275.1375 L219.791667,275.1375 Z M251.736111,275.1375 L251.736111,296.328646 L263.541667,296.328646 L263.541667,275.1375 L251.736111,275.1375 Z" id="Shape" fill="#C5FFF3"></path>
            <path d="M185.763889,308.140104 L185.763889,336.279167 L204.513889,336.279167 L204.513889,308.140104 L185.763889,308.140104 Z M216.319444,308.140104 L216.319444,336.279167 L235.069444,336.279167 L235.069444,308.140104 L216.319444,308.140104 Z" id="Shape" fill="#010101"></path>
            <path d="M189.236111,311.614062 L189.236111,332.805208 L201.041667,332.805208 L201.041667,311.614062 L189.236111,311.614062 Z M219.791667,311.614062 L219.791667,332.805208 L231.597222,332.805208 L231.597222,311.614062 L219.791667,311.614062 Z M251.736111,311.614062 L251.736111,332.805208 L255.208333,332.805208 L255.208333,331.068229 L263.541667,331.068229 L263.541667,311.614062 L251.736111,311.614062 Z" id="Shape" fill="#C5FFF3"></path>
            <polygon id="Shape" fill="#8F8787" points="4.16666667 316.825 4.16666667 667 16.3194444 667 16.3194444 659.704687 35.0694444 659.704687 35.0694444 667 41.6666667 667 41.6666667 659.704687 60.4166667 659.704687 60.4166667 667 67.3611111 667 67.3611111 659.704687 71.875 659.704687 71.875 651.019792 67.3611111 651.019792 67.3611111 622.880729 71.875 622.880729 71.875 615.585417 67.3611111 615.585417 67.3611111 587.79375 71.875 587.79375 71.875 579.108854 67.3611111 579.108854 67.3611111 550.969792 71.875 550.969792 71.875 541.9375 67.3611111 541.9375 67.3611111 513.798437 71.875 513.798437 71.875 505.113542 67.3611111 505.113542 67.3611111 477.321875 71.875 477.321875 71.875 468.636979 67.3611111 468.636979 67.3611111 440.497917 71.875 440.497917 71.875 430.770833 67.3611111 430.770833 67.3611111 402.631771 71.875 402.631771 71.875 401.242188 121.527778 401.242188 121.527778 316.825"></polygon>
            <path d="M16.3194444,329.33125 L16.3194444,357.470313 L35.0694444,357.470313 L35.0694444,329.33125 L16.3194444,329.33125 Z M41.6666667,329.33125 L41.6666667,357.470313 L60.4166667,357.470313 L60.4166667,329.33125 L41.6666667,329.33125 Z M67.3611111,329.33125 L67.3611111,357.470313 L86.1111111,357.470313 L86.1111111,329.33125 L67.3611111,329.33125 Z M92.7083333,329.33125 L92.7083333,357.470313 L111.458333,357.470313 L111.458333,329.33125 L92.7083333,329.33125 Z" id="Shape" fill="#010101"></path>
            <path d="M19.7916667,332.805208 L19.7916667,353.996354 L31.5972222,353.996354 L31.5972222,332.805208 L19.7916667,332.805208 Z M45.1388889,332.805208 L45.1388889,353.996354 L56.9444444,353.996354 L56.9444444,332.805208 L45.1388889,332.805208 Z M70.8333333,332.805208 L70.8333333,353.996354 L82.6388889,353.996354 L82.6388889,332.805208 L70.8333333,332.805208 Z M96.1805556,332.805208 L96.1805556,353.996354 L107.986111,353.996354 L107.986111,332.805208 L96.1805556,332.805208 Z" id="Shape" fill="#C5FFF3"></path>
            <polygon id="Shape" fill="#AF4D37" points="258.680556 334.542188 258.680556 667 272.569444 667 272.569444 644.766667 291.319444 644.766667 291.319444 667 302.430556 667 302.430556 644.766667 321.180556 644.766667 321.180556 667 331.597222 667 331.597222 644.766667 350.347222 644.766667 350.347222 667 360.069444 667 360.069444 644.766667 375 644.766667 375 636.081771 360.069444 636.081771 360.069444 608.290104 375 608.290104 375 599.605208 360.069444 599.605208 360.069444 571.466146 375 571.466146 375 562.433854 360.069444 562.433854 360.069444 534.294792 375 534.294792 375 525.609896 360.069444 525.609896 360.069444 497.818229 375 497.818229 375 489.133333 360.069444 489.133333 360.069444 460.994271 375 460.994271 375 451.267187 360.069444 451.267187 360.069444 423.128125 375 423.128125 375 414.790625 360.069444 414.790625 360.069444 386.651563 375 386.651563 375 377.966667 360.069444 377.966667 360.069444 349.827604 375 349.827604 375 334.542188"></polygon>
            <path d="M185.763889,346.00625 L185.763889,374.145312 L204.513889,374.145312 L204.513889,346.00625 L185.763889,346.00625 Z M216.319444,346.00625 L216.319444,374.145312 L235.069444,374.145312 L235.069444,346.00625 L216.319444,346.00625 Z" id="Shape" fill="#010101"></path>
            <path d="M189.236111,349.480208 L189.236111,370.671354 L201.041667,370.671354 L201.041667,349.480208 L189.236111,349.480208 Z M219.791667,349.480208 L219.791667,370.671354 L231.597222,370.671354 L231.597222,349.480208 L219.791667,349.480208 Z M251.736111,349.480208 L251.736111,370.671354 L255.208333,370.671354 L255.208333,349.480208 L251.736111,349.480208 Z" id="Shape" fill="#C5FFF3"></path>
            <path d="M272.569444,349.827604 L272.569444,377.966667 L291.319444,377.966667 L291.319444,349.827604 L272.569444,349.827604 Z M302.430556,349.827604 L302.430556,377.966667 L321.180556,377.966667 L321.180556,349.827604 L302.430556,349.827604 Z M331.597222,349.827604 L331.597222,377.966667 L350.347222,377.966667 L350.347222,349.827604 L331.597222,349.827604 Z M360.069444,349.827604 L360.069444,377.966667 L375,377.966667 L375,374.492708 L363.541667,374.492708 L363.541667,353.301562 L375,353.301562 L375,349.827604 L360.069444,349.827604 Z" id="Shape" fill="#010101"></path>
            <path d="M276.041667,353.301562 L276.041667,374.492708 L287.847222,374.492708 L287.847222,353.301562 L276.041667,353.301562 Z M305.902778,353.301562 L305.902778,374.492708 L317.708333,374.492708 L317.708333,353.301562 L305.902778,353.301562 Z M335.069444,353.301562 L335.069444,374.492708 L346.875,374.492708 L346.875,353.301562 L335.069444,353.301562 Z M363.541667,353.301562 L363.541667,374.492708 L375,374.492708 L375,353.301562 L363.541667,353.301562 Z" id="Shape" fill="#C5FFF3"></path>
            <path d="M16.3194444,366.155208 L16.3194444,394.294271 L35.0694444,394.294271 L35.0694444,366.155208 L16.3194444,366.155208 Z M41.6666667,366.155208 L41.6666667,394.294271 L60.4166667,394.294271 L60.4166667,366.155208 L41.6666667,366.155208 Z M67.3611111,366.155208 L67.3611111,394.294271 L86.1111111,394.294271 L86.1111111,366.155208 L67.3611111,366.155208 Z M92.7083333,366.155208 L92.7083333,394.294271 L111.458333,394.294271 L111.458333,366.155208 L92.7083333,366.155208 Z" id="Shape" fill="#010101"></path>
            <path d="M19.7916667,369.629167 L19.7916667,390.820313 L31.5972222,390.820313 L31.5972222,369.629167 L19.7916667,369.629167 Z M45.1388889,369.629167 L45.1388889,390.820313 L56.9444444,390.820313 L56.9444444,369.629167 L45.1388889,369.629167 Z M70.8333333,369.629167 L70.8333333,390.820313 L82.6388889,390.820313 L82.6388889,369.629167 L70.8333333,369.629167 Z M96.1805556,369.629167 L96.1805556,390.820313 L107.986111,390.820313 L107.986111,369.629167 L96.1805556,369.629167 Z" id="Shape" fill="#C5FFF3"></path>
            <polygon id="Shape" fill="#010101" points="216.319444 382.830208 216.319444 410.969271 235.069444 410.969271 235.069444 382.830208"></polygon>
            <path d="M189.236111,386.304167 L189.236111,401.242188 L194.097222,401.242188 L194.097222,407.495313 L201.041667,407.495313 L201.041667,386.304167 L189.236111,386.304167 Z M219.791667,386.304167 L219.791667,407.495313 L231.597222,407.495313 L231.597222,386.304167 L219.791667,386.304167 Z M251.736111,386.304167 L251.736111,407.495313 L255.208333,407.495313 L255.208333,386.304167 L251.736111,386.304167 Z" id="Shape" fill="#C5FFF3"></path>
            <path d="M272.569444,386.651563 L272.569444,414.790625 L291.319444,414.790625 L291.319444,386.651563 L272.569444,386.651563 Z M302.430556,386.651563 L302.430556,414.790625 L321.180556,414.790625 L321.180556,386.651563 L302.430556,386.651563 Z M331.597222,386.651563 L331.597222,414.790625 L350.347222,414.790625 L350.347222,386.651563 L331.597222,386.651563 Z M360.069444,386.651563 L360.069444,414.790625 L375,414.790625 L375,411.316667 L363.541667,411.316667 L363.541667,390.125521 L375,390.125521 L375,386.651563 L360.069444,386.651563 Z" id="Shape" fill="#010101"></path>
            <path d="M276.041667,390.125521 L276.041667,411.316667 L287.847222,411.316667 L287.847222,390.125521 L276.041667,390.125521 Z M305.902778,390.125521 L305.902778,411.316667 L317.708333,411.316667 L317.708333,390.125521 L305.902778,390.125521 Z M335.069444,390.125521 L335.069444,411.316667 L346.875,411.316667 L346.875,390.125521 L335.069444,390.125521 Z M363.541667,390.125521 L363.541667,411.316667 L375,411.316667 L375,390.125521 L363.541667,390.125521 Z" id="Shape" fill="#C5FFF3"></path>
            <path d="M16.3194444,402.631771 L16.3194444,430.770833 L35.0694444,430.770833 L35.0694444,402.631771 L16.3194444,402.631771 Z M41.6666667,402.631771 L41.6666667,430.770833 L60.4166667,430.770833 L60.4166667,402.631771 L41.6666667,402.631771 Z" id="Shape" fill="#010101"></path>
            <polygon id="Shape" fill="#8FBDC5" points="75 404.716146 75 667 90.625 667 90.625 645.461458 109.375 645.461458 109.375 667 125 667 125 645.461458 143.75 645.461458 143.75 667 158.333333 667 158.333333 645.461458 177.083333 645.461458 177.083333 667 190.625 667 190.625 404.716146"></polygon>
            <path d="M19.7916667,406.105729 L19.7916667,427.296875 L31.5972222,427.296875 L31.5972222,406.105729 L19.7916667,406.105729 Z M45.1388889,406.105729 L45.1388889,427.296875 L56.9444444,427.296875 L56.9444444,406.105729 L45.1388889,406.105729 Z M70.8333333,406.105729 L70.8333333,427.296875 L71.875,427.296875 L71.875,406.105729 L70.8333333,406.105729 Z" id="Shape" fill="#C5FFF3"></path>
            <polygon id="Shape" fill="#010101" points="216.319444 419.306771 216.319444 447.445833 235.069444 447.445833 235.069444 419.306771"></polygon>
            <path d="M194.097222,422.780729 L194.097222,443.971875 L201.041667,443.971875 L201.041667,422.780729 L194.097222,422.780729 Z M219.791667,422.780729 L219.791667,443.971875 L231.597222,443.971875 L231.597222,422.780729 L219.791667,422.780729 Z M251.736111,422.780729 L251.736111,443.971875 L255.208333,443.971875 L255.208333,422.780729 L251.736111,422.780729 Z" id="Shape" fill="#C5FFF3"></path>
            <path d="M272.569444,423.128125 L272.569444,451.267188 L291.319444,451.267188 L291.319444,423.128125 L272.569444,423.128125 Z M302.430556,423.128125 L302.430556,451.267188 L321.180556,451.267188 L321.180556,423.128125 L302.430556,423.128125 Z M331.597222,423.128125 L331.597222,451.267188 L350.347222,451.267188 L350.347222,423.128125 L331.597222,423.128125 Z M360.069444,423.128125 L360.069444,451.267188 L375,451.267188 L375,447.793229 L363.541667,447.793229 L363.541667,426.602083 L375,426.602083 L375,423.128125 L360.069444,423.128125 Z M90.625,423.822917 L90.625,451.961979 L109.375,451.961979 L109.375,423.822917 L90.625,423.822917 Z M125,423.822917 L125,451.961979 L143.75,451.961979 L143.75,423.822917 L125,423.822917 Z M158.333333,423.822917 L158.333333,451.961979 L177.083333,451.961979 L177.083333,423.822917 L158.333333,423.822917 Z" id="Shape" fill="#010101"></path>
            <path d="M276.041667,426.602083 L276.041667,447.793229 L287.847222,447.793229 L287.847222,426.602083 L276.041667,426.602083 Z M305.902778,426.602083 L305.902778,447.793229 L317.708333,447.793229 L317.708333,426.602083 L305.902778,426.602083 Z M335.069444,426.602083 L335.069444,447.793229 L346.875,447.793229 L346.875,426.602083 L335.069444,426.602083 Z M363.541667,426.602083 L363.541667,447.793229 L375,447.793229 L375,426.602083 L363.541667,426.602083 Z M94.0972222,427.296875 L94.0972222,448.488021 L105.902778,448.488021 L105.902778,427.296875 L94.0972222,427.296875 Z M128.472222,427.296875 L128.472222,448.488021 L140.277778,448.488021 L140.277778,427.296875 L128.472222,427.296875 Z M161.805556,427.296875 L161.805556,448.488021 L173.611111,448.488021 L173.611111,427.296875 L161.805556,427.296875 Z" id="Shape" fill="#C5FFF3"></path>
            <path d="M16.3194444,440.497917 L16.3194444,468.636979 L35.0694444,468.636979 L35.0694444,440.497917 L16.3194444,440.497917 Z M41.6666667,440.497917 L41.6666667,468.636979 L60.4166667,468.636979 L60.4166667,440.497917 L41.6666667,440.497917 Z" id="Shape" fill="#010101"></path>
            <path d="M19.7916667,443.971875 L19.7916667,465.163021 L31.5972222,465.163021 L31.5972222,443.971875 L19.7916667,443.971875 Z M45.1388889,443.971875 L45.1388889,465.163021 L56.9444444,465.163021 L56.9444444,443.971875 L45.1388889,443.971875 Z M70.8333333,443.971875 L70.8333333,465.163021 L71.875,465.163021 L71.875,443.971875 L70.8333333,443.971875 Z" id="Shape" fill="#C5FFF3"></path>
            <polygon id="Shape" fill="#010101" points="216.319444 456.478125 216.319444 484.617187 235.069444 484.617187 235.069444 456.478125"></polygon>
            <path d="M194.097222,459.952083 L194.097222,481.143229 L201.041667,481.143229 L201.041667,459.952083 L194.097222,459.952083 Z M219.791667,459.952083 L219.791667,481.143229 L231.597222,481.143229 L231.597222,459.952083 L219.791667,459.952083 Z M251.736111,459.952083 L251.736111,481.143229 L255.208333,481.143229 L255.208333,459.952083 L251.736111,459.952083 Z" id="Shape" fill="#C5FFF3"></path>
            <path d="M90.625,460.646875 L90.625,488.785937 L109.375,488.785937 L109.375,460.646875 L90.625,460.646875 Z M125,460.646875 L125,488.785937 L143.75,488.785937 L143.75,460.646875 L125,460.646875 Z M158.333333,460.646875 L158.333333,488.785937 L177.083333,488.785937 L177.083333,460.646875 L158.333333,460.646875 Z M272.569444,460.994271 L272.569444,489.133333 L291.319444,489.133333 L291.319444,460.994271 L272.569444,460.994271 Z M302.430556,460.994271 L302.430556,489.133333 L321.180556,489.133333 L321.180556,460.994271 L302.430556,460.994271 Z M331.597222,460.994271 L331.597222,489.133333 L350.347222,489.133333 L350.347222,460.994271 L331.597222,460.994271 Z M360.069444,460.994271 L360.069444,489.133333 L375,489.133333 L375,485.659375 L363.541667,485.659375 L363.541667,464.468229 L375,464.468229 L375,460.994271 L360.069444,460.994271 Z" id="Shape" fill="#010101"></path>
            <path d="M94.0972222,464.120833 L94.0972222,485.311979 L105.902778,485.311979 L105.902778,464.120833 L94.0972222,464.120833 Z M128.472222,464.120833 L128.472222,485.311979 L140.277778,485.311979 L140.277778,464.120833 L128.472222,464.120833 Z M161.805556,464.120833 L161.805556,485.311979 L173.611111,485.311979 L173.611111,464.120833 L161.805556,464.120833 Z M276.041667,464.468229 L276.041667,485.659375 L287.847222,485.659375 L287.847222,464.468229 L276.041667,464.468229 Z M305.902778,464.468229 L305.902778,485.659375 L317.708333,485.659375 L317.708333,464.468229 L305.902778,464.468229 Z M335.069444,464.468229 L335.069444,485.659375 L346.875,485.659375 L346.875,464.468229 L335.069444,464.468229 Z M363.541667,464.468229 L363.541667,485.659375 L375,485.659375 L375,464.468229 L363.541667,464.468229 Z" id="Shape" fill="#C5FFF3"></path>
            <path d="M16.3194444,477.321875 L16.3194444,505.113542 L35.0694444,505.113542 L35.0694444,477.321875 L16.3194444,477.321875 Z M41.6666667,477.321875 L41.6666667,505.113542 L60.4166667,505.113542 L60.4166667,477.321875 L41.6666667,477.321875 Z" id="Shape" fill="#010101"></path>
            <path d="M19.7916667,480.795833 L19.7916667,501.986979 L31.5972222,501.986979 L31.5972222,480.795833 L19.7916667,480.795833 Z M45.1388889,480.795833 L45.1388889,501.986979 L56.9444444,501.986979 L56.9444444,480.795833 L45.1388889,480.795833 Z M70.8333333,480.795833 L70.8333333,501.986979 L71.875,501.986979 L71.875,480.795833 L70.8333333,480.795833 Z" id="Shape" fill="#C5FFF3"></path>
            <polygon id="Shape" fill="#010101" points="216.319444 493.302083 216.319444 521.441146 235.069444 521.441146 235.069444 493.302083"></polygon>
            <path d="M194.097222,496.776042 L194.097222,517.967188 L201.041667,517.967188 L201.041667,496.776042 L194.097222,496.776042 Z M219.791667,496.776042 L219.791667,517.967188 L231.597222,517.967188 L231.597222,496.776042 L219.791667,496.776042 Z M251.736111,496.776042 L251.736111,517.967188 L255.208333,517.967188 L255.208333,496.776042 L251.736111,496.776042 Z" id="Shape" fill="#C5FFF3"></path>
            <path d="M90.625,497.123438 L90.625,525.2625 L109.375,525.2625 L109.375,497.123438 L90.625,497.123438 Z M125,497.123438 L125,525.2625 L143.75,525.2625 L143.75,497.123438 L125,497.123438 Z M158.333333,497.123438 L158.333333,525.2625 L177.083333,525.2625 L177.083333,497.123438 L158.333333,497.123438 Z M272.569444,497.818229 L272.569444,525.609896 L291.319444,525.609896 L291.319444,497.818229 L272.569444,497.818229 Z M302.430556,497.818229 L302.430556,525.609896 L321.180556,525.609896 L321.180556,497.818229 L302.430556,497.818229 Z M331.597222,497.818229 L331.597222,525.609896 L350.347222,525.609896 L350.347222,497.818229 L331.597222,497.818229 Z M360.069444,497.818229 L360.069444,525.609896 L375,525.609896 L375,522.483333 L363.541667,522.483333 L363.541667,501.292188 L375,501.292188 L375,497.818229 L360.069444,497.818229 Z" id="Shape" fill="#010101"></path>
            <path d="M94.0972222,500.597396 L94.0972222,521.788542 L105.902778,521.788542 L105.902778,500.597396 L94.0972222,500.597396 Z M128.472222,500.597396 L128.472222,521.788542 L140.277778,521.788542 L140.277778,500.597396 L128.472222,500.597396 Z M161.805556,500.597396 L161.805556,521.788542 L173.611111,521.788542 L173.611111,500.597396 L161.805556,500.597396 Z M276.041667,501.292187 L276.041667,522.483333 L287.847222,522.483333 L287.847222,501.292187 L276.041667,501.292187 Z M305.902778,501.292187 L305.902778,522.483333 L317.708333,522.483333 L317.708333,501.292187 L305.902778,501.292187 Z M335.069444,501.292187 L335.069444,522.483333 L346.875,522.483333 L346.875,501.292187 L335.069444,501.292187 Z M363.541667,501.292187 L363.541667,522.483333 L375,522.483333 L375,501.292187 L363.541667,501.292187 Z" id="Shape" fill="#C5FFF3"></path>
            <path d="M16.3194444,513.798437 L16.3194444,541.9375 L35.0694444,541.9375 L35.0694444,513.798437 L16.3194444,513.798437 Z M41.6666667,513.798437 L41.6666667,541.9375 L60.4166667,541.9375 L60.4166667,513.798437 L41.6666667,513.798437 Z" id="Shape" fill="#010101"></path>
            <path d="M19.7916667,517.272396 L19.7916667,538.463542 L31.5972222,538.463542 L31.5972222,517.272396 L19.7916667,517.272396 Z M45.1388889,517.272396 L45.1388889,538.463542 L56.9444444,538.463542 L56.9444444,517.272396 L45.1388889,517.272396 Z M70.8333333,517.272396 L70.8333333,538.463542 L71.875,538.463542 L71.875,517.272396 L70.8333333,517.272396 Z" id="Shape" fill="#C5FFF3"></path>
            <polygon id="Shape" fill="#010101" points="216.319444 529.778646 216.319444 557.917708 235.069444 557.917708 235.069444 529.778646"></polygon>
            <path d="M194.097222,533.252604 L194.097222,554.44375 L201.041667,554.44375 L201.041667,533.252604 L194.097222,533.252604 Z M219.791667,533.252604 L219.791667,554.44375 L231.597222,554.44375 L231.597222,533.252604 L219.791667,533.252604 Z M251.736111,533.252604 L251.736111,554.44375 L255.208333,554.44375 L255.208333,533.252604 L251.736111,533.252604 Z" id="Shape" fill="#C5FFF3"></path>
            <path d="M272.569444,534.294792 L272.569444,562.433854 L291.319444,562.433854 L291.319444,534.294792 L272.569444,534.294792 Z M302.430556,534.294792 L302.430556,562.433854 L321.180556,562.433854 L321.180556,534.294792 L302.430556,534.294792 Z M331.597222,534.294792 L331.597222,562.433854 L350.347222,562.433854 L350.347222,534.294792 L331.597222,534.294792 Z M360.069444,534.294792 L360.069444,562.433854 L375,562.433854 L375,558.959896 L363.541667,558.959896 L363.541667,537.76875 L375,537.76875 L375,534.294792 L360.069444,534.294792 Z M90.625,534.989583 L90.625,563.128646 L109.375,563.128646 L109.375,534.989583 L90.625,534.989583 Z M125,534.989583 L125,563.128646 L143.75,563.128646 L143.75,534.989583 L125,534.989583 Z M158.333333,534.989583 L158.333333,563.128646 L177.083333,563.128646 L177.083333,534.989583 L158.333333,534.989583 Z" id="Shape" fill="#010101"></path>
            <path d="M276.041667,537.76875 L276.041667,558.959896 L287.847222,558.959896 L287.847222,537.76875 L276.041667,537.76875 Z M305.902778,537.76875 L305.902778,558.959896 L317.708333,558.959896 L317.708333,537.76875 L305.902778,537.76875 Z M335.069444,537.76875 L335.069444,558.959896 L346.875,558.959896 L346.875,537.76875 L335.069444,537.76875 Z M363.541667,537.76875 L363.541667,558.959896 L375,558.959896 L375,537.76875 L363.541667,537.76875 Z M94.0972222,538.463542 L94.0972222,559.654688 L105.902778,559.654688 L105.902778,538.463542 L94.0972222,538.463542 Z M128.472222,538.463542 L128.472222,559.654688 L140.277778,559.654688 L140.277778,538.463542 L128.472222,538.463542 Z M161.805556,538.463542 L161.805556,559.654688 L173.611111,559.654688 L173.611111,538.463542 L161.805556,538.463542 Z" id="Shape" fill="#C5FFF3"></path>
            <path d="M16.3194444,550.969792 L16.3194444,579.108854 L35.0694444,579.108854 L35.0694444,550.969792 L16.3194444,550.969792 Z M41.6666667,550.969792 L41.6666667,579.108854 L60.4166667,579.108854 L60.4166667,550.969792 L41.6666667,550.969792 Z" id="Shape" fill="#010101"></path>
            <path d="M19.7916667,554.44375 L19.7916667,575.634896 L31.5972222,575.634896 L31.5972222,554.44375 L19.7916667,554.44375 Z M45.1388889,554.44375 L45.1388889,575.634896 L56.9444444,575.634896 L56.9444444,554.44375 L45.1388889,554.44375 Z M70.8333333,554.44375 L70.8333333,575.634896 L71.875,575.634896 L71.875,554.44375 L70.8333333,554.44375 Z" id="Shape" fill="#C5FFF3"></path>
            <polygon id="Shape" fill="#010101" points="216.319444 566.255208 216.319444 594.394271 235.069444 594.394271 235.069444 566.255208"></polygon>
            <path d="M194.097222,569.729167 L194.097222,590.920313 L201.041667,590.920313 L201.041667,569.729167 L194.097222,569.729167 Z M219.791667,569.729167 L219.791667,590.920313 L231.597222,590.920313 L231.597222,569.729167 L219.791667,569.729167 Z M251.736111,569.729167 L251.736111,590.920313 L255.208333,590.920313 L255.208333,569.729167 L251.736111,569.729167 Z" id="Shape" fill="#C5FFF3"></path>
            <path d="M272.569444,571.466146 L272.569444,599.605208 L291.319444,599.605208 L291.319444,571.466146 L272.569444,571.466146 Z M302.430556,571.466146 L302.430556,599.605208 L321.180556,599.605208 L321.180556,571.466146 L302.430556,571.466146 Z M331.597222,571.466146 L331.597222,599.605208 L350.347222,599.605208 L350.347222,571.466146 L331.597222,571.466146 Z M360.069444,571.466146 L360.069444,599.605208 L375,599.605208 L375,596.13125 L363.541667,596.13125 L363.541667,574.940104 L375,574.940104 L375,571.466146 L360.069444,571.466146 Z M90.625,571.813542 L90.625,599.605208 L109.375,599.605208 L109.375,571.813542 L90.625,571.813542 Z M125,571.813542 L125,599.605208 L143.75,599.605208 L143.75,571.813542 L125,571.813542 Z M158.333333,571.813542 L158.333333,599.605208 L177.083333,599.605208 L177.083333,571.813542 L158.333333,571.813542 Z" id="Shape" fill="#010101"></path>
            <path d="M276.041667,574.940104 L276.041667,596.13125 L287.847222,596.13125 L287.847222,574.940104 L276.041667,574.940104 Z M305.902778,574.940104 L305.902778,596.13125 L317.708333,596.13125 L317.708333,574.940104 L305.902778,574.940104 Z M335.069444,574.940104 L335.069444,596.13125 L346.875,596.13125 L346.875,574.940104 L335.069444,574.940104 Z M363.541667,574.940104 L363.541667,596.13125 L375,596.13125 L375,574.940104 L363.541667,574.940104 Z M94.0972222,575.2875 L94.0972222,596.478646 L105.902778,596.478646 L105.902778,575.2875 L94.0972222,575.2875 Z M128.472222,575.2875 L128.472222,596.478646 L140.277778,596.478646 L140.277778,575.2875 L128.472222,575.2875 Z M161.805556,575.2875 L161.805556,596.478646 L173.611111,596.478646 L173.611111,575.2875 L161.805556,575.2875 Z" id="Shape" fill="#C5FFF3"></path>
            <path d="M16.3194444,587.79375 L16.3194444,615.585417 L35.0694444,615.585417 L35.0694444,587.79375 L16.3194444,587.79375 Z M41.6666667,587.79375 L41.6666667,615.585417 L60.4166667,615.585417 L60.4166667,587.79375 L41.6666667,587.79375 Z" id="Shape" fill="#010101"></path>
            <path d="M19.7916667,591.267708 L19.7916667,612.458854 L31.5972222,612.458854 L31.5972222,591.267708 L19.7916667,591.267708 Z M45.1388889,591.267708 L45.1388889,612.458854 L56.9444444,612.458854 L56.9444444,591.267708 L45.1388889,591.267708 Z M70.8333333,591.267708 L70.8333333,612.458854 L71.875,612.458854 L71.875,591.267708 L70.8333333,591.267708 Z" id="Shape" fill="#C5FFF3"></path>
            <polygon id="Shape" fill="#010101" points="216.319444 603.079167 216.319444 631.218229 235.069444 631.218229 235.069444 603.079167"></polygon>
            <path d="M194.097222,606.553125 L194.097222,627.744271 L201.041667,627.744271 L201.041667,606.553125 L194.097222,606.553125 Z M219.791667,606.553125 L219.791667,627.744271 L231.597222,627.744271 L231.597222,606.553125 L219.791667,606.553125 Z M251.736111,606.553125 L251.736111,627.744271 L255.208333,627.744271 L255.208333,606.553125 L251.736111,606.553125 Z" id="Shape" fill="#C5FFF3"></path>
            <path d="M90.625,608.290104 L90.625,636.429167 L109.375,636.429167 L109.375,608.290104 L90.625,608.290104 Z M125,608.290104 L125,636.429167 L143.75,636.429167 L143.75,608.290104 L125,608.290104 Z M158.333333,608.290104 L158.333333,636.429167 L177.083333,636.429167 L177.083333,608.290104 L158.333333,608.290104 Z M272.569444,608.290104 L272.569444,636.081771 L291.319444,636.081771 L291.319444,608.290104 L272.569444,608.290104 Z M302.430556,608.290104 L302.430556,636.081771 L321.180556,636.081771 L321.180556,608.290104 L302.430556,608.290104 Z M331.597222,608.290104 L331.597222,636.081771 L350.347222,636.081771 L350.347222,608.290104 L331.597222,608.290104 Z M360.069444,608.290104 L360.069444,636.081771 L375,636.081771 L375,632.955208 L363.541667,632.955208 L363.541667,611.764063 L375,611.764063 L375,608.290104 L360.069444,608.290104 Z" id="Shape" fill="#010101"></path>
            <path d="M94.0972222,611.764063 L94.0972222,632.955208 L105.902778,632.955208 L105.902778,611.764063 L94.0972222,611.764063 Z M128.472222,611.764063 L128.472222,632.955208 L140.277778,632.955208 L140.277778,611.764063 L128.472222,611.764063 Z M161.805556,611.764063 L161.805556,632.955208 L173.611111,632.955208 L173.611111,611.764063 L161.805556,611.764063 Z M276.041667,611.764063 L276.041667,632.955208 L287.847222,632.955208 L287.847222,611.764063 L276.041667,611.764063 Z M305.902778,611.764063 L305.902778,632.955208 L317.708333,632.955208 L317.708333,611.764063 L305.902778,611.764063 Z M335.069444,611.764063 L335.069444,632.955208 L346.875,632.955208 L346.875,611.764063 L335.069444,611.764063 Z M363.541667,611.764063 L363.541667,632.955208 L375,632.955208 L375,611.764063 L363.541667,611.764063 Z" id="Shape" fill="#C5FFF3"></path>
            <path d="M16.3194444,622.880729 L16.3194444,651.019792 L35.0694444,651.019792 L35.0694444,622.880729 L16.3194444,622.880729 Z M41.6666667,622.880729 L41.6666667,651.019792 L60.4166667,651.019792 L60.4166667,622.880729 L41.6666667,622.880729 Z" id="Shape" fill="#010101"></path>
            <path d="M19.7916667,626.354688 L19.7916667,647.545833 L31.5972222,647.545833 L31.5972222,626.354688 L19.7916667,626.354688 Z M45.1388889,626.354688 L45.1388889,647.545833 L56.9444444,647.545833 L56.9444444,626.354688 L45.1388889,626.354688 Z M70.8333333,626.354688 L70.8333333,647.545833 L71.875,647.545833 L71.875,626.354688 L70.8333333,626.354688 Z" id="Shape" fill="#C5FFF3"></path>
            <polygon id="Shape" fill="#010101" points="216.319444 639.555729 216.319444 667 235.069444 667 235.069444 639.555729"></polygon>
            <path d="M194.097222,643.029688 L194.097222,664.220833 L201.041667,664.220833 L201.041667,643.029688 L194.097222,643.029688 Z M219.791667,643.029688 L219.791667,664.220833 L231.597222,664.220833 L231.597222,643.029688 L219.791667,643.029688 Z M251.736111,643.029688 L251.736111,664.220833 L255.208333,664.220833 L255.208333,643.029688 L251.736111,643.029688 Z" id="Shape" fill="#C5FFF3"></path>
            <path d="M272.569444,644.766667 L272.569444,667 L276.041667,667 L276.041667,648.240625 L287.847222,648.240625 L287.847222,667 L291.319444,667 L291.319444,644.766667 L272.569444,644.766667 Z M302.430556,644.766667 L302.430556,667 L305.902778,667 L305.902778,648.240625 L317.708333,648.240625 L317.708333,667 L321.180556,667 L321.180556,644.766667 L302.430556,644.766667 Z M331.597222,644.766667 L331.597222,667 L335.069444,667 L335.069444,648.240625 L346.875,648.240625 L346.875,667 L350.347222,667 L350.347222,644.766667 L331.597222,644.766667 Z M360.069444,644.766667 L360.069444,667 L363.541667,667 L363.541667,648.240625 L375,648.240625 L375,644.766667 L360.069444,644.766667 Z M90.625,645.461458 L90.625,667 L94.0972222,667 L94.0972222,648.935417 L105.902778,648.935417 L105.902778,667 L109.375,667 L109.375,645.461458 L90.625,645.461458 Z M125,645.461458 L125,667 L128.472222,667 L128.472222,648.935417 L140.277778,648.935417 L140.277778,667 L143.75,667 L143.75,645.461458 L125,645.461458 Z M158.333333,645.461458 L158.333333,667 L161.805556,667 L161.805556,648.935417 L173.611111,648.935417 L173.611111,667 L177.083333,667 L177.083333,645.461458 L158.333333,645.461458 Z" id="Shape" fill="#010101"></path>
            <path d="M276.041667,648.240625 L276.041667,667 L287.847222,667 L287.847222,648.240625 L276.041667,648.240625 Z M305.902778,648.240625 L305.902778,667 L317.708333,667 L317.708333,648.240625 L305.902778,648.240625 Z M335.069444,648.240625 L335.069444,667 L346.875,667 L346.875,648.240625 L335.069444,648.240625 Z M363.541667,648.240625 L363.541667,667 L375,667 L375,648.240625 L363.541667,648.240625 Z M94.0972222,648.935417 L94.0972222,667 L105.902778,667 L105.902778,648.935417 L94.0972222,648.935417 Z M128.472222,648.935417 L128.472222,667 L140.277778,667 L140.277778,648.935417 L128.472222,648.935417 Z M161.805556,648.935417 L161.805556,667 L173.611111,667 L173.611111,648.935417 L161.805556,648.935417 Z" id="Shape" fill="#C5FFF3"></path>
            <path d="M16.3194444,659.704687 L16.3194444,667 L19.7916667,667 L19.7916667,663.178646 L31.5972222,663.178646 L31.5972222,667 L35.0694444,667 L35.0694444,659.704687 L16.3194444,659.704687 Z M41.6666667,659.704687 L41.6666667,667 L45.1388889,667 L45.1388889,663.178646 L56.9444444,663.178646 L56.9444444,667 L60.4166667,667 L60.4166667,659.704687 L41.6666667,659.704687 Z" id="Shape" fill="#010101"></path>
            <path d="M19.7916667,663.178646 L19.7916667,667 L31.5972222,667 L31.5972222,663.178646 L19.7916667,663.178646 Z M45.1388889,663.178646 L45.1388889,667 L56.9444444,667 L56.9444444,663.178646 L45.1388889,663.178646 Z M70.8333333,663.178646 L70.8333333,667 L71.875,667 L71.875,663.178646 L70.8333333,663.178646 Z" id="Shape" fill="#C5FFF3"></path>
        </g>
    </g>
</svg>