<?xml version="1.0" encoding="UTF-8"?>
<svg width="100px" height="155px" viewBox="0 0 100 155" version="1.1" xmlns="http://www.w3.org/2000/svg" xmlns:xlink="http://www.w3.org/1999/xlink">
    <!-- Generator: Sketch 50.2 (55047) - http://www.bohemiancoding.com/sketch -->
    <title>CityBackgroundPreview</title>
    <desc>Created with Sketch.</desc>
    <defs></defs>
    <g id="iPhone" stroke="none" stroke-width="1" fill="none" fill-rule="evenodd">
        <g id="CityBackgroundPreview" fill-rule="nonzero">
            <polygon id="Shape" fill="#2BB1E3" points="0 0 0 155 0.277777778 155 0.277777778 72.8984375 33.2407407 72.8984375 33.2407407 93.2421875 45.7407407 93.2421875 45.7407407 49.8098958 74.0740741 49.8098958 74.0740741 76.9348958 100 76.9348958 100 0"></polygon>
            <polygon id="Shape" fill="#010101" points="45.7407407 49.8098958 45.7407407 93.2421875 33.2407407 93.2421875 33.2407407 72.8984375 0.277777778 72.8984375 0.277777778 155 1.11111111 155 1.11111111 73.625 32.4074074 73.625 32.4074074 93.2421875 19.1666667 93.2421875 19.1666667 93.5651042 17.962963 93.5651042 17.962963 100.104167 19.1666667 100.104167 19.1666667 102.364583 17.962963 102.364583 17.962963 108.903646 19.1666667 108.903646 19.1666667 110.921875 17.962963 110.921875 17.962963 117.380208 19.1666667 117.380208 19.1666667 119.398437 17.962963 119.398437 17.962963 125.9375 19.1666667 125.9375 19.1666667 128.036458 17.962963 128.036458 17.962963 134.575521 19.1666667 134.575521 19.1666667 136.59375 17.962963 136.59375 17.962963 143.052083 19.1666667 143.052083 19.1666667 144.747396 17.962963 144.747396 17.962963 151.286458 19.1666667 151.286458 19.1666667 153.304687 17.962963 153.304687 17.962963 155 18.8888889 155 18.8888889 154.111979 19.1666667 154.111979 19.1666667 155 20 155 20 94.0494792 50.8333333 94.0494792 50.8333333 155 54.537037 155 54.537037 148.622396 51.7592593 148.622396 51.7592593 146.604167 54.537037 146.604167 54.537037 140.145833 51.7592593 140.145833 51.7592593 138.127604 54.537037 138.127604 54.537037 131.588542 51.7592593 131.588542 51.7592593 129.651042 54.537037 129.651042 54.537037 123.111979 51.7592593 123.111979 51.7592593 121.09375 54.537037 121.09375 54.537037 114.635417 51.7592593 114.635417 51.7592593 112.617187 54.537037 112.617187 54.537037 106.078125 51.7592593 106.078125 51.7592593 103.979167 54.537037 103.979167 54.537037 97.4401042 51.7592593 97.4401042 51.7592593 95.421875 54.537037 95.421875 54.537037 88.9635417 49.537037 88.9635417 49.537037 93.2421875 46.5740741 93.2421875 46.5740741 50.5364583 73.2407407 50.5364583 73.2407407 76.9348958 71.2037037 76.9348958 71.2037037 71.6067708 66.2037037 71.6067708 66.2037037 78.1458333 68.0555556 78.1458333 68.0555556 80.40625 66.2037037 80.40625 66.2037037 86.9453125 68.0555556 86.9453125 68.0555556 88.9635417 66.2037037 88.9635417 66.2037037 95.5026042 68.0555556 95.5026042 68.0555556 97.4401042 66.2037037 97.4401042 66.2037037 103.979167 68.0555556 103.979167 68.0555556 106.078125 66.2037037 106.078125 66.2037037 112.617187 68.0555556 112.617187 68.0555556 114.635417 66.2037037 114.635417 66.2037037 121.174479 68.0555556 121.174479 68.0555556 123.111979 66.2037037 123.111979 66.2037037 129.651042 68.0555556 129.651042 68.0555556 131.588542 66.2037037 131.588542 66.2037037 138.127604 68.0555556 138.127604 68.0555556 140.145833 66.2037037 140.145833 66.2037037 146.684896 68.0555556 146.684896 68.0555556 148.622396 66.2037037 148.622396 66.2037037 155 68.9814815 155 68.9814815 77.7421875 100 77.7421875 100 76.9348958 74.0740741 76.9348958 74.0740741 49.8098958"></polygon>
            <polygon id="Shape" fill="#CBCDAB" points="46.5740741 50.5364583 46.5740741 93.2421875 49.537037 93.2421875 49.537037 88.9635417 54.537037 88.9635417 54.537037 95.421875 51.7592593 95.421875 51.7592593 97.4401042 54.537037 97.4401042 54.537037 103.979167 51.7592593 103.979167 51.7592593 106.078125 54.537037 106.078125 54.537037 112.617187 51.7592593 112.617187 51.7592593 114.635417 54.537037 114.635417 54.537037 121.09375 51.7592593 121.09375 51.7592593 123.111979 54.537037 123.111979 54.537037 129.651042 51.7592593 129.651042 51.7592593 131.588542 54.537037 131.588542 54.537037 138.127604 51.7592593 138.127604 51.7592593 140.145833 54.537037 140.145833 54.537037 146.604167 51.7592593 146.604167 51.7592593 148.622396 54.537037 148.622396 54.537037 155 57.6851852 155 57.6851852 148.622396 62.6851852 148.622396 62.6851852 155 66.2037037 155 66.2037037 148.622396 68.0555556 148.622396 68.0555556 146.684896 66.2037037 146.684896 66.2037037 140.145833 68.0555556 140.145833 68.0555556 138.127604 66.2037037 138.127604 66.2037037 131.588542 68.0555556 131.588542 68.0555556 129.651042 66.2037037 129.651042 66.2037037 123.111979 68.0555556 123.111979 68.0555556 121.174479 66.2037037 121.174479 66.2037037 114.635417 68.0555556 114.635417 68.0555556 112.617187 66.2037037 112.617187 66.2037037 106.078125 68.0555556 106.078125 68.0555556 103.979167 66.2037037 103.979167 66.2037037 97.4401042 68.0555556 97.4401042 68.0555556 95.5026042 66.2037037 95.5026042 66.2037037 88.9635417 68.0555556 88.9635417 68.0555556 86.9453125 66.2037037 86.9453125 66.2037037 80.40625 68.0555556 80.40625 68.0555556 78.1458333 66.2037037 78.1458333 66.2037037 71.6067708 71.2037037 71.6067708 71.2037037 76.9348958 73.2407407 76.9348958 73.2407407 50.5364583"></polygon>
            <path d="M49.537037,54.5729167 L49.537037,61.1119792 L54.537037,61.1119792 L54.537037,54.5729167 L49.537037,54.5729167 Z M57.6851852,54.5729167 L57.6851852,61.1119792 L62.6851852,61.1119792 L62.6851852,54.5729167 L57.6851852,54.5729167 Z M66.2037037,54.5729167 L66.2037037,61.1119792 L71.2037037,61.1119792 L71.2037037,54.5729167 L66.2037037,54.5729167 Z" id="Shape" fill="#010101"></path>
            <path d="M50.462963,55.3802083 L50.462963,60.3046875 L53.6111111,60.3046875 L53.6111111,55.3802083 L50.462963,55.3802083 Z M58.6111111,55.3802083 L58.6111111,60.3046875 L61.7592593,60.3046875 L61.7592593,55.3802083 L58.6111111,55.3802083 Z M67.1296296,55.3802083 L67.1296296,60.3046875 L70.2777778,60.3046875 L70.2777778,55.3802083 L67.1296296,55.3802083 Z" id="Shape" fill="#C5FFF3"></path>
            <path d="M49.537037,63.1302083 L49.537037,69.6692708 L54.537037,69.6692708 L54.537037,63.1302083 L49.537037,63.1302083 Z M57.6851852,63.1302083 L57.6851852,69.6692708 L62.6851852,69.6692708 L62.6851852,63.1302083 L57.6851852,63.1302083 Z M66.2037037,63.1302083 L66.2037037,69.6692708 L71.2037037,69.6692708 L71.2037037,63.1302083 L66.2037037,63.1302083 Z" id="Shape" fill="#010101"></path>
            <path d="M50.462963,63.9375 L50.462963,68.8619792 L53.6111111,68.8619792 L53.6111111,63.9375 L50.462963,63.9375 Z M58.6111111,63.9375 L58.6111111,68.8619792 L61.7592593,68.8619792 L61.7592593,63.9375 L58.6111111,63.9375 Z M67.1296296,63.9375 L67.1296296,68.8619792 L70.2777778,68.8619792 L70.2777778,63.9375 L67.1296296,63.9375 Z" id="Shape" fill="#C5FFF3"></path>
            <path d="M49.537037,71.6067708 L49.537037,78.1458333 L54.537037,78.1458333 L54.537037,71.6067708 L49.537037,71.6067708 Z M57.6851852,71.6067708 L57.6851852,78.1458333 L62.6851852,78.1458333 L62.6851852,71.6067708 L57.6851852,71.6067708 Z" id="Shape" fill="#010101"></path>
            <path d="M50.462963,72.4140625 L50.462963,77.3385417 L53.6111111,77.3385417 L53.6111111,72.4140625 L50.462963,72.4140625 Z M58.6111111,72.4140625 L58.6111111,77.3385417 L61.7592593,77.3385417 L61.7592593,72.4140625 L58.6111111,72.4140625 Z M67.1296296,72.4140625 L67.1296296,77.3385417 L68.0555556,77.3385417 L68.0555556,76.9348958 L70.2777778,76.9348958 L70.2777778,72.4140625 L67.1296296,72.4140625 Z" id="Shape" fill="#C5FFF3"></path>
            <polygon id="Shape" fill="#8F8787" points="1.11111111 73.625 1.11111111 155 4.35185185 155 4.35185185 153.304687 9.35185185 153.304687 9.35185185 155 11.1111111 155 11.1111111 153.304687 16.1111111 153.304687 16.1111111 155 17.962963 155 17.962963 153.304687 19.1666667 153.304687 19.1666667 151.286458 17.962963 151.286458 17.962963 144.747396 19.1666667 144.747396 19.1666667 143.052083 17.962963 143.052083 17.962963 136.59375 19.1666667 136.59375 19.1666667 134.575521 17.962963 134.575521 17.962963 128.036458 19.1666667 128.036458 19.1666667 125.9375 17.962963 125.9375 17.962963 119.398437 19.1666667 119.398437 19.1666667 117.380208 17.962963 117.380208 17.962963 110.921875 19.1666667 110.921875 19.1666667 108.903646 17.962963 108.903646 17.962963 102.364583 19.1666667 102.364583 19.1666667 100.104167 17.962963 100.104167 17.962963 93.5651042 19.1666667 93.5651042 19.1666667 93.2421875 32.4074074 93.2421875 32.4074074 73.625"></polygon>
            <path d="M4.35185185,76.53125 L4.35185185,83.0703125 L9.35185185,83.0703125 L9.35185185,76.53125 L4.35185185,76.53125 Z M11.1111111,76.53125 L11.1111111,83.0703125 L16.1111111,83.0703125 L16.1111111,76.53125 L11.1111111,76.53125 Z M17.962963,76.53125 L17.962963,83.0703125 L22.962963,83.0703125 L22.962963,76.53125 L17.962963,76.53125 Z M24.7222222,76.53125 L24.7222222,83.0703125 L29.7222222,83.0703125 L29.7222222,76.53125 L24.7222222,76.53125 Z" id="Shape" fill="#010101"></path>
            <path d="M5.27777778,77.3385417 L5.27777778,82.2630208 L8.42592593,82.2630208 L8.42592593,77.3385417 L5.27777778,77.3385417 Z M12.037037,77.3385417 L12.037037,82.2630208 L15.1851852,82.2630208 L15.1851852,77.3385417 L12.037037,77.3385417 Z M18.8888889,77.3385417 L18.8888889,82.2630208 L22.037037,82.2630208 L22.037037,77.3385417 L18.8888889,77.3385417 Z M25.6481481,77.3385417 L25.6481481,82.2630208 L28.7962963,82.2630208 L28.7962963,77.3385417 L25.6481481,77.3385417 Z" id="Shape" fill="#C5FFF3"></path>
            <polygon id="Shape" fill="#AF4D37" points="68.9814815 77.7421875 68.9814815 155 72.6851852 155 72.6851852 149.833333 77.6851852 149.833333 77.6851852 155 80.6481481 155 80.6481481 149.833333 85.6481481 149.833333 85.6481481 155 88.4259259 155 88.4259259 149.833333 93.4259259 149.833333 93.4259259 155 96.0185185 155 96.0185185 149.833333 100 149.833333 100 147.815104 96.0185185 147.815104 96.0185185 141.356771 100 141.356771 100 139.338542 96.0185185 139.338542 96.0185185 132.799479 100 132.799479 100 130.700521 96.0185185 130.700521 96.0185185 124.161458 100 124.161458 100 122.143229 96.0185185 122.143229 96.0185185 115.684896 100 115.684896 100 113.666667 96.0185185 113.666667 96.0185185 107.127604 100 107.127604 100 104.867188 96.0185185 104.867188 96.0185185 98.328125 100 98.328125 100 96.390625 96.0185185 96.390625 96.0185185 89.8515625 100 89.8515625 100 87.8333333 96.0185185 87.8333333 96.0185185 81.2942708 100 81.2942708 100 77.7421875"></polygon>
            <path d="M49.537037,80.40625 L49.537037,86.9453125 L54.537037,86.9453125 L54.537037,80.40625 L49.537037,80.40625 Z M57.6851852,80.40625 L57.6851852,86.9453125 L62.6851852,86.9453125 L62.6851852,80.40625 L57.6851852,80.40625 Z" id="Shape" fill="#010101"></path>
            <path d="M50.462963,81.2135417 L50.462963,86.1380208 L53.6111111,86.1380208 L53.6111111,81.2135417 L50.462963,81.2135417 Z M58.6111111,81.2135417 L58.6111111,86.1380208 L61.7592593,86.1380208 L61.7592593,81.2135417 L58.6111111,81.2135417 Z M67.1296296,81.2135417 L67.1296296,86.1380208 L68.0555556,86.1380208 L68.0555556,81.2135417 L67.1296296,81.2135417 Z" id="Shape" fill="#C5FFF3"></path>
            <path d="M72.6851852,81.2942708 L72.6851852,87.8333333 L77.6851852,87.8333333 L77.6851852,81.2942708 L72.6851852,81.2942708 Z M80.6481481,81.2942708 L80.6481481,87.8333333 L85.6481481,87.8333333 L85.6481481,81.2942708 L80.6481481,81.2942708 Z M88.4259259,81.2942708 L88.4259259,87.8333333 L93.4259259,87.8333333 L93.4259259,81.2942708 L88.4259259,81.2942708 Z M96.0185185,81.2942708 L96.0185185,87.8333333 L100,87.8333333 L100,87.0260417 L96.9444444,87.0260417 L96.9444444,82.1015625 L100,82.1015625 L100,81.2942708 L96.0185185,81.2942708 Z" id="Shape" fill="#010101"></path>
            <path d="M73.6111111,82.1015625 L73.6111111,87.0260417 L76.7592593,87.0260417 L76.7592593,82.1015625 L73.6111111,82.1015625 Z M81.5740741,82.1015625 L81.5740741,87.0260417 L84.7222222,87.0260417 L84.7222222,82.1015625 L81.5740741,82.1015625 Z M89.3518519,82.1015625 L89.3518519,87.0260417 L92.5,87.0260417 L92.5,82.1015625 L89.3518519,82.1015625 Z M96.9444444,82.1015625 L96.9444444,87.0260417 L100,87.0260417 L100,82.1015625 L96.9444444,82.1015625 Z" id="Shape" fill="#C5FFF3"></path>
            <path d="M4.35185185,85.0885417 L4.35185185,91.6276042 L9.35185185,91.6276042 L9.35185185,85.0885417 L4.35185185,85.0885417 Z M11.1111111,85.0885417 L11.1111111,91.6276042 L16.1111111,91.6276042 L16.1111111,85.0885417 L11.1111111,85.0885417 Z M17.962963,85.0885417 L17.962963,91.6276042 L22.962963,91.6276042 L22.962963,85.0885417 L17.962963,85.0885417 Z M24.7222222,85.0885417 L24.7222222,91.6276042 L29.7222222,91.6276042 L29.7222222,85.0885417 L24.7222222,85.0885417 Z" id="Shape" fill="#010101"></path>
            <path d="M5.27777778,85.8958333 L5.27777778,90.8203125 L8.42592593,90.8203125 L8.42592593,85.8958333 L5.27777778,85.8958333 Z M12.037037,85.8958333 L12.037037,90.8203125 L15.1851852,90.8203125 L15.1851852,85.8958333 L12.037037,85.8958333 Z M18.8888889,85.8958333 L18.8888889,90.8203125 L22.037037,90.8203125 L22.037037,85.8958333 L18.8888889,85.8958333 Z M25.6481481,85.8958333 L25.6481481,90.8203125 L28.7962963,90.8203125 L28.7962963,85.8958333 L25.6481481,85.8958333 Z" id="Shape" fill="#C5FFF3"></path>
            <polygon id="Shape" fill="#010101" points="57.6851852 88.9635417 57.6851852 95.5026042 62.6851852 95.5026042 62.6851852 88.9635417"></polygon>
            <path d="M50.462963,89.7708333 L50.462963,93.2421875 L51.7592593,93.2421875 L51.7592593,94.6953125 L53.6111111,94.6953125 L53.6111111,89.7708333 L50.462963,89.7708333 Z M58.6111111,89.7708333 L58.6111111,94.6953125 L61.7592593,94.6953125 L61.7592593,89.7708333 L58.6111111,89.7708333 Z M67.1296296,89.7708333 L67.1296296,94.6953125 L68.0555556,94.6953125 L68.0555556,89.7708333 L67.1296296,89.7708333 Z" id="Shape" fill="#C5FFF3"></path>
            <path d="M72.6851852,89.8515625 L72.6851852,96.390625 L77.6851852,96.390625 L77.6851852,89.8515625 L72.6851852,89.8515625 Z M80.6481481,89.8515625 L80.6481481,96.390625 L85.6481481,96.390625 L85.6481481,89.8515625 L80.6481481,89.8515625 Z M88.4259259,89.8515625 L88.4259259,96.390625 L93.4259259,96.390625 L93.4259259,89.8515625 L88.4259259,89.8515625 Z M96.0185185,89.8515625 L96.0185185,96.390625 L100,96.390625 L100,95.5833333 L96.9444444,95.5833333 L96.9444444,90.6588542 L100,90.6588542 L100,89.8515625 L96.0185185,89.8515625 Z" id="Shape" fill="#010101"></path>
            <path d="M73.6111111,90.6588542 L73.6111111,95.5833333 L76.7592593,95.5833333 L76.7592593,90.6588542 L73.6111111,90.6588542 Z M81.5740741,90.6588542 L81.5740741,95.5833333 L84.7222222,95.5833333 L84.7222222,90.6588542 L81.5740741,90.6588542 Z M89.3518519,90.6588542 L89.3518519,95.5833333 L92.5,95.5833333 L92.5,90.6588542 L89.3518519,90.6588542 Z M96.9444444,90.6588542 L96.9444444,95.5833333 L100,95.5833333 L100,90.6588542 L96.9444444,90.6588542 Z" id="Shape" fill="#C5FFF3"></path>
            <path d="M4.35185185,93.5651042 L4.35185185,100.104167 L9.35185185,100.104167 L9.35185185,93.5651042 L4.35185185,93.5651042 Z M11.1111111,93.5651042 L11.1111111,100.104167 L16.1111111,100.104167 L16.1111111,93.5651042 L11.1111111,93.5651042 Z" id="Shape" fill="#010101"></path>
            <polygon id="Shape" fill="#8FBDC5" points="20 94.0494792 20 155 24.1666667 155 24.1666667 149.994792 29.1666667 149.994792 29.1666667 155 33.3333333 155 33.3333333 149.994792 38.3333333 149.994792 38.3333333 155 42.2222222 155 42.2222222 149.994792 47.2222222 149.994792 47.2222222 155 50.8333333 155 50.8333333 94.0494792"></polygon>
            <path d="M5.27777778,94.3723958 L5.27777778,99.296875 L8.42592593,99.296875 L8.42592593,94.3723958 L5.27777778,94.3723958 Z M12.037037,94.3723958 L12.037037,99.296875 L15.1851852,99.296875 L15.1851852,94.3723958 L12.037037,94.3723958 Z M18.8888889,94.3723958 L18.8888889,99.296875 L19.1666667,99.296875 L19.1666667,94.3723958 L18.8888889,94.3723958 Z" id="Shape" fill="#C5FFF3"></path>
            <polygon id="Shape" fill="#010101" points="57.6851852 97.4401042 57.6851852 103.979167 62.6851852 103.979167 62.6851852 97.4401042"></polygon>
            <path d="M51.7592593,98.2473958 L51.7592593,103.171875 L53.6111111,103.171875 L53.6111111,98.2473958 L51.7592593,98.2473958 Z M58.6111111,98.2473958 L58.6111111,103.171875 L61.7592593,103.171875 L61.7592593,98.2473958 L58.6111111,98.2473958 Z M67.1296296,98.2473958 L67.1296296,103.171875 L68.0555556,103.171875 L68.0555556,98.2473958 L67.1296296,98.2473958 Z" id="Shape" fill="#C5FFF3"></path>
            <path d="M72.6851852,98.328125 L72.6851852,104.867187 L77.6851852,104.867187 L77.6851852,98.328125 L72.6851852,98.328125 Z M80.6481481,98.328125 L80.6481481,104.867187 L85.6481481,104.867187 L85.6481481,98.328125 L80.6481481,98.328125 Z M88.4259259,98.328125 L88.4259259,104.867187 L93.4259259,104.867187 L93.4259259,98.328125 L88.4259259,98.328125 Z M96.0185185,98.328125 L96.0185185,104.867187 L100,104.867187 L100,104.059896 L96.9444444,104.059896 L96.9444444,99.1354167 L100,99.1354167 L100,98.328125 L96.0185185,98.328125 Z M24.1666667,98.4895833 L24.1666667,105.028646 L29.1666667,105.028646 L29.1666667,98.4895833 L24.1666667,98.4895833 Z M33.3333333,98.4895833 L33.3333333,105.028646 L38.3333333,105.028646 L38.3333333,98.4895833 L33.3333333,98.4895833 Z M42.2222222,98.4895833 L42.2222222,105.028646 L47.2222222,105.028646 L47.2222222,98.4895833 L42.2222222,98.4895833 Z" id="Shape" fill="#010101"></path>
            <path d="M73.6111111,99.1354167 L73.6111111,104.059896 L76.7592593,104.059896 L76.7592593,99.1354167 L73.6111111,99.1354167 Z M81.5740741,99.1354167 L81.5740741,104.059896 L84.7222222,104.059896 L84.7222222,99.1354167 L81.5740741,99.1354167 Z M89.3518519,99.1354167 L89.3518519,104.059896 L92.5,104.059896 L92.5,99.1354167 L89.3518519,99.1354167 Z M96.9444444,99.1354167 L96.9444444,104.059896 L100,104.059896 L100,99.1354167 L96.9444444,99.1354167 Z M25.0925926,99.296875 L25.0925926,104.221354 L28.2407407,104.221354 L28.2407407,99.296875 L25.0925926,99.296875 Z M34.2592593,99.296875 L34.2592593,104.221354 L37.4074074,104.221354 L37.4074074,99.296875 L34.2592593,99.296875 Z M43.1481481,99.296875 L43.1481481,104.221354 L46.2962963,104.221354 L46.2962963,99.296875 L43.1481481,99.296875 Z" id="Shape" fill="#C5FFF3"></path>
            <path d="M4.35185185,102.364583 L4.35185185,108.903646 L9.35185185,108.903646 L9.35185185,102.364583 L4.35185185,102.364583 Z M11.1111111,102.364583 L11.1111111,108.903646 L16.1111111,108.903646 L16.1111111,102.364583 L11.1111111,102.364583 Z" id="Shape" fill="#010101"></path>
            <path d="M5.27777778,103.171875 L5.27777778,108.096354 L8.42592593,108.096354 L8.42592593,103.171875 L5.27777778,103.171875 Z M12.037037,103.171875 L12.037037,108.096354 L15.1851852,108.096354 L15.1851852,103.171875 L12.037037,103.171875 Z M18.8888889,103.171875 L18.8888889,108.096354 L19.1666667,108.096354 L19.1666667,103.171875 L18.8888889,103.171875 Z" id="Shape" fill="#C5FFF3"></path>
            <polygon id="Shape" fill="#010101" points="57.6851852 106.078125 57.6851852 112.617188 62.6851852 112.617188 62.6851852 106.078125"></polygon>
            <path d="M51.7592593,106.885417 L51.7592593,111.809896 L53.6111111,111.809896 L53.6111111,106.885417 L51.7592593,106.885417 Z M58.6111111,106.885417 L58.6111111,111.809896 L61.7592593,111.809896 L61.7592593,106.885417 L58.6111111,106.885417 Z M67.1296296,106.885417 L67.1296296,111.809896 L68.0555556,111.809896 L68.0555556,106.885417 L67.1296296,106.885417 Z" id="Shape" fill="#C5FFF3"></path>
            <path d="M24.1666667,107.046875 L24.1666667,113.585937 L29.1666667,113.585937 L29.1666667,107.046875 L24.1666667,107.046875 Z M33.3333333,107.046875 L33.3333333,113.585937 L38.3333333,113.585937 L38.3333333,107.046875 L33.3333333,107.046875 Z M42.2222222,107.046875 L42.2222222,113.585937 L47.2222222,113.585937 L47.2222222,107.046875 L42.2222222,107.046875 Z M72.6851852,107.127604 L72.6851852,113.666667 L77.6851852,113.666667 L77.6851852,107.127604 L72.6851852,107.127604 Z M80.6481481,107.127604 L80.6481481,113.666667 L85.6481481,113.666667 L85.6481481,107.127604 L80.6481481,107.127604 Z M88.4259259,107.127604 L88.4259259,113.666667 L93.4259259,113.666667 L93.4259259,107.127604 L88.4259259,107.127604 Z M96.0185185,107.127604 L96.0185185,113.666667 L100,113.666667 L100,112.859375 L96.9444444,112.859375 L96.9444444,107.934896 L100,107.934896 L100,107.127604 L96.0185185,107.127604 Z" id="Shape" fill="#010101"></path>
            <path d="M25.0925926,107.854167 L25.0925926,112.778646 L28.2407407,112.778646 L28.2407407,107.854167 L25.0925926,107.854167 Z M34.2592593,107.854167 L34.2592593,112.778646 L37.4074074,112.778646 L37.4074074,107.854167 L34.2592593,107.854167 Z M43.1481481,107.854167 L43.1481481,112.778646 L46.2962963,112.778646 L46.2962963,107.854167 L43.1481481,107.854167 Z M73.6111111,107.934896 L73.6111111,112.859375 L76.7592593,112.859375 L76.7592593,107.934896 L73.6111111,107.934896 Z M81.5740741,107.934896 L81.5740741,112.859375 L84.7222222,112.859375 L84.7222222,107.934896 L81.5740741,107.934896 Z M89.3518519,107.934896 L89.3518519,112.859375 L92.5,112.859375 L92.5,107.934896 L89.3518519,107.934896 Z M96.9444444,107.934896 L96.9444444,112.859375 L100,112.859375 L100,107.934896 L96.9444444,107.934896 Z" id="Shape" fill="#C5FFF3"></path>
            <path d="M4.35185185,110.921875 L4.35185185,117.380208 L9.35185185,117.380208 L9.35185185,110.921875 L4.35185185,110.921875 Z M11.1111111,110.921875 L11.1111111,117.380208 L16.1111111,117.380208 L16.1111111,110.921875 L11.1111111,110.921875 Z" id="Shape" fill="#010101"></path>
            <path d="M5.27777778,111.729167 L5.27777778,116.653646 L8.42592593,116.653646 L8.42592593,111.729167 L5.27777778,111.729167 Z M12.037037,111.729167 L12.037037,116.653646 L15.1851852,116.653646 L15.1851852,111.729167 L12.037037,111.729167 Z M18.8888889,111.729167 L18.8888889,116.653646 L19.1666667,116.653646 L19.1666667,111.729167 L18.8888889,111.729167 Z" id="Shape" fill="#C5FFF3"></path>
            <polygon id="Shape" fill="#010101" points="57.6851852 114.635417 57.6851852 121.174479 62.6851852 121.174479 62.6851852 114.635417"></polygon>
            <path d="M51.7592593,115.442708 L51.7592593,120.367187 L53.6111111,120.367187 L53.6111111,115.442708 L51.7592593,115.442708 Z M58.6111111,115.442708 L58.6111111,120.367187 L61.7592593,120.367187 L61.7592593,115.442708 L58.6111111,115.442708 Z M67.1296296,115.442708 L67.1296296,120.367187 L68.0555556,120.367187 L68.0555556,115.442708 L67.1296296,115.442708 Z" id="Shape" fill="#C5FFF3"></path>
            <path d="M24.1666667,115.523438 L24.1666667,122.0625 L29.1666667,122.0625 L29.1666667,115.523438 L24.1666667,115.523438 Z M33.3333333,115.523438 L33.3333333,122.0625 L38.3333333,122.0625 L38.3333333,115.523438 L33.3333333,115.523438 Z M42.2222222,115.523438 L42.2222222,122.0625 L47.2222222,122.0625 L47.2222222,115.523438 L42.2222222,115.523438 Z M72.6851852,115.684896 L72.6851852,122.143229 L77.6851852,122.143229 L77.6851852,115.684896 L72.6851852,115.684896 Z M80.6481481,115.684896 L80.6481481,122.143229 L85.6481481,122.143229 L85.6481481,115.684896 L80.6481481,115.684896 Z M88.4259259,115.684896 L88.4259259,122.143229 L93.4259259,122.143229 L93.4259259,115.684896 L88.4259259,115.684896 Z M96.0185185,115.684896 L96.0185185,122.143229 L100,122.143229 L100,121.416667 L96.9444444,121.416667 L96.9444444,116.492188 L100,116.492188 L100,115.684896 L96.0185185,115.684896 Z" id="Shape" fill="#010101"></path>
            <path d="M25.0925926,116.330729 L25.0925926,121.255208 L28.2407407,121.255208 L28.2407407,116.330729 L25.0925926,116.330729 Z M34.2592593,116.330729 L34.2592593,121.255208 L37.4074074,121.255208 L37.4074074,116.330729 L34.2592593,116.330729 Z M43.1481481,116.330729 L43.1481481,121.255208 L46.2962963,121.255208 L46.2962963,116.330729 L43.1481481,116.330729 Z M73.6111111,116.492188 L73.6111111,121.416667 L76.7592593,121.416667 L76.7592593,116.492188 L73.6111111,116.492188 Z M81.5740741,116.492188 L81.5740741,121.416667 L84.7222222,121.416667 L84.7222222,116.492188 L81.5740741,116.492188 Z M89.3518519,116.492188 L89.3518519,121.416667 L92.5,121.416667 L92.5,116.492188 L89.3518519,116.492188 Z M96.9444444,116.492188 L96.9444444,121.416667 L100,121.416667 L100,116.492188 L96.9444444,116.492188 Z" id="Shape" fill="#C5FFF3"></path>
            <path d="M4.35185185,119.398437 L4.35185185,125.9375 L9.35185185,125.9375 L9.35185185,119.398437 L4.35185185,119.398437 Z M11.1111111,119.398437 L11.1111111,125.9375 L16.1111111,125.9375 L16.1111111,119.398437 L11.1111111,119.398437 Z" id="Shape" fill="#010101"></path>
            <path d="M5.27777778,120.205729 L5.27777778,125.130208 L8.42592593,125.130208 L8.42592593,120.205729 L5.27777778,120.205729 Z M12.037037,120.205729 L12.037037,125.130208 L15.1851852,125.130208 L15.1851852,120.205729 L12.037037,120.205729 Z M18.8888889,120.205729 L18.8888889,125.130208 L19.1666667,125.130208 L19.1666667,120.205729 L18.8888889,120.205729 Z" id="Shape" fill="#C5FFF3"></path>
            <polygon id="Shape" fill="#010101" points="57.6851852 123.111979 57.6851852 129.651042 62.6851852 129.651042 62.6851852 123.111979"></polygon>
            <path d="M51.7592593,123.919271 L51.7592593,128.84375 L53.6111111,128.84375 L53.6111111,123.919271 L51.7592593,123.919271 Z M58.6111111,123.919271 L58.6111111,128.84375 L61.7592593,128.84375 L61.7592593,123.919271 L58.6111111,123.919271 Z M67.1296296,123.919271 L67.1296296,128.84375 L68.0555556,128.84375 L68.0555556,123.919271 L67.1296296,123.919271 Z" id="Shape" fill="#C5FFF3"></path>
            <path d="M72.6851852,124.161458 L72.6851852,130.700521 L77.6851852,130.700521 L77.6851852,124.161458 L72.6851852,124.161458 Z M80.6481481,124.161458 L80.6481481,130.700521 L85.6481481,130.700521 L85.6481481,124.161458 L80.6481481,124.161458 Z M88.4259259,124.161458 L88.4259259,130.700521 L93.4259259,130.700521 L93.4259259,124.161458 L88.4259259,124.161458 Z M96.0185185,124.161458 L96.0185185,130.700521 L100,130.700521 L100,129.893229 L96.9444444,129.893229 L96.9444444,124.96875 L100,124.96875 L100,124.161458 L96.0185185,124.161458 Z M24.1666667,124.322917 L24.1666667,130.861979 L29.1666667,130.861979 L29.1666667,124.322917 L24.1666667,124.322917 Z M33.3333333,124.322917 L33.3333333,130.861979 L38.3333333,130.861979 L38.3333333,124.322917 L33.3333333,124.322917 Z M42.2222222,124.322917 L42.2222222,130.861979 L47.2222222,130.861979 L47.2222222,124.322917 L42.2222222,124.322917 Z" id="Shape" fill="#010101"></path>
            <path d="M73.6111111,124.96875 L73.6111111,129.893229 L76.7592593,129.893229 L76.7592593,124.96875 L73.6111111,124.96875 Z M81.5740741,124.96875 L81.5740741,129.893229 L84.7222222,129.893229 L84.7222222,124.96875 L81.5740741,124.96875 Z M89.3518519,124.96875 L89.3518519,129.893229 L92.5,129.893229 L92.5,124.96875 L89.3518519,124.96875 Z M96.9444444,124.96875 L96.9444444,129.893229 L100,129.893229 L100,124.96875 L96.9444444,124.96875 Z M25.0925926,125.130208 L25.0925926,130.054687 L28.2407407,130.054687 L28.2407407,125.130208 L25.0925926,125.130208 Z M34.2592593,125.130208 L34.2592593,130.054687 L37.4074074,130.054687 L37.4074074,125.130208 L34.2592593,125.130208 Z M43.1481481,125.130208 L43.1481481,130.054687 L46.2962963,130.054687 L46.2962963,125.130208 L43.1481481,125.130208 Z" id="Shape" fill="#C5FFF3"></path>
            <path d="M4.35185185,128.036458 L4.35185185,134.575521 L9.35185185,134.575521 L9.35185185,128.036458 L4.35185185,128.036458 Z M11.1111111,128.036458 L11.1111111,134.575521 L16.1111111,134.575521 L16.1111111,128.036458 L11.1111111,128.036458 Z" id="Shape" fill="#010101"></path>
            <path d="M5.27777778,128.84375 L5.27777778,133.768229 L8.42592593,133.768229 L8.42592593,128.84375 L5.27777778,128.84375 Z M12.037037,128.84375 L12.037037,133.768229 L15.1851852,133.768229 L15.1851852,128.84375 L12.037037,128.84375 Z M18.8888889,128.84375 L18.8888889,133.768229 L19.1666667,133.768229 L19.1666667,128.84375 L18.8888889,128.84375 Z" id="Shape" fill="#C5FFF3"></path>
            <polygon id="Shape" fill="#010101" points="57.6851852 131.588542 57.6851852 138.127604 62.6851852 138.127604 62.6851852 131.588542"></polygon>
            <path d="M51.7592593,132.395833 L51.7592593,137.320312 L53.6111111,137.320312 L53.6111111,132.395833 L51.7592593,132.395833 Z M58.6111111,132.395833 L58.6111111,137.320312 L61.7592593,137.320312 L61.7592593,132.395833 L58.6111111,132.395833 Z M67.1296296,132.395833 L67.1296296,137.320312 L68.0555556,137.320312 L68.0555556,132.395833 L67.1296296,132.395833 Z" id="Shape" fill="#C5FFF3"></path>
            <path d="M72.6851852,132.799479 L72.6851852,139.338542 L77.6851852,139.338542 L77.6851852,132.799479 L72.6851852,132.799479 Z M80.6481481,132.799479 L80.6481481,139.338542 L85.6481481,139.338542 L85.6481481,132.799479 L80.6481481,132.799479 Z M88.4259259,132.799479 L88.4259259,139.338542 L93.4259259,139.338542 L93.4259259,132.799479 L88.4259259,132.799479 Z M96.0185185,132.799479 L96.0185185,139.338542 L100,139.338542 L100,138.53125 L96.9444444,138.53125 L96.9444444,133.606771 L100,133.606771 L100,132.799479 L96.0185185,132.799479 Z M24.1666667,132.880208 L24.1666667,139.338542 L29.1666667,139.338542 L29.1666667,132.880208 L24.1666667,132.880208 Z M33.3333333,132.880208 L33.3333333,139.338542 L38.3333333,139.338542 L38.3333333,132.880208 L33.3333333,132.880208 Z M42.2222222,132.880208 L42.2222222,139.338542 L47.2222222,139.338542 L47.2222222,132.880208 L42.2222222,132.880208 Z" id="Shape" fill="#010101"></path>
            <path d="M73.6111111,133.606771 L73.6111111,138.53125 L76.7592593,138.53125 L76.7592593,133.606771 L73.6111111,133.606771 Z M81.5740741,133.606771 L81.5740741,138.53125 L84.7222222,138.53125 L84.7222222,133.606771 L81.5740741,133.606771 Z M89.3518519,133.606771 L89.3518519,138.53125 L92.5,138.53125 L92.5,133.606771 L89.3518519,133.606771 Z M96.9444444,133.606771 L96.9444444,138.53125 L100,138.53125 L100,133.606771 L96.9444444,133.606771 Z M25.0925926,133.6875 L25.0925926,138.611979 L28.2407407,138.611979 L28.2407407,133.6875 L25.0925926,133.6875 Z M34.2592593,133.6875 L34.2592593,138.611979 L37.4074074,138.611979 L37.4074074,133.6875 L34.2592593,133.6875 Z M43.1481481,133.6875 L43.1481481,138.611979 L46.2962963,138.611979 L46.2962963,133.6875 L43.1481481,133.6875 Z" id="Shape" fill="#C5FFF3"></path>
            <path d="M4.35185185,136.59375 L4.35185185,143.052083 L9.35185185,143.052083 L9.35185185,136.59375 L4.35185185,136.59375 Z M11.1111111,136.59375 L11.1111111,143.052083 L16.1111111,143.052083 L16.1111111,136.59375 L11.1111111,136.59375 Z" id="Shape" fill="#010101"></path>
            <path d="M5.27777778,137.401042 L5.27777778,142.325521 L8.42592593,142.325521 L8.42592593,137.401042 L5.27777778,137.401042 Z M12.037037,137.401042 L12.037037,142.325521 L15.1851852,142.325521 L15.1851852,137.401042 L12.037037,137.401042 Z M18.8888889,137.401042 L18.8888889,142.325521 L19.1666667,142.325521 L19.1666667,137.401042 L18.8888889,137.401042 Z" id="Shape" fill="#C5FFF3"></path>
            <polygon id="Shape" fill="#010101" points="57.6851852 140.145833 57.6851852 146.684896 62.6851852 146.684896 62.6851852 140.145833"></polygon>
            <path d="M51.7592593,140.953125 L51.7592593,145.877604 L53.6111111,145.877604 L53.6111111,140.953125 L51.7592593,140.953125 Z M58.6111111,140.953125 L58.6111111,145.877604 L61.7592593,145.877604 L61.7592593,140.953125 L58.6111111,140.953125 Z M67.1296296,140.953125 L67.1296296,145.877604 L68.0555556,145.877604 L68.0555556,140.953125 L67.1296296,140.953125 Z" id="Shape" fill="#C5FFF3"></path>
            <path d="M24.1666667,141.356771 L24.1666667,147.895833 L29.1666667,147.895833 L29.1666667,141.356771 L24.1666667,141.356771 Z M33.3333333,141.356771 L33.3333333,147.895833 L38.3333333,147.895833 L38.3333333,141.356771 L33.3333333,141.356771 Z M42.2222222,141.356771 L42.2222222,147.895833 L47.2222222,147.895833 L47.2222222,141.356771 L42.2222222,141.356771 Z M72.6851852,141.356771 L72.6851852,147.815104 L77.6851852,147.815104 L77.6851852,141.356771 L72.6851852,141.356771 Z M80.6481481,141.356771 L80.6481481,147.815104 L85.6481481,147.815104 L85.6481481,141.356771 L80.6481481,141.356771 Z M88.4259259,141.356771 L88.4259259,147.815104 L93.4259259,147.815104 L93.4259259,141.356771 L88.4259259,141.356771 Z M96.0185185,141.356771 L96.0185185,147.815104 L100,147.815104 L100,147.088542 L96.9444444,147.088542 L96.9444444,142.164063 L100,142.164063 L100,141.356771 L96.0185185,141.356771 Z" id="Shape" fill="#010101"></path>
            <path d="M25.0925926,142.164063 L25.0925926,147.088542 L28.2407407,147.088542 L28.2407407,142.164063 L25.0925926,142.164063 Z M34.2592593,142.164063 L34.2592593,147.088542 L37.4074074,147.088542 L37.4074074,142.164063 L34.2592593,142.164063 Z M43.1481481,142.164063 L43.1481481,147.088542 L46.2962963,147.088542 L46.2962963,142.164063 L43.1481481,142.164063 Z M73.6111111,142.164063 L73.6111111,147.088542 L76.7592593,147.088542 L76.7592593,142.164063 L73.6111111,142.164063 Z M81.5740741,142.164063 L81.5740741,147.088542 L84.7222222,147.088542 L84.7222222,142.164063 L81.5740741,142.164063 Z M89.3518519,142.164063 L89.3518519,147.088542 L92.5,147.088542 L92.5,142.164063 L89.3518519,142.164063 Z M96.9444444,142.164063 L96.9444444,147.088542 L100,147.088542 L100,142.164063 L96.9444444,142.164063 Z" id="Shape" fill="#C5FFF3"></path>
            <path d="M4.35185185,144.747396 L4.35185185,151.286458 L9.35185185,151.286458 L9.35185185,144.747396 L4.35185185,144.747396 Z M11.1111111,144.747396 L11.1111111,151.286458 L16.1111111,151.286458 L16.1111111,144.747396 L11.1111111,144.747396 Z" id="Shape" fill="#010101"></path>
            <path d="M5.27777778,145.554688 L5.27777778,150.479167 L8.42592593,150.479167 L8.42592593,145.554688 L5.27777778,145.554688 Z M12.037037,145.554688 L12.037037,150.479167 L15.1851852,150.479167 L15.1851852,145.554688 L12.037037,145.554688 Z M18.8888889,145.554688 L18.8888889,150.479167 L19.1666667,150.479167 L19.1666667,145.554688 L18.8888889,145.554688 Z" id="Shape" fill="#C5FFF3"></path>
            <polygon id="Shape" fill="#010101" points="57.6851852 148.622396 57.6851852 155 62.6851852 155 62.6851852 148.622396"></polygon>
            <path d="M51.7592593,149.429687 L51.7592593,154.354167 L53.6111111,154.354167 L53.6111111,149.429687 L51.7592593,149.429687 Z M58.6111111,149.429687 L58.6111111,154.354167 L61.7592593,154.354167 L61.7592593,149.429687 L58.6111111,149.429687 Z M67.1296296,149.429687 L67.1296296,154.354167 L68.0555556,154.354167 L68.0555556,149.429687 L67.1296296,149.429687 Z" id="Shape" fill="#C5FFF3"></path>
            <path d="M72.6851852,149.833333 L72.6851852,155 L73.6111111,155 L73.6111111,150.640625 L76.7592593,150.640625 L76.7592593,155 L77.6851852,155 L77.6851852,149.833333 L72.6851852,149.833333 Z M80.6481481,149.833333 L80.6481481,155 L81.5740741,155 L81.5740741,150.640625 L84.7222222,150.640625 L84.7222222,155 L85.6481481,155 L85.6481481,149.833333 L80.6481481,149.833333 Z M88.4259259,149.833333 L88.4259259,155 L89.3518519,155 L89.3518519,150.640625 L92.5,150.640625 L92.5,155 L93.4259259,155 L93.4259259,149.833333 L88.4259259,149.833333 Z M96.0185185,149.833333 L96.0185185,155 L96.9444444,155 L96.9444444,150.640625 L100,150.640625 L100,149.833333 L96.0185185,149.833333 Z M24.1666667,149.994792 L24.1666667,155 L25.0925926,155 L25.0925926,150.802083 L28.2407407,150.802083 L28.2407407,155 L29.1666667,155 L29.1666667,149.994792 L24.1666667,149.994792 Z M33.3333333,149.994792 L33.3333333,155 L34.2592593,155 L34.2592593,150.802083 L37.4074074,150.802083 L37.4074074,155 L38.3333333,155 L38.3333333,149.994792 L33.3333333,149.994792 Z M42.2222222,149.994792 L42.2222222,155 L43.1481481,155 L43.1481481,150.802083 L46.2962963,150.802083 L46.2962963,155 L47.2222222,155 L47.2222222,149.994792 L42.2222222,149.994792 Z" id="Shape" fill="#010101"></path>
            <path d="M73.6111111,150.640625 L73.6111111,155 L76.7592593,155 L76.7592593,150.640625 L73.6111111,150.640625 Z M81.5740741,150.640625 L81.5740741,155 L84.7222222,155 L84.7222222,150.640625 L81.5740741,150.640625 Z M89.3518519,150.640625 L89.3518519,155 L92.5,155 L92.5,150.640625 L89.3518519,150.640625 Z M96.9444444,150.640625 L96.9444444,155 L100,155 L100,150.640625 L96.9444444,150.640625 Z M25.0925926,150.802083 L25.0925926,155 L28.2407407,155 L28.2407407,150.802083 L25.0925926,150.802083 Z M34.2592593,150.802083 L34.2592593,155 L37.4074074,155 L37.4074074,150.802083 L34.2592593,150.802083 Z M43.1481481,150.802083 L43.1481481,155 L46.2962963,155 L46.2962963,150.802083 L43.1481481,150.802083 Z" id="Shape" fill="#C5FFF3"></path>
            <path d="M4.35185185,153.304687 L4.35185185,155 L5.27777778,155 L5.27777778,154.111979 L8.42592593,154.111979 L8.42592593,155 L9.35185185,155 L9.35185185,153.304687 L4.35185185,153.304687 Z M11.1111111,153.304687 L11.1111111,155 L12.037037,155 L12.037037,154.111979 L15.1851852,154.111979 L15.1851852,155 L16.1111111,155 L16.1111111,153.304687 L11.1111111,153.304687 Z" id="Shape" fill="#010101"></path>
            <path d="M5.27777778,154.111979 L5.27777778,155 L8.42592593,155 L8.42592593,154.111979 L5.27777778,154.111979 Z M12.037037,154.111979 L12.037037,155 L15.1851852,155 L15.1851852,154.111979 L12.037037,154.111979 Z M18.8888889,154.111979 L18.8888889,155 L19.1666667,155 L19.1666667,154.111979 L18.8888889,154.111979 Z" id="Shape" fill="#C5FFF3"></path>
        </g>
    </g>
</svg>