<?xml version="1.0" encoding="UTF-8"?>
<svg width="52px" height="52px" viewBox="0 0 52 52" version="1.1" xmlns="http://www.w3.org/2000/svg" xmlns:xlink="http://www.w3.org/1999/xlink">
    <!-- Generator: Sketch 50.2 (55047) - http://www.bohemiancoding.com/sketch -->
    <title>Coin</title>
    <desc>Created with Sketch.</desc>
    <defs></defs>
    <g id="iPhone" stroke="none" stroke-width="1" fill="none" fill-rule="evenodd">
        <g id="Coin" transform="translate(6.000000, 6.000000)" fill-rule="nonzero">
            <g id="Group">
                <g id="d1AIv8gj0-link" fill="#FDE200">
                    <path d="M39.8746269,20.0119403 C39.8746269,30.9950249 30.9572139,39.9124378 19.9741294,39.9124378 C8.98905473,39.9124378 0.0736318408,30.9950249 0.0736318408,20.0119403 C0.0736318408,9.02885572 8.98905473,0.111442786 19.9741294,0.111442786 C30.9572139,0.111442786 39.8746269,9.02885572 39.8746269,20.0119403 Z" id="d1AIv8gj0"></path>
                </g>
                <g id="d1AIv8gj0-link" fill="#000000" fill-opacity="0" stroke="#A49409" stroke-width="11">
                    <path d="M39.8746269,20.0119403 C39.8746269,30.9950249 30.9572139,39.9124378 19.9741294,39.9124378 C8.98905473,39.9124378 0.0736318408,30.9950249 0.0736318408,20.0119403 C0.0736318408,9.02885572 8.98905473,0.111442786 19.9741294,0.111442786 C30.9572139,0.111442786 39.8746269,9.02885572 39.8746269,20.0119403 Z" id="d1AIv8gj0"></path>
                </g>
            </g>
            <g id="b1ADDpyO2m-link" transform="translate(16.410256, 6.153846)" fill="#969B19">
                <path d="M6.05874126,13.8579378 C6.05874126,21.4330606 4.71235431,27.5842881 3.05268065,27.5842881 C1.39114219,27.5842881 0.0447552448,21.4330606 0.0447552448,13.8579378 C0.0447552448,6.28085106 1.39114219,0.131587561 3.05268065,0.131587561 C4.71235431,0.131587561 6.05874126,6.28085106 6.05874126,13.8579378 Z" id="b1ADDpyO2m"></path>
            </g>
        </g>
    </g>
</svg>