<?xml version="1.0" encoding="UTF-8"?>
<svg width="67px" height="40px" viewBox="0 0 67 40" version="1.1" xmlns="http://www.w3.org/2000/svg" xmlns:xlink="http://www.w3.org/1999/xlink">
    <!-- Generator: Sketch 50.2 (55047) - http://www.bohemiancoding.com/sketch -->
    <title>Diamond</title>
    <desc>Created with Sketch.</desc>
    <defs></defs>
    <g id="iPhone" stroke="none" stroke-width="1" fill="none" fill-rule="evenodd">
        <g id="Diamond" transform="translate(4.000000, 2.000000)" fill-rule="nonzero">
            <g id="Group" transform="translate(0.000000, 9.736842)">
                <g id="aZWRR86K-link" fill="#73F5F7">
                    <polyline id="aZWRR86K" points="59.6616279 0.165649567 0.139534884 0.165649567 30.844186 26.9974284"></polyline>
                </g>
                <g id="aZWRR86K-link" fill="#000000" fill-opacity="0" stroke="#1DD4FE" stroke-width="3">
                    <polyline id="aZWRR86K" points="59.6616279 0.165649567 0.139534884 0.165649567 30.844186 26.9974284"></polyline>
                </g>
            </g>
            <g id="Group" transform="translate(29.508197, 9.736842)">
                <g id="b2LquuCSr8-link" fill="#73F5F7">
                    <path d="M29.2954632,0.165649567 L0.243614182,26.9974284" id="b2LquuCSr8"></path>
                </g>
                <g id="b2LquuCSr8-link" fill="#000000" fill-opacity="0" stroke="#1DD4FE" stroke-width="3">
                    <path d="M29.2954632,0.165649567 L0.243614182,26.9974284" id="b2LquuCSr8"></path>
                </g>
            </g>
            <g id="Group">
                <g id="b8kj8cYV7-link" fill="#73F5F7">
                    <polygon id="b8kj8cYV7" points="6.2127907 0.0537205082 53.4593023 0.0537205082 59.7837209 9.50181488 0.261627907 9.50181488"></polygon>
                </g>
                <g id="b8kj8cYV7-link" fill="#000000" fill-opacity="0" stroke="#1DD4FE" stroke-width="3">
                    <polygon id="b8kj8cYV7" points="6.2127907 0.0537205082 53.4593023 0.0537205082 59.7837209 9.50181488 0.261627907 9.50181488"></polygon>
                </g>
            </g>
            <g id="b8GDFs11F-link" transform="translate(11.803279, 13.631579)" fill="#000000" fill-opacity="0" stroke="#1DD4FE" stroke-width="3">
                <polyline id="b8GDFs11F" points="0.195355191 0.176932331 1.70491803 1.42213534 3.21803279 2.67067669 4.3510929 3.29494737 5.29234973 4.12619549 6.0489071 5.1677594 6.80546448 6.41296241 8.31502732 7.87181955 9.44808743 8.70306767 10.3928962 9.74129323 11.7142077 10.7828571 12.6590164 11.6141053"></polyline>
            </g>
            <g id="b8OdiZkSA-link" transform="translate(22.622951, 13.631579)" fill="#000000" fill-opacity="0" stroke="#1DD4FE" stroke-width="3">
                <polyline id="b8OdiZkSA" points="0.104918033 0.0962229102 0.675409836 1.5223839 1.24590164 3.18910217 2.2 5.56718266 3.15081967 7.47102167 3.72131148 9.13430341 4.48196721 10.3233437 5.24262295 12.2271827 6.19344262 14.1310217 6.38688525 15.5571827 6.57704918 17.2204644"></polyline>
            </g>
            <g id="fhOCVT0cm-link" transform="translate(32.459016, 13.631579)" fill="#000000" fill-opacity="0" stroke="#1DD4FE" stroke-width="3">
                <polyline id="fhOCVT0cm" points="4.75737705 0.0962229102 4.58360656 1.38148607 4.23278689 2.87981424 3.53770492 4.80770898 2.83934426 7.16173375 2.1442623 10.3714551 1.61967213 12.2993498 0.747540984 14.223808 0.4 15.5090712 0.0524590164 17.2204644"></polyline>
            </g>
            <g id="e1dNVoUsHd-link" transform="translate(38.360656, 13.631579)" fill="#000000" fill-opacity="0" stroke="#1DD4FE" stroke-width="3">
                <polyline id="e1dNVoUsHd" points="7.66497765 0.177393092 6.33442623 1.6367023 5.38301043 3.09601151 4.6247392 4.34780428 3.6733234 5.80711349 2.91147541 7.2664227 1.96005961 8.30735197 1.01222057 9.55914474 0.060804769 10.3925576"></polyline>
            </g>
            <g id="c2EncyPsr0-link" transform="translate(7.868852, 1.947368)" fill="#000000" fill-opacity="0" stroke="#1DD4FE" stroke-width="3">
                <polyline id="c2EncyPsr0" points="2.7147541 0.309492481 1.73360656 2.26033835 1.14713115 3.77650376 0.165983607 4.85798872"></polyline>
            </g>
            <g id="hB5savYfH-link" transform="translate(19.672131, 1.947368)" fill="#000000" fill-opacity="0" stroke="#1DD4FE" stroke-width="3">
                <polyline id="hB5savYfH" points="1.60131148 0.222556391 0.763278689 3.47396617 0.346229508 4.77453008"></polyline>
            </g>
            <g id="a6rdYDTCMf-link" transform="translate(35.409836, 1.947368)" fill="#000000" fill-opacity="0" stroke="#1DD4FE" stroke-width="3">
                <polyline id="a6rdYDTCMf" points="0.051147541 0.190991903 0.259672131 1.82378543 1.09770492 2.99220648 1.72327869 4.625"></polyline>
            </g>
            <g id="b4OUe1Jg3-link" transform="translate(46.229508, 1.947368)" fill="#000000" fill-opacity="0" stroke="#1DD4FE" stroke-width="3">
                <polyline id="b4OUe1Jg3" points="0.295081967 0.333299595 1.16721311 1.73390688 1.68852459 3.3667004 1.86557377 4.76730769"></polyline>
            </g>
        </g>
    </g>
</svg>