<?xml version="1.0" encoding="UTF-8"?>
<svg width="375px" height="667px" viewBox="0 0 375 667" version="1.1" xmlns="http://www.w3.org/2000/svg" xmlns:xlink="http://www.w3.org/1999/xlink">
    <!-- Generator: Sketch 50.2 (55047) - http://www.bohemiancoding.com/sketch -->
    <title>FieldBackground</title>
    <desc>Created with Sketch.</desc>
    <defs></defs>
    <g id="iPhone" stroke="none" stroke-width="1" fill="none" fill-rule="evenodd">
        <g id="FieldBackground" fill-rule="nonzero">
            <path d="M0.346901018,0 L0.346901018,310.571875 L0.346901018,390.125521 L0.346901018,410.274479 C0.346901018,412.209474 -0.410564292,416.246214 0.903122109,417.806021 C1.57412928,418.605031 2.54959066,418.504286 3.46901018,418.712724 C5.70478723,419.219922 7.36814292,419.636797 9.71322849,419.654167 C11.9527174,419.668062 13.7899746,420.772781 15.9574468,421.213974 C17.8185708,421.589161 19.6622109,421.290401 21.5078631,421.86013 C23.9193108,422.600083 26.3050185,423.572792 28.7927845,424.038302 C30.394253,424.340536 32.0699931,423.944505 33.6493987,424.392646 C34.9875694,424.771307 36.1321693,425.636323 37.4653099,426.035828 C39.9945652,426.786203 42.5786309,426.925161 45.0971323,427.560896 C47.5632516,428.186208 49.8919981,429.367354 52.3820537,429.895396 C54.210222,430.284479 56.1046485,429.86413 57.9324699,430.256687 C60.0072849,430.69788 61.8059667,431.89987 63.8297872,432.493917 C66.3593895,433.237344 69.1984274,433.112281 71.8085106,433.69938 C74.8817068,434.387224 77.754741,435.842812 80.8279371,436.495917 C83.2232886,437.006589 85.7057123,436.440333 88.1128585,436.985745 C93.8349907,438.278057 99.3111702,440.167891 105.111008,441.262187 C106.841004,441.585266 108.590772,441.397672 110.314524,441.699906 C113.806082,442.318271 117.228608,443.381302 120.721554,444.041354 C122.33395,444.343589 123.974445,444.222 125.578168,444.552026 C127.551688,444.955005 129.479417,445.667167 131.475486,445.952031 C132.855458,446.150047 134.254163,445.976349 135.638298,446.115307 C139.292206,446.480073 143.125116,447.272135 146.73913,447.953031 C155.110546,449.533682 163.272433,452.340641 171.716004,453.549578 C176.859158,454.286057 182.159806,454.282583 187.326549,454.800203 C190.250231,455.092016 193.075393,456.127255 195.999075,456.419068 C197.955944,456.613609 199.946115,456.304427 201.896392,456.582344 C204.476989,456.950583 206.973982,457.892026 209.528215,458.406172 C212.78284,459.06275 215.997225,458.941161 219.241443,459.406672 C222.490865,459.872182 225.709413,460.93174 228.954672,461.282609 C236.562905,462.09899 244.217276,461.539682 251.850139,462.067724 C256.739362,462.404698 261.575856,463.540682 266.419981,464.061776 C268.37685,464.270214 270.362512,463.967979 272.317299,464.221578 C274.062905,464.447385 275.760638,465.006693 277.520814,465.131755 C280.285962,465.326297 283.077475,465.055328 285.846438,465.176917 C287.487627,465.24987 289.061864,465.770964 290.703053,465.843917 C298.319265,466.180891 305.976758,465.677167 313.59852,465.861286 C316.510754,465.93424 319.358811,466.823573 322.271045,466.896526 C339.82389,467.323823 357.43987,466.9 375,466.9 L375,0 L0.346901018,0 Z" id="Shape" fill="#49ABE3"></path>
            <path d="M0.346901018,417.569792 L0.346901018,421.391146 C2.05229764,421.398094 3.24021855,421.992141 4.85661425,422.329115 C6.67087188,422.707776 8.59291166,422.158891 10.4070305,422.537552 C12.0654602,422.881474 13.5574815,423.781229 15.2636448,424.059146 C16.6440333,424.281479 18.0521392,424.059146 19.426457,424.350958 C22.2521045,424.951953 24.8986818,426.282479 27.7520814,426.817469 C29.35355,427.119703 31.02929,426.723672 32.6086957,427.171813 C33.9468663,427.550474 35.0914662,428.41549 36.4246068,428.814995 C38.9538622,429.56537 41.5379278,429.704328 44.0564292,430.340062 C46.5225486,430.965375 48.8512951,432.146521 51.3413506,432.674563 C53.169519,433.063646 55.0639454,432.643297 56.8917669,433.035854 C59.2003932,433.529156 61.1742599,434.960427 63.4828862,435.453729 C66.10858,436.01651 68.8123265,435.974823 71.4616096,436.641823 C74.3741906,437.371354 77.1719473,438.847786 80.1341351,439.341089 C82.3137142,439.705854 84.5463691,439.240344 86.7252544,439.688484 C89.9243756,440.341589 92.9115402,441.72075 96.0915819,442.432911 C99.0509944,443.099911 102.103377,443.825969 105.111008,444.218526 C106.495143,444.399172 107.894889,444.235896 109.273821,444.479073 C112.884713,445.118281 116.406105,446.247318 120.027752,446.886526 C128.54556,448.380328 137.159459,449.120281 145.698427,450.732198 C152.691605,452.052302 159.536656,454.220052 166.512488,455.627005 C173.006822,456.936687 179.723867,456.922792 186.285846,457.57937 C189.209528,457.871182 192.03469,458.906422 194.958372,459.198234 C196.915241,459.392776 198.905412,459.083594 200.855689,459.36151 C203.435939,459.72975 205.933279,460.671193 208.487512,461.185339 C211.742137,461.841917 214.956522,461.720328 218.20074,462.185839 C221.450162,462.651349 224.66871,463.710906 227.913969,464.061776 C235.522202,464.878156 243.176573,464.318849 250.809436,464.846891 C255.698659,465.183865 260.535153,466.319849 265.379278,466.840943 C267.336147,467.04938 269.321809,466.747146 271.276596,467.000745 C273.022202,467.226552 274.719935,467.785859 276.480111,467.910922 C279.245259,468.105464 282.036772,467.834495 284.805735,467.956083 C286.446924,468.029036 288.021161,468.55013 289.66235,468.623083 C297.278562,468.960057 304.936055,468.456333 312.557817,468.640453 C315.470051,468.713406 318.318108,469.60274 321.230342,469.675693 C339.129394,470.113411 357.096438,469.679167 375,469.679167 L375,466.9 C357.557817,466.9 340.055273,467.323823 322.617946,466.896526 C319.705712,466.823573 316.857655,465.93424 313.945421,465.861286 C306.323659,465.677167 298.666166,466.180891 291.049954,465.843917 C289.408765,465.770964 287.834528,465.24987 286.19334,465.176917 C283.424376,465.055328 280.632863,465.326297 277.867715,465.131755 C276.107539,465.006693 274.409806,464.447385 272.6642,464.221578 C270.709413,463.967979 268.723751,464.270214 266.766883,464.061776 C261.922757,463.540682 257.086263,462.404698 252.19704,462.067724 C244.564177,461.539682 236.909806,462.09899 229.301573,461.282609 C226.056314,460.93174 222.837766,459.872182 219.588344,459.406672 C216.344126,458.941161 213.129741,459.06275 209.875116,458.406172 C207.320883,457.892026 204.82389,456.950583 202.243293,456.582344 C200.293016,456.304427 198.302845,456.613609 196.345976,456.419068 C193.422294,456.127255 190.597132,455.092016 187.673451,454.800203 C182.506707,454.282583 177.206059,454.286057 172.062905,453.549578 C163.619334,452.340641 155.457447,449.533682 147.086031,447.953031 C143.472017,447.272135 139.639107,446.480073 135.985199,446.115307 C134.601064,445.976349 133.202359,446.150047 131.822387,445.952031 C129.826318,445.667167 127.898589,444.955005 125.925069,444.552026 C124.321346,444.222 122.680851,444.343589 121.068455,444.041354 C117.575509,443.381302 114.152983,442.318271 110.661425,441.699906 C108.937673,441.397672 107.187905,441.585266 105.457909,441.262188 C99.6580712,440.167891 94.1818918,438.278057 88.4597595,436.985745 C86.0526133,436.440333 83.5701896,437.006589 81.1748381,436.495917 C78.101642,435.842812 75.2286078,434.387224 72.1554117,433.69938 C69.5453284,433.112281 66.7062905,433.237344 64.1766883,432.493917 C62.1528677,431.89987 60.3541859,430.69788 58.279371,430.256687 C56.4515495,429.86413 54.557123,430.284479 52.7289547,429.895396 C50.2388992,429.367354 47.9101526,428.186208 45.4440333,427.560896 C42.9255319,426.925161 40.3414662,426.786203 37.8122109,426.035828 C36.3666744,425.605057 35.1324006,424.625401 33.6493987,424.305797 C32.169623,423.986193 30.6272317,424.319693 29.1396855,424.038302 C26.402463,423.524156 23.8486124,422.336063 21.1609621,421.655167 C19.5607771,421.248714 17.9129278,421.537052 16.3043478,421.213974 C14.7399283,420.897844 13.3316489,420.07799 11.7946346,419.758385 C10.2188367,419.428359 8.53414662,419.761859 6.93802035,419.633323 C4.89328168,419.470047 2.13992137,418.556396 0.346901018,417.569792 Z" id="Shape" fill="#010101"></path>
            <path d="M0.346901018,421.391146 L0.346901018,667 L375,667 L375,469.679167 C357.210916,469.679167 339.360777,470.109938 321.577243,469.675693 C318.665009,469.60274 315.816952,468.713406 312.904718,468.640453 C305.282956,468.456333 297.625463,468.960057 290.009251,468.623083 C288.368062,468.55013 286.793825,468.029036 285.152636,467.956083 C282.383673,467.834495 279.59216,468.105464 276.827012,467.910922 C275.066836,467.785859 273.369103,467.226552 271.623497,467.000745 C269.66871,466.747146 267.683048,467.04938 265.726179,466.840943 C260.882054,466.319849 256.04556,465.183865 251.156337,464.846891 C243.523474,464.318849 235.869103,464.878156 228.26087,464.061776 C225.015611,463.710906 221.797063,462.651349 218.547641,462.185839 C215.303423,461.720328 212.089038,461.841917 208.834413,461.185339 C206.28018,460.671193 203.783187,459.72975 201.20259,459.36151 C199.252313,459.083594 197.262142,459.392776 195.305273,459.198234 C192.381591,458.906422 189.556429,457.871182 186.632747,457.57937 C180.070768,456.922792 173.353723,456.936687 166.859389,455.627005 C159.883557,454.223526 153.038506,452.052302 146.045328,450.732198 C137.50636,449.120281 128.892461,448.380328 120.374653,446.886526 C116.753006,446.247318 113.231614,445.118281 109.620722,444.479073 C108.24179,444.235896 106.842044,444.399172 105.457909,444.218526 C102.450278,443.825969 99.3978955,443.099911 96.4384829,442.432911 C93.2584413,441.72075 90.2712766,440.341589 87.0721554,439.688484 C84.8932701,439.240344 82.6606152,439.705854 80.4810361,439.341089 C77.5188483,438.847786 74.7210916,437.371354 71.8085106,436.641823 C69.1592276,435.974823 66.455481,436.01651 63.8297872,435.453729 C61.521161,434.960427 59.5472942,433.529156 57.2386679,433.035854 C55.4108464,432.643297 53.51642,433.063646 51.6882516,432.674562 C49.1981961,432.146521 46.8694496,430.965375 44.4033302,430.340062 C41.8848289,429.704328 39.3007632,429.56537 36.7715079,428.814995 C35.4383673,428.41549 34.2937673,427.550474 32.9555967,427.171813 C31.376191,426.723672 29.700451,427.119703 28.0989824,426.817469 C25.2455828,426.282479 22.5990056,424.951953 19.773358,424.350958 C18.3990402,424.059146 16.9909343,424.281479 15.6105458,424.059146 C13.9043825,423.781229 12.4123612,422.881474 10.7539315,422.537552 C9.05581637,422.183208 7.26244218,422.617453 5.55041628,422.384698 C3.70907262,422.131099 2.27979533,421.391146 0.346901018,421.391146 Z" id="Shape" fill="#51D961"></path>
            <path d="M51.6882516,485.214708 C48.1099676,486.190891 44.9139685,488.007771 41.628469,489.685693 C40.6918363,490.165099 38.8168363,491.144755 39.5765495,492.499599 C40.349445,493.875286 42.3267808,492.933844 43.3626272,492.506547 C44.7425994,491.936818 46.2606383,491.42962 47.5254394,490.634083 C49.0032377,489.699589 50.9888992,488.000823 52.9273821,488.5775 C54.0891536,488.924896 54.9564061,490.189417 55.7830712,491.005797 C57.028099,492.232104 58.6186401,493.468833 60.3607771,493.861391 C63.7739362,494.629135 68.4862396,494.024667 71.8085106,493.051958 C73.9207909,492.433594 75.8259713,491.11349 78.052729,490.905052 C80.2562442,490.700089 83.2052498,490.515969 85.3376503,491.148229 C87.9310823,491.915974 90.2070999,493.701589 92.9694727,493.962135 C94.9291166,494.142781 97.3511795,494.243526 99.213691,493.555682 C100.978723,492.906052 102.550879,491.495625 104.417206,491.155177 C106.32308,490.811255 108.317414,493.076276 109.967623,493.903078 C110.662812,494.250474 111.510291,494.757672 112.285615,494.316479 C113.225023,493.78149 113.117484,492.43012 112.533302,491.683219 C111.803076,490.752198 110.558395,490.61324 109.625925,489.974031 C108.44438,489.161125 107.699237,487.604792 106.146508,487.465833 C102.42426,487.139281 99.3423913,490.887682 95.7446809,491.179495 C91.7567068,491.506047 88.3078168,488.139781 84.2969473,488.091146 C81.5158418,488.05988 78.3552266,487.705536 75.6244218,488.268318 C71.5441721,489.11249 68.1670907,491.162125 63.8297872,491.21076 C60.7905874,491.2455 59.0234736,489.296609 56.8955828,487.396354 C55.2488437,485.92687 54.0482192,484.572026 51.6882516,485.214708 Z" id="Shape" fill="#3FA94D"></path>
            <path d="M165.124884,520.051563 C163.693918,516.674875 160.170791,518.995479 157.93883,520.11062 C156.711147,520.722036 155.273242,520.159255 154.030643,520.808885 C152.779718,521.46199 152.58129,522.674401 151.74179,523.667953 C151.139917,524.376641 150.081175,524.890786 150.081869,525.957292 C150.082909,528.423802 154.479533,528.524547 156.105458,529.177651 C157.533996,529.754328 158.812327,530.813885 160.26827,531.2655 C163.400786,532.238208 165.999422,530.650609 168.593895,529.201969 C169.656799,528.607922 171.353839,528.270948 172.053191,527.200969 C173.18166,525.477885 171.550532,524.310635 171.18802,522.799464 C170.947618,521.798964 171.75,520.791516 171.226179,519.815333 C170.182701,517.866443 166.536078,519.544365 165.124884,520.051563 Z" id="Shape" fill="#6973CD"></path>
            <path d="M161.30932,521.656531 C159.461725,521.983083 157.577012,524.949844 159.684783,526.290792 C160.631822,526.891786 162.69068,526.433224 163.735546,526.22826 C165.598057,525.856547 166.481614,523.733958 164.92611,522.344375 C164.101179,521.607896 162.354186,521.472411 161.30932,521.656531 Z" id="Shape" fill="#4755CD"></path>
            <path d="M160.615171,531.515625 C160.625925,535.486359 160.772317,539.005479 160.26827,542.979688 C158.597595,542.30574 155.911193,540.759828 154.134366,541.947922 C152.862627,542.795568 153.18802,545.348927 153.886332,546.453646 C155.401596,548.850677 157.644658,549.371771 160.26827,549.580208 C159.96161,551.629844 158.699584,553.710745 158.945883,555.826385 C159.055157,556.767828 159.823196,557.76138 160.858349,557.191651 C161.862627,556.642766 161.912581,555.065589 162.200162,554.096354 C163.256822,550.532073 163.043478,547.026849 163.043478,543.327083 C166.566952,544.813938 171.857886,541.95487 172.637373,538.116146 C172.905527,536.796042 173.06302,534.465016 172.152405,533.363771 C170.893154,531.838703 167.842507,532.912156 166.512488,533.825807 C165.480805,534.537969 164.61945,535.496781 163.73728,536.379167 C163.736933,534.614396 163.528446,532.922578 163.390379,531.168229 L160.615171,531.515625 Z" id="Shape" fill="#399745"></path>
            <path d="M236.239593,545.411458 C237.147086,547.214443 238.552382,547.148437 240.402405,547.148437 C243.766304,547.148437 248.731499,548.041245 251.503238,545.758854 C253.036887,547.652161 253.993987,549.75738 256.36124,550.789146 C258.276827,551.622896 260.561864,551.317187 262.60407,551.317187 C265.449006,551.317187 268.449006,551.59163 271.276596,551.272026 C274.36679,550.92463 277.477105,549.653161 280.642923,550.469542 C281.795675,550.764828 282.742021,551.463094 283.765032,552.036297 C285.267114,552.873521 287.967391,554.103302 289.660615,554.318687 C290.617715,554.440276 291.75451,553.856651 291.482886,552.731089 C291.194611,551.536047 289.656799,550.803042 288.621647,550.413958 C285.64142,549.288396 282.833256,547.502781 279.60222,547.495833 C273.082562,547.485411 265.951665,549.882443 259.481961,548.378219 C258.054463,548.048193 256.768154,547.294344 255.904718,546.099302 C255.167553,545.077958 254.821693,543.702271 253.552035,543.188125 C251.508788,542.364797 249.28654,543.636266 247.340426,544.108724 C245.315564,544.602026 242.477567,544.654135 240.415934,544.317161 C238.648127,544.028823 238.239477,541.492833 236.567761,541.461568 C235.693571,541.447672 234.849907,542.173729 234.158187,542.625344 C232.421947,543.75438 230.774861,544.817411 228.955019,545.804016 C228.22271,546.200047 227.021392,546.637766 226.787234,547.537521 C226.530874,548.524125 227.443918,549.052167 228.267461,549.180703 C230.032146,549.455146 231.070768,548.551917 232.454556,547.659109 C233.685014,546.867047 234.973751,546.147937 236.239593,545.411458 Z M43.7109158,588.061245 C41.5861471,588.783828 39.9081869,591.052323 38.4473867,592.657292 C36.5834875,594.706927 34.476827,596.551599 32.6464385,598.622078 C31.8929695,599.473198 30.8581637,602.148146 32.9622919,602.162042 C34.3112858,602.172464 35.9916744,600.147146 36.868987,599.271708 C38.9892461,597.14912 40.6980805,594.731245 43.0157262,592.799724 C43.787234,592.157042 44.5053191,591.191281 45.4752544,590.843885 C47.4570999,590.138672 50.8130204,592.396745 52.7289547,593.029005 C57.2456059,594.515859 61.8462072,594.863255 66.6049954,594.738193 C69.2889685,594.66524 71.5781684,591.861755 74.2368178,592.42801 C77.6936864,593.16449 79.0715772,597.687583 82.9093432,598.170464 C85.4077243,598.48312 89.1435014,598.681135 91.5818686,598.041927 C93.7912812,597.46525 96.4828862,595.398245 98.86679,596.16599 C101.103608,596.888573 102.914084,599.455828 104.764107,600.859307 C105.538043,601.446406 106.714038,602.59976 107.775555,602.005714 C108.940102,601.356083 108.342738,599.771958 107.687442,599.00074 C107.063367,598.26426 106.173913,597.767484 105.457562,597.128276 C103.812558,595.658792 102.238321,593.390297 99.9074931,593.053323 C94.3758094,592.257786 89.8876041,596.423062 84.2969473,595.342661 C80.7856152,594.661766 79.4885523,590.472172 76.3046947,589.641896 C74.6482424,589.207651 72.0173451,589.336187 70.4209066,589.912865 C68.502197,590.61113 66.9831175,591.913865 64.8704903,591.955552 C60.2466466,592.045875 56.0435939,590.677135 51.6882516,589.339661 C48.9727105,588.505911 46.7060592,587.039901 43.7109158,588.061245 Z" id="Shape" fill="#3FA94D"></path>
            <path d="M318.108233,601.689583 C316.979417,601.064271 315.886679,600.206203 314.639223,599.831016 C310.84586,598.691557 309.762835,602.109932 309.784343,605.163542 C309.806545,608.310948 310.384482,612.062823 312.653215,614.43901 C315.566489,617.489146 320.685014,616.79088 322.647086,613.153646 C323.425879,611.708479 323.901827,609.902021 324.191142,608.290104 C324.559898,606.240469 324.665703,603.391823 324.233117,601.349135 C323.502544,597.892547 319.23809,599.389823 318.108233,601.689583 Z" id="Shape" fill="#BD250B"></path>
            <path d="M316.373728,602.731771 C315.412465,602.370479 314.043594,601.290078 312.983811,601.59926 C311.280874,602.096036 311.492484,605.239969 311.6642,606.553125 C311.985083,608.998792 312.476989,611.607734 314.370028,613.403771 C317.277058,616.165568 320.537928,613.754641 321.575509,610.721875 C322.037234,609.370505 322.481961,607.984396 322.586725,606.553125 C322.72167,604.708453 322.698427,602.794302 322.271045,600.994792 C319.449352,601.512411 317.810592,603.975448 316.927035,606.553125 C316.694265,607.230547 316.692877,608.911943 316.122225,609.360083 C315.594935,609.773484 315.067993,609.030057 314.901827,608.609708 C314.494912,607.581417 314.956984,606.46975 315.338228,605.510937 C315.707678,604.579917 316.098982,603.694057 316.373728,602.731771 Z" id="Shape" fill="#E12D0D"></path>
            <path d="M86.3783534,615.585417 C85.1298566,615.585417 83.0990981,615.206755 82.1121647,616.14125 C80.1192183,618.031083 81.5366559,620.379479 81.4180157,622.533333 C81.3583488,623.617208 80.7668825,625.173542 81.5314524,626.14625 C82.0715772,626.83062 83.1827012,626.691661 83.9500463,626.702083 C83.9500463,628.067349 83.7498844,629.658422 84.5543478,630.84999 C86.2330019,633.33387 89.9961841,632.489698 91.2349676,630.176042 C92.8650555,630.565125 94.9121184,630.853464 96.4058742,629.877281 C98.8081637,628.310526 99.3094357,624.002818 97.1322849,622.185937 C98.0873034,620.737297 98.8921138,617.899073 97.0271739,616.690135 C96.1790009,616.14125 94.9710916,616.283682 94.0101758,616.280208 C93.5311055,611.9725 86.9191721,610.725349 86.3783534,615.585417 Z" id="Shape" fill="#FFF701"></path>
            <path d="M317.414431,616.280208 L318.455134,620.101562 C317.137257,619.854911 315.259482,619.354661 314.024514,620.111984 C312.155065,621.254917 312.851989,624.339792 314.330134,625.465354 C315.593895,626.427641 317.29926,626.351214 318.802035,626.354687 C318.80377,628.866359 319.545444,631.162646 319.783765,633.65 C319.903793,634.900625 319.685592,636.297156 320.299954,637.45051 C320.873728,638.527438 322.908649,639.472354 323.40333,637.766641 C323.679117,636.814776 322.892692,635.588469 322.617946,634.692188 C325.117368,634.296156 325.100023,632.253469 325.638067,630.176042 C325.910037,629.126906 326.449121,627.414245 324.994912,626.948734 C323.855689,626.583969 322.530527,627.591417 321.577243,628.091667 C321.577243,624.211255 321.708719,619.636052 320.53654,615.932812 L317.414431,616.280208 Z" id="Shape" fill="#399745"></path>
            <path d="M87.7812211,618.976 C85.9950278,619.656896 86.123728,621.324396 86.3280527,622.880729 C86.6683626,625.475776 87.6324006,627.959656 90.8880666,626.79588 C96.5706522,624.767089 93.1054579,616.94026 87.7812211,618.976 Z" id="Shape" fill="#CDC501"></path>
            <path d="M90.5411656,631.218229 C89.5882285,631.906073 88.9377891,632.177042 87.7659574,632.260417 C87.7371647,635.682266 86.3016883,638.913047 86.0314524,642.334896 C84.5758557,642.334896 82.1263876,641.872859 80.9396392,642.890729 C79.4739824,644.148302 80.5518039,647.104641 81.8891073,648.032188 C82.8066605,648.667922 83.9295791,648.584547 84.9907493,648.588021 C84.9907493,649.595469 84.7493062,651.071901 85.3473636,651.950812 C85.9672757,652.86099 87.1422294,652.607391 87.5567761,651.662474 C87.9997687,650.651552 87.7177382,649.314078 87.8252775,648.240625 C88.0368871,646.118036 88.7622572,644.130932 88.8066605,641.9875 C90.9099214,641.897177 92.6416512,641.556729 93.7094126,639.555729 C95.0567761,637.030161 93.4551341,634.091193 90.5411656,634.692188 C90.6934551,633.486724 91.0084413,632.364635 90.5411656,631.218229 Z" id="Shape" fill="#399745"></path>
            <path d="M236.239593,638.860937 C238.806314,641.139854 240.313252,643.991974 243.177613,646.069401 C244.186401,646.798932 246.16339,647.719531 246.515842,645.791484 C246.862743,643.891229 244.055273,642.737875 242.984389,641.581047 C241.32308,639.78501 240.1287,637.092693 237.62685,636.276313 C235.254741,635.505094 233.06198,636.988474 231.036078,637.988974 C228.576896,639.201385 225.825278,640.031661 223.057354,639.458458 C218.879278,638.593443 217.321693,633.14975 212.303423,634.945786 C209.301341,636.01924 206.80296,639.013792 203.977798,640.552755 C202.734505,641.230177 200.640611,641.459458 199.684204,642.536385 C198.924491,643.394453 199.561055,644.405375 200.529255,644.6555 C201.748265,644.968156 202.878469,644.349792 203.977798,643.929443 C206.227798,643.071375 208.291859,641.935391 210.222017,640.46938 C211.306082,639.642578 212.860893,637.794432 214.384829,638.009818 C216.651827,638.329422 218.46265,641.216281 220.629047,642.043083 C221.911193,642.529437 223.445883,642.334896 224.791859,642.334896 C228.816605,642.334896 232.997803,641.455984 236.239593,638.860937 Z" id="Shape" fill="#3FA94D"></path>
        </g>
    </g>
</svg>