<?xml version="1.0" encoding="UTF-8"?>
<svg width="100px" height="155px" viewBox="0 0 100 155" version="1.1" xmlns="http://www.w3.org/2000/svg" xmlns:xlink="http://www.w3.org/1999/xlink">
    <!-- Generator: Sketch 50.2 (55047) - http://www.bohemiancoding.com/sketch -->
    <title>FieldBackgroundPreview</title>
    <desc>Created with Sketch.</desc>
    <defs></defs>
    <g id="iPhone" stroke="none" stroke-width="1" fill="none" fill-rule="evenodd">
        <g id="FieldBackgroundPreview" fill-rule="nonzero">
            <path d="M0.092506938,0 L0.092506938,72.171875 L0.092506938,90.6588542 L0.092506938,95.3411458 C0.092506938,95.7908073 -0.109483811,96.7288802 0.240832562,97.0913542 C0.419767808,97.2770312 0.679890842,97.2536198 0.92506938,97.3020573 C1.5212766,97.4199219 1.96483811,97.5167969 2.59019426,97.5208333 C3.1873913,97.5240625 3.67732655,97.7807812 4.25531915,97.8833073 C4.75161887,97.9704948 5.24325624,97.9010677 5.73543016,98.0334635 C6.37848289,98.2054167 7.0146716,98.4314583 7.67807586,98.5396354 C8.10513414,98.6098698 8.55199815,98.5178385 8.97317299,98.6219792 C9.3300185,98.709974 9.63524514,98.9109896 9.99074931,99.0038281 C10.6652174,99.1782031 11.3543016,99.2104948 12.0259019,99.3582292 C12.6835338,99.5035417 13.3045328,99.7780208 13.9685476,99.9007292 C14.4560592,99.9911458 14.9612396,99.8934635 15.4486586,99.9846875 C16.0019426,100.087214 16.4815911,100.366536 17.0212766,100.504583 C17.6958372,100.677344 18.452914,100.648281 19.1489362,100.784714 C19.9684551,100.944557 20.7345976,101.282812 21.5541166,101.434583 C22.192877,101.553255 22.8548566,101.421667 23.4967623,101.548411 C25.0226642,101.848724 26.4829787,102.287891 28.0296022,102.542187 C28.4909343,102.617266 28.9575393,102.573672 29.4172063,102.643906 C30.3482886,102.787604 31.2609621,103.034635 32.1924144,103.188021 C32.6223867,103.258255 33.059852,103.23 33.4875116,103.306693 C34.0137835,103.400339 34.5278446,103.565833 35.0601295,103.632031 C35.4281221,103.678047 35.8011101,103.637682 36.1702128,103.669974 C37.1445883,103.75474 38.1666975,103.938802 39.1304348,104.097031 C41.3628122,104.464349 43.5393154,105.116641 45.7909343,105.397578 C47.1624422,105.568724 48.5759482,105.567917 49.9537465,105.688203 C50.733395,105.756016 51.4867715,105.996589 52.26642,106.064401 C52.7882516,106.109609 53.3189639,106.03776 53.8390379,106.102344 C54.527197,106.187917 55.193062,106.406693 55.8741906,106.526172 C56.7420907,106.67875 57.5992599,106.650495 58.4643848,106.758672 C59.3308973,106.866849 60.1891767,107.113073 61.0545791,107.194609 C63.0834413,107.384323 65.1246068,107.254349 67.160037,107.377057 C68.4638298,107.455365 69.7535615,107.719349 71.0453284,107.840443 C71.56716,107.88888 72.0966698,107.818646 72.6179463,107.877578 C73.0834413,107.930052 73.5361702,108.060026 74.0055504,108.089089 C74.7429232,108.134297 75.4873265,108.071328 76.2257169,108.099583 C76.6633673,108.116536 77.0831637,108.23763 77.5208141,108.254583 C79.5518039,108.332891 81.593802,108.215833 83.626272,108.25862 C84.4028677,108.275573 85.1623497,108.48224 85.9389454,108.499193 C90.619704,108.59849 95.3172988,108.5 100,108.5 L100,0 L0.092506938,0 Z" id="Shape" fill="#49ABE3"></path>
            <path d="M0.092506938,97.0364583 L0.092506938,97.9244792 C0.547279371,97.9260937 0.864058279,98.0641406 1.29509713,98.1424479 C1.77889917,98.2304427 2.29144311,98.1028906 2.77520814,98.1908854 C3.21745606,98.2708073 3.6153284,98.4798958 4.07030527,98.5444792 C4.43840888,98.5961458 4.81390379,98.5444792 5.18038853,98.6122917 C5.93389454,98.7519531 6.63964847,99.0611458 7.40055504,99.1854687 C7.82761332,99.2557031 8.27447734,99.1636719 8.69565217,99.2678125 C9.05249769,99.3558073 9.35772433,99.5568229 9.71322849,99.6496615 C10.3876966,99.8240365 11.0767808,99.8563281 11.7483811,100.004062 C12.406013,100.149375 13.027012,100.423854 13.6910268,100.546562 C14.1785384,100.636979 14.6837188,100.539297 15.1711378,100.630521 C15.7867715,100.745156 16.313136,101.07776 16.9287697,101.192396 C17.6289547,101.323177 18.3499537,101.31349 19.0564292,101.46849 C19.8331175,101.638021 20.5791859,101.98112 21.3691027,102.095755 C21.9503238,102.180521 22.5456984,102.072344 23.1267345,102.176484 C23.9798335,102.328255 24.7764107,102.64875 25.6244218,102.814245 C26.4135985,102.969245 27.2275671,103.137969 28.0296022,103.229193 C28.3987049,103.271172 28.7719704,103.233229 29.1396855,103.28974 C30.1025902,103.438281 31.0416281,103.700651 32.0074006,103.849193 C34.2788159,104.196328 36.5758557,104.368281 38.852914,104.742865 C40.7177613,105.049635 42.5431082,105.553385 44.4033302,105.880339 C46.1351526,106.184687 47.9263645,106.181458 49.6762257,106.334036 C50.4558742,106.401849 51.2092507,106.642422 51.9888992,106.710234 C52.5107308,106.755443 53.0414431,106.683594 53.5615171,106.748177 C54.2495837,106.83375 54.9155412,107.052526 55.5966698,107.172005 C56.4645698,107.324583 57.3217391,107.296328 58.186864,107.404505 C59.0533765,107.512682 59.9116559,107.758906 60.7770583,107.840443 C62.8059204,108.030156 64.847086,107.900182 66.8825162,108.022891 C68.186309,108.101198 69.4760407,108.365182 70.7678076,108.486276 C71.2896392,108.534714 71.8191489,108.464479 72.3404255,108.523411 C72.8059204,108.575885 73.2586494,108.705859 73.7280296,108.734922 C74.4654024,108.78013 75.2098057,108.717161 75.9481961,108.745417 C76.3858464,108.76237 76.8056429,108.883464 77.2432932,108.900417 C79.2742831,108.978724 81.3162812,108.861667 83.3487512,108.904453 C84.1253469,108.921406 84.8848289,109.128073 85.6614246,109.145026 C90.4345051,109.246745 95.2257169,109.145833 100,109.145833 L100,108.5 C95.3487512,108.5 90.6814061,108.59849 86.0314524,108.499193 C85.2548566,108.48224 84.4953747,108.275573 83.7187789,108.25862 C81.686309,108.215833 79.6443108,108.332891 77.613321,108.254583 C77.1756707,108.23763 76.7558742,108.116536 76.3182239,108.099583 C75.5798335,108.071328 74.8354302,108.134297 74.0980574,108.089089 C73.6286772,108.060026 73.1759482,107.930052 72.7104533,107.877578 C72.1891767,107.818646 71.659667,107.88888 71.1378353,107.840443 C69.8460685,107.719349 68.5563367,107.455365 67.2525439,107.377057 C65.2171138,107.254349 63.1759482,107.384323 61.147086,107.194609 C60.2816836,107.113073 59.4234043,106.866849 58.5568918,106.758672 C57.6917669,106.650495 56.8345976,106.67875 55.9666975,106.526172 C55.2855689,106.406693 54.619704,106.187917 53.9315449,106.102344 C53.4114709,106.03776 52.8807586,106.109609 52.3589269,106.064401 C51.5792784,105.996589 50.8259019,105.756016 50.0462535,105.688203 C48.6684551,105.567917 47.2549491,105.568724 45.8834413,105.397578 C43.6318224,105.116641 41.4553191,104.464349 39.2229417,104.097031 C38.2592044,103.938802 37.2370953,103.75474 36.2627197,103.669974 C35.893617,103.637682 35.520629,103.678047 35.1526364,103.632031 C34.6203515,103.565833 34.1062905,103.400339 33.5800185,103.306693 C33.1523589,103.23 32.7148936,103.258255 32.2849214,103.188021 C31.353469,103.034635 30.4407956,102.787604 29.5097132,102.643906 C29.0500463,102.573672 28.5834413,102.617266 28.1221092,102.542187 C26.5754857,102.287891 25.1151711,101.848724 23.5892692,101.548411 C22.9473636,101.421667 22.2853839,101.553255 21.6466235,101.434583 C20.8271045,101.282812 20.0609621,100.944557 19.2414431,100.784714 C18.5454209,100.648281 17.7883441,100.677344 17.1137835,100.504583 C16.5740981,100.366536 16.0944496,100.087214 15.5411656,99.9846875 C15.0537465,99.8934635 14.5485661,99.9911458 14.0610546,99.9007292 C13.3970398,99.7780208 12.7760407,99.5035417 12.1184089,99.3582292 C11.4468085,99.2104948 10.7577243,99.1782031 10.0832562,99.0038281 C9.69777983,98.903724 9.36864015,98.6760677 8.97317299,98.6017969 C8.57856614,98.527526 8.16726179,98.605026 7.77058279,98.5396354 C7.0406568,98.4201562 6.35962997,98.1440625 5.64292322,97.9858333 C5.21620722,97.8913802 4.77678076,97.9583854 4.34782609,97.8833073 C3.93064755,97.8098437 3.55510638,97.6193229 3.14523589,97.5450521 C2.72502313,97.4683594 2.27577243,97.5458594 1.85013876,97.5159896 C1.30487512,97.4780469 0.570645698,97.2657292 0.092506938,97.0364583 Z" id="Shape" fill="#010101"></path>
            <path d="M0.092506938,97.9244792 L0.092506938,155 L100,155 L100,109.145833 C95.2562442,109.145833 90.4962072,109.245937 85.7539315,109.145026 C84.9773358,109.128073 84.2178538,108.921406 83.4412581,108.904453 C81.4087882,108.861667 79.36679,108.978724 77.3358002,108.900417 C76.8981499,108.883464 76.4783534,108.76237 76.0407031,108.745417 C75.3023127,108.717161 74.5579093,108.78013 73.8205365,108.734922 C73.3511563,108.705859 72.8984274,108.575885 72.4329325,108.523411 C71.9116559,108.464479 71.3821462,108.534714 70.8603145,108.486276 C69.5685476,108.365182 68.2788159,108.101198 66.9750231,108.022891 C64.939593,107.900182 62.8984274,108.030156 60.8695652,107.840443 C60.0041628,107.758906 59.1458834,107.512682 58.279371,107.404505 C57.4142461,107.296328 56.5570768,107.324583 55.6891767,107.172005 C55.0080481,107.052526 54.3421832,106.83375 53.6540241,106.748177 C53.13395,106.683594 52.6032377,106.755443 52.0814061,106.710234 C51.3017576,106.642422 50.5483811,106.401849 49.7687327,106.334036 C48.0188714,106.181458 46.2276596,106.184687 44.4958372,105.880339 C42.6356152,105.554193 40.8102683,105.049635 38.9454209,104.742865 C36.6683626,104.368281 34.3713228,104.196328 32.0999075,103.849193 C31.1341351,103.700651 30.1950971,103.438281 29.2321924,103.28974 C28.8644773,103.233229 28.4912118,103.271172 28.1221092,103.229193 C27.320074,103.137969 26.5061055,102.969245 25.7169288,102.814245 C24.8689177,102.64875 24.0723404,102.328255 23.2192414,102.176484 C22.6382054,102.072344 22.0428307,102.180521 21.4616096,102.095755 C20.6716929,101.98112 19.9256244,101.638021 19.1489362,101.46849 C18.4424607,101.31349 17.7214616,101.323177 17.0212766,101.192396 C16.4056429,101.07776 15.8792784,100.745156 15.2636448,100.630521 C14.7762257,100.539297 14.2710453,100.636979 13.7835338,100.546562 C13.119519,100.423854 12.4985199,100.149375 11.8408881,100.004062 C11.1692877,99.8563281 10.4802035,99.8240365 9.80573543,99.6496615 C9.45023127,99.5568229 9.14500463,99.3558073 8.78815911,99.2678125 C8.36698427,99.1636719 7.92012026,99.2557031 7.49306198,99.1854687 C6.73215541,99.0611458 6.02640148,98.7519531 5.27289547,98.6122917 C4.90641073,98.5444792 4.53091582,98.5961458 4.16281221,98.5444792 C3.70783534,98.4798958 3.309963,98.2708073 2.86771508,98.1908854 C2.41488437,98.1085417 1.93665125,98.2094531 1.48011101,98.1553646 C0.989086031,98.0964323 0.607945421,97.9244792 0.092506938,97.9244792 Z" id="Shape" fill="#51D961"></path>
            <path d="M13.7835338,112.756042 C12.8293247,112.982891 11.9770583,113.405104 11.1009251,113.795026 C10.8511563,113.906432 10.3511563,114.134089 10.5537465,114.448932 C10.759852,114.76862 11.2871415,114.549844 11.5633673,114.450547 C11.9313599,114.318151 12.3361702,114.200286 12.6734505,114.015417 C13.0675301,113.798255 13.5970398,113.40349 14.1139685,113.5375 C14.4237743,113.618229 14.6550416,113.912083 14.8754857,114.101797 C15.2074931,114.386771 15.6316374,114.674167 16.0962072,114.765391 C17.006383,114.943802 18.2629972,114.803333 19.1489362,114.577292 C19.7122109,114.433594 20.220259,114.126823 20.8140611,114.078385 C21.4016651,114.030755 22.1880666,113.987969 22.7567068,114.134896 C23.4482886,114.313307 24.0552266,114.728255 24.7918594,114.788802 C25.3144311,114.830781 25.9603145,114.854193 26.4569843,114.694349 C26.9276596,114.543385 27.346901,114.215625 27.8445883,114.13651 C28.3528215,114.056589 28.8846438,114.582943 29.3246994,114.775078 C29.5100833,114.855807 29.7360777,114.973672 29.9428307,114.871146 C30.1933395,114.746823 30.1646623,114.432786 30.0088807,114.259219 C29.8141536,114.042865 29.4822387,114.010573 29.23358,113.862031 C28.9185014,113.673125 28.7197965,113.311458 28.3057354,113.279167 C27.313136,113.203281 26.4913043,114.074349 25.5319149,114.142161 C24.4684551,114.218047 23.5487512,113.435781 22.4791859,113.424479 C21.7375578,113.417214 20.8947271,113.33487 20.1665125,113.465651 C19.0784459,113.661823 18.1778908,114.138125 17.0212766,114.149427 C16.2108233,114.1575 15.739593,113.704609 15.1721554,113.263021 C14.733025,112.921536 14.4128585,112.606693 13.7835338,112.756042 Z" id="Shape" fill="#3FA94D"></path>
            <path d="M44.0333025,120.851562 C43.6517114,120.066875 42.7122109,120.606146 42.1170213,120.865286 C41.7896392,121.00737 41.406198,120.876589 41.0748381,121.027552 C40.7412581,121.179323 40.6883441,121.461068 40.4644773,121.691953 C40.3039778,121.856641 40.0216466,121.97612 40.0218316,122.223958 C40.0221092,122.797135 41.1945421,122.820547 41.6281221,122.972318 C42.0090657,123.106328 42.3499537,123.352552 42.7382054,123.4575 C43.573543,123.683542 44.2665125,123.314609 44.9583719,122.977969 C45.2418131,122.839922 45.6943571,122.761615 45.8808511,122.512969 C46.1817761,122.112552 45.7468085,121.841302 45.6501388,121.49013 C45.5860315,121.25763 45.8,121.023516 45.6603145,120.796667 C45.3820537,120.343776 44.4096207,120.733698 44.0333025,120.851562 Z" id="Shape" fill="#6973CD"></path>
            <path d="M43.0158187,121.224531 C42.5231267,121.300417 42.0205365,121.989844 42.5826087,122.301458 C42.8351526,122.44112 43.3841813,122.334557 43.6628122,122.286927 C44.159482,122.200547 44.3950971,121.707292 43.980296,121.384375 C43.7603145,121.213229 43.2944496,121.181745 43.0158187,121.224531 Z" id="Shape" fill="#4755CD"></path>
            <path d="M42.8307123,123.515625 C42.83358,124.438359 42.8726179,125.256146 42.7382054,126.179687 C42.292692,126.023073 41.5763182,125.663828 41.1024977,125.939922 C40.7633673,126.136901 40.8501388,126.73026 41.0363552,126.986979 C41.4404255,127.54401 42.0385754,127.665104 42.7382054,127.713542 C42.6564292,128.189844 42.319889,128.673411 42.3855689,129.165052 C42.4147086,129.383828 42.619519,129.614714 42.8955597,129.482318 C43.1633673,129.354766 43.1766883,128.988255 43.2533765,128.763021 C43.5351526,127.93474 43.4782609,127.120182 43.4782609,126.260417 C44.4178538,126.605937 45.8287697,125.941536 46.0366327,125.049479 C46.1081406,124.742708 46.1501388,124.201016 45.907308,123.945104 C45.5715079,123.590703 44.7580019,123.840156 44.4033302,124.052474 C44.1282146,124.217969 43.8985199,124.440781 43.6632747,124.645833 C43.6631822,124.235729 43.6075856,123.842578 43.5707678,123.434896 L42.8307123,123.515625 Z" id="Shape" fill="#399745"></path>
            <path d="M62.9972248,126.744792 C63.2392229,127.163776 63.6139685,127.148437 64.107308,127.148437 C65.0043478,127.148437 66.3283996,127.355911 67.0675301,126.825521 C67.4765032,127.265495 67.7317299,127.754714 68.3629972,127.994479 C68.8738205,128.188229 69.4831637,128.117187 70.0277521,128.117187 C70.7864015,128.117187 71.5864015,128.180964 72.3404255,128.106693 C73.1644773,128.025964 73.9938945,127.730495 74.8381129,127.920208 C75.1455134,127.988828 75.3978723,128.151094 75.6706753,128.284297 C76.0712303,128.478854 76.7913043,128.764635 77.2428307,128.814687 C77.4980574,128.842943 77.8012026,128.707318 77.7287697,128.445755 C77.6518964,128.168047 77.2418131,127.997708 76.9657724,127.907292 C76.1710453,127.645729 75.4222017,127.230781 74.560592,127.229167 C72.8220167,127.226745 70.920444,127.783776 69.1951896,127.434219 C68.8145236,127.357526 68.4715079,127.182344 68.2412581,126.904635 C68.0446809,126.667292 67.9524514,126.347604 67.613876,126.228125 C67.0690102,126.036797 66.4764107,126.332266 65.9574468,126.442057 C65.4174838,126.556693 64.6606846,126.568802 64.1109158,126.490495 C63.6395005,126.42349 63.5305273,125.834167 63.0847364,125.826901 C62.8516189,125.823672 62.626642,125.992396 62.4421832,126.097344 C61.9791859,126.359714 61.539963,126.606745 61.0546716,126.836016 C60.8593895,126.928047 60.5390379,127.029766 60.4765957,127.238854 C60.4082331,127.468125 60.6517114,127.590833 60.8713228,127.620703 C61.3419056,127.684479 61.6188714,127.474583 61.9878816,127.267109 C62.3160037,127.083047 62.659667,126.915937 62.9972248,126.744792 Z M11.6562442,136.655911 C11.0896392,136.823828 10.6421832,137.35099 10.2526364,137.723958 C9.75559667,138.20026 9.19382054,138.628932 8.70571693,139.110078 C8.50479186,139.307865 8.22884366,139.929479 8.7899445,139.932708 C9.14967623,139.93513 9.59777983,139.464479 9.83172988,139.261042 C10.3971323,138.767786 10.8528215,138.205911 11.4708603,137.757057 C11.6765957,137.607708 11.8680851,137.383281 12.1267345,137.302552 C12.6552266,137.138672 13.5501388,137.663411 14.0610546,137.810339 C15.2654949,138.155859 16.4923219,138.236589 17.7613321,138.207526 C18.4770583,138.190573 19.0875116,137.539089 19.7964847,137.670677 C20.7183164,137.841823 21.0857539,138.892917 22.1091582,139.00513 C22.7753932,139.077786 23.7716004,139.123802 24.4218316,138.97526 C25.0110083,138.84125 25.7287697,138.360911 26.3644773,138.539323 C26.9609621,138.70724 27.4437558,139.303828 27.9370953,139.629974 C28.1434783,139.766406 28.4570768,140.034427 28.740148,139.89638 C29.0506938,139.745417 28.8913969,139.377292 28.7166512,139.198073 C28.5502313,139.026927 28.3130435,138.911484 28.1220167,138.762943 C27.6833488,138.421458 27.2635523,137.894297 26.6419981,137.81599 C25.1668825,137.63112 23.9700278,138.599062 22.4791859,138.347995 C21.5428307,138.189766 21.1969473,137.216172 20.3479186,137.023229 C19.906198,136.922318 19.2046253,136.952187 18.7789084,137.086198 C18.2672525,137.248464 17.8621647,137.551198 17.2987974,137.560885 C16.0657724,137.581875 14.9449584,137.263802 13.7835338,136.952995 C13.0593895,136.759245 12.4549491,136.418568 11.6562442,136.655911 Z" id="Shape" fill="#3FA94D"></path>
            <path d="M84.8288622,139.822917 C84.5278446,139.677604 84.2364477,139.478203 83.9037928,139.391016 C82.8922294,139.126224 82.6034228,139.920599 82.6091582,140.630208 C82.6150786,141.361615 82.7691952,142.23349 83.3741906,142.785677 C84.1510638,143.494479 85.5160037,143.332214 86.0392229,142.486979 C86.246901,142.151146 86.3738205,141.731354 86.4509713,141.356771 C86.5493062,140.880469 86.5775208,140.21849 86.4621647,139.743802 C86.2673451,138.940547 85.1301573,139.28849 84.8288622,139.822917 Z" id="Shape" fill="#BD250B"></path>
            <path d="M84.3663275,140.065104 C84.1099907,139.981146 83.7449584,139.730078 83.4623497,139.801927 C83.0082331,139.91737 83.0646623,140.647969 83.1104533,140.953125 C83.1960222,141.521458 83.327197,142.127734 83.8320074,142.545104 C84.6072155,143.186901 85.4767808,142.626641 85.753469,141.921875 C85.8765957,141.607839 85.9951896,141.285729 86.0231267,140.953125 C86.0591119,140.524453 86.052914,140.079635 85.9389454,139.661458 C85.186494,139.781745 84.7494912,140.354115 84.513876,140.953125 C84.4518039,141.110547 84.4514339,141.501276 84.2992599,141.605417 C84.1586494,141.701484 84.0181314,141.528724 83.9738205,141.431042 C83.8653099,141.192083 83.9885291,140.93375 84.0901943,140.710937 C84.1887142,140.494583 84.293062,140.288724 84.3663275,140.065104 Z" id="Shape" fill="#E12D0D"></path>
            <path d="M23.0342276,143.052083 C22.7012951,143.052083 22.1597595,142.964089 21.8965772,143.18125 C21.3651249,143.620417 21.7431082,144.166146 21.7114709,144.666667 C21.6955597,144.918542 21.5378353,145.280208 21.7417206,145.50625 C21.8857539,145.665286 22.1820537,145.632995 22.386679,145.635417 C22.386679,145.952682 22.3333025,146.322422 22.5478261,146.599323 C22.9954672,147.176536 23.9989824,146.980365 24.3293247,146.442708 C24.7640148,146.533125 25.3098982,146.60013 25.7082331,146.373281 C26.3488437,146.009193 26.4825162,145.008151 25.9019426,144.585937 C26.1566142,144.249297 26.3712303,143.58974 25.873913,143.308802 C25.6477336,143.18125 25.3256244,143.214349 25.0693802,143.213542 C24.9416281,142.2125 23.1784459,141.922682 23.0342276,143.052083 Z" id="Shape" fill="#FFF701"></path>
            <path d="M84.6438483,143.213542 L84.9213691,144.101562 C84.5699352,144.044245 84.0691952,143.927995 83.7398705,144.103984 C83.2413506,144.369583 83.427197,145.086458 83.8213691,145.348021 C84.1583719,145.571641 84.613136,145.55388 85.013876,145.554687 C85.0143386,146.138359 85.2121184,146.671979 85.2756707,147.25 C85.3076781,147.540625 85.2494912,147.865156 85.413321,148.133177 C85.5663275,148.383438 86.1089732,148.603021 86.2408881,148.206641 C86.3144311,147.985443 86.1047179,147.700469 86.0314524,147.492188 C86.6979648,147.400156 86.6933395,146.925469 86.8368178,146.442708 C86.9093432,146.198906 87.053099,145.800911 86.6653099,145.692734 C86.3615171,145.607969 86.0081406,145.842083 85.7539315,145.958333 C85.7539315,145.056589 85.7889917,143.993385 85.4764107,143.132812 L84.6438483,143.213542 Z" id="Shape" fill="#399745"></path>
            <path d="M23.4083256,143.84 C22.9320074,143.998229 22.9663275,144.385729 23.0208141,144.747396 C23.1115634,145.350443 23.3686401,145.927656 24.2368178,145.657214 C25.7521739,145.185755 24.8281221,143.366927 23.4083256,143.84 Z" id="Shape" fill="#CDC501"></path>
            <path d="M24.1443108,146.684896 C23.8901943,146.84474 23.7167438,146.907708 23.4042553,146.927083 C23.3965772,147.722266 23.0137835,148.473047 22.9417206,149.268229 C22.5535615,149.268229 21.90037,149.160859 21.5839038,149.397396 C21.193062,149.689635 21.480481,150.376641 21.8370953,150.592188 C22.0817761,150.739922 22.3812211,150.720547 22.6641998,150.721354 C22.6641998,150.955469 22.599815,151.298568 22.7592969,151.502813 C22.9246068,151.714323 23.2379278,151.655391 23.3484736,151.435807 C23.466605,151.200885 23.3913969,150.890078 23.420074,150.640625 C23.4765032,150.14737 23.6699352,149.685599 23.6817761,149.1875 C24.2426457,149.16651 24.7044403,149.087396 24.9891767,148.622396 C25.3484736,148.035495 24.9213691,147.352526 24.1443108,147.492187 C24.1849214,147.212057 24.2689177,146.951302 24.1443108,146.684896 Z" id="Shape" fill="#399745"></path>
            <path d="M62.9972248,148.460937 C63.6816836,148.990521 64.0835338,149.653307 64.8473636,150.136068 C65.1163737,150.305599 65.6435708,150.519531 65.7375578,150.071484 C65.8300648,149.629896 65.0814061,149.361875 64.7958372,149.093047 C64.3528215,148.675677 64.0343201,148.050026 63.36716,147.860312 C62.7345976,147.681094 62.1498612,148.025807 61.6096207,148.258307 C60.953839,148.540052 60.220074,148.732995 59.4819611,148.599792 C58.3678076,148.398776 57.9524514,147.13375 56.6142461,147.55112 C55.813691,147.800573 55.1474561,148.496458 54.3940796,148.854089 C54.0625347,149.01151 53.5041628,149.064792 53.2491212,149.315052 C53.046531,149.514453 53.2162812,149.749375 53.4744681,149.8075 C53.7995375,149.880156 54.1009251,149.736458 54.3940796,149.638776 C54.9940796,149.439375 55.5444958,149.175391 56.0592044,148.834714 C56.3482886,148.642578 56.7629047,148.213099 57.1692877,148.263151 C57.7738205,148.337422 58.2567068,149.008281 58.8344126,149.200417 C59.1763182,149.313437 59.5855689,149.268229 59.9444958,149.268229 C61.0177613,149.268229 62.1327475,149.063984 62.9972248,148.460937 Z" id="Shape" fill="#3FA94D"></path>
        </g>
    </g>
</svg>