<?xml version="1.0" encoding="UTF-8"?>
<svg width="100px" height="155px" viewBox="0 0 100 155" version="1.1" xmlns="http://www.w3.org/2000/svg" xmlns:xlink="http://www.w3.org/1999/xlink">
    <!-- Generator: Sketch 50.2 (55047) - http://www.bohemiancoding.com/sketch -->
    <title>FireBackgroundPreview</title>
    <desc>Created with Sketch.</desc>
    <defs></defs>
    <g id="iPhone" stroke="none" stroke-width="1" fill="none" fill-rule="evenodd">
        <g id="FireBackgroundPreview" fill-rule="nonzero">
            <path d="M0.0924214418,0 L0.0924214418,120.609375 C0.969432532,120.18474 1.95047135,119.902188 2.77264325,119.395208 C4.14220887,118.549974 5.58524954,117.452057 6.55792976,116.25 C7.68536969,114.856615 8.32271719,113.120937 8.82724584,111.486979 C9.03738447,110.806432 9.03387246,110.07987 9.21119224,109.388021 C9.38438078,108.712318 9.73243993,108.067292 9.7883549,107.369792 C9.8784658,106.247656 9.56460259,104.999583 9.83271719,103.898438 C10.0032348,103.197708 10.4963031,102.542995 10.7944547,101.880208 C11.2512939,100.864635 11.5701479,99.767526 12.1932532,98.8125 C13.033549,97.5240625 14.2318854,96.52625 15.4343808,95.5017969 C16.1652495,94.8785677 16.9574861,94.342526 17.7449168,93.7758073 C18.0772643,93.536849 18.4449168,93.1784115 18.8539741,93.0484375 C19.168207,92.9491406 19.5426063,93.013724 19.87061,92.986276 C20.4400185,92.9386458 21.0548983,92.8385417 21.6266174,92.8692188 C22.5365989,92.9176563 23.3809612,93.1614583 24.3068392,93.1614583 C23.911183,93.4633854 23.5021257,93.7435156 23.2074861,94.1302083 C22.1022181,95.5792969 22.1283734,97.4772396 22.1283734,99.1354167 C22.1283734,99.9951823 22.0261553,100.755651 22.4833641,101.557292 C23.0487985,102.548646 23.895841,103.519818 25.0462107,104.030026 C25.6419593,104.29401 26.2785582,104.357786 26.8946396,104.554766 C27.5558226,104.765469 28.1123845,105.058516 28.8354898,105.102109 C29.5404806,105.144896 30.105268,104.933385 30.7763401,104.817135 C31.0814233,104.763854 31.3944547,104.78888 31.7005545,104.73237 C32.2778189,104.625807 32.8096118,104.407839 33.3641405,104.240729 C34.2320702,103.979974 35.1025878,104.141432 35.9519409,103.723255 C36.5672828,103.419714 37.0002773,102.942604 37.5231054,102.540573 C37.9478743,102.214427 38.4048983,101.962552 38.7463956,101.557292 C39.0378004,101.211771 39.1547135,100.778255 39.4500924,100.441615 C39.892976,99.9378646 40.5857671,99.6932552 40.999353,99.1354167 C41.2626617,98.7802083 41.3637708,98.3701042 41.5962107,98.0052083 C41.8114603,97.6669531 42.1198706,97.3868229 42.3170055,97.0364583 C42.8601664,96.0709375 43.0906654,95.0553646 43.4884473,94.0494792 C43.9072089,92.9911198 44.3955638,91.9666667 44.7869686,90.9010417 C45.0571165,90.165599 45.4488909,89.4616406 45.7084104,88.7213542 C46.0228281,87.8252604 46.1747689,86.8888021 46.4172828,85.9765625 C46.5854898,85.3444531 46.8210721,84.6913542 46.8540665,84.0390625 C46.9085028,82.9621354 46.7689464,81.8513021 46.4426987,80.8098958 C46.3046211,80.3691953 46.0669131,79.9638542 45.9334566,79.5182292 C46.6550832,80.1355651 47.4753235,80.5995964 48.2439926,81.1594531 C49.62939,82.1677604 50.8914972,83.4142188 51.6649723,84.8463542 C51.9361368,85.3484896 51.9849353,85.9240885 52.1079482,86.4609375 C52.3419593,87.4829688 52.5314233,88.5098438 52.7546211,89.5286458 C53.1396488,91.2869271 53.590573,92.9983854 53.8549908,94.7760417 C53.9500924,95.4154167 53.7902957,96.0765885 53.9013863,96.7135417 C53.9841035,97.1874219 54.3084104,97.6023698 54.3956562,98.0859375 C54.5102588,98.721276 54.4074861,99.3824479 54.4398336,100.023438 C54.4578558,100.378646 54.5843808,100.719323 54.6128466,101.072917 C54.7008318,102.170026 54.5077634,103.288125 54.6307763,104.382812 C54.6784658,104.806641 55.0453789,105.140859 55.0861368,105.559844 C55.110536,105.810911 55.0066543,106.068438 54.9943623,106.320312 C54.9685767,106.850703 55.0802218,107.431953 55.2772643,107.934896 C55.9113678,109.551901 57.101756,110.847604 59.0573013,111.286771 C59.8082255,111.455495 60.6007394,111.436927 61.3678373,111.500703 C62.601756,111.604036 64.0065619,111.723516 65.1571165,111.234297 C66.4829945,110.670807 67.0139556,109.581771 67.6348429,108.5 C68.3520333,107.250313 68.9316081,105.85612 69.1830869,104.463542 C69.3904806,103.315573 69.580037,102.141771 69.7514787,100.992188 C69.799353,100.670885 69.7409427,100.34151 69.8132163,100.023438 C70.0796673,98.8504427 70.8227357,97.7848177 71.1880776,96.6328125 C71.3226433,96.2081771 71.3544362,95.7657813 71.487061,95.3411458 C71.894085,94.0389844 72.8545287,92.3008854 74.3068392,91.7051042 C75.5421442,91.198125 76.9097967,90.8760156 78.2809612,90.9954948 C78.9404806,91.0528125 79.5551756,91.2796615 80.2218115,91.3046875 C79.8718115,91.6397135 79.347597,91.7511198 78.9279113,92.0142969 C78.3252311,92.3921094 77.8850277,92.9547917 77.6433457,93.5651042 C77.4451941,94.0648177 77.4491682,94.5774479 77.4491682,95.0989583 C77.4491682,96.0434896 77.554159,96.9395833 78.1393715,97.7630208 C78.6654344,98.5033073 79.5473198,99.1741667 80.4990758,99.4510677 C80.9231054,99.5745833 81.3651571,99.5729688 81.792976,99.6690365 C82.7946396,99.8926563 83.8883549,100.119505 84.935305,100.000026 C87.0537893,99.7586458 89.1562847,99.2807292 90.502403,97.6822917 C91.2154344,96.8354427 91.1951941,95.7601302 91.7110906,94.8567708 C92.1454713,94.0954948 93.1866913,93.5408854 93.9926063,93.1170573 C95.2079482,92.4784896 96.5757856,92.2435677 97.9667283,92.1257031 C98.4057301,92.0885677 98.8253235,92.0522396 99.2606285,91.9852344 C99.4408503,91.9577865 99.6885397,91.959401 99.8123845,91.8213542 C100.103512,91.4976302 99.9075786,90.5716667 99.9075786,90.1744792 L99.9075786,85.6536458 L99.9075786,68.0546875 L99.9075786,0 L0.0924214418,0 Z" id="Shape" fill="#8E0015"></path>
            <path d="M23.3001848,8.70147396 C22.8775416,8.83508073 22.9413124,9.22540625 23.025878,9.52604167 C23.1015712,9.79535417 23.1109057,10.0740312 23.2303142,10.3333333 C23.3772643,10.6524557 23.6651571,10.9625365 23.7418669,11.3020833 C23.8336414,11.7088776 23.3073937,12.1000911 23.1022181,12.4322917 C22.8833641,12.786612 22.9205176,13.1725781 22.9205176,13.5625 C22.9205176,14.1778984 22.8803142,14.8050026 22.9245841,15.4191901 C22.9487061,15.7547812 23.1856747,16.1483359 23.6499076,16.001651 C24.2465804,15.8130677 24.0295749,14.7974141 24.0295749,14.3697917 C24.0295749,13.9655 23.9415896,13.4674818 24.0813309,13.078125 C24.2238447,12.6811797 24.6382625,12.4615156 24.8451941,12.1062266 C25.186414,11.5202943 24.8107209,10.8561354 24.5146026,10.3333333 C24.2790203,9.91741667 24.1670055,8.4275599 23.3001848,8.70147396 Z M47.8743068,22.0390625 C46.9803142,22.4448073 47.2943623,23.4183203 47.2177449,24.1380208 C47.17061,24.5808203 47.0416821,24.9762318 47.0425139,25.4296875 C47.0431608,25.801526 47.0976895,26.5480286 47.7719039,26.3349844 C48.2008318,26.1994401 48.1416821,25.7476797 48.1529575,25.4296875 C48.1638632,25.1222708 48.2945471,24.8446432 48.3268022,24.5416667 C48.3667283,24.1667604 48.3134935,23.7870104 48.3404806,23.4115391 C48.3794824,22.8687161 49.0024954,22.5835807 49.0475046,22.0390625 C49.0949168,21.4643516 48.6155268,21.1047839 48.2990758,20.6666667 C48.1475046,20.4568516 48.0843808,20.180112 48.0216266,19.9401042 C47.8108133,19.133862 48.2786506,18.2782135 48.1318854,17.4375 C48.0589649,17.0197266 47.7596118,16.5407604 47.3183919,16.3442656 C47.0216266,16.2120312 46.6005545,16.2028281 46.4134935,16.4871562 C46.1145102,16.9419036 46.842329,17.2214687 46.9821627,17.6001693 C47.2146026,18.2296146 46.8563771,19.0402969 46.857671,19.6979167 C46.8585952,20.1578307 46.9328096,20.6539922 47.1768022,21.0703125 C47.3827172,21.4218073 47.7261553,21.658263 47.8743068,22.0390625 Z M86.5165434,27.9150156 C86.1887246,28.0182682 86.1393715,28.3175312 86.2107209,28.578125 C86.3995379,29.2672292 86.4140481,29.8846458 86.4140481,30.5963542 C86.4140481,30.9774766 86.3340111,31.4427995 86.4812384,31.8072917 C86.6149723,32.1386042 87.1268022,32.4860625 87.0700555,32.8567708 C86.9756932,33.4726536 86.1302218,33.8748464 86.0540665,34.5520833 C86.0074861,34.9659818 85.8680222,36.1675547 86.6876155,36.0421823 C87.4048983,35.9323906 87.0473198,34.9670312 87.2584104,34.5520833 C87.5057301,34.0658516 88.1309612,33.7091094 88.2414048,33.1796875 C88.3072089,32.8637943 88.3318854,32.3517292 88.1538817,32.0632031 C87.9869686,31.7927604 87.676525,31.6300104 87.57061,31.3228359 C87.3969501,30.8194089 87.5231054,30.1503255 87.5231054,29.6276042 C87.5231054,29.1574375 87.542329,27.5920182 86.5165434,27.9150156 Z M10.1763401,35.342099 C9.69445471,35.4943542 9.73354898,36.1575443 9.90166359,36.4895833 C10.1344732,36.9494167 10.4985213,37.3756667 10.6692237,37.8619792 C10.7801294,38.1780339 10.6798521,38.514513 10.810536,38.8307292 C10.9615527,39.1961094 11.4101664,39.484474 11.4411275,39.8802083 C11.4783734,40.3546536 10.9110906,40.6778125 10.9137708,41.1717943 C10.9157116,41.5125521 11.1832717,41.8967422 11.6351201,41.7542552 C11.9216266,41.6639193 12.0074861,41.3834661 12.1391867,41.1717943 C12.4970425,40.5970833 12.799353,39.818612 12.5007394,39.1567943 C12.3614603,38.8480859 12.0083179,38.6712891 11.8902957,38.3460313 C11.7948244,38.0830964 11.8625693,37.8063568 11.8088725,37.5390625 C11.7516636,37.25425 11.5479667,36.9913958 11.4089649,36.7317708 C11.2020333,36.3451589 10.8426987,35.1315573 10.1763401,35.342099 Z M51.581146,41.9618906 C51.0016636,42.1450651 51.3024954,42.7581224 51.4316081,43.109375 C51.6200555,43.6220052 51.7331793,44.1078333 52.0907579,44.5625 C52.3668207,44.9136719 52.9714418,45.3944948 52.9523105,45.8541667 C52.9376155,46.2054193 52.5941774,46.6164115 52.3865989,46.9036458 C52.0502773,47.368888 51.7066543,47.8864427 51.6012939,48.4375 C51.5268946,48.8262917 51.4954713,49.7146354 52.2144177,49.6046823 C52.8235675,49.5114401 52.6633087,48.6667708 52.8867837,48.2897656 C53.3595194,47.4919193 54.4113678,46.397151 54.1,45.4505208 C53.8756007,44.7683594 53.203512,44.2916536 52.8501848,43.6744792 C52.6086876,43.2525078 52.4875231,41.6754635 51.581146,41.9618906 Z M31.063586,57.3004323 C30.3792052,57.5167057 30.960536,58.5599687 30.961183,59.0130208 C30.9621072,59.6506198 30.6014787,60.1666406 30.5918669,60.7890625 C30.5861368,61.1567031 30.5466728,61.5568776 30.6262477,61.9192708 C30.7174677,62.335026 30.9452865,62.699276 30.9597967,63.1302083 C30.9728281,63.5195651 30.825878,64.7124193 31.690573,64.439151 C32.2579482,64.2598516 32.0725508,63.3748984 32.0701479,62.96875 C32.0662662,62.3212214 31.6948244,61.7595885 31.7010166,61.1119792 C31.7050832,60.6852448 31.9348429,60.3837214 32.0341959,59.9817708 C32.1575786,59.4822187 32.0868762,58.87675 32.068854,58.3671875 C32.054159,57.9533698 31.7195009,57.0932005 31.063586,57.3004323 Z M63.1338262,60.9332448 C62.5548059,61.1162578 62.7480591,62.0687005 62.7545287,62.484375 C62.7597043,62.8219844 62.894085,63.1218932 62.92939,63.453125 C62.9692237,63.8273854 62.8943623,64.2109297 62.9586876,64.5833333 C63.0064695,64.8602344 63.1960259,65.1069427 63.2012015,65.390625 C63.2073937,65.7308984 62.9231978,65.9688073 62.8144177,66.2786458 C62.6995379,66.6060026 62.754159,66.9898698 62.754159,67.328125 C62.754159,67.7239401 62.6005545,68.9967969 63.483549,68.7177969 C64.1068392,68.5208177 63.8432532,67.4484115 63.8649723,67.0052083 C63.8862292,66.573388 64.2619224,66.2936615 64.3152495,65.875 C64.3914048,65.2772812 64.1656192,64.8271354 64.0677449,64.2604167 C63.9736599,63.7158177 64.0593346,63.1904323 63.9181146,62.6458333 C63.8133087,62.2414609 64.1170055,60.622599 63.1338262,60.9332448 Z M88.8269871,69.4098073 C88.0092421,69.6681406 88.8755083,70.7401432 89.1071165,71.1223958 C89.4083179,71.6194453 89.2780037,72.0548984 89.4075786,72.5755208 C89.500647,72.9492161 89.8519409,73.243474 89.9012939,73.625 C89.9369686,73.9003672 89.7796673,74.1612031 89.7508318,74.4322917 C89.6887246,75.0155599 89.74122,75.6226432 89.74122,76.2083333 C89.74122,76.6001927 89.6138632,77.7880417 90.47061,77.517276 C91.0797597,77.324737 90.8502773,76.2423203 90.8502773,75.8046875 C90.8502773,74.9786667 91.1575786,74.1163177 91.0154344,73.3020833 C90.9443623,72.8948047 90.6154344,72.5709193 90.5166359,72.171875 C90.4136784,71.7557161 90.5192237,71.3652292 90.3146026,70.9609375 C90.088817,70.5149896 89.6350277,69.1545417 88.8269871,69.4098073 Z M7.31127542,79.0973073 C6.60250462,79.3213307 7.11623845,80.498362 7.11645102,80.9713542 C7.11671904,81.5832812 7.06117375,82.2186198 7.12608133,82.828125 C7.17628466,83.2995833 7.36660813,83.713724 7.28160813,84.2005208 C7.2316451,84.4871094 7.03752311,84.726875 6.96768946,85.0078125 C6.88595194,85.3363802 6.90961183,85.6536458 6.77351201,85.9765625 C6.61957486,86.3422656 6.39273567,86.6248177 6.37850277,87.0260417 C6.36121072,87.5136458 6.26012015,88.1667448 6.41715342,88.6373958 C6.50426063,88.898151 6.79296673,89.0797917 7.1064695,88.9804948 C7.78841959,88.7649479 7.40426987,87.5838802 7.52221811,87.1067708 C7.73620148,86.2405469 8.23684843,85.405 8.39066543,84.5234375 C8.50607209,83.8622656 8.34731978,83.2301562 8.24483364,82.5859375 C8.17392791,82.1403125 8.22550832,81.6632031 8.22550832,81.2135417 C8.22550832,80.6439974 8.29048983,80.0616979 8.05421442,79.5194401 C7.93481516,79.2454453 7.68992606,78.9776667 7.31127542,79.0973073 Z" id="Shape" fill="#990016"></path>
            <path d="M45.9334566,79.5182292 C46.0417745,80.0043802 46.2950092,80.4190859 46.4426987,80.890625 C46.7450092,81.8553385 46.8843808,82.8797917 46.8562847,83.8776042 C46.8371534,84.5573437 46.5924214,85.2370833 46.4172828,85.8958333 C46.1747689,86.8080729 46.0228281,87.7445312 45.7084104,88.640625 C45.4488909,89.3809115 45.0571165,90.0848698 44.7869686,90.8203125 C44.3955638,91.8859375 43.9072089,92.9103906 43.4884473,93.96875 C43.0906654,94.9746354 42.8601664,95.9902083 42.3170055,96.9557292 C42.1198706,97.3060937 41.8114603,97.586224 41.5962107,97.9244792 C41.344732,98.3192448 41.2366913,98.7567969 40.9376155,99.1354167 C40.5296673,99.651276 39.8843808,99.9039583 39.4500924,100.372995 C39.1487061,100.698333 39.0339187,101.135078 38.7463956,101.476562 C38.3786506,101.913307 37.8884473,102.188594 37.4306839,102.540573 C36.9078558,102.942604 36.4748614,103.419714 35.8595194,103.723255 C35.0607209,104.116406 34.2930684,104.002578 33.4565619,104.18987 C32.8900185,104.316615 32.3619224,104.562839 31.792976,104.692812 C31.3954713,104.784036 30.9856747,104.749323 30.5914972,104.835703 C30.155268,104.930964 29.753512,105.076276 29.297597,105.102109 C28.3852126,105.153776 27.7213494,104.75901 26.8946396,104.52651 C25.9568392,104.263333 25.092329,104.12125 24.3068392,103.54888 C23.2942699,102.811823 22.3381701,101.666276 22.1292976,100.507812 C22.0404806,100.015365 22.174122,99.5422917 22.146488,99.0546875 C22.0613678,97.5523177 22.1730129,95.900599 22.9930684,94.5338542 C23.3268946,93.9776302 23.8678373,93.6369531 24.3068392,93.1614583 C23.3827172,93.1614583 22.5357671,92.8998958 21.6266174,92.8554948 C21.0272643,92.8264323 20.3759704,92.936224 19.7781885,92.986276 C19.4500924,93.013724 19.0757856,92.9491406 18.7615527,93.0484375 C18.3235675,93.188099 17.9136784,93.5836719 17.5600739,93.8428125 C16.7743993,94.4184115 15.9920518,94.9601042 15.2495379,95.5801042 C14.101756,96.5391667 12.9862292,97.5159896 12.1932532,98.7317708 C11.5878004,99.6601562 11.2619224,100.727396 10.8304991,101.71875 C10.5288355,102.412214 10.0102588,103.088724 9.83271719,103.817708 C9.55637708,104.95276 9.91312384,106.215365 9.78086876,107.369792 C9.70120148,108.065677 9.35055453,108.708281 9.1912939,109.388021 C9.05339187,109.977344 9.02430684,110.577969 8.89021257,111.164062 C8.70607209,111.968125 8.36290203,112.820625 8.02183919,113.585937 C7.60459335,114.522396 7.18499076,115.435443 6.49160813,116.25 C5.5160536,117.395547 4.20772643,118.315052 2.95748614,119.211146 C2.46187616,119.566354 1.88353974,119.828724 1.29390018,120.043464 C0.92034658,120.179089 0.402968577,120.295339 0.187410351,120.624714 C0.0271575786,120.869323 0.0924214418,121.226953 0.0924214418,121.497396 L0.0924214418,123.515625 L0.0924214418,130.942708 C0.778821627,130.672266 1.41091497,130.654505 2.12569316,130.490625 C3.1619963,130.251667 4.1659427,129.874661 5.17560074,129.570312 C5.75247689,129.396745 6.37656192,129.316823 6.93160813,129.09401 C8.53829945,128.449792 9.73290203,127.470547 11.0138632,126.448516 C11.2634935,126.249115 11.5725508,126.120755 11.8216266,125.920547 C12.8277264,125.113255 13.7623845,124.18487 14.6500924,123.280703 C14.847597,123.079687 15.1028651,122.92388 15.2770795,122.705104 C15.4516636,122.486328 15.5178373,122.218307 15.6540665,121.981771 C16.0279113,121.332708 16.3426063,120.726432 16.6418669,120.044271 C16.7855823,119.71651 17.021719,119.413776 17.1315157,119.075521 C17.217098,118.812344 17.1707948,118.53625 17.2204251,118.268229 C17.5100739,116.704505 17.335305,115.0875 17.4593346,113.505208 C17.5015712,112.967552 17.462939,112.493672 17.6524954,111.971354 C18.0297597,112.200625 18.3585028,112.484792 18.7615527,112.684193 C21.0244917,113.79987 23.6007394,114.151042 26.155268,114.151042 C26.8965804,114.151042 27.7373383,114.246302 28.4658041,114.120365 C29.5833641,113.926615 30.8224584,113.673932 31.8853974,113.307422 C32.5543438,113.076536 33.162939,112.742318 33.8262477,112.51224 C34.4593346,112.291849 35.1172828,112.01737 35.767098,111.851068 C36.3310536,111.705755 36.8857671,111.708177 37.4306839,111.476484 C38.6204251,110.970312 39.6195009,110.099245 40.6654344,109.406589 C42.1259704,108.44026 43.337061,107.342344 44.5628466,106.158854 C45.2149723,105.529167 45.8468577,105.027839 46.2107209,104.221354 C46.3338262,104.536198 46.6125693,105.02138 46.5615527,105.351562 C46.4711645,105.936849 45.9920518,106.419609 45.9417745,107.046875 C45.8556377,108.118958 45.89122,109.201536 45.8374307,110.276042 C45.8007394,111.006641 45.6073937,111.808281 45.784658,112.536458 C45.996488,113.406719 46.7092421,114.486875 47.3247689,115.186797 C47.5496303,115.442708 47.8572089,115.625156 48.0952865,115.869766 C48.4543438,116.237891 48.711183,116.620547 49.168207,116.915208 C49.536414,117.151745 50.0012015,117.254271 50.3539741,117.501302 C50.6648799,117.719271 50.8938078,118.017161 51.2015712,118.241589 C51.6985213,118.60487 52.3615527,118.917292 52.9574861,119.137682 C54.153512,119.579271 55.4119224,119.506615 56.6543438,119.676146 C57.1817006,119.747995 57.6934381,119.902995 58.2255083,119.949818 C60.3409427,120.134687 62.5231978,119.959505 64.6025878,119.676146 C65.3435305,119.575234 66.0975046,119.599453 66.8207024,119.391172 C69.1895564,118.70901 71.4613678,117.092812 72.9426987,115.361979 C73.892976,114.251146 74.2074861,113.108828 74.6553604,111.809896 C74.8154344,111.345703 75.0779113,110.909766 75.2089649,110.4375 C75.4372458,109.61487 75.5245841,108.619479 75.5925139,107.773437 C75.6832717,106.641615 75.5298521,105.511406 75.6931608,104.382812 C76.3372458,104.620964 76.6745841,105.094844 77.1801294,105.48638 C77.6256932,105.831094 78.1943623,106.030495 78.7430684,106.21375 C80.3433457,106.749792 82.2117375,107.206719 83.9186691,107.356068 C84.6769871,107.422266 85.4673752,107.369792 86.2292052,107.369792 C87.1384473,107.369792 88.1121996,107.458594 89.0018484,107.269687 C90.228281,107.00974 91.5643253,106.388932 92.6062847,105.781849 C93.689464,105.151354 95.0425139,104.247187 95.5637708,103.171875 C96.1182994,103.442318 96.5619224,103.900052 97.1349353,104.129323 C97.4695009,104.263333 97.8853974,104.250417 98.2439926,104.309349 C98.8216266,104.405417 99.310536,104.544271 99.9075786,104.544271 L99.9075786,91.8697917 C98.8696858,92.0877604 97.8133087,92.0853385 96.7652495,92.2282292 C95.1534196,92.4478125 93.4907579,93.1227083 92.3291128,94.1302083 C91.3876155,94.9471875 91.4013863,96.1064583 90.8381701,97.1171875 C90.2082255,98.2473958 88.6895564,99.2185677 87.3382625,99.612526 C86.8467652,99.7554167 86.3608133,99.7360417 85.8595194,99.8070833 C85.4547135,99.8652083 85.0711645,99.9927604 84.6580407,100.016172 C83.7195009,100.069453 82.7816081,99.8692448 81.8853974,99.6690365 C81.3902957,99.5584375 80.8907579,99.5584375 80.4066543,99.3913281 C79.1725508,98.9666927 78.0553604,97.9042969 77.6746765,96.7942708 C77.5203327,96.3446094 77.45,95.8901042 77.4491682,95.421875 C77.448244,94.9342708 77.422366,94.447474 77.542976,93.96875 C77.7302218,93.2252344 78.239464,92.5382292 78.9279113,92.0740365 C79.3344732,91.7995573 79.9536044,91.6921875 80.2218115,91.3046875 C79.5910351,91.2610937 79.0008318,91.0503906 78.3733826,90.9954948 C76.8599815,90.863099 75.0254159,91.1722917 73.752403,91.9303385 C73.2456562,92.2322656 72.9727357,92.6351042 72.6607209,93.0807292 C72.1996303,93.7394792 71.7743993,94.4369792 71.5133087,95.1796875 C71.3654344,95.6002865 71.3374307,96.0459115 71.2127542,96.4713542 C70.8709797,97.6378906 70.1701479,98.6954427 69.8344732,99.8619792 C69.7357671,100.205078 69.8034196,100.563516 69.7514787,100.911458 C69.6069316,101.881016 69.388817,102.843307 69.25,103.817708 C69.00878,105.510599 68.3597043,107.046068 67.5472274,108.580729 C66.8743993,109.852214 65.9998152,111.113203 64.3253235,111.467604 C63.4031423,111.662969 62.3932532,111.578203 61.4602588,111.500703 C60.6617375,111.433698 59.8357671,111.456302 59.0573013,111.264974 C57.1030499,110.787057 55.7483364,109.378333 55.2208872,107.692708 C55.0925139,107.282604 54.9790203,106.828099 54.994732,106.401042 C55.0056377,106.105573 55.1336414,105.80849 55.0999076,105.513021 C55.050647,105.08112 54.6798521,104.738828 54.6307763,104.302083 C54.5077634,103.207396 54.7008318,102.089297 54.6128466,100.992187 C54.5843808,100.638594 54.4578558,100.297917 54.4398336,99.9427083 C54.4074861,99.3017187 54.5102588,98.6405469 54.3956562,98.0052083 C54.3085028,97.5216406 53.9841035,97.1066927 53.9013863,96.6328125 C53.7902957,95.9958594 53.9500924,95.3346875 53.8549908,94.6953125 C53.590573,92.9176562 53.1396488,91.2061979 52.7546211,89.4479167 C52.5314233,88.4291146 52.3419593,87.4022396 52.1079482,86.3802083 C51.9849353,85.8433594 51.9361368,85.2677604 51.6649723,84.765625 C50.6943623,82.9685937 49.0703327,81.72375 47.3197782,80.5259714 C46.8457486,80.201763 46.428281,79.8191068 45.9334566,79.5182292 Z" id="Shape" fill="#FF6100"></path>
            <path d="M95.5637708,103.171875 C94.4288355,104.756589 92.6478743,105.811719 90.7578558,106.588333 C90.0625693,106.874115 89.3985213,107.199453 88.6321627,107.31974 C87.8848429,107.437604 87.0788355,107.369792 86.3216266,107.369792 C85.5597967,107.369792 84.7694085,107.422266 84.0110906,107.356068 C82.3191312,107.208333 80.526525,106.741719 78.9279113,106.244427 C78.345841,106.063594 77.7402033,105.842396 77.2679298,105.48638 C76.7392791,105.087578 76.4085028,104.545078 75.6931608,104.382812 C75.4621996,105.469427 75.6805915,106.594792 75.5925139,107.692708 C75.5230129,108.558125 75.4438078,109.601953 75.1858595,110.4375 C75.0411275,110.906536 74.7763401,111.341667 74.6292052,111.809896 C74.2201479,113.112057 73.8488909,114.279401 72.8726433,115.361979 C71.4726433,116.914401 69.554159,118.352187 67.4676525,119.137682 C66.5155268,119.49612 65.6124769,119.549401 64.6025878,119.664036 C64.0127542,119.731042 63.438817,119.898151 62.8465804,119.949818 C62.1786506,120.007943 61.4841959,119.963542 60.8133087,119.963542 C59.9908503,119.963542 59.1365065,120.021667 58.3179298,119.949818 C57.7236599,119.898151 57.1561922,119.706016 56.5619224,119.654349 C55.4375231,119.555859 54.3193161,119.546979 53.2347505,119.201458 C52.0802218,118.833333 51.3502773,118.159245 50.4356747,117.501302 C50.0280961,117.208255 49.4903882,117.091198 49.075878,116.788464 C48.6785582,116.498646 48.4296673,116.135365 48.0952865,115.800339 C47.4760628,115.180339 46.961183,114.64349 46.5047135,113.908854 C46.2341035,113.473724 45.9030499,112.942526 45.784658,112.455729 C45.6268946,111.807474 45.781793,111.08737 45.8327172,110.4375 C45.8792976,109.843333 45.8530499,109.255625 45.9177449,108.661458 C45.9819778,108.072135 45.8682994,107.47151 45.9740296,106.885417 C46.0704251,106.350182 46.6227357,105.783464 46.6114603,105.270833 C46.6036969,104.920469 46.339464,104.582214 46.3031423,104.221354 C45.9878004,104.502292 45.8245841,104.884948 45.5336414,105.190104 C44.5661738,106.206484 43.465342,107.288255 42.3290203,108.162552 C41.530037,108.776901 40.65878,109.311328 39.8336414,109.897422 C39.0514787,110.452839 38.252403,111.088177 37.3382625,111.476484 C36.7933457,111.708177 36.2386322,111.705755 35.6746765,111.851068 C34.9975046,112.024635 34.2961183,112.303958 33.6414048,112.543724 C32.9498152,112.797214 32.3226433,113.147578 31.6081331,113.367969 C29.0984288,114.141354 26.2184843,114.44651 23.5674677,114.044479 C21.9691312,113.801484 20.3874307,113.388958 18.9463956,112.727786 C18.4808688,112.513854 18.1261553,112.16349 17.6524954,111.971354 C17.4085028,112.476719 17.5098891,112.973203 17.4519409,113.505208 C17.2569316,115.294974 17.5913124,117.149323 17.1543438,118.914062 C17.0628466,119.283802 16.7959335,119.61237 16.6418669,119.963542 C16.2528651,120.850755 15.8925139,121.838073 15.2770795,122.626797 C15.1036969,122.847995 14.8519409,123.006224 14.6500924,123.206432 C13.7628466,124.084766 12.8355823,124.927578 11.9066543,125.772812 C11.6141405,126.038411 11.2375231,126.198255 10.9320702,126.448516 C10.224122,127.028151 9.58613678,127.627161 8.78003697,128.113958 C7.40277264,128.946276 5.83614603,129.425807 4.25138632,129.856094 C3.27507394,130.121693 2.31315157,130.479323 1.29390018,130.597187 C0.892884473,130.643203 0.335211645,130.654505 0.148188078,131.038776 C-0.116649723,131.582083 0.0924214418,132.534687 0.0924214418,133.122396 L0.0924214418,138.046875 L0.0924214418,155 L99.9075786,155 L99.9075786,104.544271 C99.3456562,104.542656 98.8798521,104.399766 98.336414,104.309349 C97.9778189,104.250417 97.5619224,104.263333 97.2273567,104.129323 C96.6155268,103.884714 96.2060998,103.385 95.5637708,103.171875 Z" id="Shape" fill="#FFD800"></path>
        </g>
    </g>
</svg>