<?xml version="1.0" encoding="UTF-8"?>
<svg width="375px" height="667px" viewBox="0 0 375 667" version="1.1" xmlns="http://www.w3.org/2000/svg" xmlns:xlink="http://www.w3.org/1999/xlink">
    <!-- Generator: Sketch 50.2 (55047) - http://www.bohemiancoding.com/sketch -->
    <title>FireBackground</title>
    <desc>Created with Sketch.</desc>
    <defs></defs>
    <g id="iPhone" stroke="none" stroke-width="1" fill="none" fill-rule="evenodd">
        <g id="FireBackground" fill-rule="nonzero">
            <path d="M0.346580407,0 L0.346580407,519.009375 C3.635372,517.182073 7.31426756,515.966188 10.3974122,513.784542 C15.5332833,510.147307 20.9446858,505.422724 24.5922366,500.25 C28.8201363,494.253948 31.2101895,486.784938 33.1021719,479.753646 C33.8901918,476.825099 33.8770217,473.698536 34.5419709,470.721354 C35.1914279,467.813651 36.4966497,465.037958 36.7063309,462.036458 C37.0442468,457.207656 35.8672597,451.836917 36.8726895,447.098437 C37.5121303,444.083042 39.3611368,441.265661 40.4792052,438.413542 C42.1923521,434.043302 43.3880545,429.322193 45.7246996,425.2125 C48.8758087,419.668062 53.3695702,415.37425 57.8789279,410.965797 C60.6196858,408.283901 63.590573,405.977193 66.5434381,403.538474 C67.7897412,402.510182 69.1684381,400.967745 70.702403,400.408437 C71.8807763,399.981141 73.2847736,400.259057 74.5147874,400.140943 C76.6500693,399.935979 78.9558688,399.505208 81.0998152,399.637219 C84.5122458,399.845656 87.6786044,400.894792 91.150647,400.894792 C89.6669362,402.194052 88.1329713,403.399516 87.028073,405.063542 C82.8833179,411.299297 82.9814002,419.466573 82.9814002,426.602083 C82.9814002,430.301849 82.5980823,433.574318 84.3126155,437.023958 C86.4329945,441.289979 89.6094039,445.469151 93.9232902,447.664693 C96.1573475,448.800677 98.5445933,449.07512 100.854898,449.922766 C103.334335,450.829469 105.421442,452.090516 108.133087,452.278109 C110.776802,452.462229 112.894755,451.552052 115.411275,451.051802 C116.555337,450.822521 117.729205,450.930214 118.877079,450.687036 C121.041821,450.228474 123.036044,449.290505 125.115527,448.571396 C128.370263,447.449307 131.634704,448.144099 134.819778,446.344589 C137.127311,445.03838 138.75104,442.985271 140.711645,441.25524 C142.304529,439.85176 144.018369,438.767885 145.298983,437.023958 C146.391751,435.537104 146.830176,433.671589 147.937847,432.222948 C149.59866,430.055198 152.196627,429.002589 153.747574,426.602083 C154.734982,425.073542 155.11414,423.308771 155.98579,421.738542 C156.792976,420.282953 157.949515,419.07749 158.688771,417.569792 C160.725624,413.414937 161.589995,409.044698 163.081677,404.716146 C164.652033,400.161786 166.483364,395.753333 167.951132,391.167708 C168.964187,388.002932 170.433341,384.973641 171.406539,381.788021 C172.585605,377.931927 173.155384,373.902135 174.064811,369.976562 C174.695587,367.256453 175.57902,364.446021 175.70275,361.639062 C175.906885,357.004802 175.383549,352.224635 174.16012,347.743229 C173.642329,345.846795 172.750924,344.102521 172.250462,342.184896 C174.956562,344.841432 178.032463,346.838263 180.914972,349.247453 C186.110213,353.586427 190.843115,358.950219 193.743646,365.113021 C194.760513,367.273823 194.943507,369.750755 195.404806,372.060938 C196.282348,376.458969 196.992837,380.877844 197.829829,385.261979 C199.273683,392.82826 200.964649,400.193052 201.956215,407.842708 C202.312847,410.594083 201.713609,413.439255 202.130199,416.180208 C202.440388,418.219422 203.656539,420.005036 203.983711,422.085938 C204.41347,424.819943 204.028073,427.665115 204.149376,430.423437 C204.216959,431.951979 204.691428,433.41799 204.798175,434.939583 C205.128119,439.660693 204.404113,444.472125 204.865411,449.182812 C205.044247,451.006641 206.420171,452.444859 206.573013,454.247844 C206.66451,455.328245 206.274954,456.436438 206.228859,457.520312 C206.132163,459.802703 206.550832,462.303953 207.289741,464.468229 C209.667629,471.426568 214.131585,477.002271 221.46488,478.892104 C224.280846,479.618161 227.252773,479.53826 230.12939,479.812703 C234.756585,480.25737 240.024607,480.771516 244.339187,478.666297 C249.311229,476.241474 251.302334,471.555104 253.630661,466.9 C256.320125,461.522312 258.49353,455.522786 259.436576,449.530208 C260.214302,444.59024 260.925139,439.539104 261.568045,434.592187 C261.747574,433.209552 261.528535,431.792177 261.799561,430.423437 C262.798752,425.375776 265.585259,420.790151 266.955291,415.832812 C267.459912,414.00551 267.579136,412.101781 268.076479,410.274479 C269.602819,404.670984 273.204482,397.191552 278.650647,394.627771 C283.283041,392.446125 288.411738,391.060016 293.553604,391.574161 C296.026802,391.820812 298.331909,392.796995 300.831793,392.904687 C299.519293,394.34638 297.553489,394.825786 295.979667,395.958297 C293.719616,397.584109 292.068854,400.005458 291.162546,402.631771 C290.419478,404.782151 290.434381,406.988115 290.434381,409.232292 C290.434381,413.296823 290.828096,417.152917 293.022643,420.696354 C294.995379,423.881974 298.302449,426.768833 301.871534,427.960401 C303.461645,428.491917 305.119339,428.484969 306.72366,428.89837 C310.479898,429.860656 314.581331,430.836839 318.507394,430.322693 C326.45171,429.283979 334.336067,427.227396 339.384011,420.348958 C342.057879,416.704776 341.981978,412.077464 343.91659,408.190104 C345.545518,404.914161 349.450092,402.527552 352.472274,400.703724 C357.029806,397.955823 362.159196,396.944901 367.375231,396.437703 C369.021488,396.277901 370.594963,396.121573 372.227357,395.833234 C372.903189,395.71512 373.832024,395.722068 374.296442,395.128021 C375.38817,393.734964 374.65342,389.750333 374.65342,388.041146 L374.65342,368.586979 L374.65342,292.854688 L374.65342,0 L0.346580407,0 Z" id="Shape" fill="#8E0015"></path>
            <path d="M87.3756932,37.4444073 C85.790781,38.0193474 86.0299214,39.6990062 86.3470425,40.9927083 C86.6308919,42.1516208 86.6658965,43.3508312 87.1136784,44.4666667 C87.6647412,45.8399224 88.7443392,47.1742698 89.0320009,48.6354167 C89.3761553,50.3859443 87.4027264,52.0694245 86.6333179,53.4989583 C85.8126155,55.0236786 85.9519409,56.6845781 85.9519409,58.3625 C85.9519409,61.0106984 85.8011784,63.7092693 85.9671904,66.3522568 C86.0576479,67.7963812 86.94628,69.4899359 88.6871534,68.8587177 C90.9246765,68.047201 90.1109057,63.6766141 90.1109057,61.8364583 C90.1109057,60.0967 89.7809612,57.9536151 90.3049908,56.278125 C90.8394177,54.5699797 92.3934843,53.6247156 93.1694778,52.0958266 C94.4490527,49.5744276 93.0402033,46.7164021 91.9297597,44.4666667 C91.0463262,42.6768833 90.6262708,36.2656932 87.3756932,37.4444073 Z M179.528651,94.8390625 C176.176178,96.585074 177.353859,100.77432 177.066543,103.871354 C176.889787,105.77682 176.406308,107.478365 176.409427,109.429688 C176.411853,111.029793 176.616335,114.242162 179.14464,113.325384 C180.753119,112.742107 180.531308,110.79808 180.573591,109.429688 C180.614487,108.106804 181.104552,106.91211 181.225508,105.608333 C181.375231,103.995027 181.175601,102.360877 181.276802,100.745139 C181.423059,98.4092495 183.759358,97.1822474 183.928142,94.8390625 C184.105938,92.3659516 182.308226,90.8186505 181.121534,88.9333333 C180.553142,88.0304516 180.316428,86.8395786 180.0811,85.8067708 C179.29055,82.3373286 181.04494,78.6552802 180.49457,75.0375 C180.221118,73.2397266 179.098544,71.1786271 177.44397,70.3330656 C176.3311,69.7640312 174.752079,69.7244281 174.050601,70.9479563 C172.929413,72.904837 175.658734,74.1078687 176.18311,75.7375026 C177.05476,78.4461479 175.711414,81.9346969 175.716266,84.7645833 C175.719732,86.7436974 175.998036,88.8787922 176.913008,90.6703125 C177.685189,92.182874 178.973082,93.2003964 179.528651,94.8390625 Z M324.437038,120.124616 C323.207717,120.568935 323.022643,121.856731 323.290203,122.978125 C323.998267,125.943496 324.05268,128.600379 324.05268,131.663021 C324.05268,133.303077 323.752542,135.305466 324.304644,136.873958 C324.806146,138.299671 326.725508,139.794862 326.512708,141.390104 C326.158849,144.040387 322.988332,145.771113 322.70275,148.685417 C322.528073,150.466515 322.005083,155.637155 325.078558,155.097649 C327.768369,154.625191 326.427449,150.471031 327.219039,148.685417 C328.146488,146.593052 330.491104,145.057909 330.905268,142.779687 C331.152033,141.420328 331.24457,139.216796 330.577056,137.975203 C329.951132,136.811427 328.786969,136.111077 328.389787,134.789236 C327.738563,132.622876 328.211645,129.743659 328.211645,127.494271 C328.211645,125.471037 328.283734,118.734685 324.437038,120.124616 Z M38.1612754,152.085032 C36.3542052,152.740221 36.5008087,155.594078 37.1312384,157.022917 C38.0042745,159.001683 39.3694547,160.835933 40.0095887,162.928646 C40.4254852,164.288701 40.0494455,165.736646 40.5395102,167.097396 C41.1058226,168.669709 42.7881238,169.910607 42.9042283,171.613542 C43.0439002,173.655187 40.9165896,175.045813 40.9266405,177.171528 C40.9339187,178.637885 41.9372689,180.291142 43.6317006,179.677989 C44.7060998,179.289253 45.028073,178.082399 45.5219501,177.171528 C46.8639094,174.698417 47.9975739,171.348479 46.8777726,168.500528 C46.355476,167.172086 45.0311922,166.411289 44.5886091,165.011631 C44.2305915,163.880163 44.4846349,162.68929 44.2832717,161.539063 C44.0687384,160.31345 43.3048752,159.182329 42.7836183,158.065104 C42.0076248,156.401426 40.6601201,151.179024 38.1612754,152.085032 Z M193.429298,180.571491 C191.256238,181.359732 192.384358,183.997856 192.86853,185.509375 C193.575208,187.715339 193.999422,189.805967 195.340342,191.7625 C196.375578,193.273672 198.642907,195.342761 198.571165,197.320833 C198.516058,198.832353 197.228165,200.600945 196.449746,201.836979 C195.18854,203.839021 193.899954,206.066176 193.504852,208.4375 C193.225855,210.110558 193.108018,213.933302 195.804067,213.460149 C198.088378,213.058907 197.487408,209.424104 198.325439,207.801766 C200.098198,204.368453 204.042629,199.657418 202.875,195.583854 C202.033503,192.648359 199.51317,190.596987 198.188193,187.941146 C197.282579,186.125308 196.828212,179.33893 193.429298,180.571491 Z M116.488447,246.576699 C113.922019,247.507372 116.10201,251.996769 116.104436,253.946354 C116.107902,256.690086 114.755545,258.910641 114.719501,261.589062 C114.698013,263.171103 114.550023,264.893144 114.848429,266.452604 C115.190504,268.241693 116.044824,269.809143 116.099238,271.663542 C116.148105,273.339032 115.597043,278.472153 118.839649,277.296218 C120.967306,276.524652 120.272066,272.716498 120.263055,270.96875 C120.248498,268.182288 118.855591,265.765455 118.878812,262.978646 C118.894062,261.142311 119.755661,259.844788 120.128235,258.115104 C120.59092,255.965419 120.325786,253.35995 120.258202,251.167187 C120.203096,249.386436 118.948128,245.684934 116.488447,246.576699 Z M236.751848,262.209511 C234.580522,262.997058 235.305222,267.095634 235.329482,268.884375 C235.348891,270.337184 235.852819,271.62776 235.985213,273.053125 C236.134589,274.663652 235.853859,276.31413 236.095079,277.916667 C236.274261,279.108234 236.985097,280.169876 237.004506,281.390625 C237.027726,282.854898 235.961992,283.878674 235.554067,285.211979 C235.123267,286.620669 235.328096,288.272536 235.328096,289.728125 C235.328096,291.431407 234.752079,296.908797 238.063309,295.708197 C240.400647,294.860551 239.4122,290.245745 239.493646,288.338542 C239.57336,286.480321 240.982209,285.276595 241.182186,283.475 C241.467768,280.902881 240.621072,278.965802 240.254043,276.527083 C239.901225,274.183551 240.222505,271.922699 239.69293,269.579167 C239.299908,267.839061 240.438771,260.872732 236.751848,262.209511 Z M333.101201,298.686074 C330.034658,299.797741 333.283156,304.41081 334.151687,306.055729 C335.281192,308.194645 334.792514,310.068498 335.27842,312.308854 C335.627426,313.916949 336.944778,315.183207 337.129852,316.825 C337.263632,318.009967 336.673752,319.132403 336.565619,320.298958 C336.332717,322.808893 336.529575,325.42131 336.529575,327.941667 C336.529575,329.627926 336.051987,334.739508 339.264787,333.574343 C341.549099,332.745804 340.68854,328.08792 340.68854,326.204687 C340.68854,322.650133 341.84092,318.939251 341.307879,315.435417 C341.041359,313.682805 339.807879,312.289053 339.437384,310.571875 C339.051294,308.781049 339.447089,307.100696 338.67976,305.360937 C337.833064,303.441923 336.131354,297.587608 333.101201,298.686074 Z M27.4172828,340.373574 C24.7593923,341.337597 26.6858942,346.402629 26.6866913,348.438021 C26.6876964,351.071281 26.4794016,353.805286 26.722805,356.428125 C26.9110675,358.456917 27.6247805,360.239057 27.3060305,362.333854 C27.1186691,363.567109 26.3907116,364.598875 26.1288355,365.807812 C25.8223198,367.221714 25.9110444,368.586979 25.4006701,369.976562 C24.8234057,371.550266 23.9727588,372.766151 23.9193854,374.492708 C23.8545402,376.590979 23.4754506,379.401411 24.0643253,381.426729 C24.3909774,382.548818 25.4736252,383.330458 26.6492606,382.903161 C29.2065735,381.975615 27.766012,376.893214 28.2083179,374.840104 C29.0107555,371.112547 30.8881816,367.517 31.4649954,363.723437 C31.8977703,360.878266 31.3024492,358.158156 30.9181262,355.385937 C30.6522297,353.468312 30.8456562,351.415203 30.8456562,349.480208 C30.8456562,347.029331 31.0893369,344.523565 30.2033041,342.190107 C29.7555568,341.011045 28.8372227,339.858733 27.4172828,340.373574 Z" id="Shape" fill="#990016"></path>
            <path d="M172.250462,342.184896 C172.656654,344.276914 173.606285,346.061486 174.16012,348.090625 C175.293785,352.242005 175.816428,356.650458 175.711067,360.944271 C175.639325,363.869344 174.72158,366.794417 174.064811,369.629167 C173.155384,373.55474 172.585605,377.584531 171.406539,381.440625 C170.433341,384.626245 168.964187,387.655536 167.951132,390.820312 C166.483364,395.405937 164.652033,399.814391 163.081677,404.36875 C161.589995,408.697302 160.725624,413.067542 158.688771,417.222396 C157.949515,418.730094 156.792976,419.935557 155.98579,421.391146 C155.042745,423.089911 154.637592,424.972797 153.516058,426.602083 C151.986252,428.821943 149.566428,429.909292 147.937847,431.927661 C146.807648,433.327667 146.377195,435.207078 145.298983,436.676562 C143.91994,438.555974 142.081677,439.740594 140.365065,441.25524 C138.404459,442.985271 136.78073,445.03838 134.473198,446.344589 C131.477703,448.036406 128.599006,447.546578 125.462107,448.352536 C123.337569,448.897948 121.357209,449.957505 119.22366,450.516813 C117.733018,450.90937 116.19628,450.75999 114.718115,451.131703 C113.082255,451.54163 111.57567,452.166943 109.865989,452.278109 C106.444547,452.500443 103.95506,450.801677 100.854898,449.801177 C97.338147,448.668667 94.0962338,448.05725 91.150647,445.594214 C87.353512,442.42249 83.7681377,437.492943 82.984866,432.507812 C82.6518022,430.388698 83.1529575,428.352958 83.0493299,426.254687 C82.7301294,419.789651 83.1487985,412.681932 86.2240065,406.800521 C87.4758549,404.406964 89.50439,402.940953 91.150647,400.894792 C87.6851895,400.894792 84.5091266,399.769229 81.0998152,399.578161 C78.8522412,399.453099 76.4098891,399.925557 74.168207,400.140943 C72.9378466,400.259057 71.5341959,399.981141 70.3558226,400.408437 C68.713378,401.009432 67.1762939,402.711672 65.8502773,403.826813 C62.9039972,406.303745 59.9701941,408.634771 57.1857671,411.302771 C52.881585,415.429833 48.6983595,419.633323 45.7246996,424.865104 C43.4542514,428.860156 42.2322089,433.452729 40.6143715,437.71875 C39.4831331,440.70288 37.5384704,443.614057 36.8726895,446.751042 C35.836414,451.635427 37.1742144,457.068698 36.6782579,462.036458 C36.3795055,465.03101 35.0645795,467.796281 34.4673521,470.721354 C33.9502195,473.257344 33.8411506,475.841969 33.3382971,478.364063 C32.6477703,481.824125 31.3608826,485.492625 30.081897,488.785938 C28.517225,492.815729 26.9437153,496.744776 24.3435305,500.25 C20.685201,505.179547 15.7789741,509.136385 11.090573,512.992479 C9.23203558,514.521021 7.06327403,515.650057 4.85212569,516.57413 C3.45129968,517.157755 1.51113216,517.658005 0.702788817,519.07538 C0.10184092,520.12799 0.346580407,521.666953 0.346580407,522.830729 L0.346580407,531.515625 L0.346580407,563.476042 C2.9205811,562.312266 5.29093115,562.235839 7.97134935,561.530625 C11.8574861,560.502333 15.6222851,558.879995 19.4085028,557.570312 C21.5717884,556.823411 23.9121072,556.47949 25.9935305,555.520677 C32.0186229,552.748458 36.4983826,548.534547 41.3019871,544.136516 C42.2381007,543.278448 43.3970656,542.726089 44.3310998,541.864547 C48.1039741,538.390589 51.6089418,534.395536 54.9378466,530.504703 C55.6784889,529.639688 56.635744,528.969214 57.2890481,528.027771 C57.9437384,527.086328 58.19189,525.932974 58.7027495,524.915104 C60.1046673,522.122042 61.2847736,519.513099 62.4070009,516.577604 C62.9459335,515.167177 63.8314464,513.864443 64.2431839,512.408854 C64.5641174,511.276344 64.3904806,510.08825 64.5765943,508.934896 C65.6627773,502.205839 65.0073937,495.2475 65.4725046,488.438542 C65.6308919,486.124885 65.4860213,484.085672 66.1968577,481.838021 C67.6115989,482.824625 68.8443854,484.047458 70.3558226,484.905526 C78.8418438,489.706536 88.5027726,491.217708 98.0822551,491.217708 C100.862177,491.217708 104.015018,491.627635 106.746765,491.085698 C110.937616,490.251948 115.584219,489.164599 119.57024,487.587422 C122.078789,486.59387 124.361021,485.155651 126.848429,484.165573 C129.222505,483.217182 131.689811,482.036036 134.126617,481.320401 C136.241451,480.695089 138.321627,480.70551 140.365065,479.708484 C144.826594,477.530312 148.573128,473.781911 152.495379,470.801255 C157.972389,466.642927 162.513979,461.918344 167.110675,456.825521 C169.556146,454.115833 171.925716,451.958505 173.290203,448.488021 C173.751848,449.842865 174.797135,451.930714 174.605823,453.351562 C174.266867,455.870182 172.470194,457.947609 172.281654,460.646875 C171.958641,465.260292 172.092075,469.91887 171.890365,474.542708 C171.752773,477.686641 171.027726,481.136281 171.692468,484.269792 C172.48683,488.014719 175.159658,492.662875 177.467884,495.674797 C178.311114,496.776042 179.464533,497.561156 180.357324,498.613766 C181.703789,500.197891 182.666936,501.844547 184.380776,503.112542 C185.761553,504.130411 187.504506,504.571604 188.827403,505.634635 C189.993299,506.572604 190.851779,507.854495 192.005892,508.820255 C193.869455,510.383536 196.355823,511.727958 198.590573,512.676349 C203.07567,514.576604 207.794709,514.263948 212.453789,514.993479 C214.431377,515.302661 216.350393,515.969661 218.345656,516.171151 C226.278535,516.966688 234.461992,516.212839 242.259704,514.993479 C245.038239,514.559234 247.865642,514.663453 250.577634,513.767172 C259.460836,510.831677 267.980129,503.876813 273.53512,496.428646 C277.09866,491.648479 278.278073,486.732828 279.957602,481.143229 C280.557879,479.145703 281.542167,477.269766 282.033618,475.2375 C282.889672,471.697536 283.21719,467.414146 283.471927,463.773438 C283.812269,458.902948 283.236945,454.039406 283.849353,449.182813 C286.264672,450.20763 287.52969,452.246844 289.425485,453.931714 C291.096349,455.415094 293.228859,456.273161 295.286506,457.06175 C301.287546,459.368458 308.294016,461.334719 314.695009,461.977401 C317.538701,462.262266 320.502657,462.036458 323.359519,462.036458 C326.769177,462.036458 330.420749,462.418594 333.756932,461.605688 C338.356054,460.487073 343.36622,457.815599 347.273567,455.203182 C351.33549,452.490021 356.409427,448.599187 358.36414,443.971875 C360.443623,445.135651 362.107209,447.105385 364.256007,448.09199 C365.510628,448.668667 367.07024,448.613083 368.414972,448.866682 C370.5811,449.280083 372.41451,449.877604 374.65342,449.877604 L374.65342,395.336458 C370.761322,396.274427 366.799908,396.264005 362.869686,396.878896 C356.825323,397.823813 350.590342,400.728042 346.234173,405.063542 C342.703558,408.579187 342.755199,413.567792 340.643138,417.917188 C338.280846,422.780729 332.585836,426.959901 327.518484,428.655193 C325.67537,429.270083 323.85305,429.186708 321.973198,429.492417 C320.455176,429.742542 319.016867,430.291427 317.467652,430.392172 C313.948128,430.621453 310.43103,429.759911 307.07024,428.89837 C305.213609,428.422438 303.340342,428.422438 301.524954,427.703328 C296.897066,425.876026 292.707602,421.304297 291.280037,416.527604 C290.701248,414.592609 290.4375,412.636771 290.434381,410.621875 C290.430915,408.523604 290.333872,406.428807 290.78616,404.36875 C291.488332,401.169234 293.39799,398.212896 295.979667,396.21537 C297.504274,395.034224 299.826017,394.572187 300.831793,392.904688 C298.466382,392.717094 296.253119,391.810391 293.900185,391.574161 C288.224931,391.004432 281.34531,392.334958 276.571511,395.597005 C274.671211,396.896266 273.647759,398.629771 272.477703,400.547396 C270.748614,403.382146 269.153997,406.383646 268.174908,409.579687 C267.620379,411.38962 267.515365,413.307245 267.047828,415.138021 C265.766174,420.157891 263.138055,424.708776 261.879274,429.728646 C261.509127,431.205078 261.762823,432.747516 261.568045,434.244792 C261.025994,438.417016 260.208064,442.557974 259.6875,446.751042 C258.782925,454.035932 256.348891,460.643401 253.302103,467.247396 C250.778997,472.71888 247.499307,478.145203 241.219963,479.670271 C237.761784,480.510969 233.9747,480.146203 230.47597,479.812703 C227.481516,479.524365 224.384127,479.621635 221.46488,478.798307 C214.136437,476.741724 209.056262,470.679667 207.078327,463.426042 C206.596927,461.661271 206.171326,459.705432 206.230245,457.867708 C206.271141,456.59624 206.751155,455.317823 206.624653,454.046354 C206.439926,452.187786 205.049445,450.714828 204.865411,448.835417 C204.404113,444.124729 205.128119,439.313297 204.798175,434.592188 C204.691428,433.070594 204.216959,431.604583 204.149376,430.076042 C204.028073,427.317719 204.41347,424.472547 203.983711,421.738542 C203.656885,419.657641 202.440388,417.872026 202.130199,415.832812 C201.713609,413.091859 202.312847,410.246688 201.956215,407.495313 C200.964649,399.845656 199.273683,392.480865 197.829829,384.914583 C196.992837,380.530448 196.282348,376.111573 195.404806,371.713542 C194.943507,369.403359 194.760513,366.926427 193.743646,364.765625 C190.103859,357.032594 184.013748,351.67575 177.449168,346.521438 C175.671557,345.126296 174.106054,343.47964 172.250462,342.184896 Z" id="Shape" fill="#FF6100"></path>
            <path d="M358.36414,443.971875 C354.108133,450.791255 347.429529,455.331719 340.341959,458.673667 C337.734635,459.903448 335.244455,461.303453 332.37061,461.821073 C329.568161,462.328271 326.545633,462.036458 323.7061,462.036458 C320.849238,462.036458 317.885282,462.262266 315.04159,461.977401 C308.696742,461.341667 301.974469,459.333719 295.979667,457.19376 C293.796904,456.415594 291.525762,455.463729 289.754737,453.931714 C287.772297,452.215578 286.531885,449.881078 283.849353,449.182813 C282.983249,453.85876 283.802218,458.701458 283.471927,463.426042 C283.211299,467.150125 282.914279,471.641953 281.946973,475.2375 C281.404228,477.25587 280.411275,479.128333 279.859519,481.143229 C278.325555,486.746724 276.933341,491.770068 273.272412,496.428646 C268.022412,503.109068 260.828096,509.296187 253.003697,512.676349 C249.433226,514.218786 246.046788,514.448068 242.259704,514.94137 C240.047828,515.229708 237.895564,515.948818 235.674677,516.171151 C233.16994,516.421276 230.565735,516.230208 228.049908,516.230208 C224.965689,516.230208 221.761899,516.480333 218.692237,516.171151 C216.463725,515.948818 214.335721,515.122016 212.107209,514.899682 C207.890712,514.475859 203.697435,514.437646 199.630314,512.950792 C195.300832,511.366667 192.56354,508.465911 189.13378,505.634635 C187.60536,504.373589 185.588956,503.869865 184.034543,502.56713 C182.544593,501.319979 181.611252,499.756698 180.357324,498.315005 C178.035236,495.647005 176.104436,493.336823 174.392676,490.175521 C173.377888,488.303057 172.136437,486.017193 171.692468,483.922396 C171.100855,481.132807 171.681724,478.034036 171.872689,475.2375 C172.047366,472.680667 171.948937,470.151625 172.191543,467.594792 C172.432417,465.058802 172.006123,462.474177 172.402611,459.952083 C172.764094,457.648849 174.835259,455.21013 174.792976,453.004167 C174.763863,451.496469 173.77299,450.04088 173.636784,448.488021 C172.454251,449.696958 171.84219,451.343615 170.751155,452.656771 C167.123152,457.030484 162.995032,461.685589 158.733826,465.447885 C155.737639,468.091568 152.470425,470.391328 149.376155,472.913422 C146.443045,475.303505 143.446511,478.03751 140.018484,479.708484 C137.975046,480.70551 135.894871,480.695089 133.780037,481.320401 C131.240642,482.067302 128.610444,483.269292 126.155268,484.301057 C123.561807,485.39188 121.209912,486.899578 118.530499,487.847969 C109.119108,491.176021 98.3193161,492.489177 88.3780037,490.759146 C82.3842421,489.713484 76.4528651,487.938292 71.0489834,485.09312 C69.3032579,484.172521 67.9730823,482.664823 66.1968577,481.838021 C65.2818854,484.012719 65.6620841,486.149203 65.4447782,488.438542 C64.7134935,496.140307 65.9674214,504.11999 64.3287893,511.714063 C63.9856747,513.305135 62.9847505,514.719036 62.4070009,516.230208 C60.948244,520.048089 59.596927,524.29674 57.2890481,527.690797 C56.6388632,528.642661 55.6947782,529.323557 54.9378466,530.185099 C51.6106747,533.964766 48.1334335,537.591578 44.6499538,541.228813 C43.5530268,542.371745 42.1407116,543.059589 40.9952634,544.136516 C38.3404575,546.630818 35.9480129,549.208495 32.9251386,551.303292 C27.7603974,554.884943 21.8855476,556.948474 15.9426987,558.800094 C12.2815273,559.943026 8.67431839,561.48199 4.85212569,561.989188 C3.34831677,562.187203 1.25704367,562.235839 0.555705291,563.889443 C-0.43743646,566.227417 0.346580407,570.326688 0.346580407,572.855729 L0.346580407,594.046875 L0.346580407,667 L374.65342,667 L374.65342,449.877604 C372.546211,449.870656 370.799445,449.255766 368.761553,448.866682 C367.416821,448.613083 365.857209,448.668667 364.602588,448.09199 C362.308226,447.03938 360.772874,444.889 358.36414,443.971875 Z" id="Shape" fill="#FFD800"></path>
        </g>
    </g>
</svg>