<?xml version="1.0" encoding="UTF-8"?>
<svg width="165px" height="140px" viewBox="0 0 165 140" version="1.1" xmlns="http://www.w3.org/2000/svg" xmlns:xlink="http://www.w3.org/1999/xlink">
    <!-- Generator: Sketch 50.2 (55047) - http://www.bohemiancoding.com/sketch -->
    <title>FlowerpotBasketPreview</title>
    <desc>Created with Sketch.</desc>
    <defs>
        <polygon id="path-1" points="0.455172414 0.0752941176 164.985776 0.0752941176 164.985776 31.3458824 0.455172414 31.3458824"></polygon>
    </defs>
    <g id="iPhone" stroke="none" stroke-width="1" fill="none" fill-rule="evenodd">
        <g id="FlowerpotBasketPreview" transform="translate(0.000000, 1.000000)">
            <g id="Group" transform="translate(31.000000, 128.000000)" fill-rule="nonzero">
                <g id="dxyNccxYM-link" fill="#724439">
                    <path d="M102.125917,5.015 C102.125917,7.595 79.3619725,9.71 51.3251835,9.71 C23.2742202,9.71 0.510275229,7.595 0.510275229,5.015 C0.510275229,2.42 23.2742202,0.32 51.3251835,0.32 C79.3619725,0.32 102.125917,2.42 102.125917,5.015 Z" id="dxyNccxYM"></path>
                </g>
                <g id="dxyNccxYM-link" fill="#000000" fill-opacity="0" stroke="#62382E">
                    <path d="M102.125917,5.015 C102.125917,7.595 79.3619725,9.71 51.3251835,9.71 C23.2742202,9.71 0.510275229,7.595 0.510275229,5.015 C0.510275229,2.42 23.2742202,0.32 51.3251835,0.32 C79.3619725,0.32 102.125917,2.42 102.125917,5.015 Z" id="dxyNccxYM"></path>
                </g>
            </g>
            <g id="Group" transform="translate(1.000000, 39.000000)" fill-rule="nonzero">
                <g id="aDNDayRPd-link" fill="#724439">
                    <polyline id="aDNDayRPd" points="161.957368 0.28975 132.228947 94.53925 30.3536842 94.53925 0.625263158 0.28975"></polyline>
                </g>
                <g id="aDNDayRPd-link" fill="#000000" fill-opacity="0" stroke="#62382E">
                    <polyline id="aDNDayRPd" points="161.957368 0.28975 132.228947 94.53925 30.3536842 94.53925 0.625263158 0.28975"></polyline>
                </g>
            </g>
            <g id="Group" transform="translate(1.000000, 31.000000)" fill-rule="nonzero">
                <g id="adZbtBGMi-link" fill="#724439">
                    <path d="M163.331676,7.3171875 C163.331676,11.15625 126.801387,14.278125 81.796185,14.278125 C36.7909827,14.278125 0.246473988,11.15625 0.246473988,7.3171875 C0.246473988,3.478125 36.7909827,0.35625 81.796185,0.35625 C126.801387,0.35625 163.331676,3.478125 163.331676,7.3171875 Z" id="adZbtBGMi"></path>
                </g>
                <g id="adZbtBGMi-link" fill="#000000" fill-opacity="0" stroke="#62382E">
                    <path d="M163.331676,7.3171875 C163.331676,11.15625 126.801387,14.278125 81.796185,14.278125 C36.7909827,14.278125 0.246473988,11.15625 0.246473988,7.3171875 C0.246473988,3.478125 36.7909827,0.35625 81.796185,0.35625 C126.801387,0.35625 163.331676,3.478125 163.331676,7.3171875 Z" id="adZbtBGMi"></path>
                </g>
            </g>
            <g id="Group" transform="translate(0.000000, 7.000000)">
                <g id="b1GsGyx6ON-link" fill="#724439" fill-rule="nonzero">
                    <polygon id="b1GsGyx6ON" points="0.455172414 0.0752941176 164.985776 0.0752941176 164.985776 31.3458824 0.455172414 31.3458824"></polygon>
                </g>
                <g id="Clipped">
                    <mask id="mask-2" fill="white">
                        <use xlink:href="#path-1"></use>
                    </mask>
                    <g id="b1GsGyx6ON"></g>
                    <g id="b1GsGyx6ON-link" mask="url(#mask-2)" fill="#000000" fill-opacity="0" fill-rule="nonzero" stroke="#62382E" stroke-width="2">
                        <polygon id="b1GsGyx6ON" points="0.455172414 0.0752941176 164.985776 0.0752941176 164.985776 31.3458824 0.455172414 31.3458824"></polygon>
                    </g>
                </g>
            </g>
            <g id="Group" transform="translate(1.000000, 0.000000)" fill-rule="nonzero">
                <g id="akJLIeh2Q-link" fill="#724439">
                    <path d="M163.331676,7.10625 C163.331676,10.9453125 126.801387,14.0671875 81.796185,14.0671875 C36.7909827,14.0671875 0.246473988,10.9453125 0.246473988,7.10625 C0.246473988,3.253125 36.7909827,0.1453125 81.796185,0.1453125 C126.801387,0.1453125 163.331676,3.253125 163.331676,7.10625 Z" id="akJLIeh2Q"></path>
                </g>
                <g id="akJLIeh2Q-link" fill="#000000" fill-opacity="0" stroke="#62382E">
                    <path d="M163.331676,7.10625 C163.331676,10.9453125 126.801387,14.0671875 81.796185,14.0671875 C36.7909827,14.0671875 0.246473988,10.9453125 0.246473988,7.10625 C0.246473988,3.253125 36.7909827,0.1453125 81.796185,0.1453125 C126.801387,0.1453125 163.331676,3.253125 163.331676,7.10625 Z" id="akJLIeh2Q"></path>
                </g>
            </g>
            <g id="b1NKdRWzHX-link" transform="translate(1.000000, 34.000000)" fill="#724439" fill-rule="nonzero">
                <polygon id="b1NKdRWzHX" points="0.412105263 5.54 161.957368 5.54 161.957368 0.23 0.412105263 0.23"></polygon>
            </g>
            <g id="dL91wffgu-link" transform="translate(32.000000, 120.000000)" fill="#000000" fill-opacity="0" fill-rule="nonzero" stroke="#724439">
                <polyline id="dL91wffgu" points="1.10911215 12.984375 2.90728972 12.6609375 4.70546729 12.4640625 6.48948598 12.3515625 8.1885514 12.984375 9.76018692 13.8140625 11.5583645 13.8140625 13.3565421 13.8140625 15.2538318 13.5046875 17.0520093 13.29375 18.836028 13.29375 20.6342056 13.0828125 22.5314953 12.984375 24.5420561 12.984375 27.0623364 12.984375 39.1964953 12.871875 46.6865421 12.871875 48.909486 12.871875 46.6865421 13.9265625 44.9025234 13.40625 43.2176168 14.025 41.5185514 13.40625 43.316729 13.5046875 41.5185514 13.603125 39.7345327 13.5046875 41.5185514 13.715625 39.6212617 13.715625 37.837243 13.5046875 36.0390654 13.5046875 34.2408879 13.5046875 32.4568692 13.715625 30.6586916 13.8140625 28.860514 13.9265625 27.0623364 13.715625 25.2783178 13.5046875 23.4801402 13.40625 21.6819626 13.0828125 19.8979439 12.984375 18.0997664 12.871875 16.3015888 12.5625 14.5175701 12.4640625 12.7193925 12.3515625 10.921215 12.253125 22.0076168 12.984375 19.5722897 14.1375 8.28766355 12.984375 10.0858411 12.253125 11.8698598 12.253125 10.2982243 13.1953125 8.50004673 13.5046875 6.70186916 13.5046875 4.91785047 13.5046875 3.1196729 13.40625 1.32149533 12.984375 0.273738318 11.5078125 0.486121495 9.7359375 1.10911215 8.0625 2.48252336 6.909375 4.06831776 5.9671875 5.86649533 5.4328125 7.8628972 4.9125 9.87345794 4.603125 11.7707477 4.490625 13.5689252 4.490625 15.3529439 4.3921875 17.1511215 4.603125 18.9492991 5.0109375 21.058972 5.64375 22.8429907 6.2765625 24.428785 7.10625 26.4393458 7.528125 28.2233645 8.0625 29.9224299 8.68125 31.8197196 9.215625 33.7170093 9.7359375 35.6142991 10.25625 37.6248598 10.7765625 39.4088785 11.1 41.2070561 11.5078125 43.1043458 11.6203125 45.1149065 12.0421875 47.0121963 12.4640625 48.8103738 12.5625 51.6563084 12.7734375 49.6457477 13.715625 57.3481776 11.9296875 55.55 11.83125 53.7659813 11.71875 51.8686916 11.6203125 53.0297196 13.0828125 51.2315421 13.40625 49.4333645 13.1953125 47.6493458 13.1953125 49.2209813 14.025 51.0191589 14.3484375 52.9164486 14.3484375 54.7146262 14.3484375 56.4986449 14.1375 58.4100935 13.603125 60.3073832 13.0828125 62.2046729 12.6609375 64.2010748 12.5625 66.2116355 12.5625 68.1089252 12.5625 69.9071028 12.5625 71.8043925 12.3515625 73.7016822 12.140625 75.4998598 12.0421875 77.2838785 12.0421875 79.1953271 12.0421875 78.5581776 13.715625 76.76 13.8140625 74.8627103 13.9265625 73.0645327 14.1375 71.280514 14.3484375 69.4823364 14.559375 67.5850467 14.75625 65.7868692 14.75625 63.8895794 14.75625 61.9922897 14.446875 59.981729 14.2359375 57.8720561 13.9265625 55.55 13.40625 53.6527103 13.1953125 55.55 12.984375 57.3481776 12.6609375 59.1463551 12.5625 60.9303738 12.3515625 62.7285514 12.140625 64.526729 12.140625 66.2116355 12.7734375 68.0098131 12.871875 69.9071028 13.1953125 72.0167757 12.984375 77.7086449 12.5625 72.7530374 13.8140625 62.7285514 13.29375 60.9303738 13.29375 62.8418224 12.871875 64.7391121 12.871875 66.735514 12.871875 68.5336916 12.871875 70.5442523 12.871875 72.4415421 12.871875 74.2255607 12.871875 76.0237383 12.6609375 77.8219159 12.6609375 79.6059346 12.6609375 81.4041121 12.7734375 83.3014019 12.7734375 85.0995794 12.871875 86.897757 12.984375 88.6817757 12.984375 90.4799533 12.871875 88.8941589 13.8140625 87.0959813 13.8140625 85.3119626 13.8140625 83.513785 13.8140625 81.7156075 13.8140625 79.9315888 13.715625 78.1334112 13.603125 78.8696729 11.9296875 80.6678505 11.1984375 82.5651402 11.409375 84.5757009 11.71875 86.5721028 12.3515625 88.7950467 13.0828125 90.5790654 13.5046875 92.377243 13.40625 94.1754206 13.0828125 95.9594393 12.984375 97.7576168 12.871875 99.3434112 12.0421875 97.7576168 11.1984375 95.9594393 12.253125 94.3878037 13.29375 92.5896262 13.715625 90.7914486 13.715625 91.6409813 12.140625 93.4391589 12.253125 95.2231776 12.4640625 96.808972 13.29375 98.6071495 12.984375 99.5557944 11.409375 99.017757 13.1953125 100.178785 11.83125 100.178785 10.0453125 99.2301402 8.4703125 97.5452336 7.8515625 95.7470561 7.7390625 94.4869159 9.0046875 94.7984112 10.7765625 96.3842056 11.6203125 96.808972 13.40625 95.0107944 13.603125 93.2267757 13.8140625 91.3153271 13.8140625 89.4180374 13.715625 87.6340187 13.29375 85.736729 12.7734375 83.8252804 12.0421875 81.8288785 10.8890625 80.4554673 9.7359375 78.4449065 7.640625 77.2838785 6.2765625 75.712243 4.603125 74.2255607 3.1265625 72.6539252 1.875 72.7530374 0.0890625"></polyline>
            </g>
        </g>
    </g>
</svg>