<?xml version="1.0" encoding="UTF-8"?>
<svg width="101px" height="85px" viewBox="0 0 101 85" version="1.1" xmlns="http://www.w3.org/2000/svg" xmlns:xlink="http://www.w3.org/1999/xlink">
    <!-- Generator: Sketch 50.2 (55047) - http://www.bohemiancoding.com/sketch -->
    <title>FlowerpotBasket</title>
    <desc>Created with Sketch.</desc>
    <defs>
        <polygon id="path-1" points="0.275862069 0.620689655 99.9913793 0.620689655 99.9913793 19.7155172 0.275862069 19.7155172"></polygon>
    </defs>
    <g id="iPhone" stroke="none" stroke-width="1" fill="none" fill-rule="evenodd">
        <g id="FlowerpotBasket">
            <g id="Group" transform="translate(18.965517, 77.586207)" fill-rule="nonzero">
                <g id="dxyNccxYM-link" fill="#724439">
                    <path d="M62.112069,3.45689655 C62.112069,4.93965517 48.2672414,6.15517241 31.2155172,6.15517241 C14.1551724,6.15517241 0.310344828,4.93965517 0.310344828,3.45689655 C0.310344828,1.96551724 14.1551724,0.75862069 31.2155172,0.75862069 C48.2672414,0.75862069 62.112069,1.96551724 62.112069,3.45689655 Z" id="dxyNccxYM"></path>
                </g>
                <g id="dxyNccxYM-link" fill="#000000" fill-opacity="0" stroke="#62382E">
                    <path d="M62.112069,3.45689655 C62.112069,4.93965517 48.2672414,6.15517241 31.2155172,6.15517241 C14.1551724,6.15517241 0.310344828,4.93965517 0.310344828,3.45689655 C0.310344828,1.96551724 14.1551724,0.75862069 31.2155172,0.75862069 C48.2672414,0.75862069 62.112069,1.96551724 62.112069,3.45689655 Z" id="dxyNccxYM"></path>
                </g>
            </g>
            <g id="Group" transform="translate(0.862069, 23.275862)" fill-rule="nonzero">
                <g id="aDNDayRPd-link" fill="#724439">
                    <polyline id="aDNDayRPd" points="98.25 0.75 80.2155172 57.7672414 18.4137931 57.7672414 0.379310345 0.75"></polyline>
                </g>
                <g id="aDNDayRPd-link" fill="#000000" fill-opacity="0" stroke="#62382E">
                    <polyline id="aDNDayRPd" points="98.25 0.75 80.2155172 57.7672414 18.4137931 57.7672414 0.379310345 0.75"></polyline>
                </g>
            </g>
            <g id="Group" transform="translate(0.000000, 18.965517)" fill-rule="nonzero">
                <g id="adZbtBGMi-link" fill="#724439">
                    <path d="M99.5948276,5.06034483 C99.5948276,7.4137931 77.4482759,9.32758621 50.1637931,9.32758621 C22.8793103,9.32758621 0.724137931,7.4137931 0.724137931,5.06034483 C0.724137931,2.70689655 22.8793103,0.793103448 50.1637931,0.793103448 C77.4482759,0.793103448 99.5948276,2.70689655 99.5948276,5.06034483 Z" id="adZbtBGMi"></path>
                </g>
                <g id="adZbtBGMi-link" fill="#000000" fill-opacity="0" stroke="#62382E">
                    <path d="M99.5948276,5.06034483 C99.5948276,7.4137931 77.4482759,9.32758621 50.1637931,9.32758621 C22.8793103,9.32758621 0.724137931,7.4137931 0.724137931,5.06034483 C0.724137931,2.70689655 22.8793103,0.793103448 50.1637931,0.793103448 C77.4482759,0.793103448 99.5948276,2.70689655 99.5948276,5.06034483 Z" id="adZbtBGMi"></path>
                </g>
            </g>
            <g id="Group" transform="translate(0.000000, 4.310345)">
                <g id="b1GsGyx6ON-link" fill="#724439" fill-rule="nonzero">
                    <polygon id="b1GsGyx6ON" points="0.275862069 0.620689655 99.9913793 0.620689655 99.9913793 19.7155172 0.275862069 19.7155172"></polygon>
                </g>
                <g id="Clipped">
                    <mask id="mask-2" fill="white">
                        <use xlink:href="#path-1"></use>
                    </mask>
                    <g id="b1GsGyx6ON"></g>
                    <g id="b1GsGyx6ON-link" mask="url(#mask-2)" fill="#000000" fill-opacity="0" fill-rule="nonzero" stroke="#62382E" stroke-width="2">
                        <polygon id="b1GsGyx6ON" points="0.275862069 0.620689655 99.9913793 0.620689655 99.9913793 19.7155172 0.275862069 19.7155172"></polygon>
                    </g>
                </g>
            </g>
            <g id="Group" fill-rule="nonzero">
                <g id="akJLIeh2Q-link" fill="#724439">
                    <path d="M99.5948276,4.93103448 C99.5948276,7.28448276 77.4482759,9.19827586 50.1637931,9.19827586 C22.8793103,9.19827586 0.724137931,7.28448276 0.724137931,4.93103448 C0.724137931,2.56896552 22.8793103,0.663793103 50.1637931,0.663793103 C77.4482759,0.663793103 99.5948276,2.56896552 99.5948276,4.93103448 Z" id="akJLIeh2Q"></path>
                </g>
                <g id="akJLIeh2Q-link" fill="#000000" fill-opacity="0" stroke="#62382E">
                    <path d="M99.5948276,4.93103448 C99.5948276,7.28448276 77.4482759,9.19827586 50.1637931,9.19827586 C22.8793103,9.19827586 0.724137931,7.28448276 0.724137931,4.93103448 C0.724137931,2.56896552 22.8793103,0.663793103 50.1637931,0.663793103 C77.4482759,0.663793103 99.5948276,2.56896552 99.5948276,4.93103448 Z" id="akJLIeh2Q"></path>
                </g>
            </g>
            <g id="b1NKdRWzHX-link" transform="translate(0.862069, 20.689655)" fill="#724439" fill-rule="nonzero">
                <polygon id="b1NKdRWzHX" points="0.25 3.75862069 98.25 3.75862069 98.25 0.706896552 0.25 0.706896552"></polygon>
            </g>
            <g id="dL91wffgu-link" transform="translate(18.965517, 72.413793)" fill="#000000" fill-opacity="0" fill-rule="nonzero" stroke="#724439">
                <polyline id="dL91wffgu" points="1.25 8.53448276 2.34482759 8.3362069 3.43965517 8.21551724 4.52586207 8.14655172 5.56034483 8.53448276 6.51724138 9.04310345 7.61206897 9.04310345 8.70689655 9.04310345 9.86206897 8.85344828 10.9568966 8.72413793 12.0431034 8.72413793 13.137931 8.59482759 14.2931034 8.53448276 15.5172414 8.53448276 17.0517241 8.53448276 24.4396552 8.46551724 29 8.46551724 30.3534483 8.46551724 29 9.11206897 27.9137931 8.79310345 26.887931 9.17241379 25.8534483 8.79310345 26.9482759 8.85344828 25.8534483 8.9137931 24.7672414 8.85344828 25.8534483 8.98275862 24.6982759 8.98275862 23.612069 8.85344828 22.5172414 8.85344828 21.4224138 8.85344828 20.3362069 8.98275862 19.2413793 9.04310345 18.1465517 9.11206897 17.0517241 8.98275862 15.9655172 8.85344828 14.8706897 8.79310345 13.7758621 8.59482759 12.6896552 8.53448276 11.5948276 8.46551724 10.5 8.27586207 9.4137931 8.21551724 8.31896552 8.14655172 7.22413793 8.0862069 13.9741379 8.53448276 12.4913793 9.24137931 5.62068966 8.53448276 6.71551724 8.0862069 7.80172414 8.0862069 6.84482759 8.6637931 5.75 8.85344828 4.65517241 8.85344828 3.56896552 8.85344828 2.47413793 8.79310345 1.37931034 8.53448276 0.74137931 7.62931034 0.870689655 6.54310345 1.25 5.51724138 2.0862069 4.81034483 3.05172414 4.23275862 4.14655172 3.90517241 5.36206897 3.5862069 6.5862069 3.39655172 7.74137931 3.32758621 8.8362069 3.32758621 9.92241379 3.26724138 11.0172414 3.39655172 12.112069 3.64655172 13.3965517 4.03448276 14.4827586 4.42241379 15.4482759 4.93103448 16.6724138 5.18965517 17.7586207 5.51724138 18.7931034 5.89655172 19.9482759 6.22413793 21.1034483 6.54310345 22.2586207 6.86206897 23.4827586 7.18103448 24.5689655 7.37931034 25.6637931 7.62931034 26.8189655 7.69827586 28.0431034 7.95689655 29.1982759 8.21551724 30.2931034 8.27586207 32.0258621 8.40517241 30.8017241 8.98275862 35.4913793 7.88793103 34.3965517 7.82758621 33.3103448 7.75862069 32.1551724 7.69827586 32.862069 8.59482759 31.7672414 8.79310345 30.6724138 8.6637931 29.5862069 8.6637931 30.5431034 9.17241379 31.637931 9.37068966 32.7931034 9.37068966 33.887931 9.37068966 34.9741379 9.24137931 36.137931 8.9137931 37.2931034 8.59482759 38.4482759 8.3362069 39.6637931 8.27586207 40.887931 8.27586207 42.0431034 8.27586207 43.137931 8.27586207 44.2931034 8.14655172 45.4482759 8.01724138 46.5431034 7.95689655 47.6293103 7.95689655 48.7931034 7.95689655 48.4051724 8.98275862 47.3103448 9.04310345 46.1551724 9.11206897 45.0603448 9.24137931 43.9741379 9.37068966 42.8793103 9.5 41.7241379 9.62068966 40.6293103 9.62068966 39.4741379 9.62068966 38.3189655 9.43103448 37.0948276 9.30172414 35.8103448 9.11206897 34.3965517 8.79310345 33.2413793 8.6637931 34.3965517 8.53448276 35.4913793 8.3362069 36.5862069 8.27586207 37.6724138 8.14655172 38.7672414 8.01724138 39.862069 8.01724138 40.887931 8.40517241 41.9827586 8.46551724 43.137931 8.6637931 44.4224138 8.53448276 47.887931 8.27586207 44.8706897 9.04310345 38.7672414 8.72413793 37.6724138 8.72413793 38.8362069 8.46551724 39.9913793 8.46551724 41.2068966 8.46551724 42.3017241 8.46551724 43.5258621 8.46551724 44.6810345 8.46551724 45.7672414 8.46551724 46.862069 8.3362069 47.9568966 8.3362069 49.0431034 8.3362069 50.137931 8.40517241 51.2931034 8.40517241 52.387931 8.46551724 53.4827586 8.53448276 54.5689655 8.53448276 55.6637931 8.46551724 54.6982759 9.04310345 53.6034483 9.04310345 52.5172414 9.04310345 51.4224138 9.04310345 50.3275862 9.04310345 49.2413793 8.98275862 48.1465517 8.9137931 48.5948276 7.88793103 49.6896552 7.43965517 50.8448276 7.56896552 52.0689655 7.75862069 53.2844828 8.14655172 54.637931 8.59482759 55.7241379 8.85344828 56.8189655 8.79310345 57.9137931 8.59482759 59 8.53448276 60.0948276 8.46551724 61.0603448 7.95689655 60.0948276 7.43965517 59 8.0862069 58.0431034 8.72413793 56.9482759 8.98275862 55.8534483 8.98275862 56.3706897 8.01724138 57.4655172 8.0862069 58.5517241 8.21551724 59.5172414 8.72413793 60.612069 8.53448276 61.1896552 7.56896552 60.862069 8.6637931 61.5689655 7.82758621 61.5689655 6.73275862 60.9913793 5.76724138 59.9655172 5.38793103 58.8706897 5.31896552 58.1034483 6.09482759 58.2931034 7.18103448 59.2586207 7.69827586 59.5172414 8.79310345 58.4224138 8.9137931 57.3362069 9.04310345 56.1724138 9.04310345 55.0172414 8.98275862 53.9310345 8.72413793 52.7758621 8.40517241 51.612069 7.95689655 50.3965517 7.25 49.5603448 6.54310345 48.3362069 5.25862069 47.6293103 4.42241379 46.6724138 3.39655172 45.7672414 2.49137931 44.8103448 1.72413793 44.8706897 0.629310345"></polyline>
            </g>
        </g>
    </g>
</svg>