<?xml version="1.0" encoding="UTF-8"?>
<svg width="40px" height="41px" viewBox="0 0 40 41" version="1.1" xmlns="http://www.w3.org/2000/svg" xmlns:xlink="http://www.w3.org/1999/xlink">
    <!-- Generator: Sketch 50.2 (55047) - http://www.bohemiancoding.com/sketch -->
    <title>Grape</title>
    <desc>Created with Sketch.</desc>
    <defs></defs>
    <g id="iPhone" stroke="none" stroke-width="1" fill="none" fill-rule="evenodd">
        <g id="Grape" fill-rule="nonzero">
            <path d="M20.1941748,0 C20.1944078,1.9737165 20.4278835,3.86596505 20.5825243,5.82524272 C17.4920777,4.52151456 13.4636117,5.59658252 12.0424466,8.94733981 C11.5320777,10.1505631 11.6513398,11.5384466 11.6504854,12.815534 C7.41646602,13.0356505 6.67328155,15.7687379 5.07013592,19.0291262 C4.41382524,20.3638058 3.3877165,21.4544466 2.96626019,22.9126214 C2.64377476,24.0283495 2.90024466,25.2576311 2.48981359,26.3418252 C2.04511068,27.5165825 0.959937864,28.2831845 0.587918058,29.5160777 C-0.354745631,32.6400388 0.227426796,36.3041165 3.88349515,36.5048544 C3.99568544,39.9596117 7.344,41.3048544 10.4797282,40.1001942 C11.4980583,39.7091262 12.199534,38.6454757 13.2698252,38.4172427 C15.4533204,37.9515728 17.3560388,39.6201942 19.4174757,38.0582524 C22.0281553,39.6574757 27.1392233,40.223301 29.0375146,37.2450097 C30.0664466,35.6307573 29.9027184,33.6735534 29.9029126,31.8446602 C30.5744466,32.0426408 31.1419806,32.2174369 31.8542524,32.1985631 C36.675534,32.070835 34.9753398,26.6694369 36.335534,23.7393786 C36.9478447,22.4203495 38.4763107,21.8821359 39.1537864,20.5753398 C41.0314563,16.9537864 38.8822913,12.2748738 34.9514563,11.6504854 C35.7803883,9.61576699 36.8206602,6.95067961 35.7695146,4.76834951 C34.1663689,1.44011262 29.3814757,5.07537864 28.3495146,6.99029126 C27.8318447,5.28667961 27.3500971,-2.24621748 24.4660194,1.94174757 C23.4332427,0.172613981 22.1394951,0.017611301 20.1941748,0 Z" id="Shape" fill="#000000"></path>
            <path d="M21.3592233,1.16504854 C21.5028738,4.5112233 22.3462524,7.48819417 26.0194175,8.15533981 C25.4616311,5.34295146 24.2379417,2.22830291 21.3592233,1.16504854 Z" id="Shape" fill="#00C726"></path>
            <path d="M22.5242718,4.27184466 C23.3248932,5.32648544 24.1880777,6.1896699 25.2427184,6.99029126 C24.5015146,5.7655534 23.7490097,5.01304854 22.5242718,4.27184466 Z" id="Shape" fill="#000000"></path>
            <path d="M29.9029126,12.815534 C32.3558835,11.5798447 34.4827961,10.8969709 34.8627573,7.76699029 C34.9705243,6.87933981 34.884233,5.58667961 34.0063689,5.08178641 C33.0129709,4.51048544 31.8473786,5.40229126 31.0847379,5.97805825 C28.2833786,8.09304854 29.0732816,9.90671845 29.9029126,12.815534 Z" id="Shape" fill="#00C726"></path>
            <path d="M32.2330097,6.60194175 C31.4904466,7.86221359 30.7914175,9.11091262 30.2912621,10.4854369 C31.2979417,9.41017476 32.2478835,8.1087767 32.2330097,6.60194175 Z" id="Shape" fill="#000000"></path>
            <path d="M19.4174757,7.37864078 C18.3880388,7.46058252 17.3081942,7.54598058 16.3274563,7.90062136 C15.6794563,8.13495146 15.1850874,8.47864078 14.7204272,8.98598058 C14.3047767,9.43976699 13.8654757,10.02 13.6383689,10.5966214 C12.1107184,14.4758447 20.7678447,15.3671456 20.4770485,10.8722718 C20.4002718,9.68551456 19.7414757,8.51467961 19.4174757,7.37864078 Z" id="Shape" fill="#9951C6"></path>
            <path d="M25.2472233,11.9252816 C21.879301,13.052233 22.4459806,18.4286602 26.3517282,17.3016311 C28.8130097,16.5914175 28.6715728,10.7794175 25.2472233,11.9252816 Z M33.7864078,13.4502136 C32.6856311,13.656699 31.2706408,14.0292039 30.490835,14.8792233 C29.0143689,16.4886602 29.217165,19.8126214 31.1863301,20.9586019 C32.3156893,21.6158447 34.1390291,21.1706796 35.3394951,20.8974757 C39.8023301,19.8817864 38.5135922,12.5634563 33.7864078,13.4502136 Z M10.8890874,14.9436505 C6.81060194,15.7971262 6.32124272,21.500466 11.2618252,20.3766602 C14.8245825,19.5662524 15.0865243,14.0652816 10.8890874,14.9436505 Z M15.9223301,20.1941748 C19.7404272,20.1832233 21.348,19.0582524 21.3592233,15.1456311 C17.8168544,15.1753398 15.2100194,16.2833398 15.9223301,20.1941748 Z M23.6911068,18.9587184 C18.0155728,19.666835 21.6838835,27.100233 25.9619029,26.943534 C27.4608544,26.8886602 27.1824078,24.6874563 27.184466,23.6893204 C27.1902136,20.9038447 27.2648932,18.5128155 23.6911068,18.9587184 Z" id="Shape" fill="#9951C6"></path>
            <path d="M5.91363107,21.7754563 C3.35665631,23.1520777 4.91126214,28.5066408 7.98695146,26.3969709 C9.95681553,25.0457864 8.46357282,20.4026019 5.91363107,21.7754563 Z M12.8158447,21.6127379 C11.2239223,22.115301 8.73712621,24.8255922 10.719767,26.3969709 C11.8765825,27.3138252 15.3891262,26.9691262 16.6987184,26.5231456 C19.0006214,25.7391845 20.3476117,23.1121553 17.691767,21.7236117 C16.4257864,21.0617087 14.1436505,21.1935146 12.8158447,21.6127379 Z M28.7378641,21.7475728 C28.4744078,23.8320777 27.3010097,29.0034951 29.9589515,30.0509515 C33.1280777,31.2998447 35.235301,25.6328544 33.7111845,23.5295922 C32.8843883,22.3886214 30.0384466,22.1634563 28.7378641,21.7475728 Z M19.8058252,26.3688155 C14.8450874,27.0887379 16.947068,32.2803107 21.3532427,31.3481553 C25.2566602,30.5222913 23.3935146,25.8481553 19.8058252,26.3688155 Z M8.15533981,32.6213592 C9.04819417,32.7865243 9.95980583,33.0106796 10.8743689,32.9117282 C11.548699,32.8387573 12.193165,32.6071845 12.8080388,32.3300971 C13.2426408,32.1342524 13.8210874,31.907767 14.1346019,31.528233 C17.0905243,27.9498252 9.72893204,26.4650874 8.44361165,29.2149126 C7.97751456,30.2120777 8.15603883,31.5512621 8.15533981,32.6213592 Z M4.65840777,28.6482718 C3.57625243,28.9319612 1.96019417,29.499534 1.69393398,30.7314563 C1.34887379,32.3279612 2.84902136,34.4613592 4.60897087,33.8637282 C6.65467961,33.1690485 8.17518447,27.7262913 4.65840777,28.6482718 Z M26.407767,29.1262136 C25.0969709,29.6807767 24.7572427,30.2732816 24.0312233,31.4620194 C23.2772427,32.6965049 21.6330097,33.8043495 21.5504078,35.3490874 C21.4005437,38.1518835 25.5490874,38.0259029 27.0160777,36.6396893 C29.144,34.6288932 27.5961165,31.1300194 26.407767,29.1262136 Z M15.541165,32.8455146 C11.9469903,33.848466 14.4433398,37.6169709 17.4196893,36.7694369 C20.292,35.9515728 18.3152621,32.0713786 15.541165,32.8455146 Z M6.65945631,34.5741748 C3.64467961,36.3459029 7.63836893,39.601165 9.97363107,38.0474563 C12.7133592,36.2245049 8.98132039,33.2097476 6.65945631,34.5741748 Z" id="Shape" fill="#9951C6"></path>
        </g>
    </g>
</svg>