<?xml version="1.0" encoding="UTF-8"?>
<svg width="100px" height="112px" viewBox="0 0 100 112" version="1.1" xmlns="http://www.w3.org/2000/svg" xmlns:xlink="http://www.w3.org/1999/xlink">
    <!-- Generator: Sketch 50.2 (55047) - http://www.bohemiancoding.com/sketch -->
    <title>MartiniBasket</title>
    <desc>Created with Sketch.</desc>
    <defs>
        <path d="M99.7156863,6.98131579 C99.7156863,10.7105263 77.4117647,13.7386842 49.9313725,13.7386842 C22.4509804,13.7386842 0.137254902,10.7105263 0.137254902,6.98131579 C0.137254902,3.26184211 22.4509804,0.233684211 49.9313725,0.233684211 C77.4117647,0.233684211 99.7156863,3.26184211 99.7156863,6.98131579 Z" id="path-1"></path>
    </defs>
    <g id="iPhone" stroke="none" stroke-width="1" fill="none" fill-rule="evenodd">
        <g id="MartiniBasket">
            <g id="Group" transform="translate(0.000000, 5.842105)" fill-rule="nonzero">
                <g id="aFhtJ7XKW-link" fill="#C1E7E7">
                    <polyline id="aFhtJ7XKW" points="99.7156863 0.603684211 49.9313725 48.9471053 0.137254902 0.603684211"></polyline>
                </g>
                <g id="aFhtJ7XKW-link" fill="#000000" fill-opacity="0" stroke="#60B3B4">
                    <polyline id="aFhtJ7XKW" points="99.7156863 0.603684211 49.9313725 48.9471053 0.137254902 0.603684211"></polyline>
                </g>
            </g>
            <g id="Group">
                <g id="a7MPtWEABU-link" fill="#C1E7E7" fill-rule="nonzero">
                    <path d="M99.7156863,6.98131579 C99.7156863,10.7105263 77.4117647,13.7386842 49.9313725,13.7386842 C22.4509804,13.7386842 0.137254902,10.7105263 0.137254902,6.98131579 C0.137254902,3.26184211 22.4509804,0.233684211 49.9313725,0.233684211 C77.4117647,0.233684211 99.7156863,3.26184211 99.7156863,6.98131579 Z" id="a7MPtWEABU"></path>
                </g>
                <g id="Clipped">
                    <mask id="mask-2" fill="white">
                        <use xlink:href="#path-1"></use>
                    </mask>
                    <g id="a7MPtWEABU"></g>
                    <g id="a7MPtWEABU-link" mask="url(#mask-2)" fill="#000000" fill-opacity="0" fill-rule="nonzero" stroke="#60B3B4" stroke-width="2">
                        <path d="M99.7156863,6.98131579 C99.7156863,10.7105263 77.4117647,13.7386842 49.9313725,13.7386842 C22.4509804,13.7386842 0.137254902,10.7105263 0.137254902,6.98131579 C0.137254902,3.26184211 22.4509804,0.233684211 49.9313725,0.233684211 C77.4117647,0.233684211 99.7156863,3.26184211 99.7156863,6.98131579 Z" id="a7MPtWEABU"></path>
                    </g>
                </g>
            </g>
            <g id="Group" transform="translate(23.529412, 96.394737)" fill-rule="nonzero">
                <g id="a4aXHiGrFO-link" fill="#C1E7E7">
                    <path d="M52.7156863,7.48763158 C52.7156863,11.3434211 40.9215686,14.4786842 26.4019608,14.4786842 C11.872549,14.4786842 0.0784313725,11.3434211 0.0784313725,7.48763158 C0.0784313725,3.62210526 11.872549,0.496578947 26.4019608,0.496578947 C40.9215686,0.496578947 52.7156863,3.62210526 52.7156863,7.48763158 Z" id="a4aXHiGrFO"></path>
                </g>
                <g id="a4aXHiGrFO-link" fill="#000000" fill-opacity="0" stroke="#60B3B4">
                    <path d="M52.7156863,7.48763158 C52.7156863,11.3434211 40.9215686,14.4786842 26.4019608,14.4786842 C11.872549,14.4786842 0.0784313725,11.3434211 0.0784313725,7.48763158 C0.0784313725,3.62210526 11.872549,0.496578947 26.4019608,0.496578947 C40.9215686,0.496578947 52.7156863,3.62210526 52.7156863,7.48763158 Z" id="a4aXHiGrFO"></path>
                </g>
            </g>
            <g id="Group" transform="translate(46.078431, 50.631579)" fill-rule="nonzero">
                <g id="b1zVVasuyv-link" fill="#C1E7E7">
                    <polygon id="b1zVVasuyv" points="0.00980392157 0.496578947 7.69607843 0.496578947 7.69607843 48.7036842 0.00980392157 48.7036842"></polygon>
                </g>
                <g id="b1zVVasuyv-link" fill="#000000" fill-opacity="0" stroke="#60B3B4">
                    <polygon id="b1zVVasuyv" points="0.00980392157 0.496578947 7.69607843 0.496578947 7.69607843 48.7036842 0.00980392157 48.7036842"></polygon>
                </g>
            </g>
            <g id="b3iGXKoO5h-link" transform="translate(46.078431, 49.657895)" fill="#C1E7E7" fill-rule="nonzero">
                <polygon id="b3iGXKoO5h" points="0.490196078 0.662105263 7.20588235 0.662105263 7.20588235 2.35631579 0.490196078 2.35631579"></polygon>
            </g>
            <g id="gVBY4fOQT-link" transform="translate(46.078431, 98.342105)" fill="#C1E7E7" fill-rule="nonzero">
                <polygon id="gVBY4fOQT" points="0.490196078 0.146052632 7.20588235 0.146052632 7.20588235 1.84026316 0.490196078 1.84026316"></polygon>
            </g>
        </g>
    </g>
</svg>