<?xml version="1.0" encoding="UTF-8"?>
<svg width="130px" height="145px" viewBox="0 0 130 145" version="1.1" xmlns="http://www.w3.org/2000/svg" xmlns:xlink="http://www.w3.org/1999/xlink">
    <!-- Generator: Sketch 50.2 (55047) - http://www.bohemiancoding.com/sketch -->
    <title>MartiniBasketPreview</title>
    <desc>Created with Sketch.</desc>
    <defs>
        <path d="M129.630392,9.082 C129.630392,13.9333333 100.635294,17.8726667 64.9107843,17.8726667 C29.1862745,17.8726667 0.178431373,13.9333333 0.178431373,9.082 C0.178431373,4.24333333 29.1862745,0.304 64.9107843,0.304 C100.635294,0.304 129.630392,4.24333333 129.630392,9.082 Z" id="path-1"></path>
    </defs>
    <g id="iPhone" stroke="none" stroke-width="1" fill="none" fill-rule="evenodd">
        <g id="MartiniBasketPreview">
            <g id="Group" transform="translate(0.000000, 8.000000)" fill-rule="nonzero">
                <g id="aFhtJ7XKW-link" fill="#C1E7E7">
                    <polyline id="aFhtJ7XKW" points="129.630392 0.778039216 64.9107843 63.0839216 0.178431373 0.778039216"></polyline>
                </g>
                <g id="aFhtJ7XKW-link" fill="#000000" fill-opacity="0" stroke="#60B3B4">
                    <polyline id="aFhtJ7XKW" points="129.630392 0.778039216 64.9107843 63.0839216 0.178431373 0.778039216"></polyline>
                </g>
            </g>
            <g id="Group">
                <g id="a7MPtWEABU-link" fill="#C1E7E7" fill-rule="nonzero">
                    <path d="M129.630392,9.082 C129.630392,13.9333333 100.635294,17.8726667 64.9107843,17.8726667 C29.1862745,17.8726667 0.178431373,13.9333333 0.178431373,9.082 C0.178431373,4.24333333 29.1862745,0.304 64.9107843,0.304 C100.635294,0.304 129.630392,4.24333333 129.630392,9.082 Z" id="a7MPtWEABU"></path>
                </g>
                <g id="Clipped">
                    <mask id="mask-2" fill="white">
                        <use xlink:href="#path-1"></use>
                    </mask>
                    <g id="a7MPtWEABU"></g>
                    <g id="a7MPtWEABU-link" mask="url(#mask-2)" fill="#000000" fill-opacity="0" fill-rule="nonzero" stroke="#60B3B4" stroke-width="2">
                        <path d="M129.630392,9.082 C129.630392,13.9333333 100.635294,17.8726667 64.9107843,17.8726667 C29.1862745,17.8726667 0.178431373,13.9333333 0.178431373,9.082 C0.178431373,4.24333333 29.1862745,0.304 64.9107843,0.304 C100.635294,0.304 129.630392,4.24333333 129.630392,9.082 Z" id="a7MPtWEABU"></path>
                    </g>
                </g>
            </g>
            <g id="Group" transform="translate(31.000000, 125.000000)" fill-rule="nonzero">
                <g id="a4aXHiGrFO-link" fill="#C1E7E7">
                    <path d="M68.7061111,9.74066667 C68.7061111,14.7566667 53.3344444,18.8353333 34.4105556,18.8353333 C15.4738889,18.8353333 0.102222222,14.7566667 0.102222222,9.74066667 C0.102222222,4.712 15.4738889,0.646 34.4105556,0.646 C53.3344444,0.646 68.7061111,4.712 68.7061111,9.74066667 Z" id="a4aXHiGrFO"></path>
                </g>
                <g id="a4aXHiGrFO-link" fill="#000000" fill-opacity="0" stroke="#60B3B4">
                    <path d="M68.7061111,9.74066667 C68.7061111,14.7566667 53.3344444,18.8353333 34.4105556,18.8353333 C15.4738889,18.8353333 0.102222222,14.7566667 0.102222222,9.74066667 C0.102222222,4.712 15.4738889,0.646 34.4105556,0.646 C53.3344444,0.646 68.7061111,4.712 68.7061111,9.74066667 Z" id="a4aXHiGrFO"></path>
                </g>
            </g>
            <g id="Group" transform="translate(60.000000, 66.000000)" fill-rule="nonzero">
                <g id="b1zVVasuyv-link" fill="#C1E7E7">
                    <polygon id="b1zVVasuyv" points="0.0125 0.64 9.8125 0.64 9.8125 62.7701961 0.0125 62.7701961"></polygon>
                </g>
                <g id="b1zVVasuyv-link" fill="#000000" fill-opacity="0" stroke="#60B3B4">
                    <polygon id="b1zVVasuyv" points="0.0125 0.64 9.8125 0.64 9.8125 62.7701961 0.0125 62.7701961"></polygon>
                </g>
            </g>
            <g id="b3iGXKoO5h-link" transform="translate(60.000000, 64.000000)" fill="#C1E7E7" fill-rule="nonzero">
                <polygon id="b3iGXKoO5h" points="0.625 0.906666667 9.1875 0.906666667 9.1875 3.22666667 0.625 3.22666667"></polygon>
            </g>
            <g id="gVBY4fOQT-link" transform="translate(60.000000, 128.000000)" fill="#C1E7E7" fill-rule="nonzero">
                <polygon id="gVBY4fOQT" points="0.625 0.225 9.1875 0.225 9.1875 2.835 0.625 2.835"></polygon>
            </g>
        </g>
    </g>
</svg>