<?xml version="1.0" encoding="UTF-8"?>
<svg width="128px" height="55px" viewBox="0 0 128 55" version="1.1" xmlns="http://www.w3.org/2000/svg" xmlns:xlink="http://www.w3.org/1999/xlink">
    <!-- Generator: Sketch 50.2 (55047) - http://www.bohemiancoding.com/sketch -->
    <title>MenuButton</title>
    <desc>Created with Sketch.</desc>
    <defs></defs>
    <g id="iPhone" stroke="none" stroke-width="1" fill="none" fill-rule="evenodd">
        <g id="MenuButton">
            <polygon id="Shape" fill="#000000" fill-rule="nonzero" points="0.335958005 0 0 55 128 54.6646341 128 0"></polygon>
            <path d="M5.53513514,3.4375 C6.67116794,5.1126814 8.70406521,7.15189932 10.5752097,7.85975208 C12.5007198,8.58814609 15.2684263,8.07354508 17.2953091,8.07354508 L31.7435228,8.07354508 L97.600497,8.07354508 L108.688661,8.07354508 C110.919398,8.07354508 113.563757,8.48519023 115.744765,7.96541825 C117.867981,7.45941176 121.070108,5.1770511 122.464865,3.4375 L5.53513514,3.4375 Z" id="Shape" fill="#FFFA00" fill-rule="nonzero"></path>
            <path d="M3.45945946,4.8125 L3.45945946,50.1875 C5.36194485,49.1952117 7.82565229,47.372594 8.51815934,45.2194343 C9.28781188,42.8261515 8.70299393,39.4435611 8.70299393,36.9393248 L8.70299393,19.3854927 C8.70299393,16.590757 9.47579259,12.4105603 8.50524713,9.78185739 C7.78173769,7.82225356 5.01446238,6.13205137 3.45945946,4.8125 Z" id="Shape" fill="#FFFA00" fill-rule="nonzero"></path>
            <path d="M124.540541,50.1875 L124.540541,6.1875 C122.66399,6.89331955 118.898889,8.65669398 118.074127,10.5839932 C117.190692,12.6493466 117.873104,16.200312 117.873104,18.4281015 L117.873104,36.2927632 C117.873104,38.1672293 117.891106,40.042688 117.87177,41.9168233 C117.862103,42.8672895 117.618741,43.9894549 117.989451,44.8939361 C118.890221,47.0919511 122.334952,49.4887932 124.540541,50.1875 Z" id="Shape" fill="#FFFA00" fill-rule="nonzero"></path>
            <polygon id="Shape" fill="#FFFA00" fill-rule="nonzero" points="11.7621622 10.3125 11.7621622 44 115.545946 44 115.545946 10.3125"></polygon>
            <path d="M6.91891892,51.5625 L120.389189,51.5625 C119.165859,50.1677197 117.331535,47.8439686 115.59356,47.1272111 C113.886806,46.4236962 111.139684,46.9275784 109.310731,46.9275784 L95.5465856,46.9275784 L32.4329442,46.9275784 L17.9973773,46.9275784 C16.0146689,46.9275784 13.1640137,46.4170749 11.2963871,47.1272111 C9.59255377,47.7751069 7.94085634,50.1316335 6.91891892,51.5625 Z" id="Shape" fill="#FFFA00" fill-rule="nonzero"></path>
            <path d="M92.6104928,21.2385405 C92.0290243,21.6117014 91.9751583,22.3621695 92.0071944,23.0018739 C92.0916788,24.690279 92.2371169,26.3357409 92.2371169,28.0362885 C92.2371169,31.6289989 92.7621679,37.0931409 97.0567,37.7473572 C97.9520085,37.8838867 99.0208219,37.8895137 99.891749,37.6167508 C100.54296,37.412697 101.174325,36.8585826 101.876283,36.8799061 C103.646204,36.9341033 105.136589,39.5284601 107.172438,38.0974176 C107.785943,37.6662095 107.87468,36.7709194 107.37401,36.2067357 C106.412645,35.1233844 105.022337,35.2770911 104.38757,33.6621336 C103.453704,31.2863424 104.443987,27.8775471 104.427544,25.3708534 C104.420173,24.2436705 104.303085,22.5129147 102.756282,22.8170704 C101.55649,23.0528134 101.559608,24.6745825 101.429763,25.6670129 C101.120176,28.0348077 101.630768,30.9072583 100.433243,33.0695185 C99.8662335,34.0936379 98.8379613,35.0866606 97.6248438,34.8008667 C95.8512372,34.3832819 95.229511,32.6622993 95.028506,30.9978831 C94.7294084,28.5222862 94.8589701,26.0816361 94.7844083,23.5938967 C94.7512382,22.4957374 94.1212904,20.2692106 92.6104928,21.2385405 Z" id="Shape" fill="#000000" fill-rule="nonzero"></path>
            <path d="M75.4907763,19.631896 C71.1012502,21.5338029 72.0969878,27.4840689 72.0969878,32.4233098 C72.0969878,33.9223832 71.6432383,38.0245621 73.4545032,38.0245621 C75.2657681,38.0245621 74.8120186,33.9223832 74.8120186,32.4233098 C74.8120186,27.1663143 75.6543569,21.6916836 80.581459,23.1285108 C84.5192718,24.2768944 83.9049961,30.5735918 84.6536659,34.6884555 C84.8970005,36.0257975 84.9910084,39.4661009 86.6464985,38.878069 C87.5719846,38.5496229 87.6822827,37.1067251 87.696876,36.0470899 C87.7311533,33.5875947 87.0439111,31.2153982 86.7870013,28.7990766 C86.5470605,26.5408169 86.5365397,23.9946572 85.4111594,22.121427 C83.4302051,18.8238732 78.3184809,18.406724 75.4907763,19.631896 Z" id="Path" fill="#000000"></path>
            <path d="M53.9988481,30.8182448 C56.1486889,30.812779 58.1962358,30.3080984 60.3297496,30.2227703 C62.0314293,30.1547508 63.8937139,30.4620533 65.1845514,29.1954933 C66.0755425,28.3212602 66.1971625,27.0847624 66.3707624,25.9597073 C66.590678,24.5358522 67.0311754,22.759753 66.267802,21.4093833 C64.810695,18.8328401 59.2668245,17.4642508 56.3312855,18.1963717 C53.9012189,18.8021706 52.7969764,21.2994589 51.9792905,23.22678 C51.0089965,25.5136328 51,27.477393 51,29.9072691 C51,34.0349003 51.3332053,37.2612729 55.9980801,39.1940599 C58.121931,40.0737588 61.7848573,39.9471332 63.6554721,38.6559769 C64.4701592,38.0936011 65.631713,37.1294851 65.1202428,36.0757898 C64.2189223,34.2183101 60.9385157,36.7401948 59.6633389,36.8343289 C56.1340279,37.094868 54.0235053,33.5080527 53.9988481,30.8182448 Z" id="Shape" fill="#000000" fill-rule="nonzero"></path>
            <path d="M55,26.995667 C56.0512908,26.9873818 57.1103306,26.7982025 58.1570293,26.8614464 C59.2843758,26.9296614 60.7480894,27.2737744 61.8226273,26.7907458 C63.2567797,26.1458793 63.0383706,23.1054785 62.0837998,22.1714576 C61.7129923,21.8085648 61.2204958,21.5450947 60.7397663,21.3432115 C56.9490351,19.7530009 55.1572775,24.0403278 55,26.995667 Z" id="Path" fill="#FFFA00"></path>
            <path d="M21,39.633341 C22.2885517,30.145675 20.3177252,24.5414487 28.6276922,19.1814236 C29.4157982,18.6730861 30.817724,19.2422181 31.3060407,20.0428834 C32.4200007,21.8693807 30.810201,26.4656036 32.9386945,26.2499307 C35.4853031,25.9918915 34.9710812,21.471632 36.6099669,19.5054547 C40.0565919,15.370526 42.1434682,20.3817246 43.2544561,26.9225267 C43.890089,30.6647355 43.8352433,34.4918932 44.1256369,38.2765765" id="Path-2" stroke="#000000" stroke-width="3"></path>
        </g>
    </g>
</svg>