<?xml version="1.0" encoding="UTF-8"?>
<svg width="140px" height="60px" viewBox="0 0 140 60" version="1.1" xmlns="http://www.w3.org/2000/svg" xmlns:xlink="http://www.w3.org/1999/xlink">
    <!-- Generator: Sketch 50.2 (55047) - http://www.bohemiancoding.com/sketch -->
    <title>OptionsMenuSaveButtonPushed</title>
    <desc>Created with Sketch.</desc>
    <defs></defs>
    <g id="iPhone" stroke="none" stroke-width="1" fill="none" fill-rule="evenodd">
        <g id="OptionsMenuSaveButtonPushed">
            <polygon id="Shape" fill="#000000" fill-rule="nonzero" points="0.366877217 0 0 60 139.78022 59.6341463 139.78022 0"></polygon>
            <path d="M6.04455004,3.75 C7.28513532,5.57747062 9.50512616,7.80207199 11.5484776,8.574275 C13.6511981,9.36888664 16.6736249,8.80750373 18.8870477,8.80750373 L34.6649734,8.80750373 L106.58296,8.80750373 L118.691601,8.80750373 C121.127639,8.80750373 124.015367,9.25657116 126.3971,8.68954718 C128.715721,8.1375401 132.21255,5.64769211 133.73567,3.75 L6.04455004,3.75 Z" id="Shape" fill="#BEBE00" fill-rule="nonzero"></path>
            <path d="M3.77784378,5.25 L3.77784378,54.75 C5.85542055,53.6675036 8.54587029,51.6791934 9.30211081,49.330292 C10.1425968,46.719438 9.50395628,43.0293394 9.50395628,40.2974453 L9.50395628,21.1478102 C9.50395628,18.0990077 10.3478779,13.5387931 9.28801026,10.6711172 C8.4979141,8.53336752 5.47595823,6.68951058 3.77784378,5.25 Z" id="Shape" fill="#BEBE00" fill-rule="nonzero"></path>
            <path d="M136.002376,54.75 L136.002376,6.75 C133.953121,7.51998496 129.841507,9.44366617 128.940839,11.5461744 C127.976099,13.7992872 128.721315,17.6730677 128.721315,20.1033835 L128.721315,39.5921053 C128.721315,41.6369774 128.740974,43.6829323 128.719859,45.7274436 C128.709302,46.7643158 128.443543,47.9884962 128.84837,48.975203 C129.832041,51.3730376 133.593801,53.9877744 136.002376,54.75 Z" id="Shape" fill="#BEBE00" fill-rule="nonzero"></path>
            <polygon id="Shape" fill="#BEBE00" fill-rule="nonzero" points="12.8446688 11.25 12.8446688 48 126.179982 48 126.179982 11.25"></polygon>
            <path d="M39.6632139,14.7602097 C38.2099524,15.1108417 36.8674247,16.0449899 35.6167583,16.8343623 C34.70234,17.4115169 33.8910402,18.0980715 33.2518744,18.9786045 C32.5924014,19.8871587 32.3525763,20.8121872 32.3122927,21.9187648 C32.1737835,25.7226527 35.183425,28.0148701 38.5739024,29.2013189 C40.1900271,29.7667796 41.938591,29.7643158 43.3203721,30.8983996 C44.4854682,31.854575 45.5368874,33.9599848 45.3555194,35.5177321 C45.1667937,37.138435 43.5554515,37.3311263 42.2384184,37.3620158 C40.2639723,37.4087177 38.3296258,37.7146702 36.3522367,37.7315859 C35.4828845,37.7389405 34.3444601,37.6256792 33.6839202,38.3206917 C32.429207,39.6412154 33.8775756,41.1364116 35.2502699,41.3541086 C37.6906808,41.7405944 40.1797263,41.1614174 42.6063047,41.055143 C43.8523358,41.0007187 45.3625093,41.2926975 46.5467355,40.8242076 C51.2207316,38.9752537 49.3294278,31.2296522 46.6184733,28.5776463 C44.712822,26.7136522 42.3995526,26.364528 40.0311002,25.4976378 C38.7037663,25.0117542 36.2211588,24.2791596 35.940903,22.6488221 C35.6978772,21.2347475 37.23498,20.4811921 38.1970764,19.8448696 C39.4987687,18.9838263 40.6465741,18.1431922 42.2384184,17.9418224 C43.744913,17.751264 45.5699972,18.233029 46.9992357,17.6518294 C48.2585107,17.1396162 48.5826185,15.6979985 47.3325407,14.9420897 C46.2476438,14.2858361 44.5535272,14.5640617 43.3420774,14.5641353 C42.1273167,14.5642088 40.854062,14.4728643 39.6632139,14.7602097 Z" id="Path" fill="#000000"></path>
            <path d="M7.55568756,56.25 L131.468963,56.25 C130.133046,54.7284215 128.129904,52.1934203 126.231978,51.411503 C124.368146,50.6440323 121.368198,51.1937219 119.370922,51.1937219 L104.340021,51.1937219 L35.4178443,51.1937219 L19.6537293,51.1937219 C17.4885464,51.1937219 14.375537,50.636809 12.3360271,51.411503 C10.475385,52.1182985 8.67167691,54.6890547 7.55568756,56.25 Z" id="Shape" fill="#BEBE00" fill-rule="nonzero"></path>
            <path d="M60.337581,27.4089982 C56.0715237,29.0129194 53.589021,37.2302325 56.9477281,40.3431296 C58.4225729,41.7104241 62.0130413,41.7975937 63.9129345,41.1886341 C64.9906705,40.8432295 65.7413756,39.9301993 66.913007,39.8029234 C68.3658665,39.6449541 69.8452916,40.8391371 71.2321953,40.1675626 C74.8473972,38.417622 69.4545951,36.5758465 68.8106101,35.2314289 C68.0942569,33.734935 68.843588,31.9448883 68.3887678,30.3953151 C67.5629464,27.5820278 63.1521528,26.3508898 60.337581,27.4089982 Z" id="Shape" fill="#000000" fill-rule="nonzero"></path>
            <path d="M58.6813187,37.5997787 C66.0679484,37.2912353 65.1534044,33.3820496 65.1543292,30.3296703 C58.7784138,30.9080802 58.6970388,34.8005447 58.6813187,37.5997787 Z" id="Shape" fill="#BEBE00" fill-rule="nonzero"></path>
            <path d="M96.9447035,30.3841755 C100.293228,34.7708717 109.821564,34.464013 105.876234,29.9044094 C97.3903593,20.0973164 88.6454799,47.7467962 107.472527,37.2277505" id="Path-4" stroke="#000000" stroke-width="3"></path>
            <path d="M75.1648352,27.032967 C83.5815717,37.7470782 82.7950765,46.8984012 89.010989,27.9863817" id="Path-3" stroke="#000000" stroke-width="4"></path>
        </g>
    </g>
</svg>