<?xml version="1.0" encoding="UTF-8"?>
<svg width="140px" height="60px" viewBox="0 0 140 60" version="1.1" xmlns="http://www.w3.org/2000/svg" xmlns:xlink="http://www.w3.org/1999/xlink">
    <!-- Generator: Sketch 50.2 (55047) - http://www.bohemiancoding.com/sketch -->
    <title>OptionsMenuSaveButton</title>
    <desc>Created with Sketch.</desc>
    <defs></defs>
    <g id="iPhone" stroke="none" stroke-width="1" fill="none" fill-rule="evenodd">
        <g id="OptionsMenuSaveButton">
            <polygon id="Shape" fill="#000000" fill-rule="nonzero" points="0.367454068 0 0 60 140 59.6341463 140 0"></polygon>
            <path d="M6.31578947,4.21052632 C7.55323956,6.04257706 9.76762008,8.27275387 11.8058076,9.04689223 C13.9032142,9.84349538 16.9180027,9.28070549 19.1258318,9.28070549 L34.8638838,9.28070549 L106.600121,9.28070549 L118.678161,9.28070549 C121.108043,9.28070549 123.988472,9.7308984 126.364186,9.16245331 C128.676948,8.60906276 132.16494,6.11297455 133.684211,4.21052632 L6.31578947,4.21052632 Z" id="Shape" fill="#FFFA00" fill-rule="nonzero"></path>
            <path d="M4.21052632,5.26315789 L4.21052632,54.7368421 C6.38133099,53.6549212 9.19251033,51.6676681 9.98268592,49.3200154 C10.8608873,46.7105494 10.1935889,43.0224126 10.1935889,40.2919708 L10.1935889,21.1525163 C10.1935889,18.1053346 11.0753801,13.5475444 9.96795263,10.681393 C9.14240218,8.54477987 5.98484091,6.70190319 4.21052632,5.26315789 Z" id="Shape" fill="#FFFA00" fill-rule="nonzero"></path>
            <path d="M135.789474,54.7368421 L135.789474,6.31578947 C133.79101,7.09252869 129.7813,9.03308429 128.902956,11.1540356 C127.962126,13.4269125 128.688873,17.3346735 128.688873,19.7863079 L128.688873,39.4459834 C128.688873,41.508793 128.708045,43.5726949 128.687453,45.6351405 C128.677157,46.681108 128.417985,47.9160269 128.812778,48.911389 C129.77207,51.3302572 133.440595,53.9679304 135.789474,54.7368421 Z" id="Shape" fill="#FFFA00" fill-rule="nonzero"></path>
            <polygon id="Shape" fill="#FFFA00" fill-rule="nonzero" points="12.6315789 11.5789474 12.6315789 48.4210526 126.315789 48.4210526 126.315789 11.5789474"></polygon>
            <path d="M38.829878,14.9952249 C37.397281,15.3509055 36.0738433,16.2985042 34.8409605,17.0992426 C33.9395446,17.6847074 33.139781,18.3811475 32.5097038,19.2743591 C31.859608,20.1959952 31.6231931,21.1343429 31.5834823,22.2568537 C31.4469426,26.1155126 34.4137889,28.4407349 37.7560558,29.644267 C39.3492003,30.2178696 41.0729007,30.2153703 42.4350338,31.3657835 C43.5835629,32.3357266 44.6200316,34.4714515 44.4412425,36.0516283 C44.2552004,37.6956672 42.6667705,37.891133 41.3684647,37.9224672 C39.422094,37.9698416 37.5152528,38.2801995 35.5659809,38.2973587 C34.7089903,38.3048192 33.5867536,38.1899271 32.9356061,38.8949468 C31.6987342,40.2344844 33.1265079,41.7512094 34.4796834,41.972041 C36.8853932,42.3640917 39.339046,41.7765752 41.7311199,41.6687706 C42.9594332,41.6135627 44.448133,41.9097456 45.6155202,41.4345101 C50.223055,39.5589337 48.3586444,31.7018056 45.686238,29.0116144 C43.8076838,27.1207813 41.5273077,26.7666301 39.1925333,25.8872578 C37.8840731,25.3943781 35.4367668,24.6512351 35.160496,22.9974229 C34.920926,21.5629875 36.4361721,20.7985819 37.3845881,20.1530972 C38.6677711,19.279656 39.7992555,18.4269178 41.3684647,18.2226486 C42.8535379,18.0293464 44.6526705,18.5180482 46.0615861,17.9284801 C47.302955,17.4088917 47.6224543,15.9465166 46.3901518,15.1797237 C45.3206815,14.5140209 43.6506541,14.7962526 42.4564304,14.7963272 C41.2589428,14.7964018 40.003793,14.7037421 38.829878,14.9952249 Z" id="Path" fill="#000000"></path>
            <path d="M7.36842105,55.7894737 L131.578947,55.7894737 C130.239826,54.2640817 128.231878,51.7227271 126.329399,50.9388502 C124.461096,50.1694559 121.453952,50.7205232 119.451884,50.7205232 L104.384927,50.7205232 L35.2974151,50.7205232 L19.4954843,50.7205232 C17.3251074,50.7205232 14.2046303,50.1622145 12.160228,50.9388502 C10.2951224,51.647417 8.48708751,54.2246163 7.36842105,55.7894737 Z" id="Shape" fill="#FFFA00" fill-rule="nonzero"></path>
            <path d="M59.6193796,27.7501654 C55.413983,29.3784558 52.9667799,37.7206187 56.2777283,40.8808116 C57.7316017,42.2688801 61.2710159,42.3573741 63.1438939,41.7391622 C64.2063051,41.3885098 64.9463357,40.4616074 66.1013072,40.3323978 C67.533508,40.1720283 68.9918965,41.3843551 70.3590793,40.7025771 C73.9228753,38.9260488 68.6067555,37.0562902 67.9719275,35.6914462 C67.2657605,34.1722154 68.0044365,32.3549716 67.5560836,30.781855 C66.7420048,27.925824 62.39393,26.6759807 59.6193796,27.7501654 Z" id="Shape" fill="#000000" fill-rule="nonzero"></path>
            <path d="M57.8947368,37.8947368 C65.0625583,37.5820211 64.1751052,33.6199719 64.1760025,30.5263158 C57.9889558,31.1125474 57.9099913,35.0576491 57.8947368,37.8947368 Z" id="Shape" fill="#FFFA00" fill-rule="nonzero"></path>
            <path d="M95.4402974,29.9207973 C98.8994024,34.1910029 108.7424,33.892293 104.66678,29.4537717 C95.9006705,19.9071103 86.8670025,46.822346 106.315789,36.5826381" id="Path-4" stroke="#000000" stroke-width="3"></path>
            <path d="M73.6842105,27.3684211 C82.0025057,37.7980143 81.2252092,46.7063199 87.3684211,28.2965174" id="Path-3" stroke="#000000" stroke-width="4"></path>
        </g>
    </g>
</svg>