<?xml version="1.0" encoding="UTF-8"?>
<svg width="212px" height="91px" viewBox="0 0 212 91" version="1.1" xmlns="http://www.w3.org/2000/svg" xmlns:xlink="http://www.w3.org/1999/xlink">
    <!-- Generator: Sketch 50.2 (55047) - http://www.bohemiancoding.com/sketch -->
    <title>OptionsButtonPushed</title>
    <desc>Created with Sketch.</desc>
    <defs></defs>
    <g id="iPhone" stroke="none" stroke-width="1" fill="none" fill-rule="evenodd">
        <g id="OptionsButtonPushed">
            <polygon id="Shape" fill="#000000" fill-rule="nonzero" points="0.556430446 0 0 91 212 90.445122 212 0"></polygon>
            <path d="M9,6 C10.8848103,8.43662749 14.257623,11.4027626 17.362069,12.4323667 C20.5567138,13.4918489 25.1486603,12.7433383 28.5114943,12.7433383 L52.4827586,12.7433383 L161.747126,12.7433383 L180.143678,12.7433383 C183.84473,12.7433383 188.232029,13.3420949 191.850575,12.5860629 C195.373236,11.8500535 200.685937,8.53025615 203,6 L9,6 Z" id="Shape" fill="#BEBE00" fill-rule="nonzero"></path>
            <path d="M6,8 L6,84 C9.09339666,82.3379854 13.0993272,79.2852263 14.2253274,75.6788321 C15.4767644,71.6702482 14.5258641,66.0046423 14.5258641,61.810219 L14.5258641,32.4087591 C14.5258641,27.7277693 15.7824167,20.7262277 14.2043325,16.3233314 C13.0279231,13.0411299 8.5283983,10.2101577 6,8 Z" id="Shape" fill="#BEBE00" fill-rule="nonzero"></path>
            <path d="M207,84 L207,10 C203.745358,11.1870602 197.215261,14.1527353 195.784814,17.3941023 C194.252606,20.8676511 195.436164,26.8397293 195.436164,30.5864662 L195.436164,60.6315789 C195.436164,63.7840902 195.467387,66.9382707 195.433852,70.0902256 C195.417084,71.6887368 194.995004,73.576015 195.637953,75.097188 C197.200228,78.7938496 203.174683,82.8249023 207,84 Z" id="Shape" fill="#BEBE00" fill-rule="nonzero"></path>
            <polygon id="Shape" fill="#BEBE00" fill-rule="nonzero" points="19 17 19 74 191 74 191 17"></polygon>
            <path d="M91.7456462,35.4107802 C89.7839421,35.4107802 86.8968532,34.9186216 85.298056,36.2912076 C83.9300475,37.4650742 83.5086073,40.4477321 85.6960829,41.0407604 C87.4342453,41.5118336 89.8954342,39.934543 91.7456462,39.8035826 L91.7456462,56.2765913 C91.7489909,57.917303 91.4418301,61.4183664 93.9754889,61.4183664 C96.5091476,61.4183664 96.2019868,57.917303 96.2053315,56.2765913 L96.2053315,39.2544823 C98.4340593,39.2544823 107,40.5122514 107,37.0580811 C107,33.6038559 98.4340593,34.8616799 96.2053315,34.8616799 C96.2142509,31.7322475 96.8854336,28.6552542 96.7522005,25.5274143 C96.7031439,24.3746331 96.631789,22.9248436 95.4733857,22.2798155 C93.7814925,21.337779 92.6381407,23.0084716 92.3833812,24.439372 C91.7428589,28.042019 91.7456462,31.7649739 91.7456462,35.4107802 Z" id="Shape" fill="#000000" fill-rule="nonzero"></path>
            <path d="M39.344343,22.4738675 C33.4771809,23.4043729 25.7096354,28.6508614 23.6343765,34.3125796 C22.5571953,37.2511997 23.1779835,41.1124729 23.1779835,44.1963849 C23.1779835,47.2732135 22.7461187,50.7200807 24.4202288,53.4819454 C25.8806643,55.8911229 28.5915398,57.342395 30.9824329,58.7041637 C36.5685233,61.8845526 41.7046314,63.6927398 48.2637137,62.7504837 C51.6087565,62.270021 54.1087446,59.964898 56.6174291,57.9238922 C59.0622844,55.9345018 62.5246726,53.6449732 63.9289161,50.7830625 C67.7569985,42.9820496 62.8245865,30.4592134 56.5288486,25.2075084 C52.1768646,21.5773515 44.6770675,21.6281433 39.344343,22.4738675 Z" id="Path" fill="#000000"></path>
            <path d="M41.5054197,26.446899 C36.6417636,27.5572811 31.1807009,30.2755527 28.8521758,34.9121067 C27.8410001,36.9255945 28.1256546,39.3230903 28.1256546,41.5023773 C28.1256546,44.0583657 27.5738508,47.3900065 28.7829355,49.7407511 C31.61716,55.2514041 41.7075656,58.9744694 47.637812,57.7746502 C50.3981133,57.2164926 52.2904023,55.4612626 54.3276946,53.6791685 C56.7178223,51.5883298 59.6890779,49.6283504 60.6139542,46.4466871 C62.3165293,40.591086 58.1331228,31.1290505 53.0531047,27.8915164 C49.8591318,25.8559441 45.1352942,25.6181777 41.5054197,26.446899 Z" id="Shape" fill="#BEBE00" fill-rule="nonzero"></path>
            <path d="M110.945561,29.2659344 C108.858603,30.4780189 110.726758,33.7333347 112.813716,32.5212502 C114.900674,31.3091657 113.032519,28.0538499 110.945561,29.2659344 Z" id="Path" fill="#000000"></path>
            <path d="M70.7846707,62.7361586 C78.1440019,62.7305722 86.2336018,57.343592 86.3318965,49.3287622 C86.3685488,46.32612 87.0027441,42.0674281 83.5468795,40.7275823 C80.1121176,39.3961161 75.8393517,40.8152332 72.5450902,41.7974367 C71.1545254,42.2119487 69.4901792,42.0497192 68.554991,43.3630295 C67.6270222,44.6662284 67.5631584,46.67974 67.3160333,48.2114792 C66.6335236,52.4427418 66.3419715,56.7771295 66.3419715,61.060234 C66.3419715,63.7322164 65.1441087,70.4660812 67.2321773,72.4436722 C68.5877559,73.727989 70.197679,72.5844498 70.6080734,71.0828214 C71.2972471,68.5639068 70.7846707,65.3388694 70.7846707,62.7361586 Z" id="Path" fill="#000000"></path>
            <path d="M152.419269,40.8176912 C145.236535,43.16298 146.865895,50.5004011 146.865895,56.5911019 C146.865895,58.4396467 146.123408,63.4981456 149.087244,63.4981456 C152.05108,63.4981456 151.308594,58.4396467 151.308594,56.5911019 C151.308594,50.1085699 152.686941,43.3576666 160.74933,45.129454 C167.192909,46.5455544 166.187749,54.3101686 167.412823,59.3843095 C167.811,61.0334192 167.964828,65.2757429 170.673764,64.5506262 C172.188169,64.1456111 172.368654,62.3663379 172.392534,61.0596754 C172.448623,58.0268106 171.324064,55.1015961 170.903674,52.1219698 C170.51105,49.3372536 170.493835,46.1975207 168.652336,43.8875939 C165.410832,39.8212982 157.04634,39.3069011 152.419269,40.8176912 Z" id="Path" fill="#000000"></path>
            <path d="M180.186139,40.7551792 C178.939406,41.1482394 177.839283,41.8816798 176.864666,42.7444458 C176.005003,43.5057066 175.167555,44.3795895 174.648314,45.4187186 C172.759056,49.1994926 174.859898,52.3831906 177.965344,54.3565359 C179.417552,55.2792441 182.292533,56.6888642 182.292533,58.7452236 C182.292533,61.4758633 176.926308,59.9099912 175.534077,61.3970949 C174.257357,62.7607388 175.394132,64.3802405 176.886879,64.7930766 C179.077685,65.3997613 182.495232,65.1919467 184.626061,64.4567744 C191.302883,62.1546128 186.622499,54.4445778 182.96227,51.7249992 C181.862147,50.9074832 179.709659,50.0165617 179.267611,48.5950983 C178.208027,45.1893962 184.609401,45.4080485 185.948875,43.9647423 C187.993627,41.7624657 184.693257,40.4335693 182.96227,40.4098829 C182.034301,40.3972017 181.075789,40.4746294 180.186139,40.7551792 Z" id="Path" fill="#000000"></path>
            <path d="M113.627285,41.5340931 C111.814664,42.528475 111.892411,44.7437679 111.880194,46.5355547 C111.850761,50.8466471 112.067898,55.095842 112.467185,59.3815163 C112.611573,60.9345397 113.614512,63.2540193 115.59318,62.1294739 C116.911551,61.3792183 116.851019,59.5759235 116.874898,58.2670265 C116.940428,54.707251 116.11242,51.2071943 116.352326,47.6528377 C116.455618,46.117188 117.481327,44.2112149 117.026505,42.7077989 C116.584457,41.2467837 114.871796,40.8515449 113.627285,41.5340931 Z" id="Path" fill="#000000"></path>
            <path d="M128.541982,41.9224606 C122.578769,44.2389235 118.929091,53.79147 122.372183,59.3843095 C125.327689,64.1858333 132.713676,66.028233 137.980496,64.0752223 C144.350771,61.7121687 148.369748,50.9653026 143.315067,45.5656971 C140.963769,43.0538773 137.908302,43.2457707 134.883935,42.4573599 C132.724228,41.8944168 130.796652,41.0465108 128.541982,41.9224606 Z" id="Path" fill="#000000"></path>
            <path d="M71.1086764,48.3163553 L70,58.2654212 C74.2805998,58.1393997 79.0817231,55.2390259 80.6754455,51.0799847 C81.3849984,49.2273028 81.0867645,46.9474191 81.0867645,45 C79.2635461,45.0150341 77.3167102,44.9655652 75.6376197,45.7898453 C73.9779311,46.604508 72.9307862,47.802265 71.1086764,48.3163553 Z" id="Shape" fill="#BEBE00" fill-rule="nonzero"></path>
            <path d="M132.640219,46.1126925 C125.019732,44.7769198 121.413762,58.3599373 129.876843,59.7550174 C131.727779,60.0601221 134.246137,60.2242817 135.964031,59.3553966 C139.127639,57.7563607 141.23357,52.8554508 139.193051,49.612 C138.15533,47.9625555 134.506122,46.4397957 132.640219,46.1126925 Z" id="Path" fill="#BEBE00"></path>
            <path d="M12,86 L200,86 C197.97316,83.6814041 194.934012,79.8185453 192.054497,78.6270522 C189.22671,77.457573 184.675219,78.2951953 181.64497,78.2951953 L158.840237,78.2951953 L54.2721893,78.2951953 L30.3550296,78.2951953 C27.0700355,78.2951953 22.3470083,77.4465661 19.252684,78.6270522 C16.4297361,79.7040739 13.693168,83.6214167 12,86 Z" id="Shape" fill="#BEBE00" fill-rule="nonzero"></path>
        </g>
    </g>
</svg>