<?xml version="1.0" encoding="UTF-8"?>
<svg width="306px" height="376px" viewBox="0 0 306 376" version="1.1" xmlns="http://www.w3.org/2000/svg" xmlns:xlink="http://www.w3.org/1999/xlink">
    <!-- Generator: Sketch 50.2 (55047) - http://www.bohemiancoding.com/sketch -->
    <title>OptionsMenu</title>
    <desc>Created with Sketch.</desc>
    <defs></defs>
    <g id="iPhone" stroke="none" stroke-width="1" fill="none" fill-rule="evenodd">
        <g id="OptionsMenu">
            <path d="M2.76175459,0.716035342 C-1.04432875,3.45164592 0.233742667,14.9785215 0.233742667,20.9745966 L0.233742667,83.0671934 L0.233742667,300.686961 L0.233742667,354.500545 C0.233742667,359.966468 -0.815480374,369.835642 1.53200463,373.880532 C3.04907341,376.494334 5.28239175,375.789435 7.18510638,375.789435 L19.8239495,375.789435 L71.3272352,375.789435 L238.475936,375.789435 L284.923684,375.789435 L297.878498,375.789435 C299.591061,375.789435 301.995285,376.581855 303.564714,375.092224 C307.035972,371.797769 305.777775,360.514657 305.777775,354.500545 L305.777775,293.590664 L305.777775,74.1968224 L305.777775,20.9745966 C305.777775,15.362786 306.849865,5.58243321 304.184017,1.71622289 C302.661352,-0.492091444 300.318743,0.277064337 298.51044,0.277064337 L284.923684,0.277064337 L232.472485,0.277064337 L70.379322,0.277064337 L22.9836603,0.277064337 L9.08093285,0.277064337 C7.17578524,0.277064337 4.56207248,-0.577956635 2.76175459,0.716035342 Z" id="Shape" fill="#000000" fill-rule="nonzero"></path>
            <path d="M4.94128469,4.62077276 C3.52999182,5.41239311 3.12840485,7.6586557 3.05991123,10.1992042 C2.93291872,14.9097662 3.04728561,19.6838198 3.04728561,24.4004766 L3.04728561,85.9393238 L3.04728561,298.36669 L3.04728561,351.621462 L3.04752793,364.047575 C3.052947,366.132204 2.98819196,368.653521 3.83839724,370.252348 C4.99827617,372.433427 7.22692318,371.739931 8.71181719,371.739931 L21.6143613,371.739931 L73.5392341,371.739931 L234.978384,371.739931 L281.553421,371.739931 L295.085358,371.739931 C296.977311,371.739931 299.58394,372.592008 301.361974,371.211526 C302.578274,370.266549 302.879124,368.090796 302.940175,365.822734 C303.066998,361.112054 302.952763,356.33806 302.952763,351.621462 L302.952763,291.266054 L302.952763,75.8800891 L302.952763,23.2170372 C302.952763,19.079319 303.006576,14.9271628 302.948042,10.7909239 C302.920349,8.83250921 302.825311,6.657466 301.920874,5.38144025 C300.530546,3.41952855 297.976472,4.28200733 296.344143,4.28200733 L282.812206,4.28200733 L229.628549,4.28200733 L73.8539303,4.28200733 L26.3348043,4.28200733 L11.8587792,4.28200733 C9.71528896,4.28200733 7.00896459,3.46095484 4.94128469,4.62077276 Z" id="Shape" fill="#92F446" fill-rule="nonzero"></path>
            <path d="M139.304253,23.924885 C137.414385,23.924885 134.63302,23.4503721 133.09277,24.7737457 C131.774857,25.9055247 131.36885,28.7812429 133.476221,29.3530089 C135.150733,29.8071923 137.521794,28.2864536 139.304253,28.1601886 L139.304253,44.0425771 C139.307475,45.624463 139.011562,49 141.45244,49 C143.893317,49 143.597404,45.624463 143.600627,44.0425771 L143.600627,27.6307756 C145.74774,27.6307756 154,28.8434489 154,25.5131238 C154,22.1827458 145.74774,23.395472 143.600627,23.395472 C143.609219,20.3782417 144.255824,17.4115704 144.127469,14.3958754 C144.080209,13.2844258 144.011467,11.8866168 142.895484,11.2647154 C141.265547,10.3564546 140.164064,11.9672464 139.918634,13.3468436 C139.301567,16.820322 139.304253,20.4097947 139.304253,23.924885 Z" id="Shape" fill="#000000" fill-rule="nonzero"></path>
            <path d="M88.851838,10.450752 C83.1614714,11.3358669 75.6279858,16.3264292 73.6152608,21.711966 C72.5705383,24.5072387 73.1726203,28.1801572 73.1726203,31.1136344 C73.1726203,34.0403738 72.7537689,37.3191012 74.377433,39.9462407 C75.7938611,42.2378974 78.4230496,43.6183757 80.7418978,44.9137167 C86.1596623,47.9389646 91.1410038,49.6589476 97.5024409,48.7626553 C100.746687,48.3056297 103.171343,46.1129517 105.604433,44.1715072 C107.975618,42.2791603 111.333674,40.101316 112.695603,37.3790107 C116.408334,29.958535 111.62455,18.0465689 105.518522,13.0510446 C101.297677,9.59796849 94.0238713,9.64628262 88.851838,10.450752 Z" id="Path" fill="#000000"></path>
            <path d="M91.0961645,14.4329334 C86.3798919,15.508616 81.0843161,18.1419417 78.8263523,22.6336034 C77.8458183,24.5841697 78.1218469,26.9067437 78.1218469,29.017928 C78.1218469,31.4940418 77.5867644,34.7215688 78.7592102,36.9988526 C81.5075491,42.3372977 91.2921849,45.9440172 97.0427268,44.7816924 C99.7193826,44.2409772 101.55433,42.5405981 103.529886,40.8141945 C105.847585,38.7886945 108.728803,36.8899645 109.625653,33.8077281 C111.276634,28.1351146 107.219998,18.9687677 102.29392,15.8324065 C99.1967338,13.8604458 94.6160429,13.6301097 91.0961645,14.4329334 Z" id="Shape" fill="#92F446" fill-rule="nonzero"></path>
            <path d="M157.988003,17.2808782 C155.726953,18.561074 157.750947,21.9993177 160.011997,20.7191218 C162.273047,19.438926 160.249053,16.0006823 157.988003,17.2808782 Z" id="Path" fill="#000000"></path>
            <path d="M118.690776,49.9909417 C125.905686,49.985494 133.836535,44.7322369 133.932901,36.9163622 C133.968834,33.9882556 134.590583,29.8352788 131.202537,28.5286925 C127.835179,27.2302778 123.646263,28.6141676 120.416648,29.5719895 C119.053372,29.9762119 117.421687,29.8180095 116.504851,31.098719 C115.595093,32.3695682 115.532483,34.3330976 115.290207,35.8268139 C114.621091,39.9530422 114.335261,44.1798359 114.335261,48.3566193 C114.335261,50.962274 113.160905,57.5289816 115.207997,59.4574821 C116.536973,60.7099179 118.115303,59.5947652 118.517644,58.1304123 C119.193293,55.6740256 118.690776,52.5290445 118.690776,49.9909417 Z" id="Path" fill="#000000"></path>
            <path d="M197.559229,28.7603641 C190.568698,31.0489397 192.154458,38.2089292 192.154458,44.1523463 C192.154458,45.9561901 191.43184,50.8923657 194.316366,50.8923657 C197.200893,50.8923657 196.478275,45.9561901 196.478275,44.1523463 C196.478275,37.8265732 197.819739,31.2389184 205.666386,32.967861 C211.937542,34.3497176 210.959279,41.92657 212.151571,46.8780093 C212.539093,48.4872407 212.688805,52.6269776 215.325253,51.9193955 C216.799134,51.5241743 216.974789,49.787927 216.99803,48.5128619 C217.052618,45.5533371 215.958152,42.6988593 215.54901,39.7912856 C215.166893,37.0739087 215.150138,34.0101 213.357916,31.7560312 C210.203151,27.7880656 202.062485,27.2861075 197.559229,28.7603641 Z" id="Path" fill="#000000"></path>
            <path d="M225.224267,28.3362316 C223.983618,28.7175359 222.888863,29.4290402 221.919002,30.2660021 C221.063534,31.0044947 220.230172,31.852241 219.713465,32.8602913 C217.833426,36.5279879 219.924016,39.6164661 223.01431,41.5307915 C224.459431,42.4259028 227.320384,43.7933633 227.320384,45.78822 C227.320384,48.4371903 221.980343,46.918151 220.594906,48.3607776 C219.324415,49.683637 220.455644,51.2547018 221.941107,51.6551905 C224.121223,52.2437302 227.522093,52.042131 229.642525,51.3289467 C236.286766,49.0956393 231.629221,41.6162002 227.986852,38.9779602 C226.892097,38.1848949 224.750113,37.3206196 224.310221,35.9416702 C223.255808,32.6378276 229.625946,32.8499404 230.958883,31.4498013 C232.993658,29.3133916 229.709393,28.0242406 227.986852,28.0012626 C227.063412,27.9889607 226.109577,28.0640727 225.224267,28.3362316 Z" id="Path" fill="#000000"></path>
            <path d="M160.661776,29.3059499 C158.94028,30.2432888 159.014119,32.331501 159.002516,34.0205015 C158.974563,38.0842871 159.180783,42.089726 159.559998,46.1295516 C159.697126,47.5934855 160.649645,49.7799076 162.528839,48.719872 C163.780931,48.012655 163.723443,46.3128066 163.746122,45.0789947 C163.808357,41.7234266 163.021975,38.4241515 163.24982,35.0736913 C163.34792,33.6261346 164.322063,31.829498 163.890107,30.4123258 C163.470282,29.0351221 161.843722,28.6625562 160.661776,29.3059499 Z" id="Path" fill="#000000"></path>
            <path d="M174.330532,29.3564462 C168.503442,31.5437714 164.937077,40.5637842 168.301573,45.8448352 C171.189612,50.3786845 178.406998,52.1183745 183.553592,50.2742398 C189.778451,48.0429213 193.705686,37.8951695 188.766389,32.7965802 C186.468764,30.4247889 183.483046,30.6059846 180.527716,29.861526 C178.417309,29.3299658 176.533734,28.5293286 174.330532,29.3564462 Z" id="Path" fill="#000000"></path>
            <path d="M119.093863,36.25 L118,46 C122.223403,45.8765 126.960375,43.0341583 128.532802,38.9583333 C129.232874,37.1427208 128.938625,34.9084542 128.938625,33 C127.139768,33.0147333 125.218946,32.9662542 123.562291,33.7740417 C121.924779,34.5724042 120.891626,35.7461958 119.093863,36.25 Z" id="Shape" fill="#92F446" fill-rule="nonzero"></path>
            <path d="M178.131783,34.0858265 C171.020273,32.8436563 167.655147,45.4748625 175.552975,46.7721843 C177.280285,47.0559092 179.630441,47.2085655 181.233596,46.4005663 C184.185905,44.9135806 186.15118,40.3560953 184.246948,37.3399249 C183.278537,35.8060629 179.873061,34.3900084 178.131783,34.0858265 Z" id="Path" fill="#92F446"></path>
        </g>
    </g>
</svg>