<?xml version="1.0" encoding="UTF-8"?>
<svg width="212px" height="91px" viewBox="0 0 212 91" version="1.1" xmlns="http://www.w3.org/2000/svg" xmlns:xlink="http://www.w3.org/1999/xlink">
    <!-- Generator: Sketch 50.2 (55047) - http://www.bohemiancoding.com/sketch -->
    <title>OptionsButton</title>
    <desc>Created with Sketch.</desc>
    <defs></defs>
    <g id="iPhone" stroke="none" stroke-width="1" fill="none" fill-rule="evenodd">
        <g id="OptionsButton">
            <polygon id="Shape" fill="#000000" fill-rule="nonzero" points="0.556430446 0 0 91 212 90.445122 212 0"></polygon>
            <path d="M9,6 C10.8848103,8.43662749 14.257623,11.4027626 17.362069,12.4323667 C20.5567138,13.4918489 25.1486603,12.7433383 28.5114943,12.7433383 L52.4827586,12.7433383 L161.747126,12.7433383 L180.143678,12.7433383 C183.84473,12.7433383 188.232029,13.3420949 191.850575,12.5860629 C195.373236,11.8500535 200.685937,8.53025615 203,6 L9,6 Z" id="Shape" fill="#FFFA00" fill-rule="nonzero"></path>
            <path d="M6,8 L6,84 C9.09339666,82.3379854 13.0993272,79.2852263 14.2253274,75.6788321 C15.4767644,71.6702482 14.5258641,66.0046423 14.5258641,61.810219 L14.5258641,32.4087591 C14.5258641,27.7277693 15.7824167,20.7262277 14.2043325,16.3233314 C13.0279231,13.0411299 8.5283983,10.2101577 6,8 Z" id="Shape" fill="#FFFA00" fill-rule="nonzero"></path>
            <path d="M207,84 L207,10 C203.745358,11.1870602 197.215261,14.1527353 195.784814,17.3941023 C194.252606,20.8676511 195.436164,26.8397293 195.436164,30.5864662 L195.436164,60.6315789 C195.436164,63.7840902 195.467387,66.9382707 195.433852,70.0902256 C195.417084,71.6887368 194.995004,73.576015 195.637953,75.097188 C197.200228,78.7938496 203.174683,82.8249023 207,84 Z" id="Shape" fill="#FFFA00" fill-rule="nonzero"></path>
            <polygon id="Shape" fill="#FFFA00" fill-rule="nonzero" points="19 17 19 74 191 74 191 17"></polygon>
            <path d="M89.7456462,35.4107802 C87.7839421,35.4107802 84.8968532,34.9186216 83.298056,36.2912076 C81.9300475,37.4650742 81.5086073,40.4477321 83.6960829,41.0407604 C85.4342453,41.5118336 87.8954342,39.934543 89.7456462,39.8035826 L89.7456462,56.2765913 C89.7489909,57.917303 89.4418301,61.4183664 91.9754889,61.4183664 C94.5091476,61.4183664 94.2019868,57.917303 94.2053315,56.2765913 L94.2053315,39.2544823 C96.4340593,39.2544823 105,40.5122514 105,37.0580811 C105,33.6038559 96.4340593,34.8616799 94.2053315,34.8616799 C94.2142509,31.7322475 94.8854336,28.6552542 94.7522005,25.5274143 C94.7031439,24.3746331 94.631789,22.9248436 93.4733857,22.2798155 C91.7814925,21.337779 90.6381407,23.0084716 90.3833812,24.439372 C89.7428589,28.042019 89.7456462,31.7649739 89.7456462,35.4107802 Z" id="Shape" fill="#000000" fill-rule="nonzero"></path>
            <path d="M37.344343,22.4738675 C31.4771809,23.4043729 23.7096354,28.6508614 21.6343765,34.3125796 C20.5571953,37.2511997 21.1779835,41.1124729 21.1779835,44.1963849 C21.1779835,47.2732135 20.7461187,50.7200807 22.4202288,53.4819454 C23.8806643,55.8911229 26.5915398,57.342395 28.9824329,58.7041637 C34.5685233,61.8845526 39.7046314,63.6927398 46.2637137,62.7504837 C49.6087565,62.270021 52.1087446,59.964898 54.6174291,57.9238922 C57.0622844,55.9345018 60.5246726,53.6449732 61.9289161,50.7830625 C65.7569985,42.9820496 60.8245865,30.4592134 54.5288486,25.2075084 C50.1768646,21.5773515 42.6770675,21.6281433 37.344343,22.4738675 Z" id="Path" fill="#000000"></path>
            <path d="M39.5054197,26.446899 C34.6417636,27.5572811 29.1807009,30.2755527 26.8521758,34.9121067 C25.8410001,36.9255945 26.1256546,39.3230903 26.1256546,41.5023773 C26.1256546,44.0583657 25.5738508,47.3900065 26.7829355,49.7407511 C29.61716,55.2514041 39.7075656,58.9744694 45.637812,57.7746502 C48.3981133,57.2164926 50.2904023,55.4612626 52.3276946,53.6791685 C54.7178223,51.5883298 57.6890779,49.6283504 58.6139542,46.4466871 C60.3165293,40.591086 56.1331228,31.1290505 51.0531047,27.8915164 C47.8591318,25.8559441 43.1352942,25.6181777 39.5054197,26.446899 Z" id="Shape" fill="#FFFA00" fill-rule="nonzero"></path>
            <path d="M108.945561,29.2659344 C106.858603,30.4780189 108.726758,33.7333347 110.813716,32.5212502 C112.900674,31.3091657 111.032519,28.0538499 108.945561,29.2659344 Z" id="Path" fill="#000000"></path>
            <path d="M68.7846707,62.7361586 C76.1440019,62.7305722 84.2336018,57.343592 84.3318965,49.3287622 C84.3685488,46.32612 85.0027441,42.0674281 81.5468795,40.7275823 C78.1121176,39.3961161 73.8393517,40.8152332 70.5450902,41.7974367 C69.1545254,42.2119487 67.4901792,42.0497192 66.554991,43.3630295 C65.6270222,44.6662284 65.5631584,46.67974 65.3160333,48.2114792 C64.6335236,52.4427418 64.3419715,56.7771295 64.3419715,61.060234 C64.3419715,63.7322164 63.1441087,70.4660812 65.2321773,72.4436722 C66.5877559,73.727989 68.197679,72.5844498 68.6080734,71.0828214 C69.2972471,68.5639068 68.7846707,65.3388694 68.7846707,62.7361586 Z" id="Path" fill="#000000"></path>
            <path d="M150.419269,40.8176912 C143.236535,43.16298 144.865895,50.5004011 144.865895,56.5911019 C144.865895,58.4396467 144.123408,63.4981456 147.087244,63.4981456 C150.05108,63.4981456 149.308594,58.4396467 149.308594,56.5911019 C149.308594,50.1085699 150.686941,43.3576666 158.74933,45.129454 C165.192909,46.5455544 164.187749,54.3101686 165.412823,59.3843095 C165.811,61.0334192 165.964828,65.2757429 168.673764,64.5506262 C170.188169,64.1456111 170.368654,62.3663379 170.392534,61.0596754 C170.448623,58.0268106 169.324064,55.1015961 168.903674,52.1219698 C168.51105,49.3372536 168.493835,46.1975207 166.652336,43.8875939 C163.410832,39.8212982 155.04634,39.3069011 150.419269,40.8176912 Z" id="Path" fill="#000000"></path>
            <path d="M178.186139,40.7551792 C176.939406,41.1482394 175.839283,41.8816798 174.864666,42.7444458 C174.005003,43.5057066 173.167555,44.3795895 172.648314,45.4187186 C170.759056,49.1994926 172.859898,52.3831906 175.965344,54.3565359 C177.417552,55.2792441 180.292533,56.6888642 180.292533,58.7452236 C180.292533,61.4758633 174.926308,59.9099912 173.534077,61.3970949 C172.257357,62.7607388 173.394132,64.3802405 174.886879,64.7930766 C177.077685,65.3997613 180.495232,65.1919467 182.626061,64.4567744 C189.302883,62.1546128 184.622499,54.4445778 180.96227,51.7249992 C179.862147,50.9074832 177.709659,50.0165617 177.267611,48.5950983 C176.208027,45.1893962 182.609401,45.4080485 183.948875,43.9647423 C185.993627,41.7624657 182.693257,40.4335693 180.96227,40.4098829 C180.034301,40.3972017 179.075789,40.4746294 178.186139,40.7551792 Z" id="Path" fill="#000000"></path>
            <path d="M111.627285,41.5340931 C109.814664,42.528475 109.892411,44.7437679 109.880194,46.5355547 C109.850761,50.8466471 110.067898,55.095842 110.467185,59.3815163 C110.611573,60.9345397 111.614512,63.2540193 113.59318,62.1294739 C114.911551,61.3792183 114.851019,59.5759235 114.874898,58.2670265 C114.940428,54.707251 114.11242,51.2071943 114.352326,47.6528377 C114.455618,46.117188 115.481327,44.2112149 115.026505,42.7077989 C114.584457,41.2467837 112.871796,40.8515449 111.627285,41.5340931 Z" id="Path" fill="#000000"></path>
            <path d="M126.541982,41.9224606 C120.578769,44.2389235 116.929091,53.79147 120.372183,59.3843095 C123.327689,64.1858333 130.713676,66.028233 135.980496,64.0752223 C142.350771,61.7121687 146.369748,50.9653026 141.315067,45.5656971 C138.963769,43.0538773 135.908302,43.2457707 132.883935,42.4573599 C130.724228,41.8944168 128.796652,41.0465108 126.541982,41.9224606 Z" id="Path" fill="#000000"></path>
            <path d="M69.1086764,48.3163553 L68,58.2654212 C72.2805998,58.1393997 77.0817231,55.2390259 78.6754455,51.0799847 C79.3849984,49.2273028 79.0867645,46.9474191 79.0867645,45 C77.2635461,45.0150341 75.3167102,44.9655652 73.6376197,45.7898453 C71.9779311,46.604508 70.9307862,47.802265 69.1086764,48.3163553 Z" id="Shape" fill="#FFFA00" fill-rule="nonzero"></path>
            <path d="M130.640219,46.1126925 C123.019732,44.7769198 119.413762,58.3599373 127.876843,59.7550174 C129.727779,60.0601221 132.246137,60.2242817 133.964031,59.3553966 C137.127639,57.7563607 139.23357,52.8554508 137.193051,49.612 C136.15533,47.9625555 132.506122,46.4397957 130.640219,46.1126925 Z" id="Path" fill="#FFFA00"></path>
            <path d="M12,86 L200,86 C197.97316,83.6814041 194.934012,79.8185453 192.054497,78.6270522 C189.22671,77.457573 184.675219,78.2951953 181.64497,78.2951953 L158.840237,78.2951953 L54.2721893,78.2951953 L30.3550296,78.2951953 C27.0700355,78.2951953 22.3470083,77.4465661 19.252684,78.6270522 C16.4297361,79.7040739 13.693168,83.6214167 12,86 Z" id="Shape" fill="#FFFA00" fill-rule="nonzero"></path>
        </g>
    </g>
</svg>