<?xml version="1.0" encoding="UTF-8"?>
<svg width="128px" height="55px" viewBox="0 0 128 55" version="1.1" xmlns="http://www.w3.org/2000/svg" xmlns:xlink="http://www.w3.org/1999/xlink">
    <!-- Generator: Sketch 50.2 (55047) - http://www.bohemiancoding.com/sketch -->
    <title>PauseMenuOptionsButtonPushed</title>
    <desc>Created with Sketch.</desc>
    <defs></defs>
    <g id="iPhone" stroke="none" stroke-width="1" fill="none" fill-rule="evenodd">
        <g id="PauseMenuOptionsButtonPushed">
            <polygon id="Shape" fill="#000000" fill-rule="nonzero" points="0.335958005 0 0 55 128 54.6646341 128 0"></polygon>
            <path d="M5,4 C6.13671552,5.39235856 8.17083448,7.08729294 10.0431034,7.67563809 C11.9697707,8.28105649 14.7391405,7.85333617 16.7672414,7.85333617 L31.2241379,7.85333617 L97.1206897,7.85333617 L108.215517,7.85333617 C110.447595,7.85333617 113.093543,8.19548279 115.275862,7.76346452 C117.400353,7.3428877 120.604405,5.44586066 122,4 L5,4 Z" id="Shape" fill="#BEBE00" fill-rule="nonzero"></path>
            <path d="M4,5 L4,51 C5.7185537,49.9940438 7.94407068,48.1463212 8.56962635,45.9635036 C9.26486913,43.5372555 8.73659119,40.108073 8.73659119,37.5693431 L8.73659119,19.7737226 C8.73659119,16.940492 9.43467592,12.7027168 8.5579625,10.0378058 C7.90440172,8.05121022 5.40466572,6.33772701 4,5 Z" id="Shape" fill="#BEBE00" fill-rule="nonzero"></path>
            <path d="M125,51 L125,6 C123.101459,6.7218609 119.292235,8.52531203 118.457808,10.4964135 C117.56402,12.6087068 118.254429,16.2403759 118.254429,18.518797 L118.254429,36.7894737 C118.254429,38.7065414 118.272642,40.6246241 118.25308,42.5413534 C118.243299,43.5134211 117.997086,44.6610902 118.372139,45.5861278 C119.283466,47.8340977 122.768565,50.2854135 125,51 Z" id="Shape" fill="#BEBE00" fill-rule="nonzero"></path>
            <polygon id="Shape" fill="#BEBE00" fill-rule="nonzero" points="11 10 11 44 115 44 115 10"></polygon>
            <path d="M56.6481607,21.1630852 C55.4455178,21.1630852 53.6755581,20.8633929 52.695399,21.6992078 C51.8567272,22.4140156 51.5983589,24.2302587 52.9394135,24.591374 C54.0050119,24.8782267 55.5138692,23.9177602 56.6481607,23.8380138 L56.6481607,33.8689961 C56.6502113,34.8680819 56.4619032,37 58.0151888,37 C59.5684745,37 59.3801664,34.8680819 59.3822169,33.8689961 L59.3822169,23.5036478 C60.7485615,23.5036478 66,24.2695467 66,22.1661835 C66,20.0627868 60.7485615,20.8287192 59.3822169,20.8287192 C59.3876851,18.9231 59.7991605,17.0494129 59.7174806,15.1447634 C59.687406,14.4427953 59.6436611,13.5599685 58.93349,13.1671887 C57.8962574,12.5935503 57.1953137,13.6108925 57.0391308,14.482217 C56.6464519,16.6759928 56.6481607,18.9430283 56.6481607,21.1630852 Z" id="Shape" fill="#000000" fill-rule="nonzero"></path>
            <path d="M25.0523851,13.2889436 C21.4438599,13.8563249 16.6665276,17.0554033 15.3901654,20.5076705 C14.7276584,22.299512 15.1094665,24.6539469 15.1094665,26.534381 C15.1094665,28.410496 14.8438534,30.5122443 15.8734941,32.1963081 C16.7717168,33.6653188 18.4390071,34.5502408 19.9094962,35.3805876 C23.3451517,37.3198491 26.5040512,38.4224023 30.5381333,37.8478559 C32.5954602,37.5548908 34.1330469,36.149328 35.6759821,34.9048123 C37.17966,33.6917694 39.3091589,32.2957154 40.1728213,30.5506479 C42.5272359,25.7939327 39.4936171,18.158057 35.6215018,14.9557978 C32.9448681,12.7422875 28.3322111,12.7732581 25.0523851,13.2889436 Z" id="Path" fill="#000000"></path>
            <path d="M26.1851028,16.2653463 C23.2374325,16.9246356 19.9276975,18.5386094 18.5164702,21.2915634 C17.9036364,22.4870717 18.0761543,23.9105849 18.0761543,25.2045365 C18.0761543,26.7221546 17.7417277,28.7003163 18.4745064,30.096071 C20.1922182,33.3680212 26.3076155,35.5785912 29.9017043,34.8661986 C31.5746141,34.5347925 32.721456,33.4926247 33.9561785,32.4345063 C35.4047408,31.1930708 37.2055018,30.0293331 37.7660328,28.1402205 C38.7978965,24.6634573 36.2624986,19.0453737 33.1836998,17.1230879 C31.2479586,15.9144668 28.3850268,15.773293 26.1851028,16.2653463 Z" id="Shape" fill="#BEBE00" fill-rule="nonzero"></path>
            <path d="M67.4940013,18.1404391 C66.3634764,18.780537 67.3754737,20.4996588 68.5059987,19.8595609 C69.6365236,19.219463 68.6245263,17.5003412 67.4940013,18.1404391 Z" id="Path" fill="#000000"></path>
            <path d="M43.8144654,37.7443386 C48.1434118,37.7409337 52.9019209,34.457648 52.9597403,29.5727264 C52.9813001,27.7426598 53.35435,25.1470493 51.3215222,24.3304328 C49.3011077,23.5189236 46.7877577,24.3838547 44.8499891,24.9824934 C44.0320233,25.2351324 43.0530125,25.1362559 42.5029109,25.9366994 C41.957056,26.7309801 41.9194897,27.958186 41.7741243,28.8917587 C41.3726547,31.4706514 41.2011563,34.1123974 41.2011563,36.722887 C41.2011563,38.3514213 40.4965429,42.4556135 41.7247981,43.6609263 C42.5221841,44.4436987 43.4691819,43.7467282 43.7105863,42.8315077 C44.1159759,41.296266 43.8144654,39.3306528 43.8144654,37.7443386 Z" id="Path" fill="#000000"></path>
            <path d="M92.5579066,24.4752276 C88.0839666,25.9055873 89.0988529,30.3805808 89.0988529,34.0952165 C89.0988529,35.2226188 88.6363774,38.3077285 90.4824744,38.3077285 C92.3285713,38.3077285 91.8660959,35.2226188 91.8660959,34.0952165 C91.8660959,30.1416083 92.724633,26.024324 97.7464871,27.1049131 C101.760027,27.9685735 101.133938,32.7041062 101.897006,35.7987558 C102.14502,36.8045254 102.240836,39.391861 103.928162,38.9496222 C104.871446,38.702609 104.983865,37.6174544 104.998739,36.8205387 C105.033675,34.9708357 104.333217,33.1867871 104.071367,31.3695535 C103.826812,29.6711929 103.816089,27.7563125 102.669066,26.3475195 C100.650017,23.867541 95.4399901,23.5538172 92.5579066,24.4752276 Z" id="Path" fill="#000000"></path>
            <path d="M109.556724,24.2101447 C108.847782,24.4484599 108.222207,24.8931501 107.668001,25.4162513 C107.179162,25.8778092 106.702955,26.4076506 106.407694,27.0376821 C105.333386,29.3299924 106.528009,31.2602913 108.293891,32.4567447 C109.119675,33.0161893 110.754505,33.8708521 110.754505,35.1176375 C110.754505,36.7732439 107.703053,35.8238444 106.911375,36.725486 C106.18538,37.5522731 106.831796,38.5341886 107.680632,38.7844941 C108.926413,39.1523314 110.869767,39.0263319 112.081443,38.5805917 C115.878152,37.1847746 113.216698,32.5101251 111.135344,30.8612251 C110.50977,30.3655593 109.285779,29.8253873 109.034412,28.9635439 C108.43189,26.8986423 112.071969,27.0312127 112.833648,26.1561258 C113.996376,24.8208698 112.119653,24.0151503 111.135344,24.0007891 C110.607664,23.9931004 110.062615,24.0400454 109.556724,24.2101447 Z" id="Path" fill="#000000"></path>
            <path d="M68.9970654,25.1988674 C67.9641682,25.8081377 68.0084714,27.1654756 68.0015094,28.263326 C67.9847375,30.9047866 68.10847,33.5083219 68.3359985,36.1342085 C68.4182759,37.0857656 68.989787,38.5069399 70.1173032,37.8179168 C70.8685588,37.3582258 70.8340656,36.2533243 70.847673,35.4513466 C70.8850142,33.2702273 70.4131853,31.1256985 70.5498922,28.9478994 C70.6087522,28.0069875 71.1932379,26.8391737 70.9340642,25.9180118 C70.6821689,25.0228294 69.7062329,24.7806615 68.9970654,25.1988674 Z" id="Path" fill="#000000"></path>
            <path d="M78.5815824,25.2268294 C74.9396514,26.6187636 72.710673,32.3587718 74.8134828,35.7194406 C76.6185077,38.6046174 81.129374,39.7116928 84.3459947,38.5381526 C88.2365321,37.1182226 90.6910539,30.6605624 87.6039934,27.4160056 C86.1679777,25.9066838 84.3019036,26.0219902 82.4548225,25.5482438 C81.1358181,25.2099782 79.9585837,24.7004818 78.5815824,25.2268294 Z" id="Path" fill="#000000"></path>
            <path d="M43.6960943,29 L43,35 C45.6876202,34.924 48.7020568,33.1748667 49.7026924,30.6666667 C50.1481928,29.5493667 49.9609434,28.1744333 49.9609434,27 C48.8162163,27.0090667 47.5938746,26.9792333 46.5396397,27.4763333 C45.4975865,27.9676333 44.8401254,28.6899667 43.6960943,29 Z" id="Shape" fill="#BEBE00" fill-rule="nonzero"></path>
            <path d="M80.5847179,28.0528163 C76.0130324,27.2884039 73.8497376,35.0614538 78.9269124,35.8598057 C80.0373261,36.0344056 81.5481406,36.128348 82.5787403,35.6311177 C84.4766532,34.7160496 85.740044,31.9114433 84.5158951,30.0553384 C83.8933451,29.1114233 81.7041107,28.2400052 80.5847179,28.0528163 Z" id="Path" fill="#BEBE00"></path>
            <path d="M7,52 L121,52 C119.770959,50.5508776 117.928071,48.1365908 116.181982,47.3919076 C114.46726,46.6609831 111.707314,47.1844971 109.869822,47.1844971 L96.0414201,47.1844971 L32.6331361,47.1844971 L18.1301775,47.1844971 C16.138213,47.1844971 13.2742497,46.6541038 11.3979041,47.3919076 C9.68611657,48.0650462 8.02670828,50.5133854 7,52 Z" id="Shape" fill="#BEBE00" fill-rule="nonzero"></path>
        </g>
    </g>
</svg>