<?xml version="1.0" encoding="UTF-8"?>
<svg width="128px" height="55px" viewBox="0 0 128 55" version="1.1" xmlns="http://www.w3.org/2000/svg" xmlns:xlink="http://www.w3.org/1999/xlink">
    <!-- Generator: Sketch 50.2 (55047) - http://www.bohemiancoding.com/sketch -->
    <title>PauseMenuOptionsButton</title>
    <desc>Created with Sketch.</desc>
    <defs></defs>
    <g id="iPhone" stroke="none" stroke-width="1" fill="none" fill-rule="evenodd">
        <g id="PauseMenuOptionsButton">
            <polygon id="Shape" fill="#000000" fill-rule="nonzero" points="0.335958005 0 0 55 128 54.6646341 128 0"></polygon>
            <path d="M5,4 C6.13671552,5.39235856 8.17083448,7.08729294 10.0431034,7.67563809 C11.9697707,8.28105649 14.7391405,7.85333617 16.7672414,7.85333617 L31.2241379,7.85333617 L97.1206897,7.85333617 L108.215517,7.85333617 C110.447595,7.85333617 113.093543,8.19548279 115.275862,7.76346452 C117.400353,7.3428877 120.604405,5.44586066 122,4 L5,4 Z" id="Shape" fill="#FFFA00" fill-rule="nonzero"></path>
            <path d="M4,5 L4,51 C5.7185537,49.9940438 7.94407068,48.1463212 8.56962635,45.9635036 C9.26486913,43.5372555 8.73659119,40.108073 8.73659119,37.5693431 L8.73659119,19.7737226 C8.73659119,16.940492 9.43467592,12.7027168 8.5579625,10.0378058 C7.90440172,8.05121022 5.40466572,6.33772701 4,5 Z" id="Shape" fill="#FFFA00" fill-rule="nonzero"></path>
            <path d="M125,51 L125,6 C123.101459,6.7218609 119.292235,8.52531203 118.457808,10.4964135 C117.56402,12.6087068 118.254429,16.2403759 118.254429,18.518797 L118.254429,36.7894737 C118.254429,38.7065414 118.272642,40.6246241 118.25308,42.5413534 C118.243299,43.5134211 117.997086,44.6610902 118.372139,45.5861278 C119.283466,47.8340977 122.768565,50.2854135 125,51 Z" id="Shape" fill="#FFFA00" fill-rule="nonzero"></path>
            <polygon id="Shape" fill="#FFFA00" fill-rule="nonzero" points="11 10 11 44 115 44 115 10"></polygon>
            <path d="M54.6481607,21.1630852 C53.4455178,21.1630852 51.6755581,20.8633929 50.695399,21.6992078 C49.8567272,22.4140156 49.5983589,24.2302587 50.9394135,24.591374 C52.0050119,24.8782267 53.5138692,23.9177602 54.6481607,23.8380138 L54.6481607,33.8689961 C54.6502113,34.8680819 54.4619032,37 56.0151888,37 C57.5684745,37 57.3801664,34.8680819 57.3822169,33.8689961 L57.3822169,23.5036478 C58.7485615,23.5036478 64,24.2695467 64,22.1661835 C64,20.0627868 58.7485615,20.8287192 57.3822169,20.8287192 C57.3876851,18.9231 57.7991605,17.0494129 57.7174806,15.1447634 C57.687406,14.4427953 57.6436611,13.5599685 56.93349,13.1671887 C55.8962574,12.5935503 55.1953137,13.6108925 55.0391308,14.482217 C54.6464519,16.6759928 54.6481607,18.9430283 54.6481607,21.1630852 Z" id="Shape" fill="#000000" fill-rule="nonzero"></path>
            <path d="M23.0523851,13.2889436 C19.4438599,13.8563249 14.6665276,17.0554033 13.3901654,20.5076705 C12.7276584,22.299512 13.1094665,24.6539469 13.1094665,26.534381 C13.1094665,28.410496 12.8438534,30.5122443 13.8734941,32.1963081 C14.7717168,33.6653188 16.4390071,34.5502408 17.9094962,35.3805876 C21.3451517,37.3198491 24.5040512,38.4224023 28.5381333,37.8478559 C30.5954602,37.5548908 32.1330469,36.149328 33.6759821,34.9048123 C35.17966,33.6917694 37.3091589,32.2957154 38.1728213,30.5506479 C40.5272359,25.7939327 37.4936171,18.158057 33.6215018,14.9557978 C30.9448681,12.7422875 26.3322111,12.7732581 23.0523851,13.2889436 Z" id="Path" fill="#000000"></path>
            <path d="M24.1851028,16.2653463 C21.2374325,16.9246356 17.9276975,18.5386094 16.5164702,21.2915634 C15.9036364,22.4870717 16.0761543,23.9105849 16.0761543,25.2045365 C16.0761543,26.7221546 15.7417277,28.7003163 16.4745064,30.096071 C18.1922182,33.3680212 24.3076155,35.5785912 27.9017043,34.8661986 C29.5746141,34.5347925 30.721456,33.4926247 31.9561785,32.4345063 C33.4047408,31.1930708 35.2055018,30.0293331 35.7660328,28.1402205 C36.7978965,24.6634573 34.2624986,19.0453737 31.1836998,17.1230879 C29.2479586,15.9144668 26.3850268,15.773293 24.1851028,16.2653463 Z" id="Shape" fill="#FFFA00" fill-rule="nonzero"></path>
            <path d="M65.4940013,18.1404391 C64.3634764,18.780537 65.3754737,20.4996588 66.5059987,19.8595609 C67.6365236,19.219463 66.6245263,17.5003412 65.4940013,18.1404391 Z" id="Path" fill="#000000"></path>
            <path d="M41.8144654,37.7443386 C46.1434118,37.7409337 50.9019209,34.457648 50.9597403,29.5727264 C50.9813001,27.7426598 51.35435,25.1470493 49.3215222,24.3304328 C47.3011077,23.5189236 44.7877577,24.3838547 42.8499891,24.9824934 C42.0320233,25.2351324 41.0530125,25.1362559 40.5029109,25.9366994 C39.957056,26.7309801 39.9194897,27.958186 39.7741243,28.8917587 C39.3726547,31.4706514 39.2011563,34.1123974 39.2011563,36.722887 C39.2011563,38.3514213 38.4965429,42.4556135 39.7247981,43.6609263 C40.5221841,44.4436987 41.4691819,43.7467282 41.7105863,42.8315077 C42.1159759,41.296266 41.8144654,39.3306528 41.8144654,37.7443386 Z" id="Path" fill="#000000"></path>
            <path d="M90.5579066,24.4752276 C86.0839666,25.9055873 87.0988529,30.3805808 87.0988529,34.0952165 C87.0988529,35.2226188 86.6363774,38.3077285 88.4824744,38.3077285 C90.3285713,38.3077285 89.8660959,35.2226188 89.8660959,34.0952165 C89.8660959,30.1416083 90.724633,26.024324 95.7464871,27.1049131 C99.7600271,27.9685735 99.1339383,32.7041062 99.8970056,35.7987558 C100.14502,36.8045254 100.240836,39.391861 101.928162,38.9496222 C102.871446,38.702609 102.983865,37.6174544 102.998739,36.8205387 C103.033675,34.9708357 102.333217,33.1867871 102.071367,31.3695535 C101.826812,29.6711929 101.816089,27.7563125 100.669066,26.3475195 C98.6500167,23.867541 93.4399901,23.5538172 90.5579066,24.4752276 Z" id="Path" fill="#000000"></path>
            <path d="M107.556724,24.2101447 C106.847782,24.4484599 106.222207,24.8931501 105.668001,25.4162513 C105.179162,25.8778092 104.702955,26.4076506 104.407694,27.0376821 C103.333386,29.3299924 104.528009,31.2602913 106.293891,32.4567447 C107.119675,33.0161893 108.754505,33.8708521 108.754505,35.1176375 C108.754505,36.7732439 105.703053,35.8238444 104.911375,36.725486 C104.18538,37.5522731 104.831796,38.5341886 105.680632,38.7844941 C106.926413,39.1523314 108.869767,39.0263319 110.081443,38.5805917 C113.878152,37.1847746 111.216698,32.5101251 109.135344,30.8612251 C108.50977,30.3655593 107.285779,29.8253873 107.034412,28.9635439 C106.43189,26.8986423 110.071969,27.0312127 110.833648,26.1561258 C111.996376,24.8208698 110.119653,24.0151503 109.135344,24.0007891 C108.607664,23.9931004 108.062615,24.0400454 107.556724,24.2101447 Z" id="Path" fill="#000000"></path>
            <path d="M66.9970654,25.1988674 C65.9641682,25.8081377 66.0084714,27.1654756 66.0015094,28.263326 C65.9847375,30.9047866 66.10847,33.5083219 66.3359985,36.1342085 C66.4182759,37.0857656 66.989787,38.5069399 68.1173032,37.8179168 C68.8685588,37.3582258 68.8340656,36.2533243 68.847673,35.4513466 C68.8850142,33.2702273 68.4131853,31.1256985 68.5498922,28.9478994 C68.6087522,28.0069875 69.1932379,26.8391737 68.9340642,25.9180118 C68.6821689,25.0228294 67.7062329,24.7806615 66.9970654,25.1988674 Z" id="Path" fill="#000000"></path>
            <path d="M76.5815824,25.2268294 C72.9396514,26.6187636 70.710673,32.3587718 72.8134828,35.7194406 C74.6185077,38.6046174 79.129374,39.7116928 82.3459947,38.5381526 C86.2365321,37.1182226 88.6910539,30.6605624 85.6039934,27.4160056 C84.1679777,25.9066838 82.3019036,26.0219902 80.4548225,25.5482438 C79.1358181,25.2099782 77.9585837,24.7004818 76.5815824,25.2268294 Z" id="Path" fill="#000000"></path>
            <path d="M41.6960943,29 L41,35 C43.6876202,34.924 46.7020568,33.1748667 47.7026924,30.6666667 C48.1481928,29.5493667 47.9609434,28.1744333 47.9609434,27 C46.8162163,27.0090667 45.5938746,26.9792333 44.5396397,27.4763333 C43.4975865,27.9676333 42.8401254,28.6899667 41.6960943,29 Z" id="Shape" fill="#FFFA00" fill-rule="nonzero"></path>
            <path d="M78.5847179,28.0528163 C74.0130324,27.2884039 71.8497376,35.0614538 76.9269124,35.8598057 C78.0373261,36.0344056 79.5481406,36.128348 80.5787403,35.6311177 C82.4766532,34.7160496 83.740044,31.9114433 82.5158951,30.0553384 C81.8933451,29.1114233 79.7041107,28.2400052 78.5847179,28.0528163 Z" id="Path" fill="#FFFA00"></path>
            <path d="M7,52 L121,52 C119.770959,50.5508776 117.928071,48.1365908 116.181982,47.3919076 C114.46726,46.6609831 111.707314,47.1844971 109.869822,47.1844971 L96.0414201,47.1844971 L32.6331361,47.1844971 L18.1301775,47.1844971 C16.138213,47.1844971 13.2742497,46.6541038 11.3979041,47.3919076 C9.68611657,48.0650462 8.02670828,50.5133854 7,52 Z" id="Shape" fill="#FFFA00" fill-rule="nonzero"></path>
        </g>
    </g>
</svg>