<?xml version="1.0" encoding="UTF-8"?>
<svg width="282px" height="186px" viewBox="0 0 282 186" version="1.1" xmlns="http://www.w3.org/2000/svg" xmlns:xlink="http://www.w3.org/1999/xlink">
    <!-- Generator: Sketch 50.2 (55047) - http://www.bohemiancoding.com/sketch -->
    <title>PauseMenu</title>
    <desc>Created with Sketch.</desc>
    <defs></defs>
    <g id="iPhone" stroke="none" stroke-width="1" fill="none" fill-rule="evenodd">
        <g id="PauseMenu" fill-rule="nonzero">
            <path d="M2.54514639,0.354208972 C-0.96242061,1.70746314 0.215409909,7.40958777 0.215409909,10.3757313 L0.215409909,41.0917499 L0.215409909,148.744082 L0.215409909,175.364631 C0.215409909,178.068519 -0.751521129,182.95061 1.41184741,184.95154 C2.8099304,186.244538 4.86808651,185.895838 6.62156863,185.895838 L18.2691299,185.895838 L65.7329423,185.895838 L219.771941,185.895838 L262.576728,185.895838 L274.515479,185.895838 C276.093723,185.895838 278.309381,186.287833 279.755717,185.550941 C282.954719,183.921237 281.795205,178.339697 281.795205,175.364631 L281.795205,145.23368 L281.795205,36.7037473 L281.795205,10.3757313 C281.795205,7.59967604 282.783209,2.76152281 280.326447,0.8489826 C278.923207,-0.243428214 276.764332,0.137058422 275.097857,0.137058422 L262.576728,0.137058422 L214.239349,0.137058422 L64.8593752,0.137058422 L21.1810203,0.137058422 L8.36870282,0.137058422 C6.61297855,0.137058422 4.20426287,-0.28590408 2.54514639,0.354208972 Z" id="Shape" fill="#000000"></path>
            <path d="M3.79892381,2.30701262 C2.49112575,2.6985205 2.1189885,3.80944385 2.05551774,5.06591076 C1.93783802,7.39559091 2.043818,9.75667176 2.043818,12.0893661 L2.043818,42.5243395 L2.043818,147.583526 L2.043818,173.921484 L2.04404255,180.067007 C2.04906422,181.097992 1.98905788,182.344948 2.77691478,183.135672 C3.85173591,184.214358 5.91694881,183.871379 7.29295059,183.871379 L19.2493082,183.871379 L67.3663569,183.871379 L216.966636,183.871379 L260.12617,183.871379 L272.665765,183.871379 C274.418975,183.871379 276.834451,184.292786 278.482096,183.610048 C279.609201,183.142696 279.887988,182.066644 279.944562,180.944939 C280.062084,178.615201 279.956227,176.254149 279.956227,173.921484 L279.956227,144.071799 L279.956227,37.5493919 L279.956227,11.5040782 C279.956227,9.45770667 280.006094,7.40419464 279.951853,5.35855473 C279.92619,4.38999097 279.838121,3.31429025 279.00001,2.6832123 C277.71164,1.71291901 275.344864,2.13947101 273.832239,2.13947101 L261.292644,2.13947101 L212.009122,2.13947101 L67.6579754,2.13947101 L23.6235853,2.13947101 L10.2091354,2.13947101 C8.22283443,2.13947101 5.71497385,1.73340701 3.79892381,2.30701262 Z" id="Shape" fill="#92F446"></path>
            <path d="M91.1573084,46 C91.7676263,45.9807735 92.5610702,46.0514679 92.9867309,45.5258449 C93.5780625,44.7955338 93.3009237,43.3156849 93.3009237,42.4504924 L93.3009237,34.4641003 C102.076272,36.4822912 108,26.9864709 108,19.6744853 C108,17.0084501 107.871996,14.7568495 106.000619,12.6030971 C103.638968,9.88526868 98.065568,9.240826 94.8323837,10.9290014 C93.5606074,11.5930255 92.8565829,12.7098781 91.9626953,13.7469851 C91.4506775,14.3409952 90.7310352,14.8507932 90.4232733,15.583589 C89.3165553,18.2191872 90.7157236,21.9831442 90.8391346,24.7029544 C91.0893252,30.220664 90.4756387,35.7377819 90.5460718,41.2673232 C90.5665893,42.8820534 91.1217856,44.386453 91.1573084,46 Z" id="Shape" fill="#000000"></path>
            <path d="M190.656283,9.15257776 C189.429762,9.85596734 190.002869,12.4600511 190.002869,13.6014818 C190.002869,16.9900064 190.260827,20.3466117 190.261131,23.7440857 C190.261131,24.8690198 190.537646,26.2069485 190.346611,27.3062278 C190.097169,28.7425995 188.594134,28.4645728 187.523363,28.2187639 C185.077927,27.6576392 182.393697,27.6740464 180.684417,29.7159912 C176.515099,34.6969046 176.999988,42.0204612 183.568808,44.7664221 C184.995794,45.3630458 186.59678,45.5196596 188.131756,45.5175714 C189.230818,45.5160798 191.343158,46.3740248 192.258486,45.8051441 C192.953271,45.3734868 192.971522,44.4445436 192.994337,43.7309816 C193.04818,42.0231461 192.700483,40.3624438 192.695008,38.6596796 C192.670976,31.3790799 193.177768,23.8905568 192.66763,16.5846006 C192.522224,14.5027118 192.319629,12.3997026 192.072926,10.3258085 C191.987751,9.60980038 191.590774,8.61651131 190.656283,9.15257776 Z" id="Shape" fill="#000000"></path>
            <path d="M98.5480986,12.1538981 C92.3479116,13.0718166 94.4528283,20.8046773 94.4460893,25.1600961 C94.4431593,27.0418423 92.7739345,31.2301009 95.9122646,30.9901066 C101.097497,30.5936981 104.868416,24.4541427 104.989718,19.4885893 C105.05828,16.6908648 104.877206,12.8257926 101.478105,12.1092425 C100.543726,11.9122621 99.4830637,12.0154835 98.5480986,12.1538981 Z" id="Shape" fill="#92F446"></path>
            <path d="M163.674453,37.3715484 C165.591739,37.3662731 167.417797,36.8791798 169.320522,36.7968253 C170.838126,36.7311762 172.498961,37.0277696 173.650165,35.8053473 C174.444775,34.9615799 174.553239,33.7681722 174.70806,32.6823236 C174.904186,31.3080876 175.297034,29.5938829 174.616237,28.2905714 C173.31675,25.8038169 168.372577,24.4829208 165.754584,25.1895284 C163.587385,25.7742161 162.602592,28.1844777 161.873358,30.0446346 C161.008023,32.2517941 161,34.1471202 161,36.4923188 C161,40.4761084 161.297161,43.5900467 165.457422,45.455479 C167.35153,46.3045218 170.618226,46.1823089 172.286491,44.9361474 C173.013051,44.3933696 174.048956,43.4628515 173.592813,42.4458759 C172.788991,40.6531266 169.863436,43.0871274 168.726199,43.1779811 C165.578664,43.4294408 163.696443,39.9676205 163.674453,37.3715484 Z" id="Shape" fill="#000000"></path>
            <path d="M147.02206,26.4063098 C143.186751,27.6175431 141.456267,33.631748 144.713075,36.3518149 C146.749946,38.0531959 149.586615,37.4755537 152.04451,37.5222769 C153.313197,37.5463825 154.284064,37.8532085 154.363541,39.3078788 C154.552042,42.7591497 151.017507,43.5707058 148.499338,42.3820901 C147.665563,41.9883649 146.079261,40.8190932 145.257895,41.866944 C144.401664,42.9591371 145.558078,44.2656025 146.436763,44.8173535 C148.237269,45.9473419 151.495849,46.3666608 153.522084,45.6369448 C156.511208,44.5605244 157.071983,41.8103999 157.067551,39.0087905 C157.065483,37.6410194 157.087347,36.2027171 155.853524,35.3194394 C153.858903,33.891553 150.472686,35.3396762 148.203883,34.7132275 C147.026492,34.388248 145.732692,33.2109411 145.951624,31.8663829 C146.590104,27.9392491 151.934896,28.7436627 154.396928,29.9022208 C155.281818,30.3185636 156.456845,31.4815857 157.480303,30.6673512 C158.961422,29.4894491 156.909778,27.6017703 155.885433,27.1223362 C153.556652,26.0319286 149.50241,25.6230258 147.02206,26.4063098 Z" id="Shape" fill="#000000"></path>
            <path d="M115.205028,41.8657812 C116.169681,42.8167061 116.728648,44.1931082 117.880018,44.9546311 C118.931668,45.6499083 120.508552,45.5689081 121.714665,45.4614096 C123.242724,45.3253051 125.947305,42.5065565 124.664848,40.8443951 C123.657584,39.5387553 122.376607,41.8100747 121.684187,42.2855372 C120.18128,43.3174624 118.471535,42.0916184 117.809001,40.6598109 C116.592531,38.0307655 116.684854,35.3577571 116.684558,32.5311795 C116.684558,31.184889 116.918324,29.4311883 115.729373,28.4971259 C114.929243,27.8689975 113.784678,28.0147378 112.837779,28.0144367 C110.096209,28.0132322 107.224737,29.0837002 105.694015,31.6323476 C105.092734,32.6332578 105.145997,33.8115255 105.144221,34.9401089 C105.14067,37.2445511 104.62609,40.3237652 105.562633,42.4680136 C106.033715,43.5469129 106.762828,44.8552627 107.8201,45.4252757 C110.74158,46.9998122 114.844022,45.1840816 115.205028,41.8657812 Z" id="Shape" fill="#000000"></path>
            <path d="M125.661123,28.2449714 C125.031431,28.6281924 124.973098,29.3988926 125.007791,30.0558429 C125.099282,31.7897661 125.256782,33.4795885 125.256782,35.2259816 C125.256782,38.9155487 125.825377,44.5269999 130.476066,45.1988533 C131.445625,45.3390635 132.603078,45.3448423 133.546233,45.0647259 C134.25145,44.8551709 134.935177,44.2861181 135.69535,44.3080164 C137.612055,44.3636747 139.226042,47.0279735 141.430729,45.5583511 C142.095113,45.1155179 142.19121,44.1960915 141.649018,43.6166978 C140.607924,42.5041402 139.102314,42.6619908 138.414904,41.0034952 C137.403591,38.5636545 138.476,35.0629606 138.458193,32.4886883 C138.450211,31.3311174 138.323413,29.5537017 136.64833,29.8660573 C135.349035,30.1081557 135.352412,31.7736465 135.211799,32.792832 C134.876536,35.2244609 135.429474,38.1743506 134.132635,40.3949037 C133.518601,41.4466326 132.405052,42.4664264 131.091327,42.1729277 C129.170631,41.7440851 128.497343,39.9767061 128.279668,38.2674185 C127.955766,35.7250814 128.096072,33.2186332 128.015327,30.6638262 C127.979406,29.5360614 127.297215,27.2495091 125.661123,28.2449714 Z" id="Shape" fill="#000000"></path>
            <path d="M165,33.9520622 C165.937569,33.9438372 166.88205,33.7560338 167.815524,33.8188177 C168.820922,33.8865366 170.126301,34.2281469 171.084603,33.7486313 C172.363618,33.1084547 172.168835,30.0901659 171.317523,29.1629379 C170.986827,28.8026844 170.547606,28.5411304 170.118878,28.3407154 C166.738202,26.76207 165.140264,31.0182164 165,33.9520622 Z" id="Shape" fill="#92F446"></path>
            <path d="M113.612901,30 C111.820097,30.7230817 110.153514,30.2044332 108.733473,32.3585469 C107.720169,33.895498 107.951613,38.6888921 108.279551,40.6237634 C108.425825,41.485924 108.762256,42.3364947 109.391,42.6832262 C111.412416,43.7984332 112.286759,41.7730963 112.834109,39.6582594 C113.581759,36.769474 114.551416,33.05201 113.612901,30 Z" id="Shape" fill="#92F446"></path>
            <path d="M183.645118,30.323505 C182.918701,30.7925344 182.472385,31.7003536 182.041973,32.5196588 C179.964809,36.4741217 181.072134,40.3419606 184.660872,42.2111483 C185.673803,42.738767 187.353387,43.3744294 188.426853,42.7245922 C189.4739,42.0905047 188.766464,39.045121 188.764925,37.874595 C188.762616,36.1739302 189.32128,32.5776181 188.501239,31.1456452 C187.852029,30.0119737 186.430488,29.9981139 185.430382,30.0003188 C184.831446,30.0012638 184.191727,29.9707092 183.645118,30.323505 Z" id="Shape" fill="#92F446"></path>
        </g>
    </g>
</svg>