<?xml version="1.0" encoding="UTF-8"?>
<svg width="175px" height="126px" viewBox="0 0 175 126" version="1.1" xmlns="http://www.w3.org/2000/svg" xmlns:xlink="http://www.w3.org/1999/xlink">
    <!-- Generator: Sketch 50.2 (55047) - http://www.bohemiancoding.com/sketch -->
    <title>RedBasketPreview</title>
    <desc>Created with Sketch.</desc>
    <defs>
        <rect id="path-1" x="0.287671233" y="0.804455446" width="174.464612" height="28.9108911"></rect>
        <path d="M173.481735,15.259901 C173.481735,22.1410891 134.965753,27.7351485 87.5239726,27.7351485 C40.0821918,27.7351485 1.56621005,22.1410891 1.56621005,15.259901 C1.56621005,8.37871287 40.0821918,2.78465347 87.5239726,2.78465347 C134.965753,2.78465347 173.481735,8.37871287 173.481735,15.259901 Z" id="path-3"></path>
    </defs>
    <g id="iPhone" stroke="none" stroke-width="1" fill="none" fill-rule="evenodd">
        <g id="RedBasketPreview">
            <g id="dP2EA4z5B-link" transform="translate(0.799087, 14.851485)" fill="#000000" fill-opacity="0" fill-rule="nonzero" stroke="#000000">
                <polyline id="dP2EA4z5B" points="22.5981735 101.893564 0.399543379 38.1435644 0.399543379 0.99009901"></polyline>
            </g>
            <g id="aaswXEiy-link" transform="translate(151.027397, 14.851485)" fill="#000000" fill-opacity="0" fill-rule="nonzero" stroke="#000000">
                <polyline id="aaswXEiy" points="0.247716895 101.893564 22.4543379 38.1435644 22.4543379 0.99009901"></polyline>
            </g>
            <g id="a6aYk8xIP-link" transform="translate(23.173516, 108.910891)" fill="#111C1B" fill-rule="nonzero">
                <path d="M128.101598,7.83415842 C128.101598,11.5346535 99.4543379,14.529703 64.1666667,14.529703 C28.8789954,14.529703 0.223744292,11.5346535 0.223744292,7.83415842 C0.223744292,4.13366337 28.8789954,1.13861386 64.1666667,1.13861386 C99.4543379,1.13861386 128.101598,4.13366337 128.101598,7.83415842 Z" id="a6aYk8xIP"></path>
            </g>
            <g id="b3tPL9ZsU-link" transform="translate(0.799087, 14.851485)" fill="#111C1B" fill-rule="nonzero">
                <polygon id="b3tPL9ZsU" points="0.399543379 0.99009901 1.14269406 0.99009901 1.14269406 22.3514851 0.399543379 22.3514851"></polygon>
            </g>
            <g id="Group" transform="translate(0.799087, 0.000000)" fill-rule="nonzero">
                <g id="a1Tb9HjoSG-link" fill="#B34141">
                    <path d="M173.018265,15.7673267 C173.018265,23.8118812 134.342466,30.3341584 86.716895,30.3341584 C39.0833333,30.3341584 0.415525114,23.8118812 0.415525114,15.7673267 C0.415525114,7.73514851 39.0833333,1.20049505 86.716895,1.20049505 C134.342466,1.20049505 173.018265,7.73514851 173.018265,15.7673267 Z" id="a1Tb9HjoSG"></path>
                </g>
                <g id="a1Tb9HjoSG-link" fill="#000000" fill-opacity="0" stroke="#8A1212">
                    <path d="M173.018265,15.7673267 C173.018265,23.8118812 134.342466,30.3341584 86.716895,30.3341584 C39.0833333,30.3341584 0.415525114,23.8118812 0.415525114,15.7673267 C0.415525114,7.73514851 39.0833333,1.20049505 86.716895,1.20049505 C134.342466,1.20049505 173.018265,7.73514851 173.018265,15.7673267 Z" id="a1Tb9HjoSG"></path>
                </g>
            </g>
            <g id="Group" transform="translate(0.799087, 14.851485)" fill-rule="nonzero">
                <g id="gyJaw32Fn-link" fill="#8D1C1C">
                    <path d="M0.918949772,3.09405941 L2.75684932,4.61633663 L4.89840183,5.74257426 L7.53538813,6.84405941 L10.5319635,7.93316832 L14.1278539,8.9480198 L20.2968037,10.3465347 L26.5376712,11.4356436 L32.4509132,12.2524752 L37.3333333,12.8465347 L41.3127854,13.2673267 L44.3013699,13.6262376 L48.7123288,14.1336634 L54.1940639,14.4430693 L58.7488584,14.7524752 L61.6655251,14.8638614 L69.0410959,15.1361386 L77.8789954,15.3712871 L84.4714612,15.519802 L91.1598174,15.519802 L100.349315,15.3712871 L107.445205,15.1361386 L115.899543,14.7524752 L121.964612,14.1336634 L130.347032,13.4653465 L134.494292,12.8465347 L139.656393,12.0668317 L143.484018,11.6707921 L148.342466,10.7425743 L151.307078,10.1856436 L154.527397,9.45544554 L157.396119,8.75 L159.913242,8.08168317 L164.31621,6.68316832 L169.606164,4.18316832 L173.042237,1.38613861 L173.042237,38.6014851 L150.931507,101.856436 L149.804795,104.121287 L146.312785,105.210396 L142.613014,106.287129 L138.393836,106.856436 L132.832192,107.834158 L120.957763,108.861386 L105.886986,109.430693 L100.461187,109.641089 L93.3812785,109.789604 L80.6997717,109.789604 L66.6678082,109.430693 L56.4474886,108.861386 L49.2956621,108.403465 L43.4063927,107.834158 C38.1723744,107.289604 35.2477169,106.955446 34.6244292,106.856436 C34.0011416,106.74505 33.1621005,106.608911 32.0993151,106.44802 L29.9977169,105.928218 L28.0399543,105.049505 L24.7796804,104.381188 L23.6449772,103.861386 L21.4554795,102.314356 L0.415525114,36.4480198 L0.415525114,0.99009901 L0.918949772,3.09405941 Z" id="gyJaw32Fn"></path>
                </g>
                <g id="gyJaw32Fn-link" fill="#000000" fill-opacity="0" stroke="#8D1C1C">
                    <path d="M0.918949772,3.09405941 L2.75684932,4.61633663 L4.89840183,5.74257426 L7.53538813,6.84405941 L10.5319635,7.93316832 L14.1278539,8.9480198 L20.2968037,10.3465347 L26.5376712,11.4356436 L32.4509132,12.2524752 L37.3333333,12.8465347 L41.3127854,13.2673267 L44.3013699,13.6262376 L48.7123288,14.1336634 L54.1940639,14.4430693 L58.7488584,14.7524752 L61.6655251,14.8638614 L69.0410959,15.1361386 L77.8789954,15.3712871 L84.4714612,15.519802 L91.1598174,15.519802 L100.349315,15.3712871 L107.445205,15.1361386 L115.899543,14.7524752 L121.964612,14.1336634 L130.347032,13.4653465 L134.494292,12.8465347 L139.656393,12.0668317 L143.484018,11.6707921 L148.342466,10.7425743 L151.307078,10.1856436 L154.527397,9.45544554 L157.396119,8.75 L159.913242,8.08168317 L164.31621,6.68316832 L169.606164,4.18316832 L173.042237,1.38613861 L173.042237,38.6014851 L150.931507,101.856436 L149.804795,104.121287 L146.312785,105.210396 L142.613014,106.287129 L138.393836,106.856436 L132.832192,107.834158 L120.957763,108.861386 L105.886986,109.430693 L100.461187,109.641089 L93.3812785,109.789604 L80.6997717,109.789604 L66.6678082,109.430693 L56.4474886,108.861386 L49.2956621,108.403465 L43.4063927,107.834158 C38.1723744,107.289604 35.2477169,106.955446 34.6244292,106.856436 C34.0011416,106.74505 33.1621005,106.608911 32.0993151,106.44802 L29.9977169,105.928218 L28.0399543,105.049505 L24.7796804,104.381188 L23.6449772,103.861386 L21.4554795,102.314356 L0.415525114,36.4480198 L0.415525114,0.99009901 L0.918949772,3.09405941 Z" id="gyJaw32Fn"></path>
                </g>
            </g>
            <g id="Group" transform="translate(0.000000, 35.891089)">
                <g id="ddtJhLe8D-link" transform="translate(0.799087, 2.475248)" fill="#111C1B" fill-opacity="0" fill-rule="nonzero">
                    <path d="M172.682648,12.7846535 C172.682648,19.6658416 134.166667,25.259901 86.7248858,25.259901 C39.283105,25.259901 0.767123288,19.6658416 0.767123288,12.7846535 C0.767123288,5.90346535 39.283105,0.309405941 86.7248858,0.309405941 C134.166667,0.309405941 172.682648,5.90346535 172.682648,12.7846535 Z" id="ddtJhLe8D"></path>
                </g>
                <g id="Clipped">
                    <mask id="mask-2" fill="white">
                        <use xlink:href="#path-1"></use>
                    </mask>
                    <g id="Rectangle-path"></g>
                    <g id="ddtJhLe8D-link" mask="url(#mask-2)" fill="#000000" fill-opacity="0" fill-rule="nonzero" stroke="#8D1C1C" stroke-width="1.6">
                        <g transform="translate(0.799087, 2.475248)" id="ddtJhLe8D">
                            <path d="M172.682648,12.7846535 C172.682648,19.6658416 134.166667,25.259901 86.7248858,25.259901 C39.283105,25.259901 0.767123288,19.6658416 0.767123288,12.7846535 C0.767123288,5.90346535 39.283105,0.309405941 86.7248858,0.309405941 C134.166667,0.309405941 172.682648,5.90346535 172.682648,12.7846535 Z"></path>
                        </g>
                    </g>
                    <mask id="mask-4" fill="white">
                        <use xlink:href="#path-3"></use>
                    </mask>
                    <g id="ddtJhLe8D"></g>
                </g>
            </g>
        </g>
    </g>
</svg>