<?xml version="1.0" encoding="UTF-8"?>
<svg width="101px" height="83px" viewBox="0 0 101 83" version="1.1" xmlns="http://www.w3.org/2000/svg" xmlns:xlink="http://www.w3.org/1999/xlink">
    <!-- Generator: Sketch 50.2 (55047) - http://www.bohemiancoding.com/sketch -->
    <title>RedBasket</title>
    <desc>Created with Sketch.</desc>
    <defs>
        <rect id="path-1" x="0.164383562" y="0.52" width="99.6940639" height="18.688"></rect>
        <path d="M99.1324201,9.864 C99.1324201,14.312 77.1232877,17.928 50.0136986,17.928 C22.9041096,17.928 0.894977169,14.312 0.894977169,9.864 C0.894977169,5.416 22.9041096,1.8 50.0136986,1.8 C77.1232877,1.8 99.1324201,5.416 99.1324201,9.864 Z" id="path-3"></path>
    </defs>
    <g id="iPhone" stroke="none" stroke-width="1" fill="none" fill-rule="evenodd">
        <g id="RedBasket" transform="translate(1.000000, 0.000000)">
            <g id="dP2EA4z5B-link" transform="translate(0.000000, 10.000000)" fill="#000000" fill-opacity="0" fill-rule="nonzero" stroke="#000000">
                <polyline id="dP2EA4z5B" points="12.6772414 66.4591566 0.224137931 24.8787952 0.224137931 0.645783133"></polyline>
            </g>
            <g id="aaswXEiy-link" transform="translate(86.000000, 10.000000)" fill="#000000" fill-opacity="0" fill-rule="nonzero" stroke="#000000">
                <polyline id="aaswXEiy" points="0.138965517 66.4591566 12.5965517 24.8787952 12.5965517 0.645783133"></polyline>
            </g>
            <g id="a6aYk8xIP-link" transform="translate(13.000000, 71.000000)" fill="#111C1B" fill-rule="nonzero">
                <path d="M73.6828571,5.275 C73.6828571,7.76666667 57.2052174,9.78333333 36.9080745,9.78333333 C16.6109317,9.78333333 0.128695652,7.76666667 0.128695652,5.275 C0.128695652,2.78333333 16.6109317,0.766666667 36.9080745,0.766666667 C57.2052174,0.766666667 73.6828571,2.78333333 73.6828571,5.275 Z" id="a6aYk8xIP"></path>
            </g>
            <g id="b3tPL9ZsU-link" transform="translate(0.000000, 10.000000)" fill="#111C1B" fill-rule="nonzero">
                <polygon id="b3tPL9ZsU" points="0.25 0.631578947 0.715 0.631578947 0.715 14.2578947 0.25 14.2578947"></polygon>
            </g>
            <g id="Group" fill-rule="nonzero">
                <g id="a1Tb9HjoSG-link" fill="#B34141">
                    <path d="M98.7810138,10.192 C98.7810138,15.392 76.6999078,19.608 49.5091244,19.608 C22.3137788,19.608 0.237235023,15.392 0.237235023,10.192 C0.237235023,5 22.3137788,0.776 49.5091244,0.776 C76.6999078,0.776 98.7810138,5 98.7810138,10.192 Z" id="a1Tb9HjoSG"></path>
                </g>
                <g id="a1Tb9HjoSG-link" fill="#000000" fill-opacity="0" stroke="#8A1212">
                    <path d="M98.7810138,10.192 C98.7810138,15.392 76.6999078,19.608 49.5091244,19.608 C22.3137788,19.608 0.237235023,15.392 0.237235023,10.192 C0.237235023,5 22.3137788,0.776 49.5091244,0.776 C76.6999078,0.776 98.7810138,5 98.7810138,10.192 Z" id="a1Tb9HjoSG"></path>
                </g>
            </g>
            <g id="Group" transform="translate(0.000000, 10.000000)" fill-rule="nonzero">
                <g id="gyJaw32Fn-link" fill="#8D1C1C">
                    <path d="M0.524654378,2.02247191 L1.57396313,3.01752809 L2.79663594,3.75370787 L4.3021659,4.47370787 L6.01299539,5.18561798 L8.06599078,5.84898876 L11.5880184,6.76314607 L15.151106,7.47505618 L18.5271429,8.00898876 L21.3146544,8.39730337 L23.5866359,8.67235955 L25.2929032,8.90696629 L27.8112442,9.23865169 L30.9409217,9.44089888 L33.5413825,9.64314607 L35.2065899,9.71595506 L39.4175115,9.89393258 L44.463318,10.0476404 L48.2271429,10.1447191 L52.0457143,10.1447191 L57.2922581,10.0476404 L61.3435023,9.89393258 L66.1703226,9.64314607 L69.6330415,9.23865169 L74.4188018,8.80179775 L76.7865899,8.39730337 L79.7337788,7.88764045 L81.9190783,7.62876404 L84.6929032,7.02202247 L86.3854839,6.65797753 L88.2240553,6.18067416 L89.8618894,5.71955056 L91.2989862,5.28269663 L93.812765,4.36853933 L96.8329493,2.73438202 L98.7947005,0.906067416 L98.7947005,25.2323596 L86.1710599,66.5797753 L85.527788,68.0602247 L83.5341014,68.7721348 L81.4217972,69.4759551 L79.0129493,69.8480899 L75.8376498,70.487191 L69.0582028,71.1586517 L60.453871,71.5307865 L57.356129,71.6683146 L53.3140092,71.7653933 L46.0737788,71.7653933 L38.0625346,71.5307865 L32.2274654,71.1586517 L28.1442857,70.8593258 L24.7819355,70.487191 C21.7936866,70.131236 20.1239171,69.912809 19.7680645,69.8480899 C19.412212,69.7752809 18.9331797,69.6862921 18.3264055,69.5811236 L17.1265438,69.2413483 L16.0088018,68.6669663 L14.1474194,68.2301124 L13.4995853,67.8903371 L12.2495392,66.8791011 L0.237235023,23.8247191 L0.237235023,0.647191011 L0.524654378,2.02247191 Z" id="gyJaw32Fn"></path>
                </g>
                <g id="gyJaw32Fn-link" fill="#000000" fill-opacity="0" stroke="#8D1C1C">
                    <path d="M0.524654378,2.02247191 L1.57396313,3.01752809 L2.79663594,3.75370787 L4.3021659,4.47370787 L6.01299539,5.18561798 L8.06599078,5.84898876 L11.5880184,6.76314607 L15.151106,7.47505618 L18.5271429,8.00898876 L21.3146544,8.39730337 L23.5866359,8.67235955 L25.2929032,8.90696629 L27.8112442,9.23865169 L30.9409217,9.44089888 L33.5413825,9.64314607 L35.2065899,9.71595506 L39.4175115,9.89393258 L44.463318,10.0476404 L48.2271429,10.1447191 L52.0457143,10.1447191 L57.2922581,10.0476404 L61.3435023,9.89393258 L66.1703226,9.64314607 L69.6330415,9.23865169 L74.4188018,8.80179775 L76.7865899,8.39730337 L79.7337788,7.88764045 L81.9190783,7.62876404 L84.6929032,7.02202247 L86.3854839,6.65797753 L88.2240553,6.18067416 L89.8618894,5.71955056 L91.2989862,5.28269663 L93.812765,4.36853933 L96.8329493,2.73438202 L98.7947005,0.906067416 L98.7947005,25.2323596 L86.1710599,66.5797753 L85.527788,68.0602247 L83.5341014,68.7721348 L81.4217972,69.4759551 L79.0129493,69.8480899 L75.8376498,70.487191 L69.0582028,71.1586517 L60.453871,71.5307865 L57.356129,71.6683146 L53.3140092,71.7653933 L46.0737788,71.7653933 L38.0625346,71.5307865 L32.2274654,71.1586517 L28.1442857,70.8593258 L24.7819355,70.487191 C21.7936866,70.131236 20.1239171,69.912809 19.7680645,69.8480899 C19.412212,69.7752809 18.9331797,69.6862921 18.3264055,69.5811236 L17.1265438,69.2413483 L16.0088018,68.6669663 L14.1474194,68.2301124 L13.4995853,67.8903371 L12.2495392,66.8791011 L0.237235023,23.8247191 L0.237235023,0.647191011 L0.524654378,2.02247191 Z" id="gyJaw32Fn"></path>
                </g>
            </g>
            <g id="Group" transform="translate(0.000000, 24.000000)">
                <g id="ddtJhLe8D-link" transform="translate(0.456621, 1.600000)" fill="#111C1B" fill-opacity="0" fill-rule="nonzero">
                    <path d="M98.6757991,8.264 C98.6757991,12.712 76.6666667,16.328 49.5570776,16.328 C22.4474886,16.328 0.438356164,12.712 0.438356164,8.264 C0.438356164,3.816 22.4474886,0.2 49.5570776,0.2 C76.6666667,0.2 98.6757991,3.816 98.6757991,8.264 Z" id="ddtJhLe8D"></path>
                </g>
                <g id="Clipped">
                    <mask id="mask-2" fill="white">
                        <use xlink:href="#path-1"></use>
                    </mask>
                    <g id="Rectangle-path"></g>
                    <g id="ddtJhLe8D-link" mask="url(#mask-2)" fill="#000000" fill-opacity="0" fill-rule="nonzero" stroke="#8D1C1C" stroke-width="1.6">
                        <g transform="translate(0.456621, 1.600000)" id="ddtJhLe8D">
                            <path d="M98.6757991,8.264 C98.6757991,12.712 76.6666667,16.328 49.5570776,16.328 C22.4474886,16.328 0.438356164,12.712 0.438356164,8.264 C0.438356164,3.816 22.4474886,0.2 49.5570776,0.2 C76.6666667,0.2 98.6757991,3.816 98.6757991,8.264 Z"></path>
                        </g>
                    </g>
                    <mask id="mask-4" fill="white">
                        <use xlink:href="#path-3"></use>
                    </mask>
                    <g id="ddtJhLe8D"></g>
                </g>
            </g>
        </g>
    </g>
</svg>