<?xml version="1.0" encoding="UTF-8"?>
<svg width="38px" height="58px" viewBox="0 0 38 58" version="1.1" xmlns="http://www.w3.org/2000/svg" xmlns:xlink="http://www.w3.org/1999/xlink">
    <!-- Generator: Sketch 50.2 (55047) - http://www.bohemiancoding.com/sketch -->
    <title>Ruby</title>
    <desc>Created with Sketch.</desc>
    <defs></defs>
    <g id="iPhone" stroke="none" stroke-width="1" fill="none" fill-rule="evenodd">
        <g id="Ruby" transform="translate(2.000000, 2.000000)" fill-rule="nonzero">
            <g id="Group">
                <g id="b7l34A6H8-link">
                    <g fill="#E53D39">
                        <polyline id="b7l34A6H8" points="17.0652516 53.813662 0.346698113 43.4585915 0.346698113 12.3971831 17.0652516 0.216760563"></polyline>
                    </g>
                    <g fill="#000000" fill-opacity="0" stroke="#A12E2B" stroke-width="4">
                        <polyline id="b7l34A6H8" points="17.0652516 53.813662 0.346698113 43.4585915 0.346698113 12.3971831 17.0652516 0.216760563"></polyline>
                    </g>
                </g>
                <g transform="translate(16.692872, 0.000000)" id="d66hJpFz8h-link">
                    <g fill="#E53D39">
                        <polyline id="d66hJpFz8h" points="0.0385220126 53.813662 16.7570755 43.4585915 16.7570755 12.3971831 0.0385220126 0.216760563"></polyline>
                    </g>
                    <g fill="#000000" fill-opacity="0" stroke="#A12E2B" stroke-width="4">
                        <polyline id="d66hJpFz8h" points="0.0385220126 53.813662 16.7570755 43.4585915 16.7570755 12.3971831 0.0385220126 0.216760563"></polyline>
                    </g>
                </g>
            </g>
            <g id="b2ml1u69D-link" transform="translate(17.000000, 13.000000)" fill="#000000" fill-opacity="0" stroke="#A12E2B" stroke-width="4">
                <polyline id="b2ml1u69D" points="0.185 0.156190476 0.185 2.73142857 0.185 5.10857143 0.185 7.28761905 0.185 9.46666667 0.185 11.6457143 0.185 14.2209524 0.185 16.6019048 0.185 18.9790476 0.185 21.1580952 0.185 23.5352381 0.42 27.2990476 0.42 29.6761905 0.185 31.8552381"></polyline>
            </g>
        </g>
    </g>
</svg>