<?xml version="1.0" encoding="UTF-8"?>
<svg width="84px" height="104px" viewBox="0 0 84 104" version="1.1" xmlns="http://www.w3.org/2000/svg" xmlns:xlink="http://www.w3.org/1999/xlink">
    <!-- Generator: Sketch 50.2 (55047) - http://www.bohemiancoding.com/sketch -->
    <title>ShopBombButton</title>
    <desc>Created with Sketch.</desc>
    <defs></defs>
    <g id="iPhone" stroke="none" stroke-width="1" fill="none" fill-rule="evenodd">
        <g id="ShopBombButton" transform="translate(2.000000, 2.000000)" fill-rule="nonzero">
            <rect id="rect17325" stroke="#000000" stroke-width="3" fill="#FAFFD9" x="0" y="0" width="79.987344" height="99.6791062"></rect>
            <g id="Bomb" transform="translate(17.000000, 21.000000)">
                <path d="M25.0371791,0 C24.9132269,1.03242 24.9922305,1.37032 27,2 L27,0 L25.0371791,0 Z" id="Shape" fill="#FF4319"></path>
                <path d="M25.6491528,0 L25.6491528,1.71428571 C24.3788399,1.85074286 23.7354048,1.98001714 23,3 C23.9970087,2.85946286 24.7106463,2.70914571 25.6491528,3 C26.1169491,1.91385429 26.1169491,1.08613714 25.6491528,0 Z M23.8830509,0.428571429 L23.8830509,1.28571429 L24.7661019,1.28571429 L24.7661019,0.428571429 L23.8830509,0.428571429 Z" id="Shape" fill="#FFFA00"></path>
                <polygon id="Shape" fill="#FF4319" points="27 1 27 1.76697408 29 1.76697408 29 1"></polygon>
                <path d="M26.9640088,3.02776257 C29.9385288,3.07376207 30.5070805,5.31980457 32.7750615,6.70269107 C36.0831833,8.71974244 39.8039154,6.6835605 41.4555631,11.1880849 C41.753353,12.0002729 41.9572208,13.0070306 41.4224057,13.7817734 C40.0447536,15.7774276 37.2989575,12.923119 35.651557,12.7754237 C32.5071472,12.4934971 30.943485,15.6395242 30.3424998,17.9876886 C22.0571851,15.0681004 12.0024581,16.9700057 5.81156649,23.0152665 C-2.70490456,31.3313534 -1.80479735,45.5894322 8.14098775,52.5491979 C10.6049212,54.2736693 13.3663067,55.5842495 16.3458944,56.3041393 C28.9545192,59.3491643 42.5328191,52.1416532 44.6098671,39.7475811 C45.3563688,35.2929685 43.9743729,31.6498185 42.5522696,27.5076416 C41.2299282,23.6559593 47.9744097,20.9077755 43.3671133,17.3542038 C42.7689756,16.8928487 42.1588202,16.8170064 41.4432558,16.6276954 C43.1550406,13.7049338 43.6994603,9.14437767 39.944702,7.18888867 C38.1751932,6.26731189 36.0171097,6.95111651 34.2107271,6.05696626 C32.0705979,4.99762217 29.3968602,-0.162953934 26.9640088,3.02776257 Z" id="Shape" fill="#000000"></path>
                <path d="M24,2.60204629 L26,2.21855925 C24.8145333,1.85215656 24.6524,1.92471614 24,2.60204629 Z" id="Shape" fill="#FF0C00"></path>
                <polygon id="Shape" fill="#FF4319" points="25 3 25 3.76697408 27 3.76697408 27 3"></polygon>
                <path d="M27.0454334,3.05228284 C26.9772969,3.07893724 26.9090377,3.58563004 27.4547431,3.37228924 C27.5228795,3.34561084 27.5911388,2.83896124 27.0454334,3.05228284 Z" id="Shape" fill="#FF0C00"></path>
                <path d="M23,4.0703831 C24.37915,4.62084807 25.47165,4.63809348 27,4.45387014 C25.6441,3.93079765 24.50175,3.9499605 23,4.0703831 Z" id="Shape" fill="#FF6816"></path>
                <path d="M18.3163194,47.0864375 C18.7553113,45.6974572 18.8003524,44.4229919 18.8043051,42.9754065 L19.7802765,42.9754065 C19.7756407,44.553677 19.6836553,46.0047796 19.2922908,47.5432188 L22.2202051,48 L22.2202051,42.9754065 L23.1961765,42.9754065 L23.1961765,48 L26.1240907,47.5432188 C25.8193436,46.0070635 25.649915,44.5384205 25.636105,42.9754065 L26.6120764,42.9754065 C26.6267648,44.5328934 26.6377445,45.784611 27.5880478,47.0864375 C28.2855258,44.8777176 27.5215842,42.3801292 28.368581,40.2527163 C29.1964975,38.1732197 31.3335821,37.081741 31.8138577,34.7533443 C32.4604387,31.6187745 31.4404022,27.4395917 28.4740347,25.5528568 C24.9395054,23.304808 15.7551752,23.4744565 12.5647735,26.212997 C10.4015816,28.0698584 9.7637355,31.2104121 10.0736552,33.8397819 C10.4720468,37.2201457 14.1824461,37.9652929 15.7212602,40.698215 C17.0520948,43.0617381 15.5549547,45.5008585 18.3163194,47.0864375 Z" id="Shape" fill="#FFFFFF"></path>
                <path d="M18.0990197,29.4194251 C15.9357431,30.7683138 17.1503457,36.5570084 20.1347791,34.827424 C22.6854956,33.3492094 21.3660487,27.3823344 18.0990197,29.4194251 Z M25.4553519,29.4393355 C23.1966353,30.5417399 22.8953241,36.2322188 26.2291146,35.0859837 C28.8365365,34.1894591 28.5530097,27.9274759 25.4553519,29.4393355 Z M21.2103185,37.234656 L20.7447573,40 C21.9297502,39.2466742 22.0387381,38.6203238 22.1414409,37.234656 L21.2103185,37.234656 Z M23.0725632,37.234656 C23.1163725,38.2508738 23.2383961,39.0294103 23.5381244,40 C24.3203603,38.9533634 24.3096524,38.5058385 24.0036856,37.234656 L23.0725632,37.234656 Z" id="Shape" fill="#000000"></path>
            </g>
        </g>
    </g>
</svg>