<?xml version="1.0" encoding="UTF-8"?>
<svg width="89px" height="38px" viewBox="0 0 89 38" version="1.1" xmlns="http://www.w3.org/2000/svg" xmlns:xlink="http://www.w3.org/1999/xlink">
    <!-- Generator: Sketch 50.2 (55047) - http://www.bohemiancoding.com/sketch -->
    <title>ShopSelectedButton</title>
    <desc>Created with Sketch.</desc>
    <defs></defs>
    <g id="iPhone" stroke="none" stroke-width="1" fill="none" fill-rule="evenodd">
        <g id="ShopSelectedButton">
            <polygon id="Shape" fill="#000000" fill-rule="nonzero" points="0.233595801 0 0 38 89 37.7682927 89 0"></polygon>
            <path d="M5,3 C5.77724138,4.04426892 7.16809195,5.31546971 8.44827586,5.75672857 C9.76565517,6.21079237 11.6592414,5.89000213 13.045977,5.89000213 L22.9310345,5.89000213 L67.9885057,5.89000213 L75.5747126,5.89000213 C77.1009195,5.89000213 78.9101149,6.14661209 80.4022989,5.82259839 C81.8549425,5.50716577 84.0457471,4.08439549 85,3 L5,3 Z" id="Shape" fill="#FFFA00" fill-rule="nonzero"></path>
            <path d="M3,3 L3,34 C4.37484296,33.322073 6.15525654,32.0768686 6.65570108,30.6058394 C7.2118953,28.9707591 6.78927296,26.6597883 6.78927296,24.9489051 L6.78927296,12.9562044 C6.78927296,11.0468533 7.34774074,8.19096131 6.64637,6.39504307 C6.12352138,5.05625036 4.12373258,3.90151168 3,3 Z" id="Shape" fill="#FFFA00" fill-rule="nonzero"></path>
            <path d="M87,35 L87,4 C85.6438994,4.49728195 82.9230252,5.7396594 82.3270059,7.09752932 C81.6885858,8.55266466 82.1817352,11.0544812 82.1817352,12.6240602 L82.1817352,25.2105263 C82.1817352,26.5311729 82.1947445,27.8525188 82.1807716,29.1729323 C82.1737851,29.8425789 81.9979184,30.6331955 82.2658139,31.2704436 C82.9167615,32.8190451 85.406118,34.5077293 87,35 Z" id="Shape" fill="#FFFA00" fill-rule="nonzero"></path>
            <polygon id="Shape" fill="#FFFA00" fill-rule="nonzero" points="8 7 8 30 80 30 80 7"></polygon>
            <path d="M5,35 L84,35 C83.1482959,34.1305265 81.8712071,32.6819545 80.6611982,32.2351446 C79.472926,31.7965899 77.5603314,32.1106982 76.2869822,32.1106982 L66.704142,32.1106982 L22.7633136,32.1106982 L12.7130178,32.1106982 C11.3326213,32.1106982 9.34794497,31.7924623 8.04767041,32.2351446 C6.86143166,32.6390277 5.71149083,34.1080313 5,35 Z" id="Shape" fill="#FFFA00" fill-rule="nonzero"></path>
            <path d="M19.2008365,13.6956321 C17.225788,13.8832953 15.0632825,13.398069 13.2756911,14.2586217 C10.836341,15.4329334 10.483654,18.9724305 13.521426,19.6391159 C15.6114865,20.0978115 18.062001,18.3153573 19.9343735,19.3512026 C24.3968222,21.8199453 15.4441722,28.4015483 11.5665498,23.598382" id="Path-28" stroke="#000000" stroke-width="2" transform="translate(16.248229, 19.502263) rotate(9.000000) translate(-16.248229, -19.502263) "></path>
            <path d="M23,20.8017869 C32.3582613,20.0888575 27.5628435,16.0839802 26.3880242,17.1927847 C20.069633,23.1561362 24.1324842,25.8203238 28.7711026,23.2747236" id="Path-30" stroke="#000000" stroke-width="2"></path>
            <path d="M31,11 C31.3154209,15.613031 31.6308418,20.226062 31.9462628,24.839093" id="Path-31" stroke="#000000" stroke-width="2"></path>
            <path d="M49.1839186,19.5803856 C40.4721333,14.8370308 42.6973222,26.9627906 48.7761188,22.8568947" id="Path-15" stroke="#000000" stroke-width="2" transform="translate(46.298367, 21.090884) rotate(-10.000000) translate(-46.298367, -21.090884) "></path>
            <path d="M54,14 C54.4137284,17.5545982 54.8274569,21.1091964 55.2411853,24.6637946" id="Path-36" stroke="#000000" stroke-width="2"></path>
            <path d="M51,19.8637399 C53.6253437,19.5758266 56.2506874,19.2879133 58.8760311,19" id="Path-37" stroke="#000000" stroke-width="2"></path>
            <path d="M35,20.8017869 C44.3582613,20.0888575 39.5628435,16.0839802 38.3880242,17.1927847 C32.069633,23.1561362 36.1324842,25.8203238 40.7711026,23.2747236" id="Path-30" stroke="#000000" stroke-width="2"></path>
            <path d="M61,20.8017869 C70.3582613,20.0888575 65.5628435,16.0839802 64.3880242,17.1927847 C58.069633,23.1561362 62.1324842,25.8203238 66.7711026,23.2747236" id="Path-30" stroke="#000000" stroke-width="2"></path>
            <path d="M75.5557416,20.461155 C64.4833977,14.8033416 72.8448495,31.1973698 76.0288729,21.6256451 C77.2527712,17.9463953 76.2935576,13.875215 76.4258999,10" id="Path-16" stroke="#000000" stroke-width="2"></path>
        </g>
    </g>
</svg>