<?xml version="1.0" encoding="UTF-8"?>
<svg width="89px" height="38px" viewBox="0 0 89 38" version="1.1" xmlns="http://www.w3.org/2000/svg" xmlns:xlink="http://www.w3.org/1999/xlink">
    <!-- Generator: Sketch 50.2 (55047) - http://www.bohemiancoding.com/sketch -->
    <title>ShopBuyButtonPushed</title>
    <desc>Created with Sketch.</desc>
    <defs></defs>
    <g id="iPhone" stroke="none" stroke-width="1" fill="none" fill-rule="evenodd">
        <g id="ShopBuyButtonPushed">
            <polygon id="Shape" fill="#000000" fill-rule="nonzero" points="0.233595801 0 0 38 89 37.7682927 89 0"></polygon>
            <path d="M5,3 C5.77724138,4.04426892 7.16809195,5.31546971 8.44827586,5.75672857 C9.76565517,6.21079237 11.6592414,5.89000213 13.045977,5.89000213 L22.9310345,5.89000213 L67.9885057,5.89000213 L75.5747126,5.89000213 C77.1009195,5.89000213 78.9101149,6.14661209 80.4022989,5.82259839 C81.8549425,5.50716577 84.0457471,4.08439549 85,3 L5,3 Z" id="Shape" fill="#BEBE00" fill-rule="nonzero"></path>
            <path d="M3,3 L3,34 C4.37484296,33.322073 6.15525654,32.0768686 6.65570108,30.6058394 C7.2118953,28.9707591 6.78927296,26.6597883 6.78927296,24.9489051 L6.78927296,12.9562044 C6.78927296,11.0468533 7.34774074,8.19096131 6.64637,6.39504307 C6.12352138,5.05625036 4.12373258,3.90151168 3,3 Z" id="Shape" fill="#BEBE00" fill-rule="nonzero"></path>
            <path d="M87,35 L87,4 C85.6438994,4.49728195 82.9230252,5.7396594 82.3270059,7.09752932 C81.6885858,8.55266466 82.1817352,11.0544812 82.1817352,12.6240602 L82.1817352,25.2105263 C82.1817352,26.5311729 82.1947445,27.8525188 82.1807716,29.1729323 C82.1737851,29.8425789 81.9979184,30.6331955 82.2658139,31.2704436 C82.9167615,32.8190451 85.406118,34.5077293 87,35 Z" id="Shape" fill="#BEBE00" fill-rule="nonzero"></path>
            <polygon id="Shape" fill="#BEBE00" fill-rule="nonzero" points="8 7 8 30 80 30 80 7"></polygon>
            <path d="M5,35 L84,35 C83.1482959,34.1305265 81.8712071,32.6819545 80.6611982,32.2351446 C79.472926,31.7965899 77.5603314,32.1106982 76.2869822,32.1106982 L66.704142,32.1106982 L22.7633136,32.1106982 L12.7130178,32.1106982 C11.3326213,32.1106982 9.34794497,31.7924623 8.04767041,32.2351446 C6.86143166,32.6390277 5.71149083,34.1080313 5,35 Z" id="Shape" fill="#BEBE00" fill-rule="nonzero"></path>
            <path d="M32.2726555,10 C32.1212947,13.3110797 31.7587518,16.6190767 31.8185729,19.933239 C31.853963,21.8938943 30.8738784,24.8441194 32.5572526,25.7670178 C36.1266137,27.7238955 44.6443425,16.7325198 36.7486955,15.9616082 C34.9122622,15.7823033 33.1038948,16.5884775 31.2632617,16.7143155 C29.9283908,16.8055761 34.0445513,16.7092384 35.2267956,16.0656554 C36.3366019,15.4615058 37.3182373,14.3994954 37.7453634,13.1856285 C37.9687619,12.5507434 37.450704,11.7009727 36.8805819,11.365694 C35.6333779,10.6322355 34.1032545,10.6066448 32.7145907,10.2271202 L32.2726555,10 Z" id="Path-9" stroke="#000000" stroke-width="2"></path>
            <path d="M43.0698131,16.1842656 C43.0435324,18.9410523 42.1036202,27.1828608 48.0072298,24.4536296 C48.685842,24.139908 49.4433534,23.6564397 49.6486746,22.9573393 C50.278954,20.8112945 49.9292955,18.4884782 50.4005225,16.3046824 C50.73059,14.7750587 49.9612052,19.4229874 50.0750039,20.9816117 C50.163492,22.1935731 50.691668,23.3374203 51,24.5153246" id="Path-7" stroke="#000000" stroke-width="2"></path>
            <path d="M55,16.0989937 C55.2391768,19.8460661 56.123833,26.4555973 61.7025671,20.0297221 C62.5817725,19.0170077 63.2896215,14.9822922 62.8814736,16.2408197 C60.2279791,24.4228916 62.5689694,19.3905546 56.037366,29" id="Path-8" stroke="#000000" stroke-width="2"></path>
        </g>
    </g>
</svg>