<?xml version="1.0" encoding="UTF-8"?>
<svg width="84px" height="104px" viewBox="0 0 84 104" version="1.1" xmlns="http://www.w3.org/2000/svg" xmlns:xlink="http://www.w3.org/1999/xlink">
    <!-- Generator: Sketch 50.2 (55047) - http://www.bohemiancoding.com/sketch -->
    <title>ShopBasketButton</title>
    <desc>Created with Sketch.</desc>
    <defs>
        <rect id="path-1" x="0.0761289164" y="0.278350515" width="53.328306" height="11.814433"></rect>
        <path d="M52.7954035,6.18556701 C52.7954035,8.76030928 41.1210342,10.8479381 26.7402819,10.8479381 C12.3595296,10.8479381 0.685160248,8.76030928 0.685160248,6.18556701 C0.685160248,3.60309278 12.3595296,1.51546392 26.7402819,1.51546392 C41.1210342,1.51546392 52.7954035,3.60309278 52.7954035,6.18556701 Z" id="path-3"></path>
    </defs>
    <g id="iPhone" stroke="none" stroke-width="1" fill="none" fill-rule="evenodd">
        <g id="ShopBasketButton" transform="translate(2.000000, 2.000000)">
            <rect id="rect17325" stroke="#000000" stroke-width="3" fill="#FAFFD9" fill-rule="nonzero" x="0" y="0" width="80" height="99.6195589"></rect>
            <g id="Basket" transform="translate(13.000000, 27.000000)">
                <g id="dJnG98J2C-link" transform="translate(1.012658, 5.154639)" fill="#000000" fill-opacity="0" fill-rule="nonzero" stroke="#000000">
                    <polyline id="dJnG98J2C" points="6.78267821 37.9536082 0.186542305 14.4109278 0.186542305 0.686597938"></polyline>
                </g>
                <g id="h13iWIuB5f-link" transform="translate(45.569620, 5.154639)" fill="#000000" fill-opacity="0" fill-rule="nonzero" stroke="#000000">
                    <polyline id="h13iWIuB5f" points="0.00675105485 37.9536082 5.97468354 14.4109278 5.97468354 0.686597938"></polyline>
                </g>
                <g id="e1Aphjr8k-link" transform="translate(7.088608, 40.206186)" fill="#111C1B" fill-rule="nonzero">
                    <path d="M39.1179059,2.76141384 C39.1179059,4.07952872 30.3679489,5.14727541 19.593462,5.14727541 C8.81897505,5.14727541 0.0690180656,4.07952872 0.0690180656,2.76141384 C0.0690180656,1.44329897 8.81897505,0.375552283 19.593462,0.375552283 C30.3679489,0.375552283 39.1179059,1.44329897 39.1179059,2.76141384 Z" id="e1Aphjr8k"></path>
                </g>
                <g id="d1KZIKF6BF-link" transform="translate(1.012658, 5.154639)" fill="#111C1B" fill-rule="nonzero">
                    <polygon id="d1KZIKF6BF" points="0.126582278 0.695876289 0.278481013 0.695876289 0.278481013 8.69072165 0.126582278 8.69072165"></polygon>
                </g>
                <g id="Group" transform="translate(1.012658, 0.000000)" fill-rule="nonzero">
                    <g id="e50hJzQWWt-link" fill="#7E7325">
                        <path d="M52.4574447,6.51546392 C52.4574447,9.72371134 40.7059466,12.3298969 26.2344049,12.3298969 C11.7628631,12.3298969 0.0113650851,9.72371134 0.0113650851,6.51546392 C0.0113650851,3.30721649 11.7628631,0.701030928 26.2344049,0.701030928 C40.7059466,0.701030928 52.4574447,3.30721649 52.4574447,6.51546392 Z" id="e50hJzQWWt"></path>
                    </g>
                    <g id="e50hJzQWWt-link" fill="#000000" fill-opacity="0" stroke="#5D5803">
                        <path d="M52.4574447,6.51546392 C52.4574447,9.72371134 40.7059466,12.3298969 26.2344049,12.3298969 C11.7628631,12.3298969 0.0113650851,9.72371134 0.0113650851,6.51546392 C0.0113650851,3.30721649 11.7628631,0.701030928 26.2344049,0.701030928 C40.7059466,0.701030928 52.4574447,3.30721649 52.4574447,6.51546392 Z" id="e50hJzQWWt"></path>
                    </g>
                </g>
                <g id="Group" transform="translate(1.012658, 5.154639)" fill-rule="nonzero">
                    <g id="d5iVicNDYl-link" fill="#5D5803">
                        <path d="M0.193206448,1.47384498 L0.753883981,2.03894616 L1.40169383,2.4589538 L2.20482652,2.86368843 L3.11403333,3.27605956 L4.20886987,3.65024819 L6.08032055,4.16953036 L7.97828977,4.58190149 L9.77397323,4.87972509 L11.2552227,5.10118366 L12.46371,5.26155021 L13.3729169,5.39137075 L14.7102085,5.58228331 L16.3770877,5.69683085 L17.7636281,5.81137839 L18.6501047,5.8571974 L20.8890265,5.95647194 L23.5711866,6.04047346 L25.5752299,6.10156548 L27.6095802,6.10156548 L30.3978144,6.04047346 L32.5533922,5.95647194 L35.1256898,5.81137839 L36.9668336,5.58228331 L39.5126127,5.33027873 L40.7741371,5.10118366 L42.3425189,4.81099656 L43.5017576,4.66590302 L44.9792187,4.3146239 L45.8808487,4.11607484 L46.8582461,3.84116075 L47.7295693,3.57388316 L48.4948183,3.32951508 L49.83211,2.81023291 L51.4383754,1.87857961 L52.4839632,0.832378771 L52.4839632,14.6926308 L45.7671979,38.2359679 L45.422457,39.0836197 L44.3617157,39.4883543 L43.2403606,39.8854525 L41.956106,40.0992745 L40.270285,40.4658267 L36.6599763,40.8476518 L32.0836354,41.0614738 L30.435698,41.1378389 L28.2839086,41.1912944 L24.4311447,41.1912944 L20.1654494,41.0614738 L17.0627812,40.8476518 L14.8920499,40.6720122 L13.1001548,40.4658267 C11.5128313,40.2596411 10.6225663,40.137457 10.4331482,40.0992745 C10.2437301,40.061092 9.98990984,40.0076365 9.66411074,39.9465445 L9.02766597,39.7556319 L8.43289318,39.4272623 L7.44034241,39.1752577 L7.09938986,38.9843452 L6.43263819,38.4116075 L0.0378836172,13.890798 L0.0378836172,0.687285223 L0.193206448,1.47384498 Z" id="d5iVicNDYl"></path>
                    </g>
                    <g id="d5iVicNDYl-link" fill="#000000" fill-opacity="0" stroke="#5D5803">
                        <path d="M0.193206448,1.47384498 L0.753883981,2.03894616 L1.40169383,2.4589538 L2.20482652,2.86368843 L3.11403333,3.27605956 L4.20886987,3.65024819 L6.08032055,4.16953036 L7.97828977,4.58190149 L9.77397323,4.87972509 L11.2552227,5.10118366 L12.46371,5.26155021 L13.3729169,5.39137075 L14.7102085,5.58228331 L16.3770877,5.69683085 L17.7636281,5.81137839 L18.6501047,5.8571974 L20.8890265,5.95647194 L23.5711866,6.04047346 L25.5752299,6.10156548 L27.6095802,6.10156548 L30.3978144,6.04047346 L32.5533922,5.95647194 L35.1256898,5.81137839 L36.9668336,5.58228331 L39.5126127,5.33027873 L40.7741371,5.10118366 L42.3425189,4.81099656 L43.5017576,4.66590302 L44.9792187,4.3146239 L45.8808487,4.11607484 L46.8582461,3.84116075 L47.7295693,3.57388316 L48.4948183,3.32951508 L49.83211,2.81023291 L51.4383754,1.87857961 L52.4839632,0.832378771 L52.4839632,14.6926308 L45.7671979,38.2359679 L45.422457,39.0836197 L44.3617157,39.4883543 L43.2403606,39.8854525 L41.956106,40.0992745 L40.270285,40.4658267 L36.6599763,40.8476518 L32.0836354,41.0614738 L30.435698,41.1378389 L28.2839086,41.1912944 L24.4311447,41.1912944 L20.1654494,41.0614738 L17.0627812,40.8476518 L14.8920499,40.6720122 L13.1001548,40.4658267 C11.5128313,40.2596411 10.6225663,40.137457 10.4331482,40.0992745 C10.2437301,40.061092 9.98990984,40.0076365 9.66411074,39.9465445 L9.02766597,39.7556319 L8.43289318,39.4272623 L7.44034241,39.1752577 L7.09938986,38.9843452 L6.43263819,38.4116075 L0.0378836172,13.890798 L0.0378836172,0.687285223 L0.193206448,1.47384498 Z" id="d5iVicNDYl"></path>
                    </g>
                </g>
                <g id="Group" transform="translate(0.000000, 13.402062)">
                    <g id="czXxzPVt5-link" transform="translate(0.380645, 0.773196)" fill="#111C1B" fill-opacity="0" fill-rule="nonzero">
                        <path d="M52.414759,5.41237113 C52.414759,7.9871134 40.7403896,10.0747423 26.3596373,10.0747423 C11.978885,10.0747423 0.304515666,7.9871134 0.304515666,5.41237113 C0.304515666,2.82989691 11.978885,0.742268041 26.3596373,0.742268041 C40.7403896,0.742268041 52.414759,2.82989691 52.414759,5.41237113 Z" id="czXxzPVt5"></path>
                    </g>
                    <g id="Clipped">
                        <mask id="mask-2" fill="white">
                            <use xlink:href="#path-1"></use>
                        </mask>
                        <g id="Rectangle-path"></g>
                        <g id="czXxzPVt5-link" mask="url(#mask-2)" fill="#000000" fill-opacity="0" fill-rule="nonzero" stroke="#5D5803" stroke-width="1.6">
                            <g transform="translate(0.380645, 0.773196)" id="czXxzPVt5">
                                <path d="M52.414759,5.41237113 C52.414759,7.9871134 40.7403896,10.0747423 26.3596373,10.0747423 C11.978885,10.0747423 0.304515666,7.9871134 0.304515666,5.41237113 C0.304515666,2.82989691 11.978885,0.742268041 26.3596373,0.742268041 C40.7403896,0.742268041 52.414759,2.82989691 52.414759,5.41237113 Z"></path>
                            </g>
                        </g>
                        <mask id="mask-4" fill="white">
                            <use xlink:href="#path-3"></use>
                        </mask>
                        <g id="czXxzPVt5"></g>
                    </g>
                </g>
            </g>
        </g>
    </g>
</svg>