<?xml version="1.0" encoding="UTF-8"?>
<svg width="84px" height="104px" viewBox="0 0 84 104" version="1.1" xmlns="http://www.w3.org/2000/svg" xmlns:xlink="http://www.w3.org/1999/xlink">
    <!-- Generator: Sketch 50.2 (55047) - http://www.bohemiancoding.com/sketch -->
    <title>ShopBackgroundButtonSelected</title>
    <desc>Created with Sketch.</desc>
    <defs></defs>
    <g id="iPhone" stroke="none" stroke-width="1" fill="none" fill-rule="evenodd">
        <g id="ShopBackgroundButtonSelected" transform="translate(2.000000, 2.000000)" fill-rule="nonzero">
            <rect id="rect17325" stroke="#1C47F3" stroke-width="4" fill="#D9FEFF" x="0" y="0" width="79.987344" height="99.6791062"></rect>
            <g id="Background" transform="translate(18.000000, 13.000000)">
                <path d="M0.0255018389,0 L0.0255018389,33.9105008 L0.0255018389,42.5967476 L0.0255018389,44.7967577 C0.0255018389,45.0080346 -0.0634048243,45.4487952 0.0907876818,45.6191063 C0.169546415,45.7063481 0.284040129,45.6953481 0.39195599,45.7181068 C0.65437788,45.7734864 0.849612436,45.8190038 1.12486429,45.8209004 C1.38772186,45.8224176 1.60336791,45.9430389 1.8577726,45.9912115 C2.07621999,46.0321772 2.29261523,45.9995564 2.50924664,46.0617635 C2.79228769,46.142557 3.07230752,46.2487644 3.36430633,46.2995922 C3.55227695,46.3325924 3.74896511,46.2893508 3.93434612,46.3382821 C4.09141244,46.3796271 4.2257586,46.4740758 4.38223453,46.5176967 C4.67910311,46.5996281 4.98240499,46.6148006 5.27801134,46.6842147 C5.5674694,46.7524909 5.84080348,46.881457 6.13307103,46.9391124 C6.34765029,46.9815954 6.57000653,46.9356986 6.78454507,46.9785609 C7.02807422,47.0267335 7.23919253,47.1579755 7.47673625,47.2228379 C7.77364555,47.3040106 8.10687452,47.2903554 8.41323019,47.3544591 C8.77394323,47.4295629 9.11116248,47.5884947 9.47187552,47.6598054 C9.75302729,47.7155643 10.0443991,47.6537364 10.3269352,47.7132884 C10.9985642,47.8543925 11.6413248,48.0607383 12.3220745,48.1802216 C12.5251308,48.2154976 12.730508,48.1950147 12.9328314,48.2280149 C13.3426493,48.2955324 13.7443645,48.4116019 14.1543452,48.4836712 C14.3435984,48.5166714 14.5361497,48.5033955 14.724385,48.5394301 C14.9560248,48.5834303 15.1822898,48.6611893 15.4165762,48.6922929 C15.5785489,48.7139137 15.7427204,48.6949481 15.9051817,48.7101206 C16.3340552,48.7499483 16.7839388,48.8364315 17.2081298,48.9107767 C18.1907156,49.0833637 19.1487081,49.3898478 20.139763,49.5218484 C20.7434352,49.6022626 21.3655929,49.6018833 21.9720338,49.6584008 C22.3151977,49.690263 22.646798,49.803298 22.989962,49.8351602 C23.2196473,49.8564017 23.4532415,49.8226429 23.6821532,49.8529879 C23.9850479,49.893195 24.2781298,49.9959885 24.57793,50.0521267 C24.9599381,50.1238167 25.337223,50.1105408 25.7180096,50.1613686 C26.0994069,50.2121964 26.4771804,50.3278866 26.8580891,50.3661971 C27.7510972,50.4553355 28.6495206,50.3942662 29.5454196,50.4519217 C30.1192868,50.4887149 30.686965,50.61275 31.255539,50.6696468 C31.4852243,50.6924055 31.7182891,50.6594054 31.9477301,50.6870952 C32.1526187,50.7117505 32.3518883,50.7728197 32.5584871,50.7864749 C32.8830433,50.8077164 33.210694,50.7781301 33.5356981,50.791406 C33.7283309,50.7993715 33.9131052,50.8562684 34.1057379,50.8642339 C34.9996825,50.9010272 35.8984723,50.8460269 36.7930684,50.8661305 C37.1348886,50.874096 37.4691763,50.9711999 37.8109966,50.9791655 C39.8712425,51.0258209 41.938899,50.9795448 44,50.9795448 L44,0 L0.0255018389,0 Z" id="Shape" fill="#49ABE3"></path>
                <path d="M0,46 L0,46.5114491 C0.200285148,46.512379 0.339796926,46.5918861 0.52962963,46.6369867 C0.74269963,46.6876666 0.968427778,46.6142039 1.18148148,46.6648839 C1.37625074,46.7109143 1.55147667,46.8313373 1.75185185,46.8685336 C1.91396741,46.8982907 2.07933815,46.8685336 2.24074074,46.9075897 C2.57259037,46.9880267 2.88340963,47.166104 3.21851852,47.2377069 C3.40659815,47.2781579 3.60340037,47.2251532 3.78888889,47.2851322 C3.9460463,47.3358122 4.08047037,47.4515856 4.23703704,47.5050553 C4.53407778,47.6054853 4.83755556,47.6240835 5.13333333,47.70917 C5.42295926,47.7928617 5.69645185,47.950946 5.98888889,48.021619 C6.20359259,48.0736938 6.42607778,48.0174344 6.64074074,48.0699742 C6.91187037,48.1359976 7.14368519,48.3275585 7.41481481,48.393582 C7.72318148,48.4689045 8.04071481,48.463325 8.35185185,48.5525962 C8.69391111,48.6502365 9.02248519,48.8478418 9.37037037,48.9138652 C9.62634444,48.9626854 9.88855185,48.9003816 10.1444444,48.9603606 C10.5201556,49.0477719 10.8709741,49.2323586 11.2444444,49.3276741 C11.5920037,49.4169452 11.9504815,49.5141205 12.3037037,49.5666603 C12.4662593,49.5908379 12.6306481,49.5689851 12.7925926,49.6015319 C13.216663,49.6870833 13.6302222,49.8381933 14.0555556,49.9237448 C15.0559037,50.1236749 16.067537,50.2227101 17.0703704,50.4384486 C17.891663,50.6151311 18.6955593,50.9052622 19.5148148,51.0935685 C20.2775222,51.268856 21.0663852,51.2669962 21.837037,51.3548725 C22.1804,51.3939286 22.5121926,51.5324848 22.8555556,51.5715409 C23.0853741,51.5975784 23.3191037,51.5561975 23.5481481,51.5933938 C23.8511778,51.6426789 24.1444704,51.7686813 24.4444444,51.8374945 C24.8266741,51.9253708 25.2041778,51.9090974 25.5851852,51.9714012 C25.9668037,52.033705 26.3447963,52.1755159 26.7259259,52.2224762 C27.6194519,52.3317403 28.5183963,52.2568828 29.4148148,52.3275558 C29.9890148,52.3726563 30.5570222,52.5246962 31.1259259,52.5944392 C31.3557444,52.6223365 31.5889444,52.5818855 31.8185185,52.6158271 C32.0235259,52.6460491 32.2229111,52.7209066 32.4296296,52.737645 C32.7543741,52.7636824 33.0822148,52.727416 33.4074074,52.7436894 C33.6001519,52.7534534 33.7850333,52.8231965 33.9777778,52.8329605 C34.8722407,52.878061 35.7715519,52.8106427 36.6666667,52.8352853 C37.0086852,52.8450493 37.3431667,52.9640775 37.6851852,52.9738415 C39.7872852,53.0324257 41.8973704,52.9743065 44,52.9743065 L44,52.6023434 C41.9515556,52.6023434 39.8960222,52.6590678 37.8481481,52.6018785 C37.5061296,52.5921145 37.1716481,52.4730863 36.8296296,52.4633223 C35.9345148,52.4386797 35.0352037,52.506098 34.1407407,52.4609975 C33.9479963,52.4512335 33.7631148,52.3814904 33.5703704,52.3717264 C33.2451778,52.355453 32.917337,52.3917194 32.5925926,52.365682 C32.3858741,52.3489436 32.1864889,52.2740861 31.9814815,52.2438641 C31.7519074,52.2099225 31.5187074,52.2503734 31.2888889,52.2224762 C30.7199852,52.1527332 30.1519778,52.0006933 29.5777778,51.9555928 C28.6813593,51.8849198 27.7824148,51.9597773 26.8888889,51.8505132 C26.5077593,51.8035529 26.1297667,51.661742 25.7481481,51.5994382 C25.3671407,51.5371344 24.989637,51.5534077 24.6074074,51.4655315 C24.3074333,51.3967183 24.0141815,51.2707159 23.7111111,51.2214308 C23.4820667,51.1842345 23.248337,51.2256153 23.0185185,51.1995779 C22.6751556,51.1605218 22.343363,51.0219656 22,50.9829095 C21.3932074,50.9136314 20.7706889,50.9140963 20.1666667,50.8155261 C19.175037,50.6537222 18.2164889,50.2780396 17.2333333,50.0664856 C16.8088963,49.9753547 16.3587519,49.8693452 15.9296296,49.8205251 C15.7670741,49.8019269 15.6028074,49.8251746 15.4407407,49.7986722 C15.2063185,49.760546 14.9799222,49.6652305 14.7481481,49.6112959 C14.5598037,49.5671253 14.3671407,49.5833987 14.1777778,49.5429477 C13.7675593,49.4546065 13.3656111,49.3123306 12.9555556,49.2295688 C12.7531148,49.1891179 12.5476185,49.2142254 12.3444444,49.1709847 C11.6633,49.0245242 11.0201667,48.7715894 10.3481481,48.5986266 C10.0654481,48.5256288 9.77390741,48.6014163 9.49259259,48.5330681 C9.13167037,48.4456568 8.79425556,48.2508412 8.43333333,48.1587803 C8.1268,48.0802031 7.79337778,48.0969415 7.4962963,47.9974414 C7.25861481,47.9179343 7.04737407,47.7570603 6.8037037,47.6980111 C6.58904074,47.6454714 6.36655556,47.7017308 6.15185185,47.649656 C5.85941481,47.578983 5.58592222,47.4208987 5.2962963,47.337207 C5.00051852,47.2521205 4.69704074,47.2335223 4.4,47.1330923 C4.23023333,47.0754381 4.08527778,46.9443211 3.91111111,46.9015453 C3.73732333,46.8587696 3.55618185,46.9034052 3.38148148,46.8657439 C3.06001667,46.7969308 2.76008741,46.6379166 2.44444444,46.5467856 C2.25651556,46.492386 2.06298889,46.5309772 1.87407407,46.4877365 C1.69034556,46.4454257 1.52495444,46.3356966 1.34444444,46.2929209 C1.15937963,46.2487503 0.961526296,46.2933858 0.774074074,46.2761825 C0.533935926,46.2543297 0.210575852,46.1320469 0,46 Z" id="Shape" fill="#010101"></path>
                <path d="M0,46 L0,73 L44,73 L44,51.3083451 C41.9108148,51.3083451 39.8144593,51.3557001 37.7259259,51.3079632 C37.3839074,51.2999434 37.0494259,51.2021782 36.7074074,51.1941584 C35.8122926,51.173918 34.9129815,51.2292928 34.0185185,51.1922489 C33.8257741,51.1842291 33.6408926,51.1269448 33.4481481,51.118925 C33.1229556,51.1055587 32.7951148,51.1353465 32.4703704,51.1139604 C32.2636519,51.1002122 32.0642667,51.038727 31.8592593,51.0139038 C31.6296852,50.9860255 31.3964852,51.0192504 31.1666667,50.9963366 C30.597763,50.9390523 30.0297556,50.8141726 29.4555556,50.7771287 C28.559137,50.7190806 27.6601926,50.7805658 26.7666667,50.6908204 C26.385537,50.6522489 26.0075444,50.5357709 25.6259259,50.4845969 C25.2449185,50.4334229 24.8674148,50.4467893 24.4851852,50.374611 C24.1852111,50.3180905 23.8919593,50.2145969 23.5888889,50.174116 C23.3598444,50.1435644 23.1261148,50.177553 22.8962963,50.1561669 C22.5529333,50.1240877 22.2211407,50.0102829 21.8777778,49.9782037 C21.1071259,49.9060255 20.318263,49.907553 19.5555556,49.7635785 C18.7363,49.6092928 17.9324037,49.3706082 17.1111111,49.225488 C16.1082778,49.0482885 15.0966444,48.9669448 14.0962963,48.8027298 C13.670963,48.7324611 13.2574037,48.6083451 12.8333333,48.5380764 C12.6713889,48.5113437 12.507,48.5292928 12.3444444,48.5094342 C11.9912222,48.4662801 11.6327444,48.3864639 11.2851852,48.31314 C10.9117148,48.2348515 10.5608963,48.083239 10.1851852,48.0114427 C9.92929259,47.9621782 9.66708519,48.0133522 9.41111111,47.9732532 C9.06322593,47.919024 8.73465185,47.7567185 8.39259259,47.6765205 C8.08145556,47.6031966 7.76392222,47.6077793 7.45555556,47.5459123 C7.18442593,47.4916832 6.95261111,47.3343423 6.68148148,47.2801132 C6.46681852,47.236959 6.24433333,47.2831683 6.02962963,47.240396 C5.73719259,47.1823479 5.4637,47.0525035 5.17407407,46.9837624 C4.8782963,46.9138755 4.57481852,46.8985997 4.27777778,46.8161103 C4.12121111,46.7721924 3.98678704,46.6771004 3.82962963,46.6354738 C3.64414111,46.5862093 3.44733889,46.6297454 3.25925926,46.5965205 C2.92415037,46.5377086 2.61333111,46.3914427 2.28148148,46.3253748 C2.12007889,46.2932956 1.95470815,46.3177369 1.79259259,46.2932956 C1.59221741,46.262744 1.41699148,46.1638331 1.22222222,46.1260255 C1.02279222,46.0870721 0.812174815,46.1348091 0.611111111,46.1092221 C0.394860074,46.0813437 0.227002926,46 0,46 Z" id="Shape" fill="#51D961"></path>
                <path d="M6.50305003,53.0151184 C6.06538374,53.1051204 5.67447541,53.272633 5.27262011,53.427334 C5.15805889,53.4715343 4.9287243,53.5618566 5.02164618,53.6867704 C5.1161804,53.813606 5.35803186,53.7268069 5.48472809,53.687411 C5.65351495,53.6348831 5.83918898,53.5881205 5.99388906,53.5147737 C6.1746412,53.4286152 6.41751099,53.2719924 6.65461028,53.3251609 C6.79670862,53.3571901 6.90278382,53.4737763 7.00389471,53.5490449 C7.15617627,53.6621079 7.35071819,53.7761318 7.56380205,53.8123248 C7.98127162,53.8831093 8.55764184,53.8273785 8.96399473,53.7376968 C9.22235149,53.6806849 9.45537749,53.558974 9.72773618,53.5397564 C9.99725206,53.5208592 10.3579502,53.5038838 10.6187679,53.5621769 C10.9359752,53.6329614 11.2143589,53.7975914 11.5522297,53.8216133 C11.7919172,53.8382685 12.088164,53.8475569 12.3159711,53.7841391 C12.5318554,53.7242446 12.7241485,53.5942061 12.9524223,53.5628175 C13.1855332,53.5311086 13.4294637,53.7399389 13.6313036,53.8161683 C13.7163335,53.8481975 13.8199902,53.8949601 13.9148214,53.8542831 C14.0297221,53.8049581 14.0165688,53.6803646 13.9451165,53.6115018 C13.8558012,53.5256636 13.7035621,53.5128519 13.58951,53.4539182 C13.4449931,53.3789699 13.3538533,53.2354792 13.1639363,53.2226675 C12.7086615,53.1925601 12.3317127,53.538155 11.8916703,53.5650595 C11.4038941,53.5951669 10.9820542,53.2848041 10.4914776,53.28032 C10.1513157,53.2774374 9.76473521,53.2447676 9.43072562,53.2966549 C8.931663,53.3744858 8.51860617,53.563458 7.98810286,53.5679421 C7.61637292,53.571145 7.40023409,53.3914613 7.13996797,53.2162617 C6.93855238,53.0807782 6.79170187,52.9558644 6.50305003,53.0151184 Z" id="Shape" fill="#3FA94D"></path>
                <path d="M19.3453372,57.2652747 C19.217362,56.7564962 18.9022793,57.1061506 18.7026691,57.2741731 C18.5928741,57.3662976 18.4642785,57.2815012 18.3531495,57.3793835 C18.2412759,57.4777892 18.22353,57.6604679 18.1484512,57.8101702 C18.0946241,57.9169509 17.999938,57.9944192 18,58.1551137 C18.0000931,58.5267523 18.3932949,58.5419319 18.5387057,58.6403376 C18.6664637,58.7272278 18.7807882,58.8868753 18.9109972,58.9549218 C19.1911465,59.1014835 19.4235494,58.8622739 19.65558,58.6440016 C19.7506384,58.5544943 19.9024092,58.5037212 19.9649542,58.3425033 C20.0658762,58.0828797 19.92,57.9070056 19.8875796,57.6793116 C19.8660798,57.5285624 19.937839,57.3767663 19.8909923,57.2296812 C19.7976712,56.9360343 19.4715439,57.1888533 19.3453372,57.2652747 Z" id="Shape" fill="#6973CD"></path>
                <path d="M19.2212138,57.0128357 C19.0611777,57.0695894 18.8979265,57.5852034 19.0804986,57.8182561 C19.1625299,57.9227071 19.3408652,57.8430104 19.4313701,57.8073883 C19.5926982,57.7427856 19.6692307,57.3738862 19.5344951,57.1323808 C19.4630407,57.004383 19.3117186,56.9808362 19.2212138,57.0128357 Z" id="Shape" fill="#4755CD"></path>
                <path d="M18.7503507,58.0397924 C18.7514495,58.4946191 18.7664069,58.8977158 18.7149066,59.3529405 C18.5442075,59.2757433 18.269728,59.0986673 18.088183,59.2347572 C17.9582448,59.3318505 17.9914914,59.6243244 18.0628405,59.7508642 C18.2176605,60.0254315 18.4468424,60.0851201 18.7149066,60.1089955 C18.683574,60.3437704 18.5546281,60.5821267 18.5797935,60.8244622 C18.5909584,60.9322996 18.6694317,61.0461057 18.7751971,60.9808463 C18.8778079,60.9179743 18.8829119,60.737317 18.9122951,60.6262963 C19.020258,60.2180266 18.9984598,59.8165216 18.9984598,59.3927329 C19.3584661,59.5630442 19.8990604,59.235553 19.9787034,58.7958474 C20.0061017,58.6446364 20.0221934,58.3776296 19.9291525,58.2514878 C19.8004902,58.0767993 19.4887943,58.1997577 19.3529014,58.3044116 C19.2474905,58.385986 19.1594826,58.4958129 19.0693481,58.5968855 C19.0693127,58.3947403 19.0480108,58.2009515 19.033904,58 L18.7503507,58.0397924 Z" id="Shape" fill="#399745"></path>
                <path d="M27.6163263,60.4554564 C27.7211148,60.6633456 27.8833847,60.655735 28.0970073,60.655735 C28.4854377,60.655735 29.0587699,60.7586783 29.3788234,60.4955121 C29.5559143,60.7138158 29.6664309,60.9565536 29.9397781,61.0755191 C30.1609715,61.1716529 30.4248253,61.1364038 30.6606394,61.1364038 C30.9891448,61.1364038 31.3355556,61.1680479 31.6620582,61.1311966 C32.0188837,61.0911409 32.3780326,60.9445369 32.7435905,61.0386679 C32.8766991,61.0727152 32.9859739,61.1532273 33.1041012,61.2193192 C33.277547,61.3158535 33.5893487,61.4576508 33.7848657,61.4824854 C33.8953823,61.4965049 34.0266483,61.4292113 33.9952839,61.2994307 C33.9619967,61.161639 33.7844251,61.0771214 33.6648958,61.0322589 C33.3207682,60.9024784 32.9965088,60.6965919 32.6234202,60.6957908 C31.8705936,60.6945891 31.0471871,60.9709737 30.3001287,60.7975323 C30.1352951,60.7594794 29.9867647,60.6725584 29.8870634,60.5347667 C29.8019428,60.4170029 29.7620063,60.2583822 29.6153986,60.1990997 C29.3794643,60.1041676 29.1228607,60.2507716 28.8981424,60.3052474 C28.6643311,60.3621265 28.3366268,60.3681349 28.0985696,60.3292808 C27.8944403,60.2960345 27.8472535,60.0036277 27.65422,60.0000227 C27.553277,59.9984204 27.455859,60.0821369 27.3759858,60.1342094 C27.1755018,60.2643905 26.9853123,60.3869611 26.7751746,60.5007193 C26.6906148,60.5463829 26.5518983,60.5968531 26.52486,60.7005975 C26.495258,60.8143557 26.6006874,60.8752405 26.6957821,60.8900611 C26.8995508,60.9217051 27.0194807,60.8175602 27.1792671,60.714617 C27.3213484,60.6232899 27.4701592,60.5403745 27.6163263,60.4554564 Z M5.38498959,65.3730989 C5.13964199,65.4564148 4.94588748,65.7179787 4.7772085,65.9030362 C4.56198358,66.139365 4.31872694,66.352061 4.1073715,66.5907932 C4.02036823,66.6889297 3.90087894,66.9973589 4.14384317,66.9989611 C4.29961186,67.0001628 4.49364676,66.7666378 4.59495028,66.6656974 C4.83977715,66.4209569 5.0370967,66.1421689 5.30471586,65.9194591 C5.39380207,65.845356 5.47671955,65.734001 5.58871823,65.6939453 C5.81756245,65.6126321 6.20507146,65.8729944 6.4263049,65.9458959 C6.9478438,66.1173344 7.47907643,66.1573901 8.02857495,66.1429701 C8.33849403,66.1345584 8.60282853,65.8113086 8.90982347,65.8765994 C9.308989,65.9615176 9.46809442,66.4830432 9.91124226,66.5387207 C10.199731,66.5747709 10.6311021,66.5976026 10.912661,66.5239001 C11.1677825,66.4574076 11.4785828,66.219076 11.7538528,66.3075991 C12.0121387,66.3909151 12.2211949,66.6869269 12.4348176,66.8487521 C12.5241842,66.9164463 12.6599766,67.0494313 12.7825502,66.980936 C12.9170208,66.9060318 12.848043,66.7233777 12.7723758,66.6344539 C12.7003137,66.5495358 12.5976082,66.4922561 12.514891,66.4185535 C12.3249419,66.2491178 12.1431644,65.9875538 11.8740231,65.9486998 C11.2352781,65.8569721 10.7170239,66.3372404 10.0714693,66.212667 C9.66601483,66.1341578 9.51624263,65.6510856 9.14860177,65.5553524 C8.95733078,65.5052828 8.65354038,65.5201034 8.46919921,65.5865959 C8.24764532,65.6671079 8.07223681,65.8173169 7.82829119,65.8221236 C7.29437475,65.8325381 6.80904715,65.6747185 6.30613464,65.520504 C5.99257039,65.4243702 5.73083958,65.255335 5.38498959,65.3730989 Z" id="Shape" fill="#3FA94D"></path>
                <path d="M38.1301512,65.2793824 C37.9768953,65.2060374 37.8285377,65.1053917 37.6591744,65.0613847 C37.1441613,64.9277337 36.9971224,65.3286866 37.0000424,65.6868549 C37.0030567,66.0560249 37.0815214,66.4960952 37.3895402,66.7748063 C37.7850665,67.1325671 38.4799927,67.0506652 38.7463772,66.6240415 C38.8521115,66.454533 38.9167295,66.2426473 38.9560089,66.0535801 C39.0060738,65.8131714 39.0204386,65.4790439 38.9617077,65.2394501 C38.86252,64.8340151 38.2835483,65.0096357 38.1301512,65.2793824 Z" id="Shape" fill="#BD250B"></path>
                <path d="M37.8682549,65.2550304 C37.6951903,65.2019841 37.4487403,65.0433552 37.2579383,65.0887506 C36.9513436,65.1616893 36.9894415,65.6232943 37.020357,65.8160973 C37.0781285,66.1751801 37.1666906,66.5582358 37.5075111,66.8219372 C38.0308894,67.2274355 38.6179724,66.8734533 38.8047772,66.4281703 C38.8879057,66.2297566 38.9679738,66.0262423 38.9868354,65.8160973 C39.0111307,65.545255 39.0069462,65.2642115 38.9300008,65 C38.4219866,65.0759991 38.1269461,65.4376322 37.9678716,65.8160973 C37.9259639,65.9155591 37.925714,66.1624286 37.8229745,66.2282264 C37.7280419,66.2889237 37.6331718,66.1797706 37.6032556,66.1180533 C37.5299951,65.9670753 37.613186,65.8038558 37.6818248,65.663079 C37.74834,65.5263828 37.81879,65.3963172 37.8682549,65.2550304 Z" id="Shape" fill="#E12D0D"></path>
                <path d="M10.610952,66.3144448 C10.4680841,66.3144448 10.2357005,66.2763874 10.1227638,66.3703089 C9.89470715,66.5602469 10.0569072,66.7962728 10.043331,67.0127463 C10.0365032,67.1216814 9.96882061,67.2781009 10.0563118,67.3758631 C10.1181193,67.4446458 10.2452674,67.4306798 10.3330761,67.4317272 C10.3330761,67.5689435 10.3101712,67.7288545 10.4022275,67.8486132 C10.5943191,68.098256 11.0249473,68.0134124 11.1667037,67.780878 C11.3532377,67.8199829 11.5874871,67.8489624 11.7584204,67.750851 C12.033319,67.593384 12.0906805,67.1604371 11.841545,66.9778312 C11.9508296,66.8322354 12.0429256,66.5469792 11.8295169,66.4254747 C11.7324589,66.3703089 11.5942355,66.3846241 11.484276,66.3842749 C11.4294551,65.951328 10.6728389,65.8259829 10.610952,66.3144448 Z" id="Shape" fill="#FFF701"></path>
                <path d="M37.6916513,68.030514 L37.8509036,68.3661675 C37.6492371,68.3445025 37.3618929,68.3005625 37.1729135,68.3670829 C36.8868433,68.4674738 36.9934893,68.7384377 37.2196806,68.8373029 C37.413066,68.9218266 37.6740274,68.9151135 37.9039877,68.9154186 C37.9042531,69.1360345 38.0177469,69.3377318 38.0542156,69.5562117 C38.0725827,69.6660619 38.0391928,69.788728 38.1332048,69.8900343 C38.2210059,69.9846276 38.5323972,70.0676255 38.6080951,69.917802 C38.6502969,69.8341938 38.5299553,69.7264795 38.4879127,69.6477535 C38.8703836,69.6129676 38.8677294,69.4335456 38.9500628,69.2510721 C38.9916807,69.15892 39.0741734,69.0084862 38.8516449,68.9675975 C38.6773167,68.9355578 38.4745355,69.0240483 38.3286604,69.0679884 C38.3286604,68.7271475 38.3487793,68.3252788 38.1694081,68 L37.6916513,68.030514 Z" id="Shape" fill="#399745"></path>
                <path d="M10.1245786,68.0344887 C9.9825769,68.1046066 9.99280852,68.2763237 10.0090523,68.436593 C10.0361068,68.7038277 10.1127475,68.9596147 10.3715718,68.8397704 C10.8233353,68.6308479 10.5478536,67.8248508 10.1245786,68.0344887 Z" id="Shape" fill="#CDC501"></path>
                <path d="M11.4766917,69 C11.3401264,69.0645901 11.246912,69.0900347 11.078977,69.0978638 C11.0748507,69.4191832 10.8691328,69.7225609 10.8304054,70.0438803 C10.621804,70.0438803 10.2707711,70.0004941 10.1006984,70.0960744 C9.89065531,70.2141633 10.0451177,70.4917702 10.2367665,70.578869 C10.3682609,70.6385659 10.5291862,70.6307368 10.6812624,70.631063 C10.6812624,70.7256647 10.6466612,70.864305 10.7323687,70.9468368 C10.8212082,71.0323045 10.9895907,71.008491 11.0489993,70.9197612 C11.1124845,70.8248333 11.0720667,70.6992415 11.0874782,70.5984418 C11.1178039,70.3991259 11.2217566,70.2125323 11.22812,70.0112591 C11.529538,70.0027776 11.777712,69.9708087 11.9307327,69.7829103 C12.1238232,69.5457537 11.8942921,69.2697778 11.4766917,69.3262126 C11.4985163,69.2130168 11.5436569,69.1076502 11.4766917,69 Z" id="Shape" fill="#399745"></path>
                <path d="M27.6898615,69.6921535 C28.0161614,70.0610213 28.2077342,70.5226684 28.5718724,70.8589229 C28.7001168,70.9770056 28.9514458,71.1260147 28.9962519,70.813939 C29.0403525,70.5063617 28.6834468,70.3196786 28.5473084,70.1324332 C28.3361109,69.8417249 28.1842727,69.4059435 27.8662195,69.2738033 C27.56466,69.1489731 27.2859005,69.3890745 27.0283533,69.5510165 C26.7157245,69.7472587 26.365919,69.8816481 26.0140407,69.7888688 C25.4828937,69.6488565 25.2848823,68.7677347 24.6469238,69.058443 C24.2652777,69.2321933 23.9476655,69.7168946 23.5885107,69.9659928 C23.4304543,70.0756411 23.1642634,70.1127528 23.0426782,70.2870653 C22.946098,70.4259531 23.0270225,70.5895819 23.1501072,70.6300674 C23.3050765,70.6806743 23.4487561,70.5805851 23.5885107,70.512547 C23.8745468,70.3736593 24.1369451,70.1897877 24.3823205,69.9524977 C24.5201347,69.8186706 24.7177934,69.5195278 24.9115271,69.5543903 C25.1997241,69.6061218 25.429929,70.0733919 25.7053369,70.2072189 C25.8683325,70.2859407 26.0634333,70.254452 26.2345434,70.254452 C26.746198,70.254452 27.2777419,70.1121905 27.6898615,69.6921535 Z" id="Shape" fill="#3FA94D"></path>
            </g>
        </g>
    </g>
</svg>