<?xml version="1.0" encoding="UTF-8"?>
<svg width="212px" height="91px" viewBox="0 0 212 91" version="1.1" xmlns="http://www.w3.org/2000/svg" xmlns:xlink="http://www.w3.org/1999/xlink">
    <!-- Generator: Sketch 50.2 (55047) - http://www.bohemiancoding.com/sketch -->
    <title>ShopButton</title>
    <desc>Created with Sketch.</desc>
    <defs></defs>
    <g id="iPhone" stroke="none" stroke-width="1" fill="none" fill-rule="evenodd">
        <g id="ShopButton">
            <polygon id="Shape" fill="#000000" fill-rule="nonzero" points="0.556430446 0 0 91 212 90.445122 212 0"></polygon>
            <path d="M9.16756757,5.6875 C11.0491219,8.45916377 14.416108,11.8331425 17.5151911,13.0043171 C20.7043171,14.2094781 25.2883311,13.3580473 28.6453557,13.3580473 L52.5752097,13.3580473 L161.650823,13.3580473 L180.015595,13.3580473 C183.710253,13.3580473 188.089973,14.0391329 191.702268,13.1791466 C195.218843,12.3419358 200.522367,8.56566637 202.832432,5.6875 L9.16756757,5.6875 Z" id="Shape" fill="#FFFA00" fill-rule="nonzero"></path>
            <path d="M5.72972973,7.9625 L5.72972973,83.0375 C8.88072116,81.3957139 12.9612366,78.38011 14.1082014,74.8176095 C15.3829384,70.8578142 14.4143337,65.2611648 14.4143337,61.117792 L14.4143337,32.0741788 C14.4143337,27.4501616 15.6942815,20.5338361 14.0868156,16.1845277 C12.8885031,12.9422741 8.30520331,10.1457577 5.72972973,7.9625 Z" id="Shape" fill="#FFFA00" fill-rule="nonzero"></path>
            <path d="M206.27027,83.0375 L206.27027,10.2375 C203.162234,11.4053105 196.926285,14.3228937 195.560273,17.5116979 C194.097083,20.9289189 195.227328,26.8041526 195.227328,30.4901316 L195.227328,60.0480263 C195.227328,63.1494158 195.257144,66.2524474 195.22512,69.3532895 C195.209107,70.9258789 194.80604,72.7825526 195.420028,74.2790579 C196.911929,77.9157737 202.617265,81.8814579 206.27027,83.0375 Z" id="Shape" fill="#FFFA00" fill-rule="nonzero"></path>
            <polygon id="Shape" fill="#FFFA00" fill-rule="nonzero" points="19.4810811 17.0625 19.4810811 72.8 191.372973 72.8 191.372973 17.0625"></polygon>
            <path d="M56.9937122,21.9988181 C54.789599,22.5306099 52.753432,23.9474014 50.8565879,25.1446162 C49.4697201,26.0199673 48.2392488,27.0612418 47.2698474,28.3967169 C46.2696466,29.7746907 45.9059118,31.1776506 45.8448151,32.8559599 C45.6347428,38.6251899 50.1993657,42.1017196 55.3415898,43.901167 C57.7927123,44.7587824 60.4447008,44.7550456 62.5404022,46.4750728 C64.3074646,47.9252721 65.9021171,51.118477 65.6270423,53.4810604 C65.3408083,55.9391265 62.8969393,56.2313749 60.899439,56.2782239 C57.9048625,56.3490551 54.9711037,56.8130832 51.9720635,56.8387386 C50.6535459,56.8498931 48.9269357,56.6781135 47.9251168,57.7322158 C46.0221351,59.7350101 48.2188274,62.0027243 50.3007472,62.3328981 C54.0020371,62.9190682 57.7770894,62.0406497 61.4574,61.8794668 C63.3472138,61.7969234 65.6376436,62.2397579 67.4337199,61.5292149 C74.5226141,58.7249682 71.6541367,46.9774724 67.5425223,42.9552636 C64.6522845,40.1282059 61.1438259,39.5987008 57.5516732,38.2839173 C55.53855,37.5469939 51.773262,36.435892 51.3482073,33.9632135 C50.9796183,31.8185336 53.3108908,30.6756414 54.7700704,29.7105522 C56.7443037,28.4046366 58.4851419,27.1296748 60.899439,26.824264 C63.1842892,26.5352504 65.9523336,27.2659273 68.1200119,26.3844412 C70.0299123,25.6075846 70.521476,23.4211311 68.6255246,22.2746694 C66.9800977,21.2793514 64.4106874,21.701327 62.5733219,21.7014385 C60.7309348,21.7015501 58.7998319,21.5630109 56.9937122,21.9988181 Z" id="Path" fill="#000000"></path>
            <path d="M90.4713705,41.2218509 C90.4713705,36.4433098 90.8608272,31.4824479 90.4384508,26.7235387 C90.2866854,25.0138294 89.2923989,23.031671 87.203951,23.7438314 C84.545267,24.6503036 85.4497217,29.6067036 85.4497217,31.7405078 C85.4497217,38.8224576 84.5804185,46.5495292 86.0724062,53.4918245 C86.5645277,55.7824054 86.5388615,60.1337842 89.9111776,59.9463883 C92.578789,59.7985909 92.6887074,57.2107419 92.7026564,55.1645565 C92.7272067,51.6620368 91.6375089,47.0530443 95.5036204,45.3312324 C102.091466,42.397426 101.800768,50.0620322 102.966348,54.046985 C103.503107,55.8833539 105.349958,58.52586 107.43171,56.4990834 C109.398522,54.5838521 107.708459,50.7135678 107.37703,48.4722898 C107.123716,46.7559994 107.201272,45.0471267 106.39725,43.4549304 C103.036652,36.798637 95.8629473,38.9150402 90.4713705,41.2218509 Z" id="Path" fill="#000000"></path>
            <path d="M151.289116,59.6268112 C156.817951,59.6268112 160.902784,58.9910035 163.653531,53.4918245 C165.768203,49.264707 165.974091,40.3395841 160.216492,39.1462734 C158.6051,38.8123628 156.830785,38.9909467 155.194843,38.9909467 C153.145452,38.9909467 150.66978,38.6291498 148.738677,39.447557 C142.490072,42.0959192 145.57448,52.7796641 145.701137,57.953633 C145.778694,61.1125935 145.652595,64.275458 145.712296,67.4349762 C145.737405,68.779096 145.691094,70.5080468 147.002302,71.3128456 C148.563477,72.2704612 150.255215,71.1126219 150.875109,69.6329746 C152.046827,66.8354207 151.289116,62.6178961 151.289116,59.6268112 Z" id="Path" fill="#000000"></path>
            <path d="M122.285747,40.6899476 C117.718279,42.8789666 115.868638,52.7351575 118.705869,56.7796196 C120.839512,59.8203422 126.270704,60.5096916 129.528638,59.0780088 C134.389594,56.9419179 139.417381,49.1016279 134.930817,44.1356908 C132.999156,41.9976479 130.406311,42.1690371 127.854755,41.5506305 C125.98447,41.0973107 124.237495,39.7543063 122.285747,40.6899476 Z" id="Path" fill="#000000"></path>
            <path d="M150.910048,44.3625 L150.910048,54.6 C157.479968,54.5438644 159.282577,50.5629556 159.286486,44.3625 L150.910048,44.3625 Z" id="Path" fill="#FFFA00"></path>
            <path d="M123.883748,47.2220612 C120.898386,49.6283287 123.559859,56.9079875 127.983736,53.2812394 C129.207254,52.278135 130.864114,50.2571956 130.36432,48.5021469 C129.769034,46.4155737 125.344599,46.0445212 123.883748,47.2220612 Z" id="Path" fill="#FFFA00"></path>
            <path d="M11.4594595,85.3125 L199.394595,85.3125 C197.368454,83.0047725 194.330354,79.1600208 191.451833,77.9741129 C188.625022,76.8101156 184.075101,77.6438116 181.045898,77.6438116 L158.249032,77.6438116 L53.7170638,77.6438116 L29.8081561,77.6438116 C26.5242954,77.6438116 21.8028978,76.7991603 18.7096411,77.9741129 C15.8876672,79.046086 13.1520433,82.9450663 11.4594595,85.3125 Z" id="Shape" fill="#FFFA00" fill-rule="nonzero"></path>
        </g>
    </g>
</svg>