<?xml version="1.0" encoding="UTF-8"?>
<svg width="89px" height="38px" viewBox="0 0 89 38" version="1.1" xmlns="http://www.w3.org/2000/svg" xmlns:xlink="http://www.w3.org/1999/xlink">
    <!-- Generator: Sketch 50.2 (55047) - http://www.bohemiancoding.com/sketch -->
    <title>ShopSelectButton</title>
    <desc>Created with Sketch.</desc>
    <defs></defs>
    <g id="iPhone" stroke="none" stroke-width="1" fill="none" fill-rule="evenodd">
        <g id="ShopSelectButton">
            <polygon id="Shape" fill="#000000" fill-rule="nonzero" points="0.233595801 0 0 38 89 37.7682927 89 0"></polygon>
            <path d="M5,3 C5.77724138,4.04426892 7.16809195,5.31546971 8.44827586,5.75672857 C9.76565517,6.21079237 11.6592414,5.89000213 13.045977,5.89000213 L22.9310345,5.89000213 L67.9885057,5.89000213 L75.5747126,5.89000213 C77.1009195,5.89000213 78.9101149,6.14661209 80.4022989,5.82259839 C81.8549425,5.50716577 84.0457471,4.08439549 85,3 L5,3 Z" id="Shape" fill="#FFFA00" fill-rule="nonzero"></path>
            <path d="M3,3 L3,34 C4.37484296,33.322073 6.15525654,32.0768686 6.65570108,30.6058394 C7.2118953,28.9707591 6.78927296,26.6597883 6.78927296,24.9489051 L6.78927296,12.9562044 C6.78927296,11.0468533 7.34774074,8.19096131 6.64637,6.39504307 C6.12352138,5.05625036 4.12373258,3.90151168 3,3 Z" id="Shape" fill="#FFFA00" fill-rule="nonzero"></path>
            <path d="M87,35 L87,4 C85.6438994,4.49728195 82.9230252,5.7396594 82.3270059,7.09752932 C81.6885858,8.55266466 82.1817352,11.0544812 82.1817352,12.6240602 L82.1817352,25.2105263 C82.1817352,26.5311729 82.1947445,27.8525188 82.1807716,29.1729323 C82.1737851,29.8425789 81.9979184,30.6331955 82.2658139,31.2704436 C82.9167615,32.8190451 85.406118,34.5077293 87,35 Z" id="Shape" fill="#FFFA00" fill-rule="nonzero"></path>
            <polygon id="Shape" fill="#FFFA00" fill-rule="nonzero" points="8 7 8 30 80 30 80 7"></polygon>
            <path d="M5,35 L84,35 C83.1482959,34.1305265 81.8712071,32.6819545 80.6611982,32.2351446 C79.472926,31.7965899 77.5603314,32.1106982 76.2869822,32.1106982 L66.704142,32.1106982 L22.7633136,32.1106982 L12.7130178,32.1106982 C11.3326213,32.1106982 9.34794497,31.7924623 8.04767041,32.2351446 C6.86143166,32.6390277 5.71149083,34.1080313 5,35 Z" id="Shape" fill="#FFFA00" fill-rule="nonzero"></path>
            <path d="M27.04882,13 C25.0737715,13.1876632 22.911266,12.7024369 21.1236746,13.5629897 C18.6843245,14.7373014 18.3316375,18.2767984 21.3694095,18.9434838 C23.45947,19.4021794 25.9099845,17.6197253 27.782357,18.6555705 C32.2448057,21.1243133 23.2921557,27.7059162 19.4145333,22.9027499" id="Path-28" stroke="#000000" stroke-width="2" transform="translate(24.096213, 18.806631) rotate(9.000000) translate(-24.096213, -18.806631) "></path>
            <path d="M31.2288974,20.8017869 C40.5871587,20.0888575 35.7917409,16.0839802 34.6169216,17.1927847 C28.2985304,23.1561362 32.3613816,25.8203238 37,23.2747236" id="Path-30" stroke="#000000" stroke-width="2"></path>
            <path d="M41,11 C41.3154209,15.613031 41.6308418,20.226062 41.9462628,24.839093" id="Path-31" stroke="#000000" stroke-width="2"></path>
            <path d="M60.7711026,19.1192669 C52.0593174,14.3759121 54.2845062,26.5016719 60.3633028,22.3957761" id="Path-15" stroke="#000000" stroke-width="2" transform="translate(57.885551, 20.629766) rotate(-10.000000) translate(-57.885551, -20.629766) "></path>
            <path d="M65,13 C65.4137284,16.5545982 65.8274569,20.1091964 66.2411853,23.6637946" id="Path-36" stroke="#000000" stroke-width="2"></path>
            <path d="M62,18.8637399 C64.6253437,18.5758266 67.2506874,18.2879133 69.8760311,18" id="Path-37" stroke="#000000" stroke-width="2"></path>
            <path d="M46,20.8017869 C55.3582613,20.0888575 50.5628435,16.0839802 49.3880242,17.1927847 C43.069633,23.1561362 47.1324842,25.8203238 51.7711026,23.2747236" id="Path-30" stroke="#000000" stroke-width="2"></path>
        </g>
    </g>
</svg>