<?xml version="1.0" encoding="UTF-8"?>
<svg width="376px" height="667px" viewBox="0 0 376 667" version="1.1" xmlns="http://www.w3.org/2000/svg" xmlns:xlink="http://www.w3.org/1999/xlink">
    <!-- Generator: Sketch 50.2 (55047) - http://www.bohemiancoding.com/sketch -->
    <title>SkyBackground</title>
    <desc>Created with Sketch.</desc>
    <defs></defs>
    <g id="iPhone" stroke="none" stroke-width="1" fill="none" fill-rule="evenodd">
        <g id="SkyBackground" fill-rule="nonzero">
            <g id="layer101" fill="#87E5E5">
                <polygon id="Shape" points="0 333.5 0 0 187.59375 0 375.1875 0 375.1875 333.5 375.1875 667 187.59375 667 0 667"></polygon>
            </g>
            <g id="layer102" fill="#D8D8D8">
                <path d="M372.477813,603.593313 C371.102125,603.46825 369.392938,603.051375 368.642562,602.676188 C367.892187,602.259313 366.766625,601.9675 366.099625,601.9675 C363.473313,601.9675 359.596375,600.383375 357.887187,598.6325 C356.303063,597.006687 356.261375,596.965 355.427625,597.757063 C353.593375,599.424563 353.051438,599.46625 339.628062,599.46625 L326.538187,599.46625 L322.828,598.257313 C317.617062,596.506438 314.448812,595.13075 313.32325,594.088563 C312.823,593.63 312.197687,593.213125 311.98925,593.213125 C310.863687,593.213125 309.738125,591.253813 309.738125,589.2945 L309.738125,587.2935 L308.404125,587.585313 C307.65375,587.752063 301.942563,588.002188 295.689437,588.085563 C283.475,588.252313 283.058125,588.210625 280.681938,586.001188 C279.8065,585.209125 279.723125,584.79225 279.723125,580.540125 C279.723125,574.912313 280.431812,571.744063 282.64125,567.408563 C283.558375,565.616 284.30875,563.615 284.30875,562.948 C284.30875,560.78025 291.937563,554.026875 294.355437,554.026875 C295.105813,554.026875 295.1475,553.693375 295.1475,548.357375 C295.1475,542.271 295.105813,542.43775 297.857188,538.185625 C299.608062,535.475938 300.400125,534.058563 301.525688,531.724063 C301.859187,531.057063 303.1515,529.389563 304.443812,528.09725 L306.736625,525.679375 L312.572875,525.679375 C317.950562,525.679375 318.450812,525.596 318.700938,524.887313 C319.117813,523.595 322.953062,520.26 324.036938,520.26 C324.578875,520.26 325.454313,519.801438 325.99625,519.217813 C326.955062,518.175625 326.99675,518.175625 334.542188,518.175625 C342.045938,518.175625 342.129313,518.175625 343.088125,519.217813 L344.046938,520.218313 L345.255875,519.217813 C345.922875,518.634188 346.756625,518.175625 347.048437,518.175625 C347.381937,518.175625 348.257375,517.633688 349.00775,516.966688 C349.758125,516.341375 351.759125,515.09075 353.384937,514.257 C356.386437,512.75625 356.469812,512.75625 361.639063,512.75625 C367.225188,512.75625 368.976063,513.214813 370.768625,515.215813 C371.227188,515.716063 371.977563,516.09125 372.477813,516.09125 C372.978063,516.09125 373.770125,516.508125 374.270375,517.050063 L375.1875,518.008875 L375.104125,560.947 L374.979062,603.843438 L372.477813,603.593313 Z" id="Shape"></path>
                <path d="M64.5739375,444.222 C62.0726875,443.846813 61.0721875,443.471625 59.779875,442.38775 C58.9044375,441.637375 57.86225,441.05375 57.4870625,441.05375 C56.86175,441.05375 55.4860625,440.5535 52.7346875,439.427938 C48.4825625,437.635375 46.7316875,436.926688 45.85625,436.676563 C45.272625,436.509813 43.1465625,435.551 41.0621875,434.592188 C39.0195,433.633375 36.85175,432.674563 36.268125,432.507813 C35.6845,432.341063 34.1420625,431.465625 32.8080625,430.5485 C31.51575,429.673063 29.6398125,428.630875 28.681,428.297375 C26.8050625,427.630375 25.429375,426.629875 25.429375,425.8795 C25.429375,425.587688 24.595625,424.5455 23.5534375,423.545 C22.51125,422.5445 21.6775,421.37725 21.6775,420.960375 C21.6775,420.37675 21.344,420.21 20.1350625,420.21 C18.1340625,420.21 16.091375,418.959375 15.17425,417.2085 C14.7990625,416.458125 13.6318125,414.957375 12.6313125,413.831813 C10.50525,411.539 9.588125,409.621375 9.588125,407.453625 C9.588125,406.619875 9.2963125,404.952375 8.921125,403.70175 C8.420875,401.909188 8.2958125,399.69975 8.420875,392.404438 C8.5459375,383.983563 8.6293125,383.1915 9.50475,381.35725 C10.005,380.273375 10.421875,379.147813 10.421875,378.856 C10.421875,378.564188 11.422375,376.855 12.6313125,375.02075 C13.7985625,373.228188 15.17425,371.143813 15.6328125,370.393438 C16.091375,369.643063 16.84175,368.5175 17.3003125,367.8505 C18.4675625,366.141313 25.0541875,359.763125 25.596125,359.763125 C25.84625,359.763125 26.6383125,359.429625 27.3053125,359.054438 C28.2224375,358.554188 30.1400625,358.304063 34.2254375,358.095625 C37.3103125,357.928875 40.103375,357.67875 40.3535,357.512 C40.687,357.303563 40.85375,355.67775 40.85375,352.634563 C40.85375,349.257875 41.0205,347.715438 41.52075,346.714938 C42.3128125,345.1725 44.1470625,343.088125 44.772375,343.088125 C44.9808125,343.088125 45.6478125,342.629563 46.2314375,342.129313 C46.85675,341.587375 48.19075,340.837 49.274625,340.420125 C50.3168125,340.044938 51.442375,339.461313 51.6925,339.127813 C51.942625,338.794313 53.2349375,338.33575 54.52725,338.043938 C55.8195625,337.752125 57.362,337.210188 57.945625,336.793313 C59.613125,335.66775 62.114375,335.501 82.791375,335.33425 L102.426188,335.125813 L103.926938,336.793313 L105.427688,338.460813 L110.972125,338.752625 C116.266438,339.044438 117.392,339.294563 120.06,340.795313 C120.643625,341.128813 121.394,341.420625 121.769188,341.420625 C122.436188,341.420625 123.770188,342.754625 125.646125,345.297563 C126.313125,346.173 127.146875,347.00675 127.522063,347.131813 C128.480875,347.465313 130.481875,349.424625 130.481875,350.00825 C130.481875,351.00875 131.357313,351.092125 132.274438,350.258375 C133.316625,349.299563 140.778688,345.422625 144.23875,344.088625 C149.616438,341.962563 151.825875,341.67075 162.24775,341.504 C171.627438,341.378938 172.336125,341.462313 176.838375,342.462813 C179.423,343.088125 182.674625,343.921875 184.050313,344.33875 C185.426,344.755625 187.510375,345.380938 188.635938,345.714438 C190.92875,346.423125 193.013125,347.131813 194.889063,347.923875 C195.59775,348.174 197.181875,348.549188 198.4325,348.715938 C203.059813,349.299563 208.729313,351.800813 211.063813,354.260375 L212.231063,355.469313 L212.106,366.34975 L211.980938,377.271875 L207.020125,381.940875 C204.310438,384.5255 201.60075,386.818313 201.1005,386.985063 C200.558563,387.1935 200.1,387.485313 200.1,387.610375 C200.1,387.777125 200.767,388.944375 201.60075,390.195 C204.102,394.155313 204.685625,396.823313 204.685625,404.577188 C204.685625,408.329063 204.518875,411.497313 204.310438,411.664063 C204.102,411.789125 203.7685,412.497813 203.643438,413.248188 C203.476688,413.956875 202.726313,415.916188 201.975938,417.500313 C200.850375,419.918188 199.808188,421.2105 196.098,424.837313 C189.678125,431.132125 191.012125,430.840313 169.7515,430.465125 C158.162375,430.256688 151.90925,429.964875 149.533063,429.548 C147.657125,429.256188 144.947438,428.964375 143.57175,428.964375 C142.154375,428.964375 140.028313,428.797625 138.819375,428.5475 C136.693313,428.130625 136.56825,428.172313 134.692313,429.589688 C131.315625,432.04925 121.0605,437.71875 116.516563,439.594688 C110.22175,442.221 106.511563,443.179813 101.133875,443.555 C98.132375,443.763438 94.2554375,444.138625 92.54625,444.347063 C88.3358125,444.930688 68.53425,444.805625 64.5739375,444.222 Z" id="Shape"></path>
                <path d="M211.355625,260.922062 C210.563562,260.505187 209.354625,260.171687 208.645938,260.13 C207.687125,260.13 206.853375,259.588062 205.144187,257.878875 L202.93475,255.586062 L203.1015,250.875375 C203.226562,248.29075 203.351625,245.872875 203.476687,245.539375 C203.60175,244.997437 203.143187,244.95575 200.516875,245.039125 C197.682125,245.164187 197.0985,245.080812 194.680625,243.913562 C191.887563,242.579562 190.511875,241.537375 190.511875,240.828687 C190.511875,240.578562 190.095,239.95325 189.59475,239.369625 C188.719313,238.4525 188.635937,237.910562 188.510875,232.574562 L188.344125,226.78 L190.095,223.27825 C191.470687,220.401812 192.304438,219.317937 194.59725,217.316937 C198.307437,214.065312 201.225562,212.189375 202.60125,212.189375 C203.226562,212.189375 203.976937,211.897562 204.26875,211.564062 C204.560563,211.230562 205.26925,210.93875 205.894563,210.93875 C206.478187,210.93875 207.437,210.563562 208.020625,210.105 C208.60425,209.646437 209.438,209.27125 209.93825,209.27125 C211.27225,209.27125 211.7725,208.4375 211.7725,206.103 C211.7725,204.894062 211.980937,203.7685 212.189375,203.643437 C212.4395,203.518375 212.60625,202.726312 212.60625,201.975937 C212.60625,201.183875 212.856375,199.93325 213.189875,199.182875 C213.481687,198.4325 214.107,196.765 214.523875,195.514375 C215.232563,193.26325 217.066812,189.844875 218.400813,188.26075 C218.776,187.843875 220.193375,186.968437 221.569063,186.301437 C222.94475,185.676125 224.528875,184.884062 225.1125,184.550562 C226.196375,183.92525 229.7815,183.0915 233.158187,182.716312 C234.242063,182.59125 235.242562,182.299437 235.367625,182.132687 C235.659437,181.59075 247.498688,181.674125 247.832188,182.174375 C247.95725,182.4245 248.62425,182.59125 249.249562,182.59125 C249.916562,182.59125 250.875375,182.92475 251.417312,183.341625 C251.95925,183.7585 253.501688,184.59225 254.794,185.25925 C257.336937,186.468187 259.713125,188.802687 259.713125,190.095 C259.713125,191.178875 259.96325,191.137187 261.464,189.886562 C262.131,189.302937 263.048125,188.844375 263.465,188.844375 C263.881875,188.844375 264.382125,188.677625 264.507187,188.4275 C264.63225,188.219062 266.29975,188.010625 268.175687,188.010625 C270.343437,187.968937 271.96925,187.7605 272.63625,187.385312 C273.47,186.885062 276.4715,186.801687 288.685938,186.76 C303.610063,186.76 303.693437,186.76 305.8195,187.7605 C306.98675,188.302437 308.570875,188.886062 309.362937,189.052812 C311.405625,189.469687 314.282062,192.012625 315.32425,194.26375 C315.8245,195.305937 316.616562,196.723312 317.1585,197.348625 C317.65875,198.015625 318.075625,198.724312 318.075625,198.974437 C318.075625,199.182875 318.575875,200.391812 319.1595,201.642437 C319.784813,202.851375 320.368438,204.685625 320.4935,205.727812 C320.66025,207.437 320.785313,207.60375 321.785813,207.60375 C322.536187,207.60375 323.411625,208.145687 324.453813,209.187875 L325.99625,210.772 L325.99625,221.61075 L325.99625,232.4495 L323.620063,234.784 C320.785313,237.493687 319.868187,238.035625 317.99225,238.035625 L316.616562,238.035625 L316.741625,240.661937 C316.866688,242.871375 316.741625,243.371625 316.032938,244.038625 C315.532688,244.497187 315.1575,245.247562 315.1575,245.7895 C315.1575,246.331437 314.99075,246.831687 314.782312,246.95675 C314.573875,247.081812 314.282062,247.707125 314.115313,248.332437 C313.8235,249.583062 312.364438,251.375625 311.65575,251.375625 C311.447313,251.375625 310.4885,251.875875 309.571375,252.542875 L307.945562,253.668437 L293.938562,253.668437 C280.223375,253.668437 279.8065,253.62675 274.512187,252.501187 C268.675938,251.250562 265.507687,249.95825 263.673437,248.040625 L262.506188,246.831687 L260.421812,249.1245 C258.254062,251.500687 256.586563,252.62625 255.210875,252.62625 C254.794,252.62625 254.085312,253.043125 253.62675,253.501687 C251.62575,255.752812 245.831187,259.004437 241.037125,260.546875 L237.201875,261.7975 L224.987437,261.755812 C214.023625,261.714125 212.689625,261.63075 211.355625,260.922062 Z" id="Shape"></path>
                <path d="M5.419375,187.59375 C4.83575,187.427 3.3766875,187.26025 2.2094375,187.218563 L0,187.176875 L0,134.442188 L0,81.7075 L11.922625,81.7075 C23.6785,81.7075 26.3881875,81.957625 27.930625,83.1665625 C28.264125,83.458375 29.51475,83.87525 30.6403125,84.1670625 C31.8075625,84.458875 33.3083125,84.9174375 33.9753125,85.2509375 C35.5594375,85.959625 44.6473125,88.794375 45.3143125,88.794375 C45.5644375,88.794375 46.439875,89.1695625 47.19025,89.5864375 C47.940625,90.045 49.3163125,90.54525 50.2334375,90.6703125 C52.8180625,91.128875 55.777875,92.1710625 56.3198125,92.796375 C56.5699375,93.129875 57.111875,93.38 57.4870625,93.38 C57.86225,93.38 59.19625,94.047 60.446875,94.8390625 C61.6975,95.631125 63.0315,96.298125 63.4066875,96.298125 C63.781875,96.298125 65.1575625,97.298625 66.449875,98.54925 C68.5759375,100.633625 68.784375,100.967125 68.784375,102.634625 L68.784375,104.427188 L78.4141875,104.302125 L88.044,104.177063 L90.5869375,105.427688 C93.296625,106.678313 96.1730625,109.22125 99.0078125,112.764688 C100.925437,115.140875 101.0505,115.807875 101.759187,128.189063 C102.676312,144.822375 102.676312,145.947938 101.759187,147.198563 C101.258937,147.865563 100.88375,149.032813 100.88375,149.824875 C100.88375,150.616938 100.717,151.409 100.466875,151.534063 C100.258437,151.659125 100.05,152.326125 100.05,152.951437 C100.05,153.618438 99.633125,154.493875 99.0078125,155.0775 C98.4241875,155.619438 97.965625,156.369813 97.965625,156.786688 C97.965625,157.203563 97.798875,157.953937 97.54875,158.495875 C97.3403125,159.037813 96.965125,160.205062 96.715,161.163875 C96.464875,162.24775 95.5060625,163.7485 93.963625,165.416 L91.629125,168.000625 L82.624625,168.000625 C73.6618125,168.000625 73.53675,168.000625 70.118375,166.75 C68.20075,166.083 66.449875,165.416 66.2414375,165.290937 C66.033,165.124188 65.86625,166.24975 65.86625,167.91725 C65.86625,169.91825 65.6995,170.960438 65.282625,171.293938 C64.949125,171.58575 64.5739375,172.336125 64.4071875,172.961437 C64.032,174.628938 60.947125,177.463687 58.3208125,178.505875 C55.19425,179.7565 47.7321875,180.048313 43.8135625,179.006125 C41.437375,178.380812 40.7286875,177.963938 38.3525,175.671125 L35.6428125,173.044813 L33.8085625,175.212562 C32.8080625,176.4215 31.599125,178.214063 31.098875,179.297937 C29.8065625,182.049313 27.2219375,185.009125 24.7206875,186.634938 L22.5529375,188.010625 L14.50725,187.968938 C10.088375,187.92725 6.003,187.7605 5.419375,187.59375 Z" id="Shape"></path>
                <path d="M327.246875,56.8200625 C326.66325,56.444875 325.579375,55.5694375 324.870688,54.86075 C323.536687,53.6518125 323.495,53.4850625 323.495,50.4835625 C323.495,47.19025 324.287062,44.1470625 325.496,42.771375 C326.163,42.021 326.163,42.021 324.537188,42.271125 C323.620063,42.437875 321.66075,42.688 320.16,42.8964375 C318.65925,43.0631875 316.741625,43.52175 315.8245,43.938625 C313.32325,44.9808125 300.733625,44.8974375 294.105313,43.7301875 C289.686438,42.9798125 288.4775,42.604625 283.933562,40.3535 C281.098813,38.936125 278.097312,37.2269375 277.346938,36.5599375 L275.887875,35.267625 L276.054625,30.765375 L276.179688,26.263125 L284.934062,17.50875 C291.479,10.9638125 294.147,8.587625 295.606063,7.9623125 C296.64825,7.50375 297.773813,6.83675 298.065625,6.50325 C298.357438,6.1280625 299.399625,5.419375 300.400125,4.919125 C302.818,3.751875 303.8185,2.668 303.1515,2.001 C302.859688,1.7091875 302.65125,1.16725 302.65125,0.750375 C302.65125,0.0416875 304.277062,0 338.919375,0 L375.1875,0 L375.1875,28.764375 L375.1875,57.52875 L373.144813,56.52825 C370.601875,55.2359375 369.059438,53.4016875 368.475812,51.0255 L368.01725,49.19125 L365.01575,49.19125 C361.639063,49.2329375 356.719938,50.52525 348.715937,53.52675 C340.837,56.444875 336.376438,57.52875 332.040937,57.4870625 C329.289562,57.4870625 327.99725,57.3203125 327.246875,56.8200625 Z" id="Shape"></path>
            </g>
            <g id="layer103" fill="#EAEAEA">
                <path d="M368.976063,602.80125 C367.975563,602.342688 366.641563,601.9675 366.01625,601.9675 C363.473313,601.9675 359.596375,600.383375 357.887187,598.6325 C356.303063,597.006687 356.261375,596.965 355.427625,597.757062 C353.593375,599.424562 353.051438,599.46625 339.628062,599.46625 L326.538187,599.46625 L322.828,598.257313 C317.617062,596.506437 314.448812,595.13075 313.32325,594.088562 C312.823,593.63 312.197687,593.213125 311.98925,593.213125 C310.863687,593.213125 309.738125,591.253812 309.738125,589.2945 L309.738125,587.2935 L308.404125,587.585312 C307.65375,587.752062 301.942563,588.002187 295.689437,588.085563 C283.475,588.252313 283.058125,588.210625 280.681938,586.001188 C279.8065,585.209125 279.723125,584.79225 279.723125,580.540125 C279.723125,574.912312 280.431812,571.744063 282.64125,567.408563 C283.558375,565.616 284.30875,563.615 284.30875,562.948 C284.30875,560.78025 291.937563,554.026875 294.355437,554.026875 C295.105813,554.026875 295.1475,553.693375 295.1475,548.357375 C295.1475,542.271 295.105813,542.43775 297.857188,538.185625 C299.608062,535.475938 300.400125,534.058563 301.525688,531.724063 C301.859187,531.057063 303.1515,529.389563 304.443812,528.09725 L306.736625,525.679375 L312.572875,525.679375 C317.950562,525.679375 318.450812,525.596 318.700938,524.887313 C319.117813,523.595 322.953062,520.26 324.036938,520.26 C324.578875,520.26 325.454313,519.801438 325.99625,519.217813 C326.955062,518.175625 326.99675,518.175625 334.542188,518.175625 C342.045938,518.175625 342.129313,518.175625 343.088125,519.217813 L344.046938,520.218313 L345.255875,519.217813 C345.922875,518.634188 346.756625,518.175625 347.048437,518.175625 C347.381937,518.175625 348.257375,517.633688 349.00775,516.966688 C349.758125,516.341375 351.759125,515.09075 353.384937,514.257 C356.386437,512.75625 356.469812,512.75625 361.639063,512.75625 C367.225188,512.75625 368.976063,513.214813 370.768625,515.215813 C371.227188,515.716063 371.977563,516.09125 372.5195,516.09125 C373.01975,516.09125 373.8535,516.5915 374.312063,517.175125 C375.1875,518.300688 375.1875,518.42575 375.1875,560.947 L375.1875,603.635 L373.01975,603.635 C371.727438,603.635 370.059938,603.259812 368.976063,602.80125 Z M350.133312,582.999688 C352.467813,582.6245 354.844,582.45775 355.927875,582.6245 C357.803812,582.916313 360.388438,582.332688 362.139313,581.207125 C362.68125,580.873625 365.140813,580.498438 368.142313,580.29 C373.728438,579.914813 374.645562,579.497938 374.187,577.622 C373.936875,576.579813 373.8535,576.538125 370.476812,576.579813 C365.474312,576.579813 361.1805,577.45525 358.053938,579.039375 C357.637063,579.247813 356.719938,579.206125 355.802813,578.956 C354.67725,578.580813 353.8435,578.580813 352.426125,578.956 C349.8415,579.664688 349.257875,579.581313 348.132313,578.414062 C347.590375,577.830438 346.84,577.371875 346.423125,577.371875 C346.00625,577.371875 345.089125,577.038375 344.380437,576.663188 C343.379937,576.079563 342.921375,576.037875 342.379437,576.371375 C341.253875,577.080063 341.253875,577.9555 342.462812,579.414563 C343.505,580.6235 343.505,580.706875 342.754625,580.706875 C342.00425,580.706875 341.420625,581.45725 341.420625,582.374375 C341.420625,582.582813 341.754125,583.041375 342.129313,583.416563 C342.879687,584.208625 343.296562,584.166938 350.133312,582.999688 Z M310.32175,556.278 C310.696937,555.9445 310.98875,555.152438 310.98875,554.6105 C310.98875,553.359875 311.614062,552.10925 312.823,550.816938 L313.65675,549.9415 L314.282062,550.77525 C314.782312,551.525625 315.1575,551.609 317.033437,551.400563 C319.868187,551.10875 322.161,549.608 323.495,547.148438 C324.745625,544.813938 326.454813,544.230313 330.581875,544.6055 C338.294062,545.355875 339.586375,545.397563 340.295063,544.647188 C341.128812,543.855125 341.212188,542.521125 340.5035,542.062563 C340.211687,541.895813 338.836,541.687375 337.460312,541.645688 C336.084625,541.604 332.66625,541.43725 329.8315,541.312188 C324.787312,541.020375 324.66225,541.062063 323.036437,542.10425 C322.035937,542.77125 321.035438,543.980188 320.4935,545.064063 C319.909875,546.231313 319.1595,547.065063 318.367437,547.398563 C317.283563,547.857125 317.075125,547.815438 316.158,546.814938 C314.157,544.647188 311.572375,545.731063 308.946062,549.77475 C307.903875,551.44225 307.65375,552.234313 307.65375,554.151938 C307.65375,556.361375 307.903875,556.819938 309.196188,556.903313 C309.446312,556.945 309.98825,556.653188 310.32175,556.278 Z" id="Shape"></path>
                <path d="M64.5739375,444.222 C62.0726875,443.846813 61.0721875,443.471625 59.779875,442.38775 C58.9044375,441.637375 57.86225,441.05375 57.4870625,441.05375 C56.86175,441.05375 55.4860625,440.5535 52.7346875,439.427938 C48.4825625,437.635375 46.7316875,436.926688 45.85625,436.676563 C45.272625,436.509813 43.1465625,435.551 41.0621875,434.592188 C39.0195,433.633375 36.85175,432.674563 36.268125,432.507813 C35.6845,432.341063 34.1420625,431.465625 32.8080625,430.5485 C31.51575,429.673063 29.6398125,428.630875 28.681,428.297375 C26.8050625,427.630375 25.429375,426.629875 25.429375,425.8795 C25.429375,425.587688 24.595625,424.5455 23.5534375,423.545 C22.51125,422.5445 21.6775,421.37725 21.6775,420.960375 C21.6775,420.37675 21.344,420.21 20.1350625,420.21 C18.1340625,420.21 16.091375,418.959375 15.17425,417.2085 C14.7990625,416.458125 13.6318125,414.957375 12.6313125,413.831813 C10.50525,411.539 9.588125,409.621375 9.588125,407.453625 C9.588125,406.619875 9.2963125,404.952375 8.921125,403.70175 C8.420875,401.909188 8.2958125,399.69975 8.420875,392.404438 C8.5459375,383.983563 8.6293125,383.1915 9.50475,381.35725 C10.005,380.273375 10.421875,379.147813 10.421875,378.856 C10.421875,378.564188 11.422375,376.855 12.6313125,375.02075 C13.7985625,373.228188 15.17425,371.143813 15.6328125,370.393438 C16.091375,369.643063 16.84175,368.5175 17.3003125,367.8505 C18.4675625,366.141313 25.0541875,359.763125 25.596125,359.763125 C25.84625,359.763125 26.6383125,359.429625 27.3053125,359.054438 C28.2224375,358.554188 30.1400625,358.304063 34.2254375,358.095625 C37.3103125,357.928875 40.103375,357.67875 40.3535,357.512 C40.687,357.303563 40.85375,355.67775 40.85375,352.634563 C40.85375,349.257875 41.0205,347.715438 41.52075,346.714938 C42.3128125,345.1725 44.1470625,343.088125 44.772375,343.088125 C44.9808125,343.088125 45.6478125,342.629563 46.2314375,342.129313 C46.85675,341.587375 48.19075,340.837 49.274625,340.420125 C50.3168125,340.044938 51.442375,339.461313 51.6925,339.127813 C51.942625,338.794313 53.2349375,338.33575 54.52725,338.043938 C55.8195625,337.752125 57.362,337.210188 57.945625,336.793313 C59.613125,335.66775 62.114375,335.501 82.791375,335.33425 L102.426188,335.125813 L103.926938,336.793313 L105.427688,338.460813 L110.972125,338.752625 C116.266438,339.044438 117.392,339.294563 120.06,340.795313 C120.643625,341.128813 121.394,341.420625 121.769188,341.420625 C122.436188,341.420625 123.770188,342.754625 125.646125,345.297563 C126.313125,346.173 127.146875,347.00675 127.522063,347.131813 C128.480875,347.465313 130.481875,349.424625 130.481875,350.00825 C130.481875,351.00875 131.357313,351.092125 132.274438,350.258375 C133.316625,349.299563 140.778688,345.422625 144.23875,344.088625 C149.616438,341.962563 151.825875,341.67075 162.24775,341.504 C171.627438,341.378938 172.336125,341.462313 176.838375,342.462813 C179.423,343.088125 182.674625,343.921875 184.050313,344.33875 C185.426,344.755625 187.510375,345.380938 188.635938,345.714438 C190.92875,346.423125 193.013125,347.131813 194.889063,347.923875 C195.59775,348.174 197.181875,348.549188 198.4325,348.715938 C203.059813,349.299563 208.729313,351.800813 211.063813,354.260375 L212.231063,355.469313 L212.106,366.34975 L211.980938,377.271875 L207.020125,381.940875 C204.310438,384.5255 201.60075,386.818313 201.1005,386.985063 C200.558563,387.1935 200.1,387.485313 200.1,387.610375 C200.1,387.777125 200.767,388.944375 201.60075,390.195 C204.102,394.155313 204.685625,396.823313 204.685625,404.577188 C204.685625,408.329063 204.518875,411.497313 204.310438,411.664063 C204.102,411.789125 203.7685,412.497813 203.643438,413.248188 C203.476688,413.956875 202.726313,415.916188 201.975938,417.500313 C200.850375,419.918188 199.808188,421.2105 196.098,424.837313 C189.678125,431.132125 191.012125,430.840313 169.7515,430.465125 C158.162375,430.256688 151.90925,429.964875 149.533063,429.548 C147.657125,429.256188 144.947438,428.964375 143.57175,428.964375 C142.154375,428.964375 140.028313,428.797625 138.819375,428.5475 C136.693313,428.130625 136.56825,428.172313 134.692313,429.589688 C131.315625,432.04925 121.0605,437.71875 116.516563,439.594688 C110.22175,442.221 106.511563,443.179813 101.133875,443.555 C98.132375,443.763438 94.2554375,444.138625 92.54625,444.347063 C88.3358125,444.930688 68.53425,444.805625 64.5739375,444.222 Z M101.008813,413.623375 C101.967625,412.747938 103.88525,411.37225 105.260938,410.580188 L107.762188,409.079438 L111.972625,409.287875 C115.516063,409.412938 116.266438,409.37125 116.850063,408.745938 C119.142875,406.494813 117.308625,403.618375 114.724,405.410938 C114.015313,405.952875 113.098188,405.994563 110.096688,405.786125 C106.55325,405.536 106.261438,405.577688 104.969125,406.494813 C104.21875,407.078438 103.134875,407.745438 102.55125,407.995563 C101.967625,408.245688 100.633625,409.2045 99.54975,410.163313 C97.8405625,411.664063 97.382,411.8725 95.5894375,411.8725 C92.0043125,411.830813 87.8355625,410.455125 85.4176875,408.495813 C83.8335625,407.245188 82.54125,407.70375 82.54125,409.579688 C82.54125,410.663563 82.87475,411.2055 84.042,412.122625 C84.8340625,412.789625 86.043,413.456625 86.626625,413.623375 C87.2519375,413.790125 88.711,414.165313 89.8365625,414.498813 C91.0038125,414.874 93.54675,415.165813 95.5894375,415.165813 L99.21625,415.2075 L101.008813,413.623375 Z M161.24725,393.238188 C161.414,391.654063 161.038813,391.487313 156.369813,391.36225 C154.118688,391.278875 153.201563,391.070438 152.993125,390.611875 C152.826375,390.278375 152.492875,389.569688 152.24275,389.069438 C151.950938,388.5275 151.7425,387.777125 151.7425,387.318563 C151.7425,386.86 151.283938,385.942875 150.700313,385.275875 C150.116688,384.567188 149.366313,383.35825 149.032813,382.5245 C148.699313,381.69075 147.90725,380.731938 147.24025,380.315063 C146.614938,379.939875 145.489375,379.064438 144.739,378.439125 C143.196563,377.105125 140.945438,376.855 139.90325,377.938875 C138.736,379.064438 139.403,380.606875 141.028813,380.606875 C143.613438,380.606875 149.199563,388.194 149.24125,391.779125 C149.24125,392.321063 149.491375,392.988063 149.783188,393.279875 C151.0755,394.572188 152.076,394.780625 156.536563,394.655563 L161.122188,394.572188 L161.24725,393.238188 Z M50.775375,392.196 C51.0671875,391.904188 51.275625,390.903688 51.275625,389.903188 C51.275625,388.569188 51.4840625,387.985563 52.109375,387.610375 C52.5679375,387.318563 52.943125,386.86 52.943125,386.609875 C52.943125,386.35975 53.4016875,385.942875 53.9853125,385.69275 C54.5689375,385.442625 55.0275,384.942375 55.0275,384.608875 C55.0275,384.275375 55.52775,383.441625 56.111375,382.732938 L57.19525,381.440625 L61.7391875,381.440625 L66.283125,381.440625 L67.950625,379.939875 C68.86775,379.106125 69.618125,378.189 69.618125,377.897188 C69.618125,377.605375 70.20175,377.271875 70.86875,377.105125 C71.8275625,376.938375 72.3278125,376.479813 72.786375,375.35425 C73.119875,374.562188 73.286625,373.52 73.1615625,373.061438 C72.786375,371.894188 70.8270625,372.01925 69.7015,373.311563 C69.20125,373.895188 68.53425,374.35375 68.1590625,374.35375 C67.8255625,374.35375 67.3253125,374.770625 67.0751875,375.312563 C65.7411875,377.938875 65.282625,378.105625 60.03,378.105625 C55.444375,378.105625 55.0691875,378.147313 54.027,379.147813 C53.443375,379.68975 52.943125,380.440125 52.943125,380.815313 C52.943125,381.1905 52.442875,381.982563 51.8175625,382.607875 C48.774375,385.567688 47.940625,386.985063 47.940625,389.236188 C47.940625,392.070938 49.358,393.613375 50.775375,392.196 Z M108.804375,363.931875 C109.388,363.723438 110.513563,363.473313 111.347313,363.306563 C113.264938,363.01475 113.973625,362.181 113.640125,360.763625 C113.348313,359.67975 113.306625,359.638063 110.638625,359.888188 C109.179563,359.971563 107.7205,360.263375 107.428688,360.5135 C107.178563,360.721938 105.302625,361.01375 103.259938,361.138813 C99.54975,361.34725 98.3825,361.805813 98.3825,363.056438 C98.3825,364.557188 99.21625,364.807313 103.593438,364.557188 C105.88625,364.390438 108.22075,364.140313 108.804375,363.931875 Z" id="Shape"></path>
                <path d="M211.355625,260.922062 C210.563562,260.505187 209.354625,260.171687 208.645938,260.13 C207.687125,260.13 206.853375,259.588062 205.144187,257.878875 L202.93475,255.586062 L203.1015,250.875375 C203.226562,248.29075 203.351625,245.872875 203.476687,245.539375 C203.60175,244.997437 203.143187,244.95575 200.516875,245.039125 C197.682125,245.164187 197.0985,245.080812 194.680625,243.913562 C191.887563,242.579562 190.511875,241.537375 190.511875,240.828687 C190.511875,240.578562 190.095,239.95325 189.59475,239.369625 C188.719313,238.4525 188.635937,237.910562 188.510875,232.574562 L188.344125,226.78 L190.095,223.27825 C191.470687,220.401812 192.304438,219.317937 194.59725,217.316937 C198.307437,214.065312 201.225562,212.189375 202.60125,212.189375 C203.226562,212.189375 203.976937,211.897562 204.26875,211.564062 C204.560563,211.230562 205.26925,210.93875 205.894563,210.93875 C206.478187,210.93875 207.437,210.563562 208.020625,210.105 C208.60425,209.646437 209.438,209.27125 209.93825,209.27125 C211.27225,209.27125 211.7725,208.4375 211.7725,206.103 C211.7725,204.894062 211.980937,203.7685 212.189375,203.643437 C212.4395,203.518375 212.60625,202.726312 212.60625,201.975937 C212.60625,201.183875 212.856375,199.93325 213.189875,199.182875 C213.481687,198.4325 214.107,196.765 214.523875,195.514375 C215.232563,193.26325 217.066812,189.844875 218.400813,188.26075 C218.776,187.843875 220.193375,186.968437 221.569063,186.301437 C222.94475,185.676125 224.528875,184.884062 225.1125,184.550562 C226.196375,183.92525 229.7815,183.0915 233.158187,182.716312 C234.242063,182.59125 235.242562,182.299437 235.367625,182.132687 C235.659437,181.59075 247.498688,181.674125 247.832188,182.174375 C247.95725,182.4245 248.62425,182.59125 249.249562,182.59125 C249.916562,182.59125 250.875375,182.92475 251.417312,183.341625 C251.95925,183.7585 253.501688,184.59225 254.794,185.25925 C257.336937,186.468187 259.713125,188.802687 259.713125,190.095 C259.713125,191.178875 259.96325,191.137187 261.464,189.886562 C262.131,189.302937 263.048125,188.844375 263.465,188.844375 C263.881875,188.844375 264.382125,188.677625 264.507187,188.4275 C264.63225,188.219062 266.29975,188.010625 268.175687,188.010625 C270.343437,187.968937 271.96925,187.7605 272.63625,187.385312 C273.47,186.885062 276.4715,186.801687 288.685938,186.76 C303.610063,186.76 303.693437,186.76 305.8195,187.7605 C306.98675,188.302437 308.570875,188.886062 309.362937,189.052812 C311.405625,189.469687 314.282062,192.012625 315.32425,194.26375 C315.8245,195.305937 316.616562,196.723312 317.1585,197.348625 C317.65875,198.015625 318.075625,198.724312 318.075625,198.974437 C318.075625,199.182875 318.575875,200.391812 319.1595,201.642437 C319.784813,202.851375 320.368438,204.685625 320.4935,205.727812 C320.66025,207.437 320.785313,207.60375 321.785813,207.60375 C322.536187,207.60375 323.411625,208.145687 324.453813,209.187875 L325.99625,210.772 L325.99625,221.61075 L325.99625,232.4495 L323.620063,234.784 C320.785313,237.493687 319.868187,238.035625 317.99225,238.035625 L316.616562,238.035625 L316.741625,240.661937 C316.866688,242.871375 316.741625,243.371625 316.032938,244.038625 C315.532688,244.497187 315.1575,245.247562 315.1575,245.7895 C315.1575,246.331437 314.99075,246.831687 314.782312,246.95675 C314.573875,247.081812 314.282062,247.707125 314.115313,248.332437 C313.8235,249.583062 312.364438,251.375625 311.65575,251.375625 C311.447313,251.375625 310.4885,251.875875 309.571375,252.542875 L307.945562,253.668437 L293.938562,253.668437 C280.223375,253.668437 279.8065,253.62675 274.512187,252.501187 C268.675938,251.250562 265.507687,249.95825 263.673437,248.040625 L262.506188,246.831687 L260.421812,249.1245 C258.254062,251.500687 256.586563,252.62625 255.210875,252.62625 C254.794,252.62625 254.085312,253.043125 253.62675,253.501687 C251.62575,255.752812 245.831187,259.004437 241.037125,260.546875 L237.201875,261.7975 L224.987437,261.755812 C214.023625,261.714125 212.689625,261.63075 211.355625,260.922062 Z M246.998437,231.365625 C248.207375,230.240062 248.29075,228.61425 247.1235,227.863875 C246.4565,227.447 245.95625,227.572062 243.371625,228.906062 C242.95475,229.1145 239.536375,229.28125 235.742813,229.28125 L228.864375,229.28125 L228.864375,227.447 C228.864375,225.696125 228.114,224.27875 227.196875,224.27875 C226.154687,224.27875 225.529375,225.696125 225.529375,228.155687 C225.529375,232.61625 225.61275,232.657937 236.868375,232.532875 C245.831187,232.407812 245.914562,232.407812 246.998437,231.365625 Z M302.65125,209.062812 C303.401625,208.187375 302.776312,206.895062 301.31725,206.394812 C300.608562,206.144687 298.524187,205.93625 296.64825,205.93625 L293.271562,205.93625 L291.97925,204.352125 C291.270562,203.518375 290.603562,202.476187 290.436812,202.101 C290.31175,201.684125 289.8115,201.350625 289.352937,201.350625 C288.894375,201.350625 288.394125,201.142187 288.269062,200.93375 C288.102312,200.683625 287.226875,200.1 286.268062,199.641437 C284.767313,198.849375 284.058625,198.766 280.265062,198.93275 C276.805,199.0995 275.721125,199.307937 274.804,199.974937 C274.178687,200.4335 273.011437,201.142187 272.219375,201.559062 C271.427312,201.975937 270.260063,202.684625 269.676437,203.184875 C269.092812,203.685125 268.175687,204.352125 267.675437,204.685625 C265.757812,205.977937 265.549375,208.104 267.258562,208.645937 C268.092312,208.93775 270.927062,207.353625 272.052625,206.061312 C272.30275,205.811187 273.678437,204.852375 275.179187,204.018625 C277.888875,202.476187 281.390625,201.7675 283.558375,202.309437 C284.97575,202.684625 287.560375,204.810687 289.394625,207.1035 L290.937062,209.062812 L295.230875,209.312937 C297.607062,209.438 300.108312,209.563062 300.817,209.60475 C301.567375,209.646437 302.359437,209.438 302.65125,209.062812 Z" id="Shape"></path>
                <path d="M6.16975,187.7605 C6.003,187.635438 4.6273125,187.385312 3.0431875,187.26025 L0.2084375,186.968437 L0.083375,134.358812 L0,81.7075 L11.922625,81.7075 C23.6785,81.7075 26.3881875,81.957625 27.930625,83.1665625 C28.264125,83.458375 29.51475,83.87525 30.6403125,84.1670625 C31.8075625,84.458875 33.3083125,84.9174375 33.9753125,85.2509375 C35.5594375,85.959625 44.6473125,88.794375 45.3143125,88.794375 C45.5644375,88.794375 46.439875,89.1695625 47.19025,89.5864375 C47.940625,90.045 49.3163125,90.54525 50.2334375,90.6703125 C52.8180625,91.128875 55.777875,92.1710625 56.3198125,92.796375 C56.5699375,93.129875 57.111875,93.38 57.4870625,93.38 C57.86225,93.38 59.19625,94.047 60.446875,94.8390625 C61.6975,95.631125 63.0315,96.298125 63.4066875,96.298125 C63.781875,96.298125 65.1575625,97.298625 66.449875,98.54925 C68.5759375,100.633625 68.784375,100.967125 68.784375,102.634625 L68.784375,104.427188 L78.4141875,104.302125 L88.044,104.177063 L90.5869375,105.427688 C93.296625,106.678313 96.1730625,109.22125 99.0078125,112.764688 C100.925437,115.140875 101.0505,115.807875 101.759187,128.189063 C102.676312,144.822375 102.676312,145.947938 101.759187,147.198563 C101.258937,147.865563 100.88375,149.032813 100.88375,149.824875 C100.88375,150.616938 100.717,151.409 100.466875,151.534063 C100.258437,151.659125 100.05,152.326125 100.05,152.951437 C100.05,153.618438 99.633125,154.493875 99.0078125,155.0775 C98.4241875,155.619438 97.965625,156.369813 97.965625,156.786688 C97.965625,157.203563 97.798875,157.953937 97.54875,158.495875 C97.3403125,159.037813 96.965125,160.205062 96.715,161.163875 C96.464875,162.24775 95.5060625,163.7485 93.963625,165.416 L91.629125,168.000625 L82.624625,168.000625 C73.6618125,168.000625 73.53675,168.000625 70.118375,166.75 C68.20075,166.083 66.449875,165.416 66.2414375,165.290937 C66.033,165.124188 65.86625,166.24975 65.86625,167.91725 C65.86625,169.91825 65.6995,170.960438 65.282625,171.293938 C64.949125,171.58575 64.5739375,172.336125 64.4071875,172.961437 C64.032,174.628938 60.947125,177.463687 58.3208125,178.505875 C55.19425,179.7565 47.7321875,180.048313 43.8135625,179.006125 C41.437375,178.380812 40.7286875,177.963938 38.3525,175.671125 L35.6428125,173.044813 L33.8085625,175.212562 C32.8080625,176.4215 31.599125,178.214063 31.098875,179.297937 C29.8065625,182.049313 27.2219375,185.009125 24.7206875,186.634938 L22.5529375,188.010625 L14.4655625,188.010625 C10.0466875,188.010625 6.2948125,187.885562 6.16975,187.7605 Z M33.18325,150.075 C36.9768125,150.075 36.935125,150.116688 39.353,146.990125 C40.5619375,145.447688 40.6453125,145.406 42.688,145.697812 C46.773375,146.198062 50.942125,146.4065 51.9843125,146.114688 C52.8180625,145.90625 52.9848125,145.656125 52.85975,144.530563 L52.7346875,143.196562 L49.19125,142.863063 C47.2319375,142.696313 44.438875,142.446188 42.9798125,142.321125 C39.269625,141.987625 37.602125,142.612938 36.1430625,144.90575 L34.934125,146.74 L31.51575,146.74 C25.9713125,146.74 24.2204375,147.0735 23.928625,148.282438 C23.4700625,150.033313 24.428875,150.616938 27.263625,150.325125 C28.597625,150.200063 31.3073125,150.075 33.18325,150.075 Z M47.106875,121.519063 C47.773875,120.727 47.4820625,119.643125 46.4815625,119.0595 C46.023,118.809375 45.5644375,118.517563 45.439375,118.350813 C45.3143125,118.22575 44.52225,117.7255 43.6468125,117.183563 C42.3128125,116.349813 41.7291875,116.266438 39.4780625,116.516563 C38.0606875,116.641625 35.0175,116.850063 32.683,116.975125 C29.2229375,117.141875 28.3891875,117.100188 27.9723125,116.55825 C27.6388125,116.183063 27.1385625,115.89125 26.84675,115.89125 C26.51325,115.89125 26.0546875,115.432688 25.8045625,114.932438 C25.2209375,113.640125 22.094375,112.139375 20.093375,112.139375 C19.259625,112.139375 17.50875,112.514563 16.258125,113.014813 C15.0075,113.473375 13.3816875,114.057 12.6313125,114.265438 C10.17175,115.015813 9.254625,116.766688 10.672,118.142375 C11.4640625,118.934438 12.256125,118.976125 13.0065,118.267438 C13.2983125,117.975625 13.923625,117.600438 14.3821875,117.475375 C14.84075,117.308625 16.258125,116.808375 17.50875,116.349813 C18.759375,115.849563 20.0516875,115.474375 20.3435,115.474375 C20.6353125,115.474375 21.51075,116.141375 22.3028125,116.89175 C23.094875,117.683813 24.595625,118.851063 25.596125,119.434688 C27.3886875,120.476875 27.6388125,120.518563 33.0165,120.351813 C36.0596875,120.22675 39.1445625,120.018313 39.8115625,119.851563 C40.85375,119.643125 41.354,119.809875 42.688,120.852063 C44.438875,122.22775 46.273125,122.519563 47.106875,121.519063 Z" id="Shape"></path>
                <path d="M327.246875,56.8200625 C326.66325,56.444875 325.579375,55.5694375 324.870688,54.86075 C323.536687,53.6518125 323.495,53.4850625 323.495,50.4835625 C323.495,47.19025 324.287062,44.1470625 325.496,42.771375 C326.163,42.021 326.163,42.021 324.537188,42.271125 C323.620063,42.437875 321.66075,42.688 320.16,42.8964375 C318.65925,43.0631875 316.741625,43.52175 315.8245,43.938625 C313.32325,44.9808125 300.733625,44.8974375 294.105313,43.7301875 C289.686438,42.9798125 288.4775,42.604625 283.933562,40.3535 C281.098813,38.936125 278.097312,37.2269375 277.346938,36.5599375 L275.887875,35.267625 L276.054625,30.765375 L276.179688,26.263125 L284.934062,17.50875 C291.479,10.9638125 294.147,8.587625 295.606063,7.9623125 C296.64825,7.50375 297.773813,6.83675 298.065625,6.50325 C298.357438,6.1280625 299.399625,5.419375 300.400125,4.919125 C302.818,3.751875 303.8185,2.668 303.1515,2.001 C302.859688,1.7091875 302.65125,1.16725 302.65125,0.750375 C302.65125,0.0416875 304.277062,0 338.919375,0 L375.1875,0 L375.1875,28.5559375 C375.1875,48.024 375.062437,57.111875 374.770625,57.111875 C373.811812,57.111875 371.060438,55.4026875 370.01825,54.19375 C369.434625,53.443375 368.725937,52.026 368.475812,51.0255 L368.01725,49.19125 L365.01575,49.19125 C361.639063,49.2329375 356.719938,50.52525 348.715937,53.52675 C340.837,56.444875 336.376438,57.52875 332.040937,57.4870625 C329.289562,57.4870625 327.99725,57.3203125 327.246875,56.8200625 Z M364.932375,39.353 C365.807813,39.0195 365.807813,36.85175 364.932375,36.51825 C364.557187,36.3931875 363.34825,36.268125 362.222688,36.268125 C361.055437,36.268125 359.554688,35.934625 358.804312,35.5594375 C357.470312,34.85075 355.1775,34.3088125 351.967562,33.8919375 L350.175,33.6835 L350.175,29.2229375 C350.175,25.6378125 350.00825,24.4705625 349.34125,23.17825 C347.8405,20.2184375 347.465312,20.01 343.8385,20.01 C340.086625,20.01 340.211687,20.17675 341.045437,15.6328125 C341.504,13.1315625 342.546187,10.7136875 344.00525,8.7126875 C345.464313,6.7950625 343.921875,4.7106875 341.8375,5.83625 C340.711937,6.4615625 338.127313,11.6308125 337.793813,13.9653125 C337.66875,15.0075 337.376937,15.9663125 337.210188,16.091375 C337.00175,16.2164375 336.835,17.425375 336.835,18.8010625 C336.835,20.8854375 337.00175,21.4690625 337.877187,22.3028125 C338.794312,23.2199375 339.211187,23.345 342.212688,23.345 C345.506,23.345 345.589375,23.3866875 346.214687,24.595625 C346.67325,25.4710625 346.84,27.1385625 346.84,30.765375 C346.84,36.4765625 346.881687,36.5599375 350.258375,37.101875 C353.1765,37.5604375 355.511,38.18575 357.261875,38.936125 C358.720937,39.5614375 363.68175,39.8115625 364.932375,39.353 Z" id="Shape"></path>
            </g>
        </g>
    </g>
</svg>