<?xml version="1.0" encoding="UTF-8"?>
<svg width="100px" height="155px" viewBox="0 0 100 155" version="1.1" xmlns="http://www.w3.org/2000/svg" xmlns:xlink="http://www.w3.org/1999/xlink">
    <!-- Generator: Sketch 50.2 (55047) - http://www.bohemiancoding.com/sketch -->
    <title>SkyBackgroundPreview</title>
    <desc>Created with Sketch.</desc>
    <defs></defs>
    <g id="iPhone" stroke="none" stroke-width="1" fill="none" fill-rule="evenodd">
        <g id="SkyBackgroundPreview" fill-rule="nonzero">
            <g id="layer101" fill="#87E5E5">
                <polygon id="Shape" points="0 77.5 0 0 49.8919548 0 99.7839096 0 99.7839096 77.5 99.7839096 155 49.8919548 155 0 155"></polygon>
            </g>
            <g id="layer102" fill="#D8D8D8">
                <path d="M99.2777778,139.942009 C98.9111111,139.913013 98.4555556,139.816362 98.2555556,139.729375 C98.0555556,139.632724 97.7555556,139.565067 97.5777778,139.565067 C96.8777778,139.565067 95.8444444,139.197791 95.3888889,138.791854 C94.9666667,138.414912 94.9555556,138.405247 94.7333333,138.588885 C94.2444444,138.975492 94.1,138.985157 90.5222222,138.985157 L87.0333333,138.985157 L86.0444444,138.704867 C84.6555556,138.29893 83.8111111,137.979979 83.5111111,137.73835 C83.3777778,137.632033 83.2111111,137.535381 83.1555556,137.535381 C82.8555556,137.535381 82.5555556,137.081118 82.5555556,136.626855 L82.5555556,136.162927 L82.2,136.230583 C82,136.269244 80.4777778,136.327235 78.8111111,136.346565 C75.5555556,136.385226 75.4444444,136.375561 74.8111111,135.863307 C74.5777778,135.679669 74.5555556,135.583017 74.5555556,134.597169 C74.5555556,133.292371 74.7444444,132.557818 75.3333333,131.552641 C75.5777778,131.137038 75.7777778,130.67311 75.7777778,130.518467 C75.7777778,130.015878 77.8111111,128.450121 78.4555556,128.450121 C78.6555556,128.450121 78.6666667,128.372799 78.6666667,127.135658 C78.6666667,125.724543 78.6555556,125.763203 79.3888889,124.777356 C79.8555556,124.14912 80.0666667,123.820504 80.3666667,123.279254 C80.4555556,123.124612 80.8,122.738005 81.1444444,122.438385 L81.7555556,121.877805 L83.3111111,121.877805 C84.7444444,121.877805 84.8777778,121.858474 84.9444444,121.694166 C85.0555556,121.394546 86.0777778,120.621332 86.3666667,120.621332 C86.5111111,120.621332 86.7444444,120.515016 86.8888889,120.379703 C87.1444444,120.138074 87.1555556,120.138074 89.1666667,120.138074 C91.1666667,120.138074 91.1888889,120.138074 91.4444444,120.379703 L91.7,120.611667 L92.0222222,120.379703 C92.2,120.244391 92.4222222,120.138074 92.5,120.138074 C92.5888889,120.138074 92.8222222,120.012427 93.0222222,119.857784 C93.2222222,119.712806 93.7555556,119.422851 94.1888889,119.229548 C94.9888889,118.881602 95.0111111,118.881602 96.3888889,118.881602 C97.8777778,118.881602 98.3444444,118.987919 98.8222222,119.451847 C98.9444444,119.567829 99.1444444,119.654815 99.2777778,119.654815 C99.4111111,119.654815 99.6222222,119.751467 99.7555556,119.877114 L100,120.099413 L99.9777778,130.054539 L99.9444444,140 L99.2777778,139.942009 Z" id="Shape"></path>
                <path d="M17.2111111,102.992061 C16.5444444,102.905074 16.2777778,102.818088 15.9333333,102.566793 C15.7,102.39282 15.4222222,102.257508 15.3222222,102.257508 C15.1555556,102.257508 14.7888889,102.141526 14.0555556,101.880566 C12.9222222,101.464964 12.4555556,101.300656 12.2222222,101.242665 C12.0666667,101.204004 11.5,100.981705 10.9444444,100.759406 C10.4,100.537107 9.82222222,100.314808 9.66666667,100.276148 C9.51111111,100.237487 9.1,100.034518 8.74444444,99.8218847 C8.4,99.6189161 7.9,99.3772868 7.64444444,99.2999655 C7.14444444,99.1453227 6.77777778,98.9133586 6.77777778,98.7393856 C6.77777778,98.6717294 6.55555556,98.4301001 6.27777778,98.198136 C6,97.9661719 5.77777778,97.6955471 5.77777778,97.5988954 C5.77777778,97.463583 5.68888889,97.4249223 5.36666667,97.4249223 C4.83333333,97.4249223 4.28888889,97.1349672 4.04444444,96.72903 C3.94444444,96.555057 3.63333333,96.2071108 3.36666667,95.9461512 C2.8,95.4145668 2.55555556,94.9699689 2.55555556,94.46738 C2.55555556,94.2740766 2.47777778,93.8874698 2.37777778,93.5975147 C2.24444444,93.1819123 2.21111111,92.6696583 2.24444444,90.9782534 C2.27777778,89.0258889 2.3,88.8422506 2.53333333,88.4169831 C2.66666667,88.1656886 2.77777778,87.904729 2.77777778,87.8370728 C2.77777778,87.7694166 3.04444444,87.3731446 3.36666667,86.9478771 C3.67777778,86.5322748 4.04444444,86.0490162 4.16666667,85.8750431 C4.28888889,85.7010701 4.48888889,85.4401105 4.61111111,85.2854677 C4.92222222,84.8891957 6.67777778,83.4104246 6.82222222,83.4104246 C6.88888889,83.4104246 7.1,83.3331032 7.27777778,83.2461167 C7.52222222,83.1301346 8.03333333,83.0721436 9.12222222,83.0238177 C9.94444444,82.9851571 10.6888889,82.927166 10.7555556,82.8885054 C10.8444444,82.8401795 10.8888889,82.4632378 10.8888889,81.7576804 C10.8888889,80.9748015 10.9333333,80.6171902 11.0666667,80.3852261 C11.2777778,80.0276148 11.7666667,79.5443562 11.9333333,79.5443562 C11.9888889,79.5443562 12.1666667,79.4380394 12.3222222,79.3220573 C12.4888889,79.1964101 12.8444444,79.022437 13.1333333,78.9257853 C13.4111111,78.8387988 13.7111111,78.7034864 13.7777778,78.626165 C13.8444444,78.5488436 14.1888889,78.4425268 14.5333333,78.3748706 C14.8777778,78.3072144 15.2888889,78.1815671 15.4444444,78.0849154 C15.8888889,77.8239558 16.5555556,77.7852951 22.0666667,77.7466344 L27.3,77.6983086 L27.7,78.0849154 L28.1,78.4715223 L29.5777778,78.5391785 C30.9888889,78.6068347 31.2888889,78.6648257 32,79.0127718 C32.1555556,79.0900932 32.3555556,79.1577494 32.4555556,79.1577494 C32.6333333,79.1577494 32.9888889,79.4670349 33.4888889,80.0566103 C33.6666667,80.2595789 33.8888889,80.4528823 33.9888889,80.4818778 C34.2444444,80.5591992 34.7777778,81.0134622 34.7777778,81.1487746 C34.7777778,81.3807387 35.0111111,81.400069 35.2555556,81.2067656 C35.5333333,80.9844667 37.5222222,80.0856058 38.4444444,79.7763203 C39.8777778,79.2833966 40.4666667,79.2157404 43.2444444,79.1770797 C45.7444444,79.1480842 45.9333333,79.1674146 47.1333333,79.3993787 C47.8222222,79.5443562 48.6888889,79.7376596 49.0555556,79.8343114 C49.4222222,79.9309631 49.9777778,80.0759406 50.2777778,80.153262 C50.8888889,80.3175699 51.4444444,80.4818778 51.9444444,80.6655161 C52.1333333,80.7235071 52.5555556,80.8104936 52.8888889,80.8491543 C54.1222222,80.9844667 55.6333333,81.5643769 56.2555556,82.134622 L56.5666667,82.414912 L56.5333333,84.9375216 L56.5,87.4697963 L55.1777778,88.5522955 C54.4555556,89.1515361 53.7333333,89.6831205 53.6,89.7217812 C53.4555556,89.770107 53.3333333,89.8377632 53.3333333,89.8667587 C53.3333333,89.9054194 53.5111111,90.1760442 53.7333333,90.4659993 C54.4,91.3841905 54.5555556,92.0027615 54.5555556,93.8004833 C54.5555556,94.6703486 54.5111111,95.4049016 54.4555556,95.4435623 C54.4,95.4725578 54.3111111,95.6368657 54.2777778,95.8108388 C54.2333333,95.9751467 54.0333333,96.4294097 53.8333333,96.7966862 C53.5333333,97.3572661 53.2555556,97.6568864 52.2666667,98.4977563 C50.5555556,99.9571971 50.9111111,99.8895409 45.2444444,99.8025544 C42.1555556,99.7542285 40.4888889,99.6865723 39.8555556,99.5899206 C39.3555556,99.5222644 38.6333333,99.4546082 38.2666667,99.4546082 C37.8888889,99.4546082 37.3222222,99.4159475 37,99.3579565 C36.4333333,99.2613048 36.4,99.27097 35.9,99.5995858 C35,100.169831 32.2666667,101.484294 31.0555556,101.919227 C29.3777778,102.528133 28.3888889,102.750431 26.9555556,102.837418 C26.1555556,102.885744 25.1222222,102.97273 24.6666667,103.021056 C23.5444444,103.156369 18.2666667,103.127373 17.2111111,102.992061 Z" id="Shape"></path>
                <path d="M56.3333333,60.4943045 C56.1222222,60.3976527 55.8,60.3203314 55.6111111,60.3106662 C55.3555556,60.3106662 55.1333333,60.185019 54.6777778,59.788747 L54.0888889,59.2571626 L54.1333333,58.1649983 C54.1666667,57.5657577 54.2,57.0051778 54.2333333,56.9278564 C54.2666667,56.8022092 54.1444444,56.792544 53.4444444,56.8118744 C52.6888889,56.8408699 52.5333333,56.8215395 51.8888889,56.5509147 C51.1444444,56.2416293 50.7777778,56 50.7777778,55.8356921 C50.7777778,55.7777011 50.6666667,55.6327235 50.5333333,55.4974111 C50.3,55.2847774 50.2777778,55.1591301 50.2444444,53.9219883 L50.2,52.5785295 L50.6666667,51.7666552 C51.0333333,51.0997584 51.2555556,50.8484639 51.8666667,50.3845357 C52.8555556,49.6306524 53.6333333,49.1957197 54,49.1957197 C54.1666667,49.1957197 54.3666667,49.1280635 54.4444444,49.0507421 C54.5222222,48.9734208 54.7111111,48.9057646 54.8777778,48.9057646 C55.0333333,48.9057646 55.2888889,48.818778 55.4444444,48.7124612 C55.6,48.6061443 55.8222222,48.5191577 55.9555556,48.5191577 C56.3111111,48.5191577 56.4444444,48.3258543 56.4444444,47.7846048 C56.4444444,47.5043148 56.5,47.2433552 56.5555556,47.2143597 C56.6222222,47.1853642 56.6666667,47.0017259 56.6666667,46.8277528 C56.6666667,46.6441146 56.7333333,46.3541595 56.8222222,46.1801864 C56.9,46.0062133 57.0666667,45.6196065 57.1777778,45.3296514 C57.3666667,44.8077321 57.8555556,44.0151881 58.2111111,43.6479116 C58.3111111,43.5512599 58.6888889,43.3482913 59.0555556,43.1936486 C59.4222222,43.048671 59.8444444,42.8650328 60,42.7877114 C60.2888889,42.6427339 61.2444444,42.4494304 62.1444444,42.3624439 C62.4333333,42.3334484 62.7,42.2657922 62.7333333,42.2271315 C62.8111111,42.1014843 65.9666667,42.1208146 66.0555556,42.2367967 C66.0888889,42.2947877 66.2666667,42.3334484 66.4333333,42.3334484 C66.6111111,42.3334484 66.8666667,42.4107698 67.0111111,42.5074215 C67.1555556,42.6040732 67.5666667,42.7973766 67.9111111,42.9520193 C68.5888889,43.2323093 69.2222222,43.7735589 69.2222222,44.0731792 C69.2222222,44.3244736 69.2888889,44.3148084 69.6888889,44.0248533 C69.8666667,43.8895409 70.1111111,43.783224 70.2222222,43.783224 C70.3333333,43.783224 70.4666667,43.7445633 70.5,43.6865723 C70.5333333,43.6382465 70.9777778,43.5899206 71.4777778,43.5899206 C72.0555556,43.5802554 72.4888889,43.5319296 72.6666667,43.444943 C72.8888889,43.328961 73.6888889,43.3096307 76.9444444,43.2999655 C80.9222222,43.2999655 80.9444444,43.2999655 81.5111111,43.5319296 C81.8222222,43.6575768 82.2444444,43.7928892 82.4555556,43.8315499 C83,43.9282016 83.7666667,44.517777 84.0444444,45.0396962 C84.1777778,45.2813255 84.3888889,45.6099413 84.5333333,45.7549189 C84.6666667,45.9095616 84.7777778,46.0738695 84.7777778,46.1318605 C84.7777778,46.1801864 84.9111111,46.4604764 85.0666667,46.7504315 C85.2333333,47.0307214 85.3888889,47.455989 85.4222222,47.6976182 C85.4666667,48.0938902 85.5,48.1325509 85.7666667,48.1325509 C85.9666667,48.1325509 86.2,48.2581981 86.4777778,48.4998274 L86.8888889,48.8671039 L86.8888889,51.3800483 L86.8888889,53.8929928 L86.2555556,54.4342423 C85.5,55.0624784 85.2555556,55.1881256 84.7555556,55.1881256 L84.3888889,55.1881256 L84.4222222,55.7970314 C84.4555556,56.3092855 84.4222222,56.4252675 84.2333333,56.5799103 C84.1,56.6862271 84,56.8602002 84,56.9858474 C84,57.1114946 83.9555556,57.2274767 83.9,57.2564722 C83.8444444,57.2854677 83.7666667,57.4304453 83.7222222,57.5754229 C83.6444444,57.865378 83.2555556,58.2809803 83.0666667,58.2809803 C83.0111111,58.2809803 82.7555556,58.3969624 82.5111111,58.5516051 L82.0777778,58.8125647 L78.3444444,58.8125647 C74.6888889,58.8125647 74.5777778,58.8028996 73.1666667,58.5419399 C71.6111111,58.2519848 70.7666667,57.9523645 70.2777778,57.5077667 L69.9666667,57.2274767 L69.4111111,57.7590611 C68.8333333,58.3099758 68.3888889,58.5709355 68.0222222,58.5709355 C67.9111111,58.5709355 67.7222222,58.6675872 67.6,58.773904 C67.0666667,59.2958233 65.5222222,60.0497066 64.2444444,60.4073179 L63.2222222,60.697273 L59.9666667,60.6876079 C57.0444444,60.6779427 56.6888889,60.6586124 56.3333333,60.4943045 Z" id="Shape"></path>
                <path d="M1.44444444,43.4932689 C1.28888889,43.4546082 0.9,43.4159475 0.588888889,43.4062824 L0,43.3966172 L0,31.170176 L0,18.9437349 L3.17777778,18.9437349 C6.31111111,18.9437349 7.03333333,19.0017259 7.44444444,19.2820159 C7.53333333,19.3496721 7.86666667,19.4463238 8.16666667,19.51398 C8.47777778,19.5816362 8.87777778,19.6879531 9.05555556,19.7652744 C9.47777778,19.9295823 11.9,20.5868139 12.0777778,20.5868139 C12.1444444,20.5868139 12.3777778,20.6738005 12.5777778,20.7704522 C12.7777778,20.8767691 13.1444444,20.9927511 13.3888889,21.0217466 C14.0777778,21.1280635 14.8666667,21.3696928 15.0111111,21.5146703 C15.0777778,21.5919917 15.2222222,21.6499827 15.3222222,21.6499827 C15.4222222,21.6499827 15.7777778,21.8046255 16.1111111,21.9882637 C16.4444444,22.171902 16.8,22.3265447 16.9,22.3265447 C17,22.3265447 17.3666667,22.5585088 17.7111111,22.8484639 C18.2777778,23.3317225 18.3333333,23.4090438 18.3333333,23.7956507 L18.3333333,24.211253 L20.9,24.1822575 L23.4666667,24.153262 L24.1444444,24.4432171 C24.8666667,24.7331722 25.6333333,25.3227477 26.3888889,26.1442872 C26.9,26.6952019 26.9333333,26.8498447 27.1222222,29.7204004 C27.3666667,33.5768036 27.3666667,33.8377632 27.1222222,34.1277183 C26.9888889,34.2823611 26.8888889,34.5529858 26.8888889,34.7366241 C26.8888889,34.9202623 26.8444444,35.1039006 26.7777778,35.1328961 C26.7222222,35.1618916 26.6666667,35.3165343 26.6666667,35.4615119 C26.6666667,35.6161546 26.5555556,35.8191232 26.3888889,35.9544356 C26.2333333,36.0800828 26.1111111,36.2540559 26.1111111,36.3507076 C26.1111111,36.4473593 26.0666667,36.6213324 26,36.7469796 C25.9444444,36.8726269 25.8444444,37.1432516 25.7777778,37.3655506 C25.7111111,37.616845 25.4555556,37.9647912 25.0444444,38.351398 L24.4222222,38.9506386 L22.0222222,38.9506386 C19.6333333,38.9506386 19.6,38.9506386 18.6888889,38.6606835 C18.1777778,38.5060407 17.7111111,38.351398 17.6555556,38.3224025 C17.6,38.2837418 17.5555556,38.5447014 17.5555556,38.9313082 C17.5555556,39.3952365 17.5111111,39.6368657 17.4,39.7141871 C17.3111111,39.7818433 17.2111111,39.9558164 17.1666667,40.1007939 C17.0666667,40.4874008 16.2444444,41.1446324 15.5444444,41.3862616 C14.7111111,41.6762168 12.7222222,41.743873 11.6777778,41.5022437 C11.0444444,41.3572661 10.8555556,41.2606144 10.2222222,40.72903 L9.5,40.1201243 L9.01111111,40.6227132 C8.74444444,40.9030031 8.42222222,41.3186055 8.28888889,41.5698999 C7.94444444,42.2078012 7.25555556,42.8940283 6.58888889,43.27097 L6.01111111,43.5899206 L3.86666667,43.5802554 C2.68888889,43.5705903 1.6,43.5319296 1.44444444,43.4932689 Z" id="Shape"></path>
                <path d="M87.2222222,13.1736279 C87.0666667,13.0866414 86.7777778,12.8836728 86.5888889,12.7193649 C86.2333333,12.4390749 86.2222222,12.4004142 86.2222222,11.7045219 C86.2222222,10.9409734 86.4333333,10.2354159 86.7555556,9.91646531 C86.9333333,9.74249223 86.9333333,9.74249223 86.5,9.80048326 C86.2555556,9.83914394 85.7333333,9.89713497 85.3333333,9.94546082 C84.9333333,9.98412151 84.4222222,10.0904384 84.1777778,10.1870901 C83.5111111,10.4287194 80.1555556,10.409389 78.3888889,10.1387642 C77.2111111,9.96479116 76.8888889,9.87780463 75.6777778,9.3558854 C74.9222222,9.02726959 74.1222222,8.63099758 73.9222222,8.47635485 L73.5333333,8.17673455 L73.5777778,7.1328961 L73.6111111,6.08905765 L75.9444444,4.05937176 C77.6888889,2.54193994 78.4,1.9910252 78.7888889,1.84604764 C79.0666667,1.73973076 79.3666667,1.58508802 79.4444444,1.50776666 C79.5222222,1.42078012 79.8,1.25647221 80.0666667,1.14049016 C80.7111111,0.869865378 80.9777778,0.618570935 80.8,0.463928202 C80.7222222,0.396272006 80.6666667,0.270624784 80.6666667,0.173973076 C80.6666667,0.00966517087 81.1,0 90.3333333,0 L100,0 L100,6.6689679 L100,13.3379358 L99.4555556,13.1059717 C98.7777778,12.8063514 98.3666667,12.3810839 98.2111111,11.8301691 L98.0888889,11.4049016 L97.2888889,11.4049016 C96.3888889,11.4145668 95.0777778,11.7141871 92.9444444,12.4100794 C90.8444444,13.0866414 89.6555556,13.3379358 88.5,13.3282706 C87.7666667,13.3282706 87.4222222,13.2896099 87.2222222,13.1736279 Z" id="Shape"></path>
            </g>
            <g id="layer103" fill="#EAEAEA">
                <path d="M98.3444444,139.80663 C98.0777778,139.700276 97.7222222,139.61326 97.5555556,139.61326 C96.8777778,139.61326 95.8444444,139.245856 95.3888889,138.839779 C94.9666667,138.462707 94.9555556,138.453039 94.7333333,138.63674 C94.2444444,139.023481 94.1,139.033149 90.5222222,139.033149 L87.0333333,139.033149 L86.0444444,138.752762 C84.6555556,138.346685 83.8111111,138.027624 83.5111111,137.785912 C83.3777778,137.679558 83.2111111,137.582873 83.1555556,137.582873 C82.8555556,137.582873 82.5555556,137.128453 82.5555556,136.674033 L82.5555556,136.209945 L82.2,136.277624 C82,136.316298 80.4777778,136.374309 78.8111111,136.393646 C75.5555556,136.43232 75.4444444,136.422652 74.8111111,135.910221 C74.5777778,135.726519 74.5555556,135.629834 74.5555556,134.643646 C74.5555556,133.338398 74.7444444,132.603591 75.3333333,131.598066 C75.5777778,131.18232 75.7777778,130.718232 75.7777778,130.563536 C75.7777778,130.060773 77.8111111,128.494475 78.4555556,128.494475 C78.6555556,128.494475 78.6666667,128.417127 78.6666667,127.179558 C78.6666667,125.767956 78.6555556,125.80663 79.3888889,124.820442 C79.8555556,124.191989 80.0666667,123.86326 80.3666667,123.321823 C80.4555556,123.167127 80.8,122.780387 81.1444444,122.480663 L81.7555556,121.91989 L83.3111111,121.91989 C84.7444444,121.91989 84.8777778,121.900552 84.9444444,121.736188 C85.0555556,121.436464 86.0777778,120.662983 86.3666667,120.662983 C86.5111111,120.662983 86.7444444,120.55663 86.8888889,120.421271 C87.1444444,120.179558 87.1555556,120.179558 89.1666667,120.179558 C91.1666667,120.179558 91.1888889,120.179558 91.4444444,120.421271 L91.7,120.653315 L92.0222222,120.421271 C92.2,120.285912 92.4222222,120.179558 92.5,120.179558 C92.5888889,120.179558 92.8222222,120.053867 93.0222222,119.899171 C93.2222222,119.754144 93.7555556,119.464088 94.1888889,119.270718 C94.9888889,118.922652 95.0111111,118.922652 96.3888889,118.922652 C97.8777778,118.922652 98.3444444,119.029006 98.8222222,119.493094 C98.9444444,119.609116 99.1444444,119.696133 99.2888889,119.696133 C99.4222222,119.696133 99.6444444,119.812155 99.7666667,119.947514 C100,120.208564 100,120.237569 100,130.099448 L100,140 L99.4222222,140 C99.0777778,140 98.6333333,139.912983 98.3444444,139.80663 Z M93.3222222,135.214088 C93.9444444,135.127072 94.5777778,135.088398 94.8666667,135.127072 C95.3666667,135.194751 96.0555556,135.059392 96.5222222,134.798343 C96.6666667,134.720994 97.3222222,134.633978 98.1222222,134.585635 C99.6111111,134.498619 99.8555556,134.401934 99.7333333,133.966851 C99.6666667,133.725138 99.6444444,133.71547 98.7444444,133.725138 C97.4111111,133.725138 96.2666667,133.928177 95.4333333,134.29558 C95.3222222,134.343923 95.0777778,134.334254 94.8333333,134.276243 C94.5333333,134.189227 94.3111111,134.189227 93.9333333,134.276243 C93.2444444,134.440608 93.0888889,134.421271 92.7888889,134.150552 C92.6444444,134.015193 92.4444444,133.90884 92.3333333,133.90884 C92.2222222,133.90884 91.9777778,133.831492 91.7888889,133.744475 C91.5222222,133.609116 91.4,133.599448 91.2555556,133.676796 C90.9555556,133.84116 90.9555556,134.044199 91.2777778,134.382597 C91.5555556,134.662983 91.5555556,134.68232 91.3555556,134.68232 C91.1555556,134.68232 91,134.856354 91,135.069061 C91,135.117403 91.0888889,135.223757 91.1888889,135.310773 C91.3888889,135.494475 91.5,135.484807 93.3222222,135.214088 Z M82.7111111,129.016575 C82.8111111,128.939227 82.8888889,128.755525 82.8888889,128.629834 C82.8888889,128.339779 83.0555556,128.049724 83.3777778,127.75 L83.6,127.546961 L83.7666667,127.740331 C83.9,127.914365 84,127.933702 84.5,127.885359 C85.2555556,127.81768 85.8666667,127.469613 86.2222222,126.899171 C86.5555556,126.357735 87.0111111,126.222376 88.1111111,126.309392 C90.1666667,126.483425 90.5111111,126.493094 90.7,126.319061 C90.9222222,126.135359 90.9444444,125.825967 90.7555556,125.719613 C90.6777778,125.680939 90.3111111,125.632597 89.9444444,125.622928 C89.5777778,125.61326 88.6666667,125.574586 87.9111111,125.54558 C86.5666667,125.477901 86.5333333,125.487569 86.1,125.729282 C85.8333333,125.883978 85.5666667,126.164365 85.4222222,126.415746 C85.2666667,126.686464 85.0666667,126.879834 84.8555556,126.957182 C84.5666667,127.063536 84.5111111,127.053867 84.2666667,126.821823 C83.7333333,126.319061 83.0444444,126.570442 82.3444444,127.508287 C82.0666667,127.895028 82,128.078729 82,128.523481 C82,129.035912 82.0666667,129.142265 82.4111111,129.161602 C82.4777778,129.171271 82.6222222,129.103591 82.7111111,129.016575 Z" id="Shape"></path>
                <path d="M17.2111111,103.027624 C16.5444444,102.940608 16.2777778,102.853591 15.9333333,102.60221 C15.7,102.428177 15.4222222,102.292818 15.3222222,102.292818 C15.1555556,102.292818 14.7888889,102.176796 14.0555556,101.915746 C12.9222222,101.5 12.4555556,101.335635 12.2222222,101.277624 C12.0666667,101.23895 11.5,101.016575 10.9444444,100.794199 C10.4,100.571823 9.82222222,100.349448 9.66666667,100.310773 C9.51111111,100.272099 9.1,100.069061 8.74444444,99.8563536 C8.4,99.6533149 7.9,99.4116022 7.64444444,99.3342541 C7.14444444,99.179558 6.77777778,98.9475138 6.77777778,98.7734807 C6.77777778,98.7058011 6.55555556,98.4640884 6.27777778,98.2320442 C6,98 5.77777778,97.7292818 5.77777778,97.6325967 C5.77777778,97.4972376 5.68888889,97.4585635 5.36666667,97.4585635 C4.83333333,97.4585635 4.28888889,97.1685083 4.04444444,96.7624309 C3.94444444,96.5883978 3.63333333,96.2403315 3.36666667,95.9792818 C2.8,95.4475138 2.55555556,95.0027624 2.55555556,94.5 C2.55555556,94.3066298 2.47777778,93.9198895 2.37777778,93.6298343 C2.24444444,93.2140884 2.21111111,92.7016575 2.24444444,91.0096685 C2.27777778,89.0566298 2.3,88.8729282 2.53333333,88.4475138 C2.66666667,88.1961326 2.77777778,87.9350829 2.77777778,87.8674033 C2.77777778,87.7997238 3.04444444,87.4033149 3.36666667,86.9779006 C3.67777778,86.5621547 4.04444444,86.0787293 4.16666667,85.9046961 C4.28888889,85.730663 4.48888889,85.4696133 4.61111111,85.3149171 C4.92222222,84.9185083 6.67777778,83.4392265 6.82222222,83.4392265 C6.88888889,83.4392265 7.1,83.3618785 7.27777778,83.2748619 C7.52222222,83.1588398 8.03333333,83.1008287 9.12222222,83.0524862 C9.94444444,83.0138122 10.6888889,82.9558011 10.7555556,82.9171271 C10.8444444,82.8687845 10.8888889,82.4917127 10.8888889,81.7859116 C10.8888889,81.0027624 10.9333333,80.6450276 11.0666667,80.4129834 C11.2777778,80.0552486 11.7666667,79.5718232 11.9333333,79.5718232 C11.9888889,79.5718232 12.1666667,79.4654696 12.3222222,79.3494475 C12.4888889,79.2237569 12.8444444,79.0497238 13.1333333,78.9530387 C13.4111111,78.8660221 13.7111111,78.730663 13.7777778,78.6533149 C13.8444444,78.5759669 14.1888889,78.4696133 14.5333333,78.4019337 C14.8777778,78.3342541 15.2888889,78.2085635 15.4444444,78.1118785 C15.8888889,77.8508287 16.5555556,77.8121547 22.0666667,77.7734807 L27.3,77.7251381 L27.7,78.1118785 L28.1,78.4986188 L29.5777778,78.5662983 C30.9888889,78.6339779 31.2888889,78.691989 32,79.0400552 C32.1555556,79.1174033 32.3555556,79.1850829 32.4555556,79.1850829 C32.6333333,79.1850829 32.9888889,79.4944751 33.4888889,80.0842541 C33.6666667,80.2872928 33.8888889,80.480663 33.9888889,80.5096685 C34.2444444,80.5870166 34.7777778,81.0414365 34.7777778,81.1767956 C34.7777778,81.4088398 35.0111111,81.4281768 35.2555556,81.2348066 C35.5333333,81.0124309 37.5222222,80.1132597 38.4444444,79.8038674 C39.8777778,79.3107735 40.4666667,79.2430939 43.2444444,79.2044199 C45.7444444,79.1754144 45.9333333,79.1947514 47.1333333,79.4267956 C47.8222222,79.5718232 48.6888889,79.7651934 49.0555556,79.8618785 C49.4222222,79.9585635 49.9777778,80.1035912 50.2777778,80.1809392 C50.8888889,80.3453039 51.4444444,80.5096685 51.9444444,80.6933702 C52.1333333,80.7513812 52.5555556,80.8383978 52.8888889,80.8770718 C54.1222222,81.0124309 55.6333333,81.5925414 56.2555556,82.1629834 L56.5666667,82.4433702 L56.5333333,84.9668508 L56.5,87.5 L55.1777778,88.5828729 C54.4555556,89.1823204 53.7333333,89.7140884 53.6,89.7527624 C53.4555556,89.801105 53.3333333,89.8687845 53.3333333,89.8977901 C53.3333333,89.9364641 53.5111111,90.2071823 53.7333333,90.4972376 C54.4,91.4157459 54.5555556,92.0345304 54.5555556,93.8328729 C54.5555556,94.7030387 54.5111111,95.4378453 54.4555556,95.4765193 C54.4,95.5055249 54.3111111,95.6698895 54.2777778,95.8439227 C54.2333333,96.0082873 54.0333333,96.4627072 53.8333333,96.8301105 C53.5333333,97.390884 53.2555556,97.6906077 52.2666667,98.531768 C50.5555556,99.9917127 50.9111111,99.9240331 45.2444444,99.8370166 C42.1555556,99.788674 40.4888889,99.7209945 39.8555556,99.6243094 C39.3555556,99.5566298 38.6333333,99.4889503 38.2666667,99.4889503 C37.8888889,99.4889503 37.3222222,99.4502762 37,99.3922652 C36.4333333,99.2955801 36.4,99.3052486 35.9,99.6339779 C35,100.20442 32.2666667,101.519337 31.0555556,101.95442 C29.3777778,102.563536 28.3888889,102.785912 26.9555556,102.872928 C26.1555556,102.921271 25.1222222,103.008287 24.6666667,103.05663 C23.5444444,103.191989 18.2666667,103.162983 17.2111111,103.027624 Z M26.9222222,95.9309392 C27.1777778,95.7279006 27.6888889,95.4088398 28.0555556,95.2251381 L28.7222222,94.8770718 L29.8444444,94.9254144 C30.7888889,94.9544199 30.9888889,94.9447514 31.1444444,94.7997238 C31.7555556,94.2776243 31.2666667,93.6104972 30.5777778,94.0262431 C30.3888889,94.1519337 30.1444444,94.1616022 29.3444444,94.1132597 C28.4,94.0552486 28.3222222,94.0649171 27.9777778,94.2776243 C27.7777778,94.4129834 27.4888889,94.5676796 27.3333333,94.6256906 C27.1777778,94.6837017 26.8222222,94.9060773 26.5333333,95.128453 C26.0777778,95.4765193 25.9555556,95.5248619 25.4777778,95.5248619 C24.5222222,95.5151934 23.4111111,95.1961326 22.7666667,94.7417127 C22.3444444,94.4516575 22,94.558011 22,94.9930939 C22,95.2444751 22.0888889,95.3701657 22.4,95.5828729 C22.6111111,95.7375691 22.9333333,95.8922652 23.0888889,95.9309392 C23.2555556,95.9696133 23.6444444,96.0566298 23.9444444,96.1339779 C24.2555556,96.2209945 24.9333333,96.288674 25.4777778,96.288674 L26.4444444,96.2983425 L26.9222222,95.9309392 Z M42.9777778,91.2030387 C43.0222222,90.8356354 42.9222222,90.7969613 41.6777778,90.7679558 C41.0777778,90.7486188 40.8333333,90.7002762 40.7777778,90.5939227 C40.7333333,90.5165746 40.6444444,90.3522099 40.5777778,90.2361878 C40.5,90.1104972 40.4444444,89.9364641 40.4444444,89.8301105 C40.4444444,89.7237569 40.3222222,89.5110497 40.1666667,89.3563536 C40.0111111,89.191989 39.8111111,88.9116022 39.7222222,88.718232 C39.6333333,88.5248619 39.4222222,88.3024862 39.2444444,88.2058011 C39.0777778,88.1187845 38.7777778,87.9157459 38.5777778,87.7707182 C38.1666667,87.461326 37.5666667,87.4033149 37.2888889,87.6546961 C36.9777778,87.9157459 37.1555556,88.2734807 37.5888889,88.2734807 C38.2777778,88.2734807 39.7666667,90.0331492 39.7777778,90.8646409 C39.7777778,90.9903315 39.8444444,91.1450276 39.9222222,91.2127072 C40.2666667,91.5124309 40.5333333,91.5607735 41.7222222,91.531768 L42.9444444,91.5124309 L42.9777778,91.2030387 Z M13.5333333,90.961326 C13.6111111,90.8936464 13.6666667,90.6616022 13.6666667,90.429558 C13.6666667,90.1201657 13.7222222,89.9848066 13.8888889,89.8977901 C14.0111111,89.8301105 14.1111111,89.7237569 14.1111111,89.6657459 C14.1111111,89.6077348 14.2333333,89.5110497 14.3888889,89.4530387 C14.5444444,89.3950276 14.6666667,89.2790055 14.6666667,89.2016575 C14.6666667,89.1243094 14.8,88.9309392 14.9555556,88.7665746 L15.2444444,88.4668508 L16.4555556,88.4668508 L17.6666667,88.4668508 L18.1111111,88.1187845 C18.3555556,87.9254144 18.5555556,87.7127072 18.5555556,87.6450276 C18.5555556,87.5773481 18.7111111,87.5 18.8888889,87.461326 C19.1444444,87.4226519 19.2777778,87.3162983 19.4,87.0552486 C19.4888889,86.871547 19.5333333,86.6298343 19.5,86.5234807 C19.4,86.2527624 18.8777778,86.281768 18.5777778,86.5814917 C18.4444444,86.7168508 18.2666667,86.8232044 18.1666667,86.8232044 C18.0777778,86.8232044 17.9444444,86.9198895 17.8777778,87.0455801 C17.5222222,87.6546961 17.4,87.6933702 16,87.6933702 C14.7777778,87.6933702 14.6777778,87.7030387 14.4,87.9350829 C14.2444444,88.0607735 14.1111111,88.2348066 14.1111111,88.3218232 C14.1111111,88.4088398 13.9777778,88.5925414 13.8111111,88.7375691 C13,89.4240331 12.7777778,89.7527624 12.7777778,90.2748619 C12.7777778,90.9323204 13.1555556,91.2900552 13.5333333,90.961326 Z M29,84.4060773 C29.1555556,84.3577348 29.4555556,84.2997238 29.6777778,84.2610497 C30.1888889,84.1933702 30.3777778,84 30.2888889,83.6712707 C30.2111111,83.4198895 30.2,83.410221 29.4888889,83.468232 C29.1,83.4875691 28.7111111,83.5552486 28.6333333,83.6132597 C28.5666667,83.6616022 28.0666667,83.7292818 27.5222222,83.7582873 C26.5333333,83.8066298 26.2222222,83.9129834 26.2222222,84.2030387 C26.2222222,84.551105 26.4444444,84.609116 27.6111111,84.551105 C28.2222222,84.5124309 28.8444444,84.4544199 29,84.4060773 Z" id="Shape"></path>
                <path d="M56.3333333,60.5151934 C56.1222222,60.4185083 55.8,60.3411602 55.6111111,60.3314917 C55.3555556,60.3314917 55.1333333,60.2058011 54.6777778,59.8093923 L54.0888889,59.2776243 L54.1333333,58.1850829 C54.1666667,57.5856354 54.2,57.0248619 54.2333333,56.9475138 C54.2666667,56.8218232 54.1444444,56.8121547 53.4444444,56.8314917 C52.6888889,56.8604972 52.5333333,56.8411602 51.8888889,56.570442 C51.1444444,56.2610497 50.7777778,56.019337 50.7777778,55.8549724 C50.7777778,55.7969613 50.6666667,55.6519337 50.5333333,55.5165746 C50.3,55.3038674 50.2777778,55.1781768 50.2444444,53.9406077 L50.2,52.5966851 L50.6666667,51.7845304 C51.0333333,51.1174033 51.2555556,50.8660221 51.8666667,50.4019337 C52.8555556,49.6477901 53.6333333,49.2127072 54,49.2127072 C54.1666667,49.2127072 54.3666667,49.1450276 54.4444444,49.0676796 C54.5222222,48.9903315 54.7111111,48.9226519 54.8777778,48.9226519 C55.0333333,48.9226519 55.2888889,48.8356354 55.4444444,48.7292818 C55.6,48.6229282 55.8222222,48.5359116 55.9555556,48.5359116 C56.3111111,48.5359116 56.4444444,48.3425414 56.4444444,47.801105 C56.4444444,47.5207182 56.5,47.2596685 56.5555556,47.230663 C56.6222222,47.2016575 56.6666667,47.0179558 56.6666667,46.8439227 C56.6666667,46.660221 56.7333333,46.3701657 56.8222222,46.1961326 C56.9,46.0220994 57.0666667,45.6353591 57.1777778,45.3453039 C57.3666667,44.8232044 57.8555556,44.0303867 58.2111111,43.6629834 C58.3111111,43.5662983 58.6888889,43.3632597 59.0555556,43.2085635 C59.4222222,43.0635359 59.8444444,42.8798343 60,42.8024862 C60.2888889,42.6574586 61.2444444,42.4640884 62.1444444,42.3770718 C62.4333333,42.3480663 62.7,42.2803867 62.7333333,42.2417127 C62.8111111,42.1160221 65.9666667,42.1353591 66.0555556,42.2513812 C66.0888889,42.3093923 66.2666667,42.3480663 66.4333333,42.3480663 C66.6111111,42.3480663 66.8666667,42.4254144 67.0111111,42.5220994 C67.1555556,42.6187845 67.5666667,42.8121547 67.9111111,42.9668508 C68.5888889,43.2472376 69.2222222,43.788674 69.2222222,44.0883978 C69.2222222,44.339779 69.2888889,44.3301105 69.6888889,44.0400552 C69.8666667,43.9046961 70.1111111,43.7983425 70.2222222,43.7983425 C70.3333333,43.7983425 70.4666667,43.7596685 70.5,43.7016575 C70.5333333,43.6533149 70.9777778,43.6049724 71.4777778,43.6049724 C72.0555556,43.5953039 72.4888889,43.5469613 72.6666667,43.4599448 C72.8888889,43.3439227 73.6888889,43.3245856 76.9444444,43.3149171 C80.9222222,43.3149171 80.9444444,43.3149171 81.5111111,43.5469613 C81.8222222,43.6726519 82.2444444,43.808011 82.4555556,43.8466851 C83,43.9433702 83.7666667,44.5331492 84.0444444,45.0552486 C84.1777778,45.2969613 84.3888889,45.6256906 84.5333333,45.7707182 C84.6666667,45.9254144 84.7777778,46.089779 84.7777778,46.1477901 C84.7777778,46.1961326 84.9111111,46.4765193 85.0666667,46.7665746 C85.2333333,47.0469613 85.3888889,47.4723757 85.4222222,47.7140884 C85.4666667,48.1104972 85.5,48.1491713 85.7666667,48.1491713 C85.9666667,48.1491713 86.2,48.2748619 86.4777778,48.5165746 L86.8888889,48.8839779 L86.8888889,51.3977901 L86.8888889,53.9116022 L86.2555556,54.4530387 C85.5,55.0814917 85.2555556,55.2071823 84.7555556,55.2071823 L84.3888889,55.2071823 L84.4222222,55.8162983 C84.4555556,56.3287293 84.4222222,56.4447514 84.2333333,56.5994475 C84.1,56.7058011 84,56.8798343 84,57.0055249 C84,57.1312155 83.9555556,57.2472376 83.9,57.2762431 C83.8444444,57.3052486 83.7666667,57.4502762 83.7222222,57.5953039 C83.6444444,57.8853591 83.2555556,58.301105 83.0666667,58.301105 C83.0111111,58.301105 82.7555556,58.4171271 82.5111111,58.5718232 L82.0777778,58.8328729 L78.3444444,58.8328729 C74.6888889,58.8328729 74.5777778,58.8232044 73.1666667,58.5621547 C71.6111111,58.2720994 70.7666667,57.9723757 70.2777778,57.5276243 L69.9666667,57.2472376 L69.4111111,57.7790055 C68.8333333,58.3301105 68.3888889,58.5911602 68.0222222,58.5911602 C67.9111111,58.5911602 67.7222222,58.6878453 67.6,58.7941989 C67.0666667,59.3162983 65.5222222,60.070442 64.2444444,60.4281768 L63.2222222,60.718232 L59.9666667,60.7085635 C57.0444444,60.698895 56.6888889,60.679558 56.3333333,60.5151934 Z M65.8333333,53.660221 C66.1555556,53.3991713 66.1777778,53.0220994 65.8666667,52.8480663 C65.6888889,52.7513812 65.5555556,52.7803867 64.8666667,53.089779 C64.7555556,53.1381215 63.8444444,53.1767956 62.8333333,53.1767956 L61,53.1767956 L61,52.7513812 C61,52.3453039 60.8,52.0165746 60.5555556,52.0165746 C60.2777778,52.0165746 60.1111111,52.3453039 60.1111111,52.9157459 C60.1111111,53.9502762 60.1333333,53.9599448 63.1333333,53.9309392 C65.5222222,53.9019337 65.5444444,53.9019337 65.8333333,53.660221 Z M80.6666667,48.4875691 C80.8666667,48.2845304 80.7,47.9848066 80.3111111,47.8687845 C80.1222222,47.8107735 79.5666667,47.7624309 79.0666667,47.7624309 L78.1666667,47.7624309 L77.8222222,47.3950276 C77.6333333,47.2016575 77.4555556,46.9599448 77.4111111,46.8729282 C77.3777778,46.7762431 77.2444444,46.698895 77.1222222,46.698895 C77,46.698895 76.8666667,46.6505525 76.8333333,46.6022099 C76.7888889,46.5441989 76.5555556,46.4088398 76.3,46.3024862 C75.9,46.1187845 75.7111111,46.0994475 74.7,46.1381215 C73.7777778,46.1767956 73.4888889,46.2251381 73.2444444,46.3798343 C73.0777778,46.4861878 72.7666667,46.6505525 72.5555556,46.7472376 C72.3444444,46.8439227 72.0333333,47.0082873 71.8777778,47.1243094 C71.7222222,47.2403315 71.4777778,47.3950276 71.3444444,47.4723757 C70.8333333,47.7720994 70.7777778,48.2651934 71.2333333,48.390884 C71.4555556,48.4585635 72.2111111,48.0911602 72.5111111,47.7914365 C72.5777778,47.7334254 72.9444444,47.5110497 73.3444444,47.3176796 C74.0666667,46.9599448 75,46.7955801 75.5777778,46.9212707 C75.9555556,47.0082873 76.6444444,47.5013812 77.1333333,48.0331492 L77.5444444,48.4875691 L78.6888889,48.5455801 C79.3222222,48.5745856 79.9888889,48.6035912 80.1777778,48.6132597 C80.3777778,48.6229282 80.5888889,48.5745856 80.6666667,48.4875691 Z" id="Shape"></path>
                <path d="M1.64444444,43.5469613 C1.6,43.5179558 1.23333333,43.4599448 0.811111111,43.4309392 L0.0555555556,43.3632597 L0.0222222222,31.1616022 L0,18.9502762 L3.17777778,18.9502762 C6.31111111,18.9502762 7.03333333,19.0082873 7.44444444,19.288674 C7.53333333,19.3563536 7.86666667,19.4530387 8.16666667,19.5207182 C8.47777778,19.5883978 8.87777778,19.6947514 9.05555556,19.7720994 C9.47777778,19.9364641 11.9,20.5939227 12.0777778,20.5939227 C12.1444444,20.5939227 12.3777778,20.6809392 12.5777778,20.7776243 C12.7777778,20.8839779 13.1444444,21 13.3888889,21.0290055 C14.0777778,21.1353591 14.8666667,21.3770718 15.0111111,21.5220994 C15.0777778,21.5994475 15.2222222,21.6574586 15.3222222,21.6574586 C15.4222222,21.6574586 15.7777778,21.8121547 16.1111111,21.9958564 C16.4444444,22.179558 16.8,22.3342541 16.9,22.3342541 C17,22.3342541 17.3666667,22.5662983 17.7111111,22.8563536 C18.2777778,23.339779 18.3333333,23.4171271 18.3333333,23.8038674 L18.3333333,24.2196133 L20.9,24.1906077 L23.4666667,24.1616022 L24.1444444,24.4516575 C24.8666667,24.7417127 25.6333333,25.3314917 26.3888889,26.1533149 C26.9,26.7044199 26.9333333,26.859116 27.1222222,29.730663 C27.3666667,33.5883978 27.3666667,33.8494475 27.1222222,34.1395028 C26.9888889,34.2941989 26.8888889,34.5649171 26.8888889,34.7486188 C26.8888889,34.9323204 26.8444444,35.1160221 26.7777778,35.1450276 C26.7222222,35.1740331 26.6666667,35.3287293 26.6666667,35.4737569 C26.6666667,35.628453 26.5555556,35.8314917 26.3888889,35.9668508 C26.2333333,36.0925414 26.1111111,36.2665746 26.1111111,36.3632597 C26.1111111,36.4599448 26.0666667,36.6339779 26,36.7596685 C25.9444444,36.8853591 25.8444444,37.1560773 25.7777778,37.378453 C25.7111111,37.6298343 25.4555556,37.9779006 25.0444444,38.3646409 L24.4222222,38.9640884 L22.0222222,38.9640884 C19.6333333,38.9640884 19.6,38.9640884 18.6888889,38.6740331 C18.1777778,38.519337 17.7111111,38.3646409 17.6555556,38.3356354 C17.6,38.2969613 17.5555556,38.558011 17.5555556,38.9447514 C17.5555556,39.4088398 17.5111111,39.6505525 17.4,39.7279006 C17.3111111,39.7955801 17.2111111,39.9696133 17.1666667,40.1146409 C17.0666667,40.5013812 16.2444444,41.1588398 15.5444444,41.4005525 C14.7111111,41.6906077 12.7222222,41.7582873 11.6777778,41.5165746 C11.0444444,41.371547 10.8555556,41.2748619 10.2222222,40.7430939 L9.5,40.1339779 L9.01111111,40.6367403 C8.74444444,40.9171271 8.42222222,41.3328729 8.28888889,41.5842541 C7.94444444,42.2223757 7.25555556,42.9088398 6.58888889,43.2859116 L6.01111111,43.6049724 L3.85555556,43.6049724 C2.67777778,43.6049724 1.67777778,43.5759669 1.64444444,43.5469613 Z M8.84444444,34.8066298 C9.85555556,34.8066298 9.84444444,34.8162983 10.4888889,34.0911602 C10.8111111,33.7334254 10.8333333,33.7237569 11.3777778,33.7914365 C12.4666667,33.9074586 13.5777778,33.9558011 13.8555556,33.8881215 C14.0777778,33.839779 14.1222222,33.781768 14.0888889,33.5207182 L14.0555556,33.211326 L13.1111111,33.1339779 C12.5888889,33.0953039 11.8444444,33.0372928 11.4555556,33.0082873 C10.4666667,32.9309392 10.0222222,33.0759669 9.63333333,33.6077348 L9.31111111,34.0331492 L8.4,34.0331492 C6.92222222,34.0331492 6.45555556,34.1104972 6.37777778,34.390884 C6.25555556,34.7969613 6.51111111,34.9323204 7.26666667,34.8646409 C7.62222222,34.8356354 8.34444444,34.8066298 8.84444444,34.8066298 Z M12.5555556,28.1837017 C12.7333333,28 12.6555556,27.7486188 12.3888889,27.6132597 C12.2666667,27.5552486 12.1444444,27.4875691 12.1111111,27.448895 C12.0777778,27.4198895 11.8666667,27.3038674 11.6333333,27.1781768 C11.2777778,26.9848066 11.1222222,26.9654696 10.5222222,27.0234807 C10.1444444,27.0524862 9.33333333,27.1008287 8.71111111,27.1298343 C7.78888889,27.1685083 7.56666667,27.1588398 7.45555556,27.0331492 C7.36666667,26.9461326 7.23333333,26.878453 7.15555556,26.878453 C7.06666667,26.878453 6.94444444,26.7720994 6.87777778,26.6560773 C6.72222222,26.3563536 5.88888889,26.0082873 5.35555556,26.0082873 C5.13333333,26.0082873 4.66666667,26.0953039 4.33333333,26.211326 C4,26.3176796 3.56666667,26.4530387 3.36666667,26.5013812 C2.71111111,26.6754144 2.46666667,27.0814917 2.84444444,27.4005525 C3.05555556,27.5842541 3.26666667,27.5939227 3.46666667,27.429558 C3.54444444,27.3618785 3.71111111,27.2748619 3.83333333,27.2458564 C3.95555556,27.2071823 4.33333333,27.0911602 4.66666667,26.9848066 C5,26.8687845 5.34444444,26.781768 5.42222222,26.781768 C5.5,26.781768 5.73333333,26.9364641 5.94444444,27.1104972 C6.15555556,27.2941989 6.55555556,27.5649171 6.82222222,27.7002762 C7.3,27.941989 7.36666667,27.9516575 8.8,27.9129834 C9.61111111,27.8839779 10.4333333,27.8356354 10.6111111,27.7969613 C10.8888889,27.7486188 11.0222222,27.7872928 11.3777778,28.0290055 C11.8444444,28.3480663 12.3333333,28.4157459 12.5555556,28.1837017 Z" id="Shape"></path>
                <path d="M87.2222222,13.1781768 C87.0666667,13.0911602 86.7777778,12.8881215 86.5888889,12.7237569 C86.2333333,12.4433702 86.2222222,12.4046961 86.2222222,11.7085635 C86.2222222,10.9447514 86.4333333,10.2389503 86.7555556,9.9198895 C86.9333333,9.74585635 86.9333333,9.74585635 86.5,9.8038674 C86.2555556,9.84254144 85.7333333,9.90055249 85.3333333,9.94889503 C84.9333333,9.98756906 84.4222222,10.0939227 84.1777778,10.1906077 C83.5111111,10.4323204 80.1555556,10.4129834 78.3888889,10.1422652 C77.2111111,9.96823204 76.8888889,9.88121547 75.6777778,9.35911602 C74.9222222,9.03038674 74.1222222,8.6339779 73.9222222,8.47928177 L73.5333333,8.17955801 L73.5777778,7.13535912 L73.6111111,6.09116022 L75.9444444,4.06077348 C77.6888889,2.54281768 78.4,1.99171271 78.7888889,1.84668508 C79.0666667,1.74033149 79.3666667,1.58563536 79.4444444,1.50828729 C79.5222222,1.42127072 79.8,1.25690608 80.0666667,1.14088398 C80.7111111,0.870165746 80.9777778,0.61878453 80.8,0.464088398 C80.7222222,0.39640884 80.6666667,0.270718232 80.6666667,0.174033149 C80.6666667,0.00966850829 81.1,0 90.3333333,0 L100,0 L100,6.62292818 C100,11.1381215 99.9666667,13.2458564 99.8888889,13.2458564 C99.6333333,13.2458564 98.9,12.8494475 98.6222222,12.5690608 C98.4666667,12.3950276 98.2777778,12.0662983 98.2111111,11.8342541 L98.0888889,11.4088398 L97.2888889,11.4088398 C96.3888889,11.4185083 95.0777778,11.718232 92.9444444,12.4143646 C90.8444444,13.0911602 89.6555556,13.3425414 88.5,13.3328729 C87.7666667,13.3328729 87.4222222,13.2941989 87.2222222,13.1781768 Z M97.2666667,9.12707182 C97.5,9.04972376 97.5,8.54696133 97.2666667,8.46961326 C97.1666667,8.44060773 96.8444444,8.41160221 96.5444444,8.41160221 C96.2333333,8.41160221 95.8333333,8.33425414 95.6333333,8.24723757 C95.2777778,8.08287293 94.6666667,7.95718232 93.8111111,7.86049724 L93.3333333,7.8121547 L93.3333333,6.77762431 C93.3333333,5.9461326 93.2888889,5.67541436 93.1111111,5.37569061 C92.7111111,4.68922652 92.6111111,4.64088398 91.6444444,4.64088398 C90.6444444,4.64088398 90.6777778,4.67955801 90.9,3.62569061 C91.0222222,3.04558011 91.3,2.48480663 91.6888889,2.02071823 C92.0777778,1.57596685 91.6666667,1.09254144 91.1111111,1.35359116 C90.8111111,1.49861878 90.1222222,2.69751381 90.0333333,3.23895028 C90,3.48066298 89.9222222,3.70303867 89.8777778,3.7320442 C89.8222222,3.76104972 89.7777778,4.04143646 89.7777778,4.36049724 C89.7777778,4.84392265 89.8222222,4.97928177 90.0555556,5.17265193 C90.3,5.38535912 90.4111111,5.41436464 91.2111111,5.41436464 C92.0888889,5.41436464 92.1111111,5.42403315 92.2777778,5.70441989 C92.4,5.90745856 92.4444444,6.2941989 92.4444444,7.13535912 C92.4444444,8.45994475 92.4555556,8.47928177 93.3555556,8.60497238 C94.1333333,8.71132597 94.7555556,8.85635359 95.2222222,9.03038674 C95.6111111,9.17541436 96.9333333,9.23342541 97.2666667,9.12707182 Z" id="Shape"></path>
            </g>
        </g>
    </g>
</svg>