<?xml version="1.0" encoding="UTF-8"?>
<svg width="102px" height="111px" viewBox="0 0 102 111" version="1.1" xmlns="http://www.w3.org/2000/svg" xmlns:xlink="http://www.w3.org/1999/xlink">
    <!-- Generator: Sketch 50.2 (55047) - http://www.bohemiancoding.com/sketch -->
    <title>SpikeBasket</title>
    <desc>Created with Sketch.</desc>
    <defs></defs>
    <g id="iPhone" stroke="none" stroke-width="1" fill="none" fill-rule="evenodd">
        <g id="SpikeBasket" transform="translate(1.000000, 1.000000)" fill-rule="nonzero">
            <g id="Group" transform="translate(2.142857, 11.733333)">
                <g id="a8gGt3rK2p-link" fill="#879090">
                    <path d="M1.6153217,3.58042987 L2.70583424,4.48479417 L4.06215921,5.35437523 L5.58887677,6.22395628 L7.43593239,7.02397086 L10.5847874,8.13703461 L13.7813522,9.00661566 L16.8075245,9.65010565 L19.302072,10.1196794 L21.3399673,10.4501202 L22.8666848,10.7283862 L25.1226827,11.1457851 L27.9307525,11.3892678 L30.261723,11.6327505 L31.7543621,11.7371002 L35.523446,11.9457996 L40.0422574,12.1197158 L43.4160305,12.2414572 L46.8443293,12.2414572 L51.540349,12.1197158 L55.1731189,11.9457996 L59.5010905,11.6327505 L62.6022356,11.1457851 L66.889313,10.6066448 L69.0158124,10.1196794 L71.6603053,9.49358106 L73.6095965,9.18053188 L76.0973282,8.43269217 L77.6172301,8.01529326 L79.2598146,7.42397814 L80.7320065,6.86744627 L82.0201745,6.34569763 L84.2693566,5.23263388 L86.9751908,3.24998907 L88.7336423,1.02386157 L88.7336423,30.5722259 L77.4263904,80.7644444 L76.8470556,82.5557814 L75.0545256,83.4253625 L73.1665758,84.2775519 L71.0059978,84.7297341 L68.1706652,85.512357 L62.0842421,86.3297632 L54.3824973,86.7819454 L51.6016903,86.9384699 L47.9825518,87.0602113 L41.4940022,87.0602113 L34.3102508,86.7819454 L29.0826063,86.3297632 L25.4293893,85.9471475 C23.6164122,85.6862732 22.6076881,85.5471403 22.4100327,85.512357 C19.738277,85.0775665 18.2388222,84.8166922 17.9184842,84.7297341 C17.5981461,84.642776 17.1687568,84.5384262 16.6235005,84.3992933 C16.5485278,84.3819016 16.1941112,84.2427687 15.5534351,83.999286 L14.5515267,83.3036211 L12.8748637,82.7644809 L12.3023446,82.347082 L11.1777535,81.1296685 L0.408942203,28.8504554 L0.408942203,0.710812386 L0.674754635,2.38040801 L1.6153217,3.58042987 Z" id="a8gGt3rK2p"></path>
                </g>
                <g id="a8gGt3rK2p-link" fill="#000000" fill-opacity="0" stroke="#464D4D">
                    <path d="M1.6153217,3.58042987 L2.70583424,4.48479417 L4.06215921,5.35437523 L5.58887677,6.22395628 L7.43593239,7.02397086 L10.5847874,8.13703461 L13.7813522,9.00661566 L16.8075245,9.65010565 L19.302072,10.1196794 L21.3399673,10.4501202 L22.8666848,10.7283862 L25.1226827,11.1457851 L27.9307525,11.3892678 L30.261723,11.6327505 L31.7543621,11.7371002 L35.523446,11.9457996 L40.0422574,12.1197158 L43.4160305,12.2414572 L46.8443293,12.2414572 L51.540349,12.1197158 L55.1731189,11.9457996 L59.5010905,11.6327505 L62.6022356,11.1457851 L66.889313,10.6066448 L69.0158124,10.1196794 L71.6603053,9.49358106 L73.6095965,9.18053188 L76.0973282,8.43269217 L77.6172301,8.01529326 L79.2598146,7.42397814 L80.7320065,6.86744627 L82.0201745,6.34569763 L84.2693566,5.23263388 L86.9751908,3.24998907 L88.7336423,1.02386157 L88.7336423,30.5722259 L77.4263904,80.7644444 L76.8470556,82.5557814 L75.0545256,83.4253625 L73.1665758,84.2775519 L71.0059978,84.7297341 L68.1706652,85.512357 L62.0842421,86.3297632 L54.3824973,86.7819454 L51.6016903,86.9384699 L47.9825518,87.0602113 L41.4940022,87.0602113 L34.3102508,86.7819454 L29.0826063,86.3297632 L25.4293893,85.9471475 C23.6164122,85.6862732 22.6076881,85.5471403 22.4100327,85.512357 C19.738277,85.0775665 18.2388222,84.8166922 17.9184842,84.7297341 C17.5981461,84.642776 17.1687568,84.5384262 16.6235005,84.3992933 C16.5485278,84.3819016 16.1941112,84.2427687 15.5534351,83.999286 L14.5515267,83.3036211 L12.8748637,82.7644809 L12.3023446,82.347082 L11.1777535,81.1296685 L0.408942203,28.8504554 L0.408942203,0.710812386 L0.674754635,2.38040801 L1.6153217,3.58042987 Z" id="a8gGt3rK2p"></path>
                </g>
            </g>
            <g id="Group" transform="translate(2.142857, 0.000000)">
                <g id="b6VpFU8prT-link" fill="#555F5F">
                    <path d="M44.5747001,23.176127 C20.2017448,23.176127 0.408942203,18.064254 0.408942203,11.7780317 C0.408942203,5.49180952 20.2017448,0.379936508 44.5747001,0.379936508 C68.9476554,0.379936508 88.7336423,5.49180952 88.7336423,11.7780317 C88.7336423,18.064254 68.9476554,23.176127 44.5747001,23.176127 Z" id="b6VpFU8prT"></path>
                </g>
                <g id="b6VpFU8prT-link" fill="#000000" fill-opacity="0" stroke="#464D4D">
                    <path d="M44.5747001,23.176127 C20.2017448,23.176127 0.408942203,18.064254 0.408942203,11.7780317 C0.408942203,5.49180952 20.2017448,0.379936508 44.5747001,0.379936508 C68.9476554,0.379936508 88.7336423,5.49180952 88.7336423,11.7780317 C88.7336423,18.064254 68.9476554,23.176127 44.5747001,23.176127 Z" id="b6VpFU8prT"></path>
                </g>
            </g>
            <g id="Group" transform="translate(0.000000, 41.066667)">
                <g id="aH5pVOCjQ-link" fill="#879090">
                    <polyline id="aH5pVOCjQ" points="10.9647059 26.6986645 0.21512605 15.3508618 10.5210084 0.0174046053"></polyline>
                </g>
                <g id="aH5pVOCjQ-link" fill="#000000" fill-opacity="0" stroke="#464D4D">
                    <polyline id="aH5pVOCjQ" points="10.9647059 26.6986645 0.21512605 15.3508618 10.5210084 0.0174046053"></polyline>
                </g>
            </g>
            <g id="a6jEc6HwH4-link" transform="translate(17.857143, 27.866667)" fill="#000000" fill-opacity="0" stroke="#464D4D">
                <polyline id="a6jEc6HwH4" points="10.4397321 0.0341316872 0.502232143 1.68951852 6.40178571 18.9601523"></polyline>
            </g>
            <g id="Group" transform="translate(12.142857, 73.333333)">
                <g id="aFBf18HMo-link" fill="#879090">
                    <polyline id="aFBf18HMo" points="12.4308271 19.0691111 0.622556391 20.7257299 9.23007519 0.0348991453"></polyline>
                </g>
                <g id="aFBf18HMo-link" fill="#000000" fill-opacity="0" stroke="#464D4D">
                    <polyline id="aFBf18HMo" points="12.4308271 19.0691111 0.622556391 20.7257299 9.23007519 0.0348991453"></polyline>
                </g>
            </g>
            <g id="Group" transform="translate(35.000000, 76.266667)">
                <g id="hku2CmrHI-link" fill="#879090">
                    <polyline id="hku2CmrHI" points="8.53186813 2.41755556 1.86593407 30.9902593 0.250549451 0.700740741"></polyline>
                </g>
                <g id="hku2CmrHI-link" fill="#000000" fill-opacity="0" stroke="#464D4D">
                    <polyline id="hku2CmrHI" points="8.53186813 2.41755556 1.86593407 30.9902593 0.250549451 0.700740741"></polyline>
                </g>
            </g>
            <g id="h3NBCsm4tE-link" transform="translate(28.571429, 38.133333)" fill="#000000" fill-opacity="0" stroke="#464D4D">
                <polyline id="h3NBCsm4tE" points="10.4866071 22.9170794 0.160714286 13.056 10.4866071 0.0863492063"></polyline>
            </g>
            <g id="dmklspdSf-link" transform="translate(50.714286, 62.333333)" fill="#000000" fill-opacity="0" stroke="#464D4D">
                <polyline id="dmklspdSf" points="5.72773109 0.156133545 11.3210084 26.2610747 0.571428571 21.9073831"></polyline>
            </g>
            <g id="e2dAbJZZ4-link" transform="translate(49.285714, 32.266667)" fill="#000000" fill-opacity="0" stroke="#464D4D">
                <polyline id="e2dAbJZZ4" points="0.511363636 19.5949286 14.4136364 16.2454286 7.73863636 0.369482143"></polyline>
            </g>
            <g id="Group" transform="translate(69.285714, 78.466667)">
                <g id="a2HEXsBioi-link" fill="#879090">
                    <polyline id="a2HEXsBioi" points="8.03736264 0.220280702 6.42197802 31.3651053 0.184615385 5.46024561"></polyline>
                </g>
                <g id="a2HEXsBioi-link" fill="#000000" fill-opacity="0" stroke="#464D4D">
                    <polyline id="a2HEXsBioi" points="8.03736264 0.220280702 6.42197802 31.3651053 0.184615385 5.46024561"></polyline>
                </g>
            </g>
            <g id="b5XS76oY8-link" transform="translate(68.571429, 38.866667)" fill="#000000" fill-opacity="0" stroke="#464D4D">
                <polyline id="b5XS76oY8" points="9.55238095 0.484419048 12.0888889 24.7623619 0.418253968 15.8376533"></polyline>
            </g>
            <g id="Group" transform="translate(85.000000, 27.866667)">
                <g id="mM1DszCFT-link" fill="#879090">
                    <polyline id="mM1DszCFT" points="0.190909091 26.4375954 14.5363636 15.6467401 0.859090909 0.0348092105"></polyline>
                </g>
                <g id="mM1DszCFT-link" fill="#000000" fill-opacity="0" stroke="#464D4D">
                    <polyline id="mM1DszCFT" points="0.190909091 26.4375954 14.5363636 15.6467401 0.859090909 0.0348092105"></polyline>
                </g>
            </g>
        </g>
    </g>
</svg>