<?xml version="1.0" encoding="UTF-8"?>
<svg width="147px" height="161px" viewBox="0 0 147 161" version="1.1" xmlns="http://www.w3.org/2000/svg" xmlns:xlink="http://www.w3.org/1999/xlink">
    <!-- Generator: Sketch 50.2 (55047) - http://www.bohemiancoding.com/sketch -->
    <title>SpikeBasketPreview</title>
    <desc>Created with Sketch.</desc>
    <defs></defs>
    <g id="iPhone" stroke="none" stroke-width="1" fill="none" fill-rule="evenodd">
        <g id="SpikeBasketPreview" transform="translate(1.000000, 0.000000)" fill-rule="nonzero">
            <g id="Group" transform="translate(3.000000, 18.000000)">
                <g id="a8gGt3rK2p-link" fill="#879090">
                    <path d="M2.3519084,4.25166185 L3.93969466,5.57815493 L5.91450382,6.85362906 L8.13740458,8.12910318 L10.8267176,9.30253938 L15.4114504,10.9351463 L20.0656489,12.2106204 L24.4717557,13.1544712 L28.1038168,13.8432273 L31.0709924,14.3279074 L33.2938931,14.7360591 L36.578626,15.3482867 L40.6671756,15.7054195 L44.0610687,16.0625522 L46.2343511,16.2156091 L51.7221374,16.5217229 L58.3015267,16.7768177 L63.2137405,16.9553841 L68.2053435,16.9553841 L75.0427481,16.7768177 L80.3320611,16.5217229 L86.6335878,16.0625522 L91.148855,15.3482867 L97.3908397,14.5574928 L100.487023,13.8432273 L104.337405,12.9248859 L107.175573,12.4657152 L110.79771,11.3688075 L113.010687,10.7565799 L115.40229,9.88925747 L117.545802,9.07295403 L119.421374,8.30766956 L122.696183,6.67506268 L126.635878,3.76698168 L129.196183,0.50176792 L129.196183,43.8423787 L112.732824,117.462745 L111.889313,120.090222 L109.279389,121.365696 L106.530534,122.615661 L103.384733,123.278907 L99.2564885,124.426834 L90.3946565,125.625779 L79.180916,126.289026 L75.1320611,126.518611 L69.8625954,126.697178 L60.4152672,126.697178 L49.9557252,126.289026 L42.3442748,125.625779 L37.0251908,125.064571 C34.3854962,124.681929 32.9167939,124.477853 32.6290076,124.426834 C28.7389313,123.789097 26.5557252,123.406455 26.089313,123.278907 C25.6229008,123.15136 24.9977099,122.998303 24.2038168,122.794227 C24.0946565,122.768717 23.578626,122.564642 22.6458015,122.207509 L21.1870229,121.18713 L18.7458015,120.396336 L17.9122137,119.784108 L16.2748092,117.998444 L0.595419847,41.3169399 L0.595419847,0.0425972356 L0.982442748,2.49150755 L2.3519084,4.25166185 Z" id="a8gGt3rK2p"></path>
                </g>
                <g id="a8gGt3rK2p-link" fill="#000000" fill-opacity="0" stroke="#464D4D">
                    <path d="M2.3519084,4.25166185 L3.93969466,5.57815493 L5.91450382,6.85362906 L8.13740458,8.12910318 L10.8267176,9.30253938 L15.4114504,10.9351463 L20.0656489,12.2106204 L24.4717557,13.1544712 L28.1038168,13.8432273 L31.0709924,14.3279074 L33.2938931,14.7360591 L36.578626,15.3482867 L40.6671756,15.7054195 L44.0610687,16.0625522 L46.2343511,16.2156091 L51.7221374,16.5217229 L58.3015267,16.7768177 L63.2137405,16.9553841 L68.2053435,16.9553841 L75.0427481,16.7768177 L80.3320611,16.5217229 L86.6335878,16.0625522 L91.148855,15.3482867 L97.3908397,14.5574928 L100.487023,13.8432273 L104.337405,12.9248859 L107.175573,12.4657152 L110.79771,11.3688075 L113.010687,10.7565799 L115.40229,9.88925747 L117.545802,9.07295403 L119.421374,8.30766956 L122.696183,6.67506268 L126.635878,3.76698168 L129.196183,0.50176792 L129.196183,43.8423787 L112.732824,117.462745 L111.889313,120.090222 L109.279389,121.365696 L106.530534,122.615661 L103.384733,123.278907 L99.2564885,124.426834 L90.3946565,125.625779 L79.180916,126.289026 L75.1320611,126.518611 L69.8625954,126.697178 L60.4152672,126.697178 L49.9557252,126.289026 L42.3442748,125.625779 L37.0251908,125.064571 C34.3854962,124.681929 32.9167939,124.477853 32.6290076,124.426834 C28.7389313,123.789097 26.5557252,123.406455 26.089313,123.278907 C25.6229008,123.15136 24.9977099,122.998303 24.2038168,122.794227 C24.0946565,122.768717 23.578626,122.564642 22.6458015,122.207509 L21.1870229,121.18713 L18.7458015,120.396336 L17.9122137,119.784108 L16.2748092,117.998444 L0.595419847,41.3169399 L0.595419847,0.0425972356 L0.982442748,2.49150755 L2.3519084,4.25166185 Z" id="a8gGt3rK2p"></path>
                </g>
            </g>
            <g id="Group" transform="translate(3.000000, 0.000000)">
                <g id="b6VpFU8prT-link" fill="#555F5F">
                    <path d="M64.9007634,33.5790476 C29.4137405,33.5790476 0.595419847,26.1726407 0.595419847,17.0647619 C0.595419847,7.95688312 29.4137405,0.55047619 64.9007634,0.55047619 C100.387786,0.55047619 129.196183,7.95688312 129.196183,17.0647619 C129.196183,26.1726407 100.387786,33.5790476 64.9007634,33.5790476 Z" id="b6VpFU8prT"></path>
                </g>
                <g id="b6VpFU8prT-link" fill="#000000" fill-opacity="0" stroke="#464D4D">
                    <path d="M64.9007634,33.5790476 C29.4137405,33.5790476 0.595419847,26.1726407 0.595419847,17.0647619 C0.595419847,7.95688312 29.4137405,0.55047619 64.9007634,0.55047619 C100.387786,0.55047619 129.196183,7.95688312 129.196183,17.0647619 C129.196183,26.1726407 100.387786,33.5790476 64.9007634,33.5790476 Z" id="b6VpFU8prT"></path>
                </g>
            </g>
            <g id="Group" transform="translate(0.000000, 60.000000)">
                <g id="aH5pVOCjQ-link" fill="#879090">
                    <polyline id="aH5pVOCjQ" points="16.31 39.3592105 0.32 22.6302632 15.65 0.0256578947"></polyline>
                </g>
                <g id="aH5pVOCjQ-link" fill="#000000" fill-opacity="0" stroke="#464D4D">
                    <polyline id="aH5pVOCjQ" points="16.31 39.3592105 0.32 22.6302632 15.65 0.0256578947"></polyline>
                </g>
            </g>
            <g id="a6jEc6HwH4-link" transform="translate(26.000000, 41.000000)" fill="#000000" fill-opacity="0" stroke="#464D4D">
                <polyline id="a6jEc6HwH4" points="15.59 0.0501234568 0.75 2.48111111 9.56 27.8435802"></polyline>
            </g>
            <g id="Group" transform="translate(18.000000, 107.000000)">
                <g id="aFBf18HMo-link" fill="#879090">
                    <polyline id="aFBf18HMo" points="18.37 27.7966667 0.92 30.2114872 13.64 0.0508717949"></polyline>
                </g>
                <g id="aFBf18HMo-link" fill="#000000" fill-opacity="0" stroke="#464D4D">
                    <polyline id="aFBf18HMo" points="18.37 27.7966667 0.92 30.2114872 13.64 0.0508717949"></polyline>
                </g>
            </g>
            <g id="Group" transform="translate(51.000000, 113.000000)">
                <g id="hku2CmrHI-link" fill="#879090">
                    <polyline id="hku2CmrHI" points="12.94 2.52666667 2.83 44.2077778 0.38 0.0222222222"></polyline>
                </g>
                <g id="hku2CmrHI-link" fill="#000000" fill-opacity="0" stroke="#464D4D">
                    <polyline id="hku2CmrHI" points="12.94 2.52666667 2.83 44.2077778 0.38 0.0222222222"></polyline>
                </g>
            </g>
            <g id="h3NBCsm4tE-link" transform="translate(42.000000, 56.000000)" fill="#000000" fill-opacity="0" stroke="#464D4D">
                <polyline id="h3NBCsm4tE" points="15.66 33.2037229 0.24 18.9163636 15.66 0.125108225"></polyline>
            </g>
            <g id="dmklspdSf-link" transform="translate(74.000000, 91.000000)" fill="#000000" fill-opacity="0" stroke="#464D4D">
                <polyline id="dmklspdSf" points="8.52 0.230651828 16.84 38.7947695 0.85 32.3631797"></polyline>
            </g>
            <g id="e2dAbJZZ4-link" transform="translate(72.000000, 47.000000)" fill="#000000" fill-opacity="0" stroke="#464D4D">
                <polyline id="e2dAbJZZ4" points="0.75 28.6996429 21.14 23.7938095 11.35 0.541160714"></polyline>
            </g>
            <g id="Group" transform="translate(101.000000, 115.000000)">
                <g id="a2HEXsBioi-link" fill="#879090">
                    <polyline id="a2HEXsBioi" points="12.19 0.321339713 9.74 45.7545933 0.28 7.96526316"></polyline>
                </g>
                <g id="a2HEXsBioi-link" fill="#000000" fill-opacity="0" stroke="#464D4D">
                    <polyline id="a2HEXsBioi" points="12.19 0.321339713 9.74 45.7545933 0.28 7.96526316"></polyline>
                </g>
            </g>
            <g id="b5XS76oY8-link" transform="translate(100.000000, 57.000000)" fill="#000000" fill-opacity="0" stroke="#464D4D">
                <polyline id="b5XS76oY8" points="14.16 0.699428571 17.92 35.7531429 0.62 22.8672"></polyline>
            </g>
            <g id="Group" transform="translate(124.000000, 41.000000)">
                <g id="mM1DszCFT-link" fill="#879090">
                    <polyline id="mM1DszCFT" points="0.28 38.9743421 21.32 23.0664474 1.26 0.0513157895"></polyline>
                </g>
                <g id="mM1DszCFT-link" fill="#000000" fill-opacity="0" stroke="#464D4D">
                    <polyline id="mM1DszCFT" points="0.28 38.9743421 21.32 23.0664474 1.26 0.0513157895"></polyline>
                </g>
            </g>
        </g>
    </g>
</svg>