<?xml version="1.0" encoding="UTF-8"?>
<svg width="212px" height="91px" viewBox="0 0 212 91" version="1.1" xmlns="http://www.w3.org/2000/svg" xmlns:xlink="http://www.w3.org/1999/xlink">
    <!-- Generator: Sketch 50.2 (55047) - http://www.bohemiancoding.com/sketch -->
    <title>StartButtonPushed</title>
    <desc>Created with Sketch.</desc>
    <defs></defs>
    <g id="iPhone" stroke="none" stroke-width="1" fill="none" fill-rule="evenodd">
        <g id="StartButtonPushed" fill-rule="nonzero">
            <polygon id="Shape" fill="#000000" points="0.556430446 0 0 91 212 90.445122 212 0"></polygon>
            <path d="M9,5.93478261 C10.8848103,8.68923107 14.257623,12.0422534 17.362069,13.2061536 C20.5567138,14.4038291 25.1486603,13.5576868 28.5114943,13.5576868 L52.4827586,13.5576868 L161.747126,13.5576868 L180.143678,13.5576868 C183.84473,13.5576868 188.232029,14.234542 191.850575,13.3798972 C195.373236,12.5478865 200.685937,8.79507217 203,5.93478261 L9,5.93478261 Z" id="Shape" fill="#BEBE00"></path>
            <path d="M6,7.91304348 L6,84.076087 C9.09339666,82.4105068 13.0993272,79.3511986 14.2253274,75.7370676 C15.4767644,71.719884 14.5258641,66.0421237 14.5258641,61.838702 L14.5258641,32.3741669 C14.5258641,27.683135 15.7824167,20.6665729 14.2043325,16.254231 C13.0279231,12.9649882 8.5283983,10.1279426 6,7.91304348 Z" id="Shape" fill="#BEBE00"></path>
            <path d="M206,84.076087 L206,10.8804348 C202.745358,12.0545921 196.215261,14.9880317 194.784814,18.1941664 C193.252606,21.6299593 194.436164,27.5371236 194.436164,31.243135 L194.436164,60.9616705 C194.436164,64.0799153 194.467387,67.1998112 194.433852,70.3175057 C194.417084,71.8986419 193.995004,73.7654062 194.637953,75.2700446 C196.200228,78.9265252 202.174683,82.913762 206,84.076087 Z" id="Shape" fill="#BEBE00"></path>
            <polygon id="Shape" fill="#BEBE00" points="18 16.8152174 18 73.1956522 189 73.1956522 189 16.8152174"></polygon>
            <path d="M144.786285,35.9954227 C143.147207,35.8870914 140.494517,34.5835756 139.012211,35.4795004 C137.192034,36.5794455 138.128341,39.1138816 139.460363,40.1514575 C140.950778,41.3124795 143.034223,41.0509784 144.786285,41.0523831 C144.786285,44.8326296 145.507436,48.558879 145.523113,52.2900729 C145.530141,54.0084843 144.87278,55.6275544 144.812233,57.3470333 C144.753849,59.0085258 144.954409,61.3510222 146.96974,61.5802711 C149.29429,61.8443568 149.670002,59.0680855 150.11437,57.3470333 C151.476664,52.0776244 149.665678,46.9391907 149.651622,41.6142676 C151.593432,41.6142676 158,42.6672392 158,39.3667297 C158,36.0662202 151.593432,37.1191917 149.651622,37.1191917 C149.651622,34.4147293 150.959857,26.3466861 147.865503,25.1297005 C146.503208,24.5938312 145.451214,25.814132 145.06415,27.0381973 C144.22569,29.6905169 144.786285,33.226175 144.786285,35.9954227 Z" id="Shape" fill="#000000"></path>
            <path d="M68.6848771,56.5592279 C65.1895818,57.3501904 61.7038212,58.4170449 58.0306764,58.1470918 C56.3118571,58.0212937 54.2385727,56.3556833 52.5908147,57.0969744 C49.6099425,58.4386411 51.2998213,61.9534299 53.7242057,62.7627492 C57.7616868,64.1108947 62.4974417,62.5867398 66.4633006,62.0192984 C68.86884,61.6753782 71.7488691,61.3163407 73.1560732,59.0811294 C76.3714981,53.9749673 69.6675083,45.103716 65.3197019,42.8224507 C62.4912722,41.3383568 58.1453728,41.4417488 57.551139,37.6600305 C56.5817442,31.4906313 62.8272289,31.7674412 66.918721,29.7996994 C68.1767357,29.1945726 68.8699617,27.7693824 67.7745972,26.6498331 C66.0763055,24.913765 62.292166,26.0461641 60.2719392,26.5157204 C54.1901142,27.9292486 52.3921572,31.509528 52.4203125,37.1226079 C52.4292863,38.9180117 52.3651797,40.8568146 53.4598151,42.4087747 C55.9569433,45.949209 60.2607219,45.7693123 63.5782238,47.9236456 C66.3085026,49.6966973 67.5883909,53.7033946 68.6848771,56.5592279 Z" id="Shape" fill="#000000"></path>
            <path d="M85.8820178,43.190929 C88.1324879,43.190929 91.4388369,43.7928947 93.523407,42.8590035 C95.1518906,42.1293615 95.5957703,39.8625974 94.0261007,38.8054856 C91.9836992,37.4296505 87.704144,38.2401011 85.3271682,38.2401011 C85.3271682,35.4357871 86.1705396,31.0481434 84.9925939,28.4640863 C84.2563084,26.8495663 81.9697731,26.4092726 80.9039069,27.9653729 C79.3497731,30.2332371 81.161912,33.5356044 79.9989472,35.9264142 C78.8276596,38.3331766 73.8023865,34.4213625 74.0060163,38.8003698 C74.1979943,42.9186335 79.7814461,41.6376342 80.711929,44.901055 C81.1524796,46.4462634 80.8639578,48.202047 81.1458214,49.7920329 C81.5103576,51.8518523 82.5407133,53.888953 82.7831826,55.9365604 C82.9707218,57.518625 81.5669522,59.5198596 82.8980365,60.8499821 C84.8377908,62.7885062 87.6519882,60.7086084 88.0192986,58.5439964 C88.877651,53.4815549 85.8964439,48.3425955 85.8820178,43.190929 Z" id="Shape" fill="#000000"></path>
            <path d="M130.178084,39.5998324 C126.368998,40.0617664 121.664732,40.4249582 120.441413,44.7052052 C120.007957,46.2199263 120.20085,47.9489264 120.20085,49.5032617 C120.20085,51.7313041 118.893279,59.8525235 122.950687,59.3230908 C124.792595,59.0826335 125.089695,57.3530469 125.336908,55.8991066 C125.823021,53.0424629 125.379589,49.0890993 126.773076,46.487735 C128.154368,43.9099366 131.679657,45.2657213 133.74051,43.6713453 C137.216467,40.9821154 132.656872,39.2991808 130.178084,39.5998324 Z" id="Shape" fill="#000000"></path>
            <path d="M102.087914,40.5124503 C96.8443101,42.6982532 93.7929537,53.8967001 97.9212925,58.1389155 C99.7340909,60.0022466 104.147298,60.1210403 106.482543,59.291158 C107.807237,58.8204452 108.729962,57.5761795 110.170067,57.4027296 C111.955843,57.187451 113.774271,58.814868 115.478977,57.8996551 C119.922585,55.514859 113.294048,53.0049113 112.502497,51.1727566 C111.621995,49.1333544 112.543032,46.693902 111.983992,44.582164 C110.968937,40.7482529 105.547431,39.0704741 102.087914,40.5124503 Z" id="Shape" fill="#000000"></path>
            <path d="M100,54.9130435 C109.079241,54.4925646 107.955133,49.1651773 107.95627,45.0054348 C100.119344,45.7936841 100.019322,51.0982839 100,54.9130435 Z" id="Shape" fill="#BEBE00"></path>
            <path d="M12,85.0652174 L200,85.0652174 C197.97316,82.7718236 194.934012,78.9509524 192.054497,77.7724104 C189.22671,76.6156428 184.675219,77.4441606 181.64497,77.4441606 L158.840237,77.4441606 L54.2721893,77.4441606 L30.3550296,77.4441606 C27.0700355,77.4441606 22.3470083,76.6047556 19.252684,77.7724104 C16.4297361,78.8377252 13.693168,82.7124883 12,85.0652174 Z" id="Shape" fill="#BEBE00"></path>
        </g>
    </g>
</svg>