<?xml version="1.0" encoding="UTF-8"?>
<svg width="212px" height="91px" viewBox="0 0 212 91" version="1.1" xmlns="http://www.w3.org/2000/svg" xmlns:xlink="http://www.w3.org/1999/xlink">
    <!-- Generator: Sketch 50.2 (55047) - http://www.bohemiancoding.com/sketch -->
    <title>StartButton</title>
    <desc>Created with Sketch.</desc>
    <defs></defs>
    <g id="iPhone" stroke="none" stroke-width="1" fill="none" fill-rule="evenodd">
        <g id="StartButton" fill-rule="nonzero">
            <polygon id="Shape" fill="#000000" points="0.556430446 0 0 91 212 90.445122 212 0"></polygon>
            <path d="M9,5.93478261 C10.8848103,8.68923107 14.257623,12.0422534 17.362069,13.2061536 C20.5567138,14.4038291 25.1486603,13.5576868 28.5114943,13.5576868 L52.4827586,13.5576868 L161.747126,13.5576868 L180.143678,13.5576868 C183.84473,13.5576868 188.232029,14.234542 191.850575,13.3798972 C195.373236,12.5478865 200.685937,8.79507217 203,5.93478261 L9,5.93478261 Z" id="Shape" fill="#FFFA00"></path>
            <path d="M6,7.91304348 L6,84.076087 C9.09339666,82.4105068 13.0993272,79.3511986 14.2253274,75.7370676 C15.4767644,71.719884 14.5258641,66.0421237 14.5258641,61.838702 L14.5258641,32.3741669 C14.5258641,27.683135 15.7824167,20.6665729 14.2043325,16.254231 C13.0279231,12.9649882 8.5283983,10.1279426 6,7.91304348 Z" id="Shape" fill="#FFFA00"></path>
            <path d="M206,84.076087 L206,10.8804348 C202.745358,12.0545921 196.215261,14.9880317 194.784814,18.1941664 C193.252606,21.6299593 194.436164,27.5371236 194.436164,31.243135 L194.436164,60.9616705 C194.436164,64.0799153 194.467387,67.1998112 194.433852,70.3175057 C194.417084,71.8986419 193.995004,73.7654062 194.637953,75.2700446 C196.200228,78.9265252 202.174683,82.913762 206,84.076087 Z" id="Shape" fill="#FFFA00"></path>
            <polygon id="Shape" fill="#FFFA00" points="18 16.8152174 18 73.1956522 189 73.1956522 189 16.8152174"></polygon>
            <path d="M142.786285,35.9954227 C141.147207,35.8870914 138.494517,34.5835756 137.012211,35.4795004 C135.192034,36.5794455 136.128341,39.1138816 137.460363,40.1514575 C138.950778,41.3124795 141.034223,41.0509784 142.786285,41.0523831 C142.786285,44.8326296 143.507436,48.558879 143.523113,52.2900729 C143.530141,54.0084843 142.87278,55.6275544 142.812233,57.3470333 C142.753849,59.0085258 142.954409,61.3510222 144.96974,61.5802711 C147.29429,61.8443568 147.670002,59.0680855 148.11437,57.3470333 C149.476664,52.0776244 147.665678,46.9391907 147.651622,41.6142676 C149.593432,41.6142676 156,42.6672392 156,39.3667297 C156,36.0662202 149.593432,37.1191917 147.651622,37.1191917 C147.651622,34.4147293 148.959857,26.3466861 145.865503,25.1297005 C144.503208,24.5938312 143.451214,25.814132 143.06415,27.0381973 C142.22569,29.6905169 142.786285,33.226175 142.786285,35.9954227 Z" id="Shape" fill="#000000"></path>
            <path d="M66.6848771,56.5592279 C63.1895818,57.3501904 59.7038212,58.4170449 56.0306764,58.1470918 C54.3118571,58.0212937 52.2385727,56.3556833 50.5908147,57.0969744 C47.6099425,58.4386411 49.2998213,61.9534299 51.7242057,62.7627492 C55.7616868,64.1108947 60.4974417,62.5867398 64.4633006,62.0192984 C66.86884,61.6753782 69.7488691,61.3163407 71.1560732,59.0811294 C74.3714981,53.9749673 67.6675083,45.103716 63.3197019,42.8224507 C60.4912722,41.3383568 56.1453728,41.4417488 55.551139,37.6600305 C54.5817442,31.4906313 60.8272289,31.7674412 64.918721,29.7996994 C66.1767357,29.1945726 66.8699617,27.7693824 65.7745972,26.6498331 C64.0763055,24.913765 60.292166,26.0461641 58.2719392,26.5157204 C52.1901142,27.9292486 50.3921572,31.509528 50.4203125,37.1226079 C50.4292863,38.9180117 50.3651797,40.8568146 51.4598151,42.4087747 C53.9569433,45.949209 58.2607219,45.7693123 61.5782238,47.9236456 C64.3085026,49.6966973 65.5883909,53.7033946 66.6848771,56.5592279 Z" id="Shape" fill="#000000"></path>
            <path d="M83.8820178,43.190929 C86.1324879,43.190929 89.4388369,43.7928947 91.523407,42.8590035 C93.1518906,42.1293615 93.5957703,39.8625974 92.0261007,38.8054856 C89.9836992,37.4296505 85.704144,38.2401011 83.3271682,38.2401011 C83.3271682,35.4357871 84.1705396,31.0481434 82.9925939,28.4640863 C82.2563084,26.8495663 79.9697731,26.4092726 78.9039069,27.9653729 C77.3497731,30.2332371 79.161912,33.5356044 77.9989472,35.9264142 C76.8276596,38.3331766 71.8023865,34.4213625 72.0060163,38.8003698 C72.1979943,42.9186335 77.7814461,41.6376342 78.711929,44.901055 C79.1524796,46.4462634 78.8639578,48.202047 79.1458214,49.7920329 C79.5103576,51.8518523 80.5407133,53.888953 80.7831826,55.9365604 C80.9707218,57.518625 79.5669522,59.5198596 80.8980365,60.8499821 C82.8377908,62.7885062 85.6519882,60.7086084 86.0192986,58.5439964 C86.877651,53.4815549 83.8964439,48.3425955 83.8820178,43.190929 Z" id="Shape" fill="#000000"></path>
            <path d="M128.178084,39.5998324 C124.368998,40.0617664 119.664732,40.4249582 118.441413,44.7052052 C118.007957,46.2199263 118.20085,47.9489264 118.20085,49.5032617 C118.20085,51.7313041 116.893279,59.8525235 120.950687,59.3230908 C122.792595,59.0826335 123.089695,57.3530469 123.336908,55.8991066 C123.823021,53.0424629 123.379589,49.0890993 124.773076,46.487735 C126.154368,43.9099366 129.679657,45.2657213 131.74051,43.6713453 C135.216467,40.9821154 130.656872,39.2991808 128.178084,39.5998324 Z" id="Shape" fill="#000000"></path>
            <path d="M100.087914,40.5124503 C94.8443101,42.6982532 91.7929537,53.8967001 95.9212925,58.1389155 C97.7340909,60.0022466 102.147298,60.1210403 104.482543,59.291158 C105.807237,58.8204452 106.729962,57.5761795 108.170067,57.4027296 C109.955843,57.187451 111.774271,58.814868 113.478977,57.8996551 C117.922585,55.514859 111.294048,53.0049113 110.502497,51.1727566 C109.621995,49.1333544 110.543032,46.693902 109.983992,44.582164 C108.968937,40.7482529 103.547431,39.0704741 100.087914,40.5124503 Z" id="Shape" fill="#000000"></path>
            <path d="M98,54.9130435 C107.079241,54.4925646 105.955133,49.1651773 105.95627,45.0054348 C98.119344,45.7936841 98.0193224,51.0982839 98,54.9130435 Z" id="Shape" fill="#FFFA00"></path>
            <path d="M12,85.0652174 L200,85.0652174 C197.97316,82.7718236 194.934012,78.9509524 192.054497,77.7724104 C189.22671,76.6156428 184.675219,77.4441606 181.64497,77.4441606 L158.840237,77.4441606 L54.2721893,77.4441606 L30.3550296,77.4441606 C27.0700355,77.4441606 22.3470083,76.6047556 19.252684,77.7724104 C16.4297361,78.8377252 13.693168,82.7124883 12,85.0652174 Z" id="Shape" fill="#FFFA00"></path>
        </g>
    </g>
</svg>