<?xml version="1.0" encoding="UTF-8"?>
<svg width="142px" height="139px" viewBox="0 0 142 139" version="1.1" xmlns="http://www.w3.org/2000/svg" xmlns:xlink="http://www.w3.org/1999/xlink">
    <!-- Generator: Sketch 50.2 (55047) - http://www.bohemiancoding.com/sketch -->
    <title>ThatchedBasketPreview</title>
    <desc>Created with Sketch.</desc>
    <defs></defs>
    <g id="iPhone" stroke="none" stroke-width="1" fill="none" fill-rule="evenodd">
        <g id="ThatchedBasketPreview" transform="translate(1.000000, 0.000000)" fill-rule="nonzero">
            <g id="Group" transform="translate(22.000000, 126.000000)">
                <g id="f9huvPXVS-link" fill="#B9AE42">
                    <path d="M96.7228571,6.07714286 C96.7228571,9.28285714 75.235625,11.88 48.7771429,11.88 C22.3273214,11.88 0.840089286,9.28285714 0.840089286,6.07714286 C0.840089286,2.88 22.3273214,0.282857143 48.7771429,0.282857143 C75.235625,0.282857143 96.7228571,2.88 96.7228571,6.07714286 Z" id="f9huvPXVS"></path>
                </g>
                <g id="f9huvPXVS-link" fill="#000000" fill-opacity="0" stroke="#7D7418">
                    <path d="M96.7228571,6.07714286 C96.7228571,9.28285714 75.235625,11.88 48.7771429,11.88 C22.3273214,11.88 0.840089286,9.28285714 0.840089286,6.07714286 C0.840089286,2.88 22.3273214,0.282857143 48.7771429,0.282857143 C75.235625,0.282857143 96.7228571,2.88 96.7228571,6.07714286 Z" id="f9huvPXVS"></path>
                </g>
            </g>
            <g id="Group" transform="translate(0.000000, 9.000000)">
                <g id="bkX57INCp-link" fill="#B9AE42">
                    <polyline id="bkX57INCp" points="140.282025 0.551111111 118.232393 123.216389 22.4648466 123.216389 0.415214724 0.551111111"></polyline>
                </g>
                <g id="bkX57INCp-link" fill="#000000" fill-opacity="0" stroke="#7D7418">
                    <polyline id="bkX57INCp" points="140.282025 0.551111111 118.232393 123.216389 22.4648466 123.216389 0.415214724 0.551111111"></polyline>
                </g>
            </g>
            <g id="d1yETeKsi0-link" transform="translate(106.000000, 16.000000)" fill="#000000" fill-opacity="0" stroke="#7D7418">
                <path d="M29.4171429,15.2084211 L0.574285714,0.437894737" id="d1yETeKsi0"></path>
            </g>
            <g id="a7shOoWpht-link" transform="translate(80.000000, 17.000000)" fill="#000000" fill-opacity="0" stroke="#7D7418">
                <path d="M52.635082,38.662 L0.338852459,0.156" id="a7shOoWpht"></path>
            </g>
            <g id="bhvSE0O0Z-link" transform="translate(58.000000, 16.000000)" fill="#000000" fill-opacity="0" stroke="#7D7418">
                <path d="M67.3544304,72.3215294 L0.464810127,0.661294118" id="bhvSE0O0Z"></path>
            </g>
            <g id="e2RJK0acKE-link" transform="translate(22.000000, 128.000000)" fill="#B9AE42">
                <polygon id="e2RJK0acKE" points="0.388636364 0.725 94.9568182 0.725 94.9568182 4.73333333 0.388636364 4.73333333"></polygon>
            </g>
            <g id="Group">
                <g id="a10OMsXKhK-link" fill="#8D8427">
                    <path d="M140.282025,9.12 C140.282025,13.7914286 108.941963,17.5885714 70.3442945,17.5885714 C31.7552761,17.5885714 0.415214724,13.7914286 0.415214724,9.12 C0.415214724,4.45714286 31.7552761,0.66 70.3442945,0.66 C108.941963,0.66 140.282025,4.45714286 140.282025,9.12 Z" id="a10OMsXKhK"></path>
                </g>
                <g id="a10OMsXKhK-link" fill="#000000" fill-opacity="0" stroke="#7D7418">
                    <path d="M140.282025,9.12 C140.282025,13.7914286 108.941963,17.5885714 70.3442945,17.5885714 C31.7552761,17.5885714 0.415214724,13.7914286 0.415214724,9.12 C0.415214724,4.45714286 31.7552761,0.66 70.3442945,0.66 C108.941963,0.66 140.282025,4.45714286 140.282025,9.12 Z" id="a10OMsXKhK"></path>
                </g>
            </g>
            <g id="d1IoLKwVyy-link" transform="translate(39.000000, 16.000000)" fill="#000000" fill-opacity="0" stroke="#7D7418">
                <path d="M79.8021505,111.888 L0.369892473,0.663384615" id="d1IoLKwVyy"></path>
            </g>
            <g id="aQneQ2acS-link" transform="translate(21.000000, 15.000000)" fill="#000000" fill-opacity="0" stroke="#7D7418">
                <path d="M57.1949254,122.87958 L0,0.696713287" id="aQneQ2acS"></path>
            </g>
            <g id="b1oKatbHQB-link" transform="translate(7.000000, 13.000000)" fill="#000000" fill-opacity="0" stroke="#7D7418">
                <path d="M29.46,122.535524 L0.617142857,0.0086013986" id="b1oKatbHQB"></path>
            </g>
            <g id="j7CoySD8D-link" transform="translate(2.000000, 13.000000)" fill="#000000" fill-opacity="0" stroke="#7D7418">
                <path d="M0.848571429,8.487 L5.76,0.855" id="j7CoySD8D"></path>
            </g>
            <g id="ecpXwcotK-link" transform="translate(5.000000, 15.000000)" fill="#000000" fill-opacity="0" stroke="#7D7418">
                <path d="M0.693333333,22.8722222 L16,0.69" id="ecpXwcotK"></path>
            </g>
            <g id="fqaVx0dzA-link" transform="translate(13.000000, 17.000000)" fill="#000000" fill-opacity="0" stroke="#7D7418">
                <path d="M0.339677419,64.194 L26.5035484,0.164666667" id="fqaVx0dzA"></path>
            </g>
            <g id="dbSFWGIHD-link" transform="translate(29.000000, 17.000000)" fill="#000000" fill-opacity="0" stroke="#7D7418">
                <path d="M0.490833333,117.250657 L30.8622222,0.447883212" id="dbSFWGIHD"></path>
            </g>
            <g id="b5gvMLanw8-link" transform="translate(62.000000, 17.000000)" fill="#000000" fill-opacity="0" stroke="#7D7418">
                <path d="M0.354090909,120.351786 L18.2831818,0.449428571" id="b5gvMLanw8"></path>
            </g>
            <g id="a4ytaS5bA9-link" transform="translate(88.000000, 16.000000)" fill="#000000" fill-opacity="0" stroke="#7D7418">
                <path d="M0.4725,120.835786 L20.58875,0.0605" id="a4ytaS5bA9"></path>
            </g>
            <g id="a2nWyiNkNL-link" transform="translate(106.000000, 13.000000)" fill="#000000" fill-opacity="0" stroke="#7D7418">
                <path d="M0.583548387,122.535524 L26.703871,0.43006993" id="a2nWyiNkNL"></path>
            </g>
            <g id="da2xAxaKb-link" transform="translate(132.000000, 13.000000)" fill="#000000" fill-opacity="0" stroke="#7D7418">
                <path d="M6.58875,4.31666667 L0.5775,0.308333333" id="da2xAxaKb"></path>
            </g>
        </g>
    </g>
</svg>