<?xml version="1.0" encoding="UTF-8"?>
<svg width="101px" height="100px" viewBox="0 0 101 100" version="1.1" xmlns="http://www.w3.org/2000/svg" xmlns:xlink="http://www.w3.org/1999/xlink">
    <!-- Generator: Sketch 50.2 (55047) - http://www.bohemiancoding.com/sketch -->
    <title>ThatchedBasket</title>
    <desc>Created with Sketch.</desc>
    <defs></defs>
    <g id="iPhone" stroke="none" stroke-width="1" fill="none" fill-rule="evenodd">
        <g id="ThatchedBasket" transform="translate(1.000000, 1.000000)" fill-rule="nonzero">
            <g id="Group" transform="translate(15.337423, 89.425000)">
                <g id="f9huvPXVS-link" fill="#B9AE42">
                    <path d="M68.5153374,4.342625 C68.5153374,6.633375 53.2944785,8.48925 34.5521472,8.48925 C15.8159509,8.48925 0.595092025,6.633375 0.595092025,4.342625 C0.595092025,2.058 15.8159509,0.202125 34.5521472,0.202125 C53.2944785,0.202125 68.5153374,2.058 68.5153374,4.342625 Z" id="f9huvPXVS"></path>
                </g>
                <g id="f9huvPXVS-link" fill="#000000" fill-opacity="0" stroke="#7D7418">
                    <path d="M68.5153374,4.342625 C68.5153374,6.633375 53.2944785,8.48925 34.5521472,8.48925 C15.8159509,8.48925 0.595092025,6.633375 0.595092025,4.342625 C0.595092025,2.058 15.8159509,0.202125 34.5521472,0.202125 C53.2944785,0.202125 68.5153374,2.058 68.5153374,4.342625 Z" id="f9huvPXVS"></path>
                </g>
            </g>
            <g id="Group" transform="translate(0.000000, 6.125000)">
                <g id="bkX57INCp-link" fill="#B9AE42">
                    <polyline id="bkX57INCp" points="99.4907975 0.392 83.8527607 87.642625 15.9325153 87.642625 0.294478528 0.392"></polyline>
                </g>
                <g id="bkX57INCp-link" fill="#000000" fill-opacity="0" stroke="#7D7418">
                    <polyline id="bkX57INCp" points="99.4907975 0.392 83.8527607 87.642625 15.9325153 87.642625 0.294478528 0.392"></polyline>
                </g>
            </g>
            <g id="d1yETeKsi0-link" transform="translate(75.460123, 11.025000)" fill="#000000" fill-opacity="0" stroke="#7D7418">
                <path d="M21.0552147,11.06175 L0.411042945,0.3185" id="d1yETeKsi0"></path>
            </g>
            <g id="a7shOoWpht-link" transform="translate(56.441718, 12.250000)" fill="#000000" fill-opacity="0" stroke="#7D7418">
                <path d="M37.1656442,27.323625 L0.239263804,0.11025" id="a7shOoWpht"></path>
            </g>
            <g id="bhvSE0O0Z-link" transform="translate(41.104294, 11.637500)" fill="#000000" fill-opacity="0" stroke="#7D7418">
                <path d="M48.006135,51.578625 L0.331288344,0.471625" id="bhvSE0O0Z"></path>
            </g>
            <g id="e2RJK0acKE-link" transform="translate(15.950920, 90.650000)" fill="#B9AE42">
                <polygon id="e2RJK0acKE" points="0.27607362 0.532875 67.4539877 0.532875 67.4539877 3.479 0.27607362 3.479"></polygon>
            </g>
            <g id="Group">
                <g id="a10OMsXKhK-link" fill="#8D8427">
                    <path d="M99.4907975,6.517 C99.4907975,9.855125 77.2638037,12.5685 49.8895706,12.5685 C22.5214724,12.5685 0.294478528,9.855125 0.294478528,6.517 C0.294478528,3.185 22.5214724,0.471625 49.8895706,0.471625 C77.2638037,0.471625 99.4907975,3.185 99.4907975,6.517 Z" id="a10OMsXKhK"></path>
                </g>
                <g id="a10OMsXKhK-link" fill="#000000" fill-opacity="0" stroke="#7D7418">
                    <path d="M99.4907975,6.517 C99.4907975,9.855125 77.2638037,12.5685 49.8895706,12.5685 C22.5214724,12.5685 0.294478528,9.855125 0.294478528,6.517 C0.294478528,3.185 22.5214724,0.471625 49.8895706,0.471625 C77.2638037,0.471625 99.4907975,3.185 99.4907975,6.517 Z" id="a10OMsXKhK"></path>
                </g>
            </g>
            <g id="d1IoLKwVyy-link" transform="translate(27.607362, 11.637500)" fill="#000000" fill-opacity="0" stroke="#7D7418">
                <path d="M56.9141104,79.545375 L0.263803681,0.471625" id="d1IoLKwVyy"></path>
            </g>
            <g id="aQneQ2acS-link" transform="translate(14.723926, 10.412500)" fill="#000000" fill-opacity="0" stroke="#7D7418">
                <path d="M40.5337423,87.50175 L0,0.496125" id="aQneQ2acS"></path>
            </g>
            <g id="b1oKatbHQB-link" transform="translate(4.907975, 9.187500)" fill="#000000" fill-opacity="0" stroke="#7D7418">
                <path d="M21.0858896,87.25675 L0.441717791,0.006125" id="b1oKatbHQB"></path>
            </g>
            <g id="j7CoySD8D-link" transform="translate(1.226994, 9.187500)" fill="#000000" fill-opacity="0" stroke="#7D7418">
                <path d="M0.607361963,5.775875 L4.12269939,0.581875" id="j7CoySD8D"></path>
            </g>
            <g id="ecpXwcotK-link" transform="translate(3.680982, 10.412500)" fill="#000000" fill-opacity="0" stroke="#7D7418">
                <path d="M0.478527607,16.445625 L11.0429448,0.496125" id="ecpXwcotK"></path>
            </g>
            <g id="fqaVx0dzA-link" transform="translate(9.202454, 12.250000)" fill="#000000" fill-opacity="0" stroke="#7D7418">
                <path d="M0.239263804,45.367875 L18.6687117,0.116375" id="fqaVx0dzA"></path>
            </g>
            <g id="dbSFWGIHD-link" transform="translate(20.245399, 12.250000)" fill="#000000" fill-opacity="0" stroke="#7D7418">
                <path d="M0.349693252,83.379625 L21.9877301,0.3185" id="dbSFWGIHD"></path>
            </g>
            <g id="b5gvMLanw8-link" transform="translate(44.171779, 12.250000)" fill="#000000" fill-opacity="0" stroke="#7D7418">
                <path d="M0.251533742,85.290625 L12.9877301,0.3185" id="b5gvMLanw8"></path>
            </g>
            <g id="a4ytaS5bA9-link" transform="translate(62.576687, 11.637500)" fill="#000000" fill-opacity="0" stroke="#7D7418">
                <path d="M0.331288344,85.633625 L14.4355828,0.042875" id="a4ytaS5bA9"></path>
            </g>
            <g id="a2nWyiNkNL-link" transform="translate(75.460123, 9.187500)" fill="#000000" fill-opacity="0" stroke="#7D7418">
                <path d="M0.411042945,87.25675 L18.809816,0.30625" id="a2nWyiNkNL"></path>
            </g>
            <g id="da2xAxaKb-link" transform="translate(93.865031, 9.187500)" fill="#000000" fill-opacity="0" stroke="#7D7418">
                <path d="M4.6196319,3.17275 L0.404907975,0.226625" id="da2xAxaKb"></path>
            </g>
        </g>
    </g>
</svg>