<?xml version="1.0" encoding="UTF-8"?>
<svg width="158px" height="150px" viewBox="0 0 158 150" version="1.1" xmlns="http://www.w3.org/2000/svg" xmlns:xlink="http://www.w3.org/1999/xlink">
    <!-- Generator: Sketch 50.2 (55047) - http://www.bohemiancoding.com/sketch -->
    <title>TrashcanBasketPreview</title>
    <desc>Created with Sketch.</desc>
    <defs></defs>
    <g id="iPhone" stroke="none" stroke-width="1" fill="none" fill-rule="evenodd">
        <g id="TrashcanBasketPreview" transform="translate(1.000000, 0.000000)" fill-rule="nonzero">
            <g id="Group" transform="translate(21.000000, 132.000000)">
                <g id="afDb3ZM1g-link" fill="#9F9F9C">
                    <path d="M113.906418,8.636 C113.906418,13.2515 88.460597,17 57.1191045,17 C25.7776119,17 0.331791045,13.2515 0.331791045,8.636 C0.331791045,4.0205 25.7776119,0.272 57.1191045,0.272 C88.460597,0.272 113.906418,4.0205 113.906418,8.636 Z" id="afDb3ZM1g"></path>
                </g>
                <g id="afDb3ZM1g-link" fill="#000000" fill-opacity="0" stroke="#5C5C5A">
                    <path d="M113.906418,8.636 C113.906418,13.2515 88.460597,17 57.1191045,17 C25.7776119,17 0.331791045,13.2515 0.331791045,8.636 C0.331791045,4.0205 25.7776119,0.272 57.1191045,0.272 C88.460597,0.272 113.906418,4.0205 113.906418,8.636 Z" id="afDb3ZM1g"></path>
                </g>
            </g>
            <g id="Group" transform="translate(0.000000, 12.000000)">
                <g id="b5A21IUcAO-link" fill="#9F9F9C">
                    <polyline id="b5A21IUcAO" points="156.465351 0.253246753 134.87573 128.666234 21.8272432 129.265584 0.229135135 0.253246753"></polyline>
                </g>
                <g id="b5A21IUcAO-link" fill="#000000" fill-opacity="0" stroke="#5C5C5A">
                    <polyline id="b5A21IUcAO" points="156.465351 0.253246753 134.87573 128.666234 21.8272432 129.265584 0.229135135 0.253246753"></polyline>
                </g>
            </g>
            <g id="Group">
                <g id="a15LRfZSDp-link" fill="#777771">
                    <path d="M156.465351,12.2571429 C156.465351,18.6942857 121.467081,23.9142857 78.3472432,23.9142857 C35.2358919,23.9142857 0.229135135,18.6942857 0.229135135,12.2571429 C0.229135135,5.82 35.2358919,0.6 78.3472432,0.6 C121.467081,0.6 156.465351,5.82 156.465351,12.2571429 Z" id="a15LRfZSDp"></path>
                </g>
                <g id="a15LRfZSDp-link" fill="#000000" fill-opacity="0" stroke="#5C5C5A">
                    <path d="M156.465351,12.2571429 C156.465351,18.6942857 121.467081,23.9142857 78.3472432,23.9142857 C35.2358919,23.9142857 0.229135135,18.6942857 0.229135135,12.2571429 C0.229135135,5.82 35.2358919,0.6 78.3472432,0.6 C121.467081,0.6 156.465351,5.82 156.465351,12.2571429 Z" id="a15LRfZSDp"></path>
                </g>
            </g>
            <g id="d30VID34y4-link" transform="translate(22.000000, 138.000000)" fill="#9F9F9C">
                <polygon id="d30VID34y4" points="0.586240602 1.328 112.311805 0.704 112.328797 3.304 0.603233083 3.928"></polygon>
            </g>
            <g id="c1TvJLJ47l-link" transform="translate(70.000000, 34.000000)" fill="#838381">
                <path d="M14.8083333,53.9489764 C14.8083333,83.3896063 11.6583333,107.285669 7.76666667,107.285669 C3.88333333,107.285669 0.733333333,83.3896063 0.733333333,53.9489764 C0.733333333,24.5083465 3.88333333,0.612283465 7.76666667,0.612283465 C11.6583333,0.612283465 14.8083333,24.5083465 14.8083333,53.9489764 Z" id="c1TvJLJ47l"></path>
            </g>
            <g id="k3iz7crvmA-link" transform="translate(109.000000, 34.000000)" fill="#838381">
                <path d="M18.8571429,54.7483333 C13.7914286,84.1988095 6.47142857,107.568968 2.53714286,106.906587 C-1.39714286,106.244206 -0.48,81.7870635 4.58571429,52.3365873 C9.65142857,22.8861111 16.9628571,-0.492539683 20.9057143,0.178333333 C24.84,0.840714286 23.9228571,25.2893651 18.8571429,54.7483333 Z" id="k3iz7crvmA"></path>
            </g>
            <g id="c1jCsnYerj-link" transform="translate(22.000000, 34.000000)" fill="#838381">
                <path d="M5.11714286,54.7483333 C10.1828571,84.1988095 17.5028571,107.568968 21.4371429,106.906587 C25.3714286,106.244206 24.4542857,81.7870635 19.3885714,52.3365873 C14.3228571,22.8861111 7.01142857,-0.492539683 3.06857143,0.178333333 C-0.865714286,0.840714286 0.0514285714,25.2893651 5.11714286,54.7483333 Z" id="c1jCsnYerj"></path>
            </g>
        </g>
    </g>
</svg>