<?xml version="1.0" encoding="UTF-8"?>
<svg width="102px" height="97px" viewBox="0 0 102 97" version="1.1" xmlns="http://www.w3.org/2000/svg" xmlns:xlink="http://www.w3.org/1999/xlink">
    <!-- Generator: Sketch 50.2 (55047) - http://www.bohemiancoding.com/sketch -->
    <title>TrashcanBasket</title>
    <desc>Created with Sketch.</desc>
    <defs></defs>
    <g id="iPhone" stroke="none" stroke-width="1" fill="none" fill-rule="evenodd">
        <g id="TrashcanBasket" transform="translate(1.000000, 1.000000)" fill-rule="nonzero">
            <g id="Group" transform="translate(13.513514, 84.204545)">
                <g id="afDb3ZM1g-link" fill="#9F9F9C">
                    <path d="M72.372973,5.48409091 C72.372973,8.41505682 56.2054054,10.7954545 36.2918919,10.7954545 C16.3783784,10.7954545 0.210810811,8.41505682 0.210810811,5.48409091 C0.210810811,2.553125 16.3783784,0.172727273 36.2918919,0.172727273 C56.2054054,0.172727273 72.372973,2.553125 72.372973,5.48409091 Z" id="afDb3ZM1g"></path>
                </g>
                <g id="afDb3ZM1g-link" fill="#000000" fill-opacity="0" stroke="#5C5C5A">
                    <path d="M72.372973,5.48409091 C72.372973,8.41505682 56.2054054,10.7954545 36.2918919,10.7954545 C16.3783784,10.7954545 0.210810811,8.41505682 0.210810811,5.48409091 C0.210810811,2.553125 16.3783784,0.172727273 36.2918919,0.172727273 C56.2054054,0.172727273 72.372973,2.553125 72.372973,5.48409091 Z" id="afDb3ZM1g"></path>
                </g>
            </g>
            <g id="Group" transform="translate(0.000000, 7.556818)">
                <g id="b5A21IUcAO-link" fill="#9F9F9C">
                    <polyline id="b5A21IUcAO" points="99.6594595 0.161931818 85.9081081 82.2721591 13.9027027 82.6553977 0.145945946 0.161931818"></polyline>
                </g>
                <g id="b5A21IUcAO-link" fill="#000000" fill-opacity="0" stroke="#5C5C5A">
                    <polyline id="b5A21IUcAO" points="99.6594595 0.161931818 85.9081081 82.2721591 13.9027027 82.6553977 0.145945946 0.161931818"></polyline>
                </g>
            </g>
            <g id="Group">
                <g id="a15LRfZSDp-link" fill="#777771">
                    <path d="M99.6594595,7.71875 C99.6594595,11.7724432 77.3675676,15.0596591 49.9027027,15.0596591 C22.4432432,15.0596591 0.145945946,11.7724432 0.145945946,7.71875 C0.145945946,3.66505682 22.4432432,0.377840909 49.9027027,0.377840909 C77.3675676,0.377840909 99.6594595,3.66505682 99.6594595,7.71875 Z" id="a15LRfZSDp"></path>
                </g>
                <g id="a15LRfZSDp-link" fill="#000000" fill-opacity="0" stroke="#5C5C5A">
                    <path d="M99.6594595,7.71875 C99.6594595,11.7724432 77.3675676,15.0596591 49.9027027,15.0596591 C22.4432432,15.0596591 0.145945946,11.7724432 0.145945946,7.71875 C0.145945946,3.66505682 22.4432432,0.377840909 49.9027027,0.377840909 C77.3675676,0.377840909 99.6594595,3.66505682 99.6594595,7.71875 Z" id="a15LRfZSDp"></path>
                </g>
            </g>
            <g id="d30VID34y4-link" transform="translate(14.054054, 87.982955)" fill="#9F9F9C">
                <polygon id="d30VID34y4" points="0.372972973 0.896022727 71.4540541 0.475 71.4648649 2.22926136 0.383783784 2.65028409"></polygon>
            </g>
            <g id="c1TvJLJ47l-link" transform="translate(44.864865, 21.590909)" fill="#838381">
                <path d="M9.60540541,34.2431818 C9.60540541,52.9301136 7.56216216,68.0977273 5.03783784,68.0977273 C2.51891892,68.0977273 0.475675676,52.9301136 0.475675676,34.2431818 C0.475675676,15.55625 2.51891892,0.388636364 5.03783784,0.388636364 C7.56216216,0.388636364 9.60540541,15.55625 9.60540541,34.2431818 Z" id="c1TvJLJ47l"></path>
            </g>
            <g id="k3iz7crvmA-link" transform="translate(69.729730, 21.590909)" fill="#838381">
                <path d="M11.8918919,34.7991477 C8.6972973,53.5184659 4.08108108,68.3730114 1.6,67.9519886 C-0.881081081,67.5309659 -0.302702703,51.9855114 2.89189189,33.2661932 C6.08648649,14.546875 10.6972973,-0.313068182 13.1837838,0.113352273 C15.6648649,0.534375 15.0864865,16.0744318 11.8918919,34.7991477 Z" id="k3iz7crvmA"></path>
            </g>
            <g id="c1jCsnYerj-link" transform="translate(14.054054, 21.590909)" fill="#838381">
                <path d="M3.22702703,34.7991477 C6.42162162,53.5184659 11.0378378,68.3730114 13.5189189,67.9519886 C16,67.5309659 15.4216216,51.9855114 12.227027,33.2661932 C9.03243243,14.546875 4.42162162,-0.313068182 1.93513514,0.113352273 C-0.545945946,0.534375 0.0324324324,16.0744318 3.22702703,34.7991477 Z" id="c1jCsnYerj"></path>
            </g>
        </g>
    </g>
</svg>